<?xml version="1.0" encoding="utf-8" standalone="no"?>
<!DOCTYPE svg PUBLIC "-//W3C//DTD SVG 1.1//EN"
  "http://www.w3.org/Graphics/SVG/1.1/DTD/svg11.dtd">
<svg xmlns:xlink="http://www.w3.org/1999/xlink" width="783.36pt" height="590.4pt" viewBox="0 0 783.36 590.4" xmlns="http://www.w3.org/2000/svg" version="1.1">
 <metadata>
  <rdf:RDF xmlns:dc="http://purl.org/dc/elements/1.1/" xmlns:cc="http://creativecommons.org/ns#" xmlns:rdf="http://www.w3.org/1999/02/22-rdf-syntax-ns#">
   <cc:Work>
    <dc:type rdf:resource="http://purl.org/dc/dcmitype/StillImage"/>
    <dc:date>2023-06-03T19:35:19.101404</dc:date>
    <dc:format>image/svg+xml</dc:format>
    <dc:creator>
     <cc:Agent>
      <dc:title>Matplotlib v3.7.1, https://matplotlib.org/</dc:title>
     </cc:Agent>
    </dc:creator>
   </cc:Work>
  </rdf:RDF>
 </metadata>
 <defs>
  <style type="text/css">*{stroke-linejoin: round; stroke-linecap: butt}</style>
 </defs>
 <g id="figure_1">
  <g id="patch_1">
   <path d="M 0 590.4 
L 783.36 590.4 
L 783.36 0 
L 0 0 
z
" style="fill: #ffffff"/>
  </g>
  <g id="axes_1">
   <g id="patch_2">
    <path d="M 62.543 542.771667 
L 765 542.771667 
L 765 45.92 
L 62.543 45.92 
z
" style="fill: #ffffff"/>
   </g>
   <g id="matplotlib.axis_1">
    <g id="xtick_1">
     <g id="line2d_1">
      <path d="M 91.587542 542.771667 
L 91.587542 45.92 
" clip-path="url(#p7685370311)" style="fill: none; stroke: #b0b0b0; stroke-width: 0.8; stroke-linecap: square"/>
     </g>
     <g id="line2d_2">
      <defs>
       <path id="m4af93b4d39" d="M 0 0 
L 0 3.5 
" style="stroke: #000000; stroke-width: 0.8"/>
      </defs>
      <g>
       <use xlink:href="#m4af93b4d39" x="91.587542" y="542.771667" style="stroke: #000000; stroke-width: 0.8"/>
      </g>
     </g>
     <g id="text_1">
      <!-- 0 -->
      <g transform="translate(88.406292 557.370104) scale(0.1 -0.1)">
       <defs>
        <path id="DejaVuSans-30" d="M 2034 4250 
Q 1547 4250 1301 3770 
Q 1056 3291 1056 2328 
Q 1056 1369 1301 889 
Q 1547 409 2034 409 
Q 2525 409 2770 889 
Q 3016 1369 3016 2328 
Q 3016 3291 2770 3770 
Q 2525 4250 2034 4250 
z
M 2034 4750 
Q 2819 4750 3233 4129 
Q 3647 3509 3647 2328 
Q 3647 1150 3233 529 
Q 2819 -91 2034 -91 
Q 1250 -91 836 529 
Q 422 1150 422 2328 
Q 422 3509 836 4129 
Q 1250 4750 2034 4750 
z
" transform="scale(0.015625)"/>
       </defs>
       <use xlink:href="#DejaVuSans-30"/>
      </g>
     </g>
    </g>
    <g id="xtick_2">
     <g id="line2d_3">
      <path d="M 171.863768 542.771667 
L 171.863768 45.92 
" clip-path="url(#p7685370311)" style="fill: none; stroke: #b0b0b0; stroke-width: 0.8; stroke-linecap: square"/>
     </g>
     <g id="line2d_4">
      <g>
       <use xlink:href="#m4af93b4d39" x="171.863768" y="542.771667" style="stroke: #000000; stroke-width: 0.8"/>
      </g>
     </g>
     <g id="text_2">
      <!-- 25 -->
      <g transform="translate(165.501268 557.370104) scale(0.1 -0.1)">
       <defs>
        <path id="DejaVuSans-32" d="M 1228 531 
L 3431 531 
L 3431 0 
L 469 0 
L 469 531 
Q 828 903 1448 1529 
Q 2069 2156 2228 2338 
Q 2531 2678 2651 2914 
Q 2772 3150 2772 3378 
Q 2772 3750 2511 3984 
Q 2250 4219 1831 4219 
Q 1534 4219 1204 4116 
Q 875 4013 500 3803 
L 500 4441 
Q 881 4594 1212 4672 
Q 1544 4750 1819 4750 
Q 2544 4750 2975 4387 
Q 3406 4025 3406 3419 
Q 3406 3131 3298 2873 
Q 3191 2616 2906 2266 
Q 2828 2175 2409 1742 
Q 1991 1309 1228 531 
z
" transform="scale(0.015625)"/>
        <path id="DejaVuSans-35" d="M 691 4666 
L 3169 4666 
L 3169 4134 
L 1269 4134 
L 1269 2991 
Q 1406 3038 1543 3061 
Q 1681 3084 1819 3084 
Q 2600 3084 3056 2656 
Q 3513 2228 3513 1497 
Q 3513 744 3044 326 
Q 2575 -91 1722 -91 
Q 1428 -91 1123 -41 
Q 819 9 494 109 
L 494 744 
Q 775 591 1075 516 
Q 1375 441 1709 441 
Q 2250 441 2565 725 
Q 2881 1009 2881 1497 
Q 2881 1984 2565 2268 
Q 2250 2553 1709 2553 
Q 1456 2553 1204 2497 
Q 953 2441 691 2322 
L 691 4666 
z
" transform="scale(0.015625)"/>
       </defs>
       <use xlink:href="#DejaVuSans-32"/>
       <use xlink:href="#DejaVuSans-35" x="63.623047"/>
      </g>
     </g>
    </g>
    <g id="xtick_3">
     <g id="line2d_5">
      <path d="M 252.139993 542.771667 
L 252.139993 45.92 
" clip-path="url(#p7685370311)" style="fill: none; stroke: #b0b0b0; stroke-width: 0.8; stroke-linecap: square"/>
     </g>
     <g id="line2d_6">
      <g>
       <use xlink:href="#m4af93b4d39" x="252.139993" y="542.771667" style="stroke: #000000; stroke-width: 0.8"/>
      </g>
     </g>
     <g id="text_3">
      <!-- 50 -->
      <g transform="translate(245.777493 557.370104) scale(0.1 -0.1)">
       <use xlink:href="#DejaVuSans-35"/>
       <use xlink:href="#DejaVuSans-30" x="63.623047"/>
      </g>
     </g>
    </g>
    <g id="xtick_4">
     <g id="line2d_7">
      <path d="M 332.416219 542.771667 
L 332.416219 45.92 
" clip-path="url(#p7685370311)" style="fill: none; stroke: #b0b0b0; stroke-width: 0.8; stroke-linecap: square"/>
     </g>
     <g id="line2d_8">
      <g>
       <use xlink:href="#m4af93b4d39" x="332.416219" y="542.771667" style="stroke: #000000; stroke-width: 0.8"/>
      </g>
     </g>
     <g id="text_4">
      <!-- 75 -->
      <g transform="translate(326.053719 557.370104) scale(0.1 -0.1)">
       <defs>
        <path id="DejaVuSans-37" d="M 525 4666 
L 3525 4666 
L 3525 4397 
L 1831 0 
L 1172 0 
L 2766 4134 
L 525 4134 
L 525 4666 
z
" transform="scale(0.015625)"/>
       </defs>
       <use xlink:href="#DejaVuSans-37"/>
       <use xlink:href="#DejaVuSans-35" x="63.623047"/>
      </g>
     </g>
    </g>
    <g id="xtick_5">
     <g id="line2d_9">
      <path d="M 412.692444 542.771667 
L 412.692444 45.92 
" clip-path="url(#p7685370311)" style="fill: none; stroke: #b0b0b0; stroke-width: 0.8; stroke-linecap: square"/>
     </g>
     <g id="line2d_10">
      <g>
       <use xlink:href="#m4af93b4d39" x="412.692444" y="542.771667" style="stroke: #000000; stroke-width: 0.8"/>
      </g>
     </g>
     <g id="text_5">
      <!-- 100 -->
      <g transform="translate(403.148694 557.370104) scale(0.1 -0.1)">
       <defs>
        <path id="DejaVuSans-31" d="M 794 531 
L 1825 531 
L 1825 4091 
L 703 3866 
L 703 4441 
L 1819 4666 
L 2450 4666 
L 2450 531 
L 3481 531 
L 3481 0 
L 794 0 
L 794 531 
z
" transform="scale(0.015625)"/>
       </defs>
       <use xlink:href="#DejaVuSans-31"/>
       <use xlink:href="#DejaVuSans-30" x="63.623047"/>
       <use xlink:href="#DejaVuSans-30" x="127.246094"/>
      </g>
     </g>
    </g>
    <g id="xtick_6">
     <g id="line2d_11">
      <path d="M 492.96867 542.771667 
L 492.96867 45.92 
" clip-path="url(#p7685370311)" style="fill: none; stroke: #b0b0b0; stroke-width: 0.8; stroke-linecap: square"/>
     </g>
     <g id="line2d_12">
      <g>
       <use xlink:href="#m4af93b4d39" x="492.96867" y="542.771667" style="stroke: #000000; stroke-width: 0.8"/>
      </g>
     </g>
     <g id="text_6">
      <!-- 125 -->
      <g transform="translate(483.42492 557.370104) scale(0.1 -0.1)">
       <use xlink:href="#DejaVuSans-31"/>
       <use xlink:href="#DejaVuSans-32" x="63.623047"/>
       <use xlink:href="#DejaVuSans-35" x="127.246094"/>
      </g>
     </g>
    </g>
    <g id="xtick_7">
     <g id="line2d_13">
      <path d="M 573.244895 542.771667 
L 573.244895 45.92 
" clip-path="url(#p7685370311)" style="fill: none; stroke: #b0b0b0; stroke-width: 0.8; stroke-linecap: square"/>
     </g>
     <g id="line2d_14">
      <g>
       <use xlink:href="#m4af93b4d39" x="573.244895" y="542.771667" style="stroke: #000000; stroke-width: 0.8"/>
      </g>
     </g>
     <g id="text_7">
      <!-- 150 -->
      <g transform="translate(563.701145 557.370104) scale(0.1 -0.1)">
       <use xlink:href="#DejaVuSans-31"/>
       <use xlink:href="#DejaVuSans-35" x="63.623047"/>
       <use xlink:href="#DejaVuSans-30" x="127.246094"/>
      </g>
     </g>
    </g>
    <g id="xtick_8">
     <g id="line2d_15">
      <path d="M 653.521121 542.771667 
L 653.521121 45.92 
" clip-path="url(#p7685370311)" style="fill: none; stroke: #b0b0b0; stroke-width: 0.8; stroke-linecap: square"/>
     </g>
     <g id="line2d_16">
      <g>
       <use xlink:href="#m4af93b4d39" x="653.521121" y="542.771667" style="stroke: #000000; stroke-width: 0.8"/>
      </g>
     </g>
     <g id="text_8">
      <!-- 175 -->
      <g transform="translate(643.977371 557.370104) scale(0.1 -0.1)">
       <use xlink:href="#DejaVuSans-31"/>
       <use xlink:href="#DejaVuSans-37" x="63.623047"/>
       <use xlink:href="#DejaVuSans-35" x="127.246094"/>
      </g>
     </g>
    </g>
    <g id="xtick_9">
     <g id="line2d_17">
      <path d="M 733.797346 542.771667 
L 733.797346 45.92 
" clip-path="url(#p7685370311)" style="fill: none; stroke: #b0b0b0; stroke-width: 0.8; stroke-linecap: square"/>
     </g>
     <g id="line2d_18">
      <g>
       <use xlink:href="#m4af93b4d39" x="733.797346" y="542.771667" style="stroke: #000000; stroke-width: 0.8"/>
      </g>
     </g>
     <g id="text_9">
      <!-- 200 -->
      <g transform="translate(724.253596 557.370104) scale(0.1 -0.1)">
       <use xlink:href="#DejaVuSans-32"/>
       <use xlink:href="#DejaVuSans-30" x="63.623047"/>
       <use xlink:href="#DejaVuSans-30" x="127.246094"/>
      </g>
     </g>
    </g>
   </g>
   <g id="matplotlib.axis_2">
    <g id="ytick_1">
     <g id="line2d_19">
      <path d="M 62.543 520.1875 
L 765 520.1875 
" clip-path="url(#p7685370311)" style="fill: none; stroke: #b0b0b0; stroke-width: 0.8; stroke-linecap: square"/>
     </g>
     <g id="line2d_20">
      <defs>
       <path id="m42c77a474a" d="M 0 0 
L -3.5 0 
" style="stroke: #000000; stroke-width: 0.8"/>
      </defs>
      <g>
       <use xlink:href="#m42c77a474a" x="62.543" y="520.1875" style="stroke: #000000; stroke-width: 0.8"/>
      </g>
     </g>
     <g id="text_10">
      <!-- 0 -->
      <g transform="translate(49.1805 523.986719) scale(0.1 -0.1)">
       <use xlink:href="#DejaVuSans-30"/>
      </g>
     </g>
    </g>
    <g id="ytick_2">
     <g id="line2d_21">
      <path d="M 62.543 460.755482 
L 765 460.755482 
" clip-path="url(#p7685370311)" style="fill: none; stroke: #b0b0b0; stroke-width: 0.8; stroke-linecap: square"/>
     </g>
     <g id="line2d_22">
      <g>
       <use xlink:href="#m42c77a474a" x="62.543" y="460.755482" style="stroke: #000000; stroke-width: 0.8"/>
      </g>
     </g>
     <g id="text_11">
      <!-- 25 -->
      <g transform="translate(42.818 464.554701) scale(0.1 -0.1)">
       <use xlink:href="#DejaVuSans-32"/>
       <use xlink:href="#DejaVuSans-35" x="63.623047"/>
      </g>
     </g>
    </g>
    <g id="ytick_3">
     <g id="line2d_23">
      <path d="M 62.543 401.323465 
L 765 401.323465 
" clip-path="url(#p7685370311)" style="fill: none; stroke: #b0b0b0; stroke-width: 0.8; stroke-linecap: square"/>
     </g>
     <g id="line2d_24">
      <g>
       <use xlink:href="#m42c77a474a" x="62.543" y="401.323465" style="stroke: #000000; stroke-width: 0.8"/>
      </g>
     </g>
     <g id="text_12">
      <!-- 50 -->
      <g transform="translate(42.818 405.122684) scale(0.1 -0.1)">
       <use xlink:href="#DejaVuSans-35"/>
       <use xlink:href="#DejaVuSans-30" x="63.623047"/>
      </g>
     </g>
    </g>
    <g id="ytick_4">
     <g id="line2d_25">
      <path d="M 62.543 341.891447 
L 765 341.891447 
" clip-path="url(#p7685370311)" style="fill: none; stroke: #b0b0b0; stroke-width: 0.8; stroke-linecap: square"/>
     </g>
     <g id="line2d_26">
      <g>
       <use xlink:href="#m42c77a474a" x="62.543" y="341.891447" style="stroke: #000000; stroke-width: 0.8"/>
      </g>
     </g>
     <g id="text_13">
      <!-- 75 -->
      <g transform="translate(42.818 345.690666) scale(0.1 -0.1)">
       <use xlink:href="#DejaVuSans-37"/>
       <use xlink:href="#DejaVuSans-35" x="63.623047"/>
      </g>
     </g>
    </g>
    <g id="ytick_5">
     <g id="line2d_27">
      <path d="M 62.543 282.45943 
L 765 282.45943 
" clip-path="url(#p7685370311)" style="fill: none; stroke: #b0b0b0; stroke-width: 0.8; stroke-linecap: square"/>
     </g>
     <g id="line2d_28">
      <g>
       <use xlink:href="#m42c77a474a" x="62.543" y="282.45943" style="stroke: #000000; stroke-width: 0.8"/>
      </g>
     </g>
     <g id="text_14">
      <!-- 100 -->
      <g transform="translate(36.4555 286.258649) scale(0.1 -0.1)">
       <use xlink:href="#DejaVuSans-31"/>
       <use xlink:href="#DejaVuSans-30" x="63.623047"/>
       <use xlink:href="#DejaVuSans-30" x="127.246094"/>
      </g>
     </g>
    </g>
    <g id="ytick_6">
     <g id="line2d_29">
      <path d="M 62.543 223.027412 
L 765 223.027412 
" clip-path="url(#p7685370311)" style="fill: none; stroke: #b0b0b0; stroke-width: 0.8; stroke-linecap: square"/>
     </g>
     <g id="line2d_30">
      <g>
       <use xlink:href="#m42c77a474a" x="62.543" y="223.027412" style="stroke: #000000; stroke-width: 0.8"/>
      </g>
     </g>
     <g id="text_15">
      <!-- 125 -->
      <g transform="translate(36.4555 226.826631) scale(0.1 -0.1)">
       <use xlink:href="#DejaVuSans-31"/>
       <use xlink:href="#DejaVuSans-32" x="63.623047"/>
       <use xlink:href="#DejaVuSans-35" x="127.246094"/>
      </g>
     </g>
    </g>
    <g id="ytick_7">
     <g id="line2d_31">
      <path d="M 62.543 163.595395 
L 765 163.595395 
" clip-path="url(#p7685370311)" style="fill: none; stroke: #b0b0b0; stroke-width: 0.8; stroke-linecap: square"/>
     </g>
     <g id="line2d_32">
      <g>
       <use xlink:href="#m42c77a474a" x="62.543" y="163.595395" style="stroke: #000000; stroke-width: 0.8"/>
      </g>
     </g>
     <g id="text_16">
      <!-- 150 -->
      <g transform="translate(36.4555 167.394613) scale(0.1 -0.1)">
       <use xlink:href="#DejaVuSans-31"/>
       <use xlink:href="#DejaVuSans-35" x="63.623047"/>
       <use xlink:href="#DejaVuSans-30" x="127.246094"/>
      </g>
     </g>
    </g>
    <g id="ytick_8">
     <g id="line2d_33">
      <path d="M 62.543 104.163377 
L 765 104.163377 
" clip-path="url(#p7685370311)" style="fill: none; stroke: #b0b0b0; stroke-width: 0.8; stroke-linecap: square"/>
     </g>
     <g id="line2d_34">
      <g>
       <use xlink:href="#m42c77a474a" x="62.543" y="104.163377" style="stroke: #000000; stroke-width: 0.8"/>
      </g>
     </g>
     <g id="text_17">
      <!-- 175 -->
      <g transform="translate(36.4555 107.962596) scale(0.1 -0.1)">
       <use xlink:href="#DejaVuSans-31"/>
       <use xlink:href="#DejaVuSans-37" x="63.623047"/>
       <use xlink:href="#DejaVuSans-35" x="127.246094"/>
      </g>
     </g>
    </g>
   </g>
   <g id="line2d_35">
    <path d="M 94.472864 517.810219 
L 94.472864 520.1875 
L 97.437378 517.810219 
L 97.683913 520.1875 
L 103.703886 517.810219 
L 103.703886 520.1875 
L 103.981563 517.810219 
L 105.47333 515.432939 
L 106.914935 517.810219 
L 107.192612 515.432939 
L 108.610545 513.055658 
L 110.125984 515.432939 
L 110.168316 513.055658 
L 111.302327 510.678377 
L 111.489803 508.301096 
L 112.54275 505.923816 
L 113.337033 508.301096 
L 115.87633 505.923816 
L 116.548082 508.301096 
L 119.087379 505.923816 
L 119.759131 508.301096 
L 122.134149 505.923816 
L 122.97018 508.301096 
L 124.864197 505.923816 
L 126.181229 508.301096 
L 128.075246 503.546535 
L 129.392278 505.923816 
L 129.588825 503.546535 
L 131.286295 501.169254 
L 132.284285 498.791974 
L 132.603327 501.169254 
L 134.497344 498.791974 
L 135.814376 501.169254 
L 137.708393 498.791974 
L 138.091047 496.414693 
L 138.327654 494.037412 
L 139.025425 496.414693 
L 139.649251 494.037412 
L 139.941974 491.660132 
L 140.919442 489.282851 
L 142.236474 491.660132 
L 143.296276 489.282851 
L 144.130491 486.90557 
L 145.447523 489.282851 
L 147.34154 486.90557 
L 148.658572 489.282851 
L 150.552589 486.90557 
L 151.869621 489.282851 
L 153.411626 486.90557 
L 153.763638 484.528289 
L 155.08067 486.90557 
L 156.974687 484.528289 
L 158.291719 486.90557 
L 159.965031 484.528289 
L 160.185736 482.151009 
L 161.502768 484.528289 
L 162.025591 482.151009 
L 163.396785 479.773728 
L 164.713818 482.151009 
L 166.607834 479.773728 
L 167.180093 477.396447 
L 167.924867 479.773728 
L 171.135916 482.151009 
L 172.362733 479.773728 
L 174.346965 482.151009 
L 174.72274 479.773728 
L 177.558014 482.151009 
L 178.370296 479.773728 
L 178.438421 477.396447 
L 178.774485 475.019167 
L 180.769063 477.396447 
L 181.64947 475.019167 
L 182.869303 472.641886 
L 183.366148 470.264605 
L 183.980112 472.641886 
L 185.295505 470.264605 
L 185.841336 467.887325 
L 187.191161 470.264605 
L 188.575373 467.887325 
L 190.40221 470.264605 
L 190.405407 467.887325 
L 191.786422 465.510044 
L 192.774607 463.132763 
L 193.134072 460.755482 
L 193.613259 463.132763 
L 194.853799 460.755482 
L 195.840492 458.378202 
L 196.50262 456.000921 
L 196.824308 458.378202 
L 200.035357 460.755482 
L 200.670565 458.378202 
L 200.790303 456.000921 
L 202.746096 453.62364 
L 203.212591 451.24636 
L 203.246406 453.62364 
L 203.2735 451.24636 
L 204.531495 446.491798 
L 206.457455 448.869079 
L 207.509937 446.491798 
L 207.618537 444.114518 
L 208.425929 441.737237 
L 209.668504 444.114518 
L 209.99471 441.737237 
L 210.720986 439.359956 
L 212.879553 441.737237 
L 213.932035 439.359956 
L 216.090602 441.737237 
L 217.143084 439.359956 
L 219.235836 436.982675 
L 219.301651 439.359956 
L 220.354133 436.982675 
L 221.155228 434.605395 
L 222.5127 436.982675 
L 222.58581 434.605395 
L 224.430661 429.850833 
L 225.723749 432.228114 
L 226.776231 429.850833 
L 228.934798 432.228114 
L 229.98728 429.850833 
L 231.900689 427.473553 
L 232.145847 429.850833 
L 233.198329 427.473553 
L 235.356896 429.850833 
L 235.42935 427.473553 
L 236.409378 425.096272 
L 238.567945 427.473553 
L 238.829319 425.096272 
L 239.620428 422.718991 
L 241.778994 425.096272 
L 242.395502 422.718991 
L 242.831477 420.341711 
L 242.838718 417.96443 
L 244.990043 420.341711 
L 247.299003 417.96443 
L 247.454132 415.587149 
L 248.201092 417.96443 
L 248.750725 415.587149 
L 250.665181 413.209868 
L 251.412141 415.587149 
L 251.462224 413.209868 
L 253.87623 410.832588 
L 254.62319 413.209868 
L 257.087279 410.832588 
L 257.834239 413.209868 
L 260.298328 410.832588 
L 261.045288 413.209868 
L 263.509378 410.832588 
L 264.256337 413.209868 
L 265.765831 410.832588 
L 266.518185 408.455307 
L 266.720427 406.078026 
L 267.467386 408.455307 
L 269.754984 406.078026 
L 269.931476 403.700746 
L 270.678435 406.078026 
L 273.142525 403.700746 
L 273.154659 401.323465 
L 273.889484 403.700746 
L 275.954423 401.323465 
L 276.353574 398.946184 
L 276.892308 396.568904 
L 277.100533 398.946184 
L 278.610427 396.568904 
L 279.564623 394.191623 
L 280.311582 396.568904 
L 280.626778 394.191623 
L 282.693991 391.814342 
L 282.775672 389.437061 
L 283.522631 391.814342 
L 283.593974 389.437061 
L 285.986721 387.059781 
L 286.730732 384.6825 
L 286.73368 387.059781 
L 288.055294 384.6825 
L 289.19777 382.305219 
L 289.944729 384.6825 
L 291.484926 382.305219 
L 291.962449 379.927939 
L 292.70415 377.550658 
L 293.155778 379.927939 
L 295.915199 377.550658 
L 296.366827 379.927939 
L 296.800329 377.550658 
L 298.277456 375.173377 
L 299.126248 372.796096 
L 299.577876 375.173377 
L 301.76552 372.796096 
L 302.337297 370.418816 
L 302.788925 372.796096 
L 305.548346 370.418816 
L 305.999974 372.796096 
L 307.28959 370.418816 
L 308.759395 368.041535 
L 309.211023 370.418816 
L 310.885368 368.041535 
L 311.209796 365.664254 
L 311.970444 363.286974 
L 312.422072 365.664254 
L 315.181493 363.286974 
L 315.633121 365.664254 
L 318.392542 363.286974 
L 318.84417 365.664254 
L 321.603591 363.286974 
L 322.05522 365.664254 
L 322.684763 363.286974 
L 324.81464 360.909693 
L 325.266269 363.286974 
L 328.477318 365.664254 
L 329.445053 363.286974 
L 329.629133 360.909693 
L 330.147034 358.532412 
L 331.688367 360.909693 
L 332.610523 358.532412 
L 333.358083 356.155132 
L 334.536982 353.777851 
L 334.899416 356.155132 
L 336.569132 353.777851 
L 338.110465 356.155132 
L 338.853419 353.777851 
L 339.046617 349.023289 
L 340.918268 346.646009 
L 341.321514 349.023289 
L 344.532563 351.40057 
L 346.545372 349.023289 
L 347.743612 351.40057 
L 349.756421 349.023289 
L 350.954661 351.40057 
L 352.96747 349.023289 
L 353.41429 346.646009 
L 354.16571 349.023289 
L 356.178519 344.268728 
L 357.376759 346.646009 
L 359.389568 344.268728 
L 360.587808 346.646009 
L 362.600617 344.268728 
L 363.172013 341.891447 
L 363.798857 344.268728 
L 365.811666 341.891447 
L 365.846315 339.514167 
L 367.009906 341.891447 
L 369.022715 339.514167 
L 370.220955 341.891447 
L 372.233764 339.514167 
L 372.278818 337.136886 
L 372.595589 334.759605 
L 373.432004 337.136886 
L 375.444813 334.759605 
L 376.643053 337.136886 
L 378.655862 334.759605 
L 379.854102 337.136886 
L 380.752632 334.759605 
L 381.031256 332.382325 
L 381.866911 330.005044 
L 383.065151 332.382325 
L 385.07796 330.005044 
L 386.2762 332.382325 
L 388.289009 330.005044 
L 389.487249 332.382325 
L 389.538147 330.005044 
L 389.991966 327.627763 
L 391.500058 325.250482 
L 392.698298 327.627763 
L 393.337175 325.250482 
L 394.711107 322.873202 
L 395.909347 325.250482 
L 397.382884 322.873202 
L 398.479953 318.11864 
L 399.120396 320.495921 
L 399.467407 318.11864 
L 400.117164 315.74136 
L 401.133205 313.364079 
L 402.331445 315.74136 
L 402.952935 313.364079 
L 403.018159 310.986798 
L 403.596958 308.609518 
L 404.344254 306.232237 
L 405.542494 308.609518 
L 407.555303 306.232237 
L 408.753543 308.609518 
L 409.266839 306.232237 
L 410.766352 303.854956 
L 411.964592 306.232237 
L 411.97402 303.854956 
L 413.977401 301.477675 
L 415.175641 303.854956 
L 417.18845 299.100395 
L 418.064295 296.723114 
L 418.38669 299.100395 
L 418.982722 296.723114 
L 420.399499 294.345833 
L 421.597739 296.723114 
L 423.513591 294.345833 
L 423.610548 291.968553 
L 424.808788 294.345833 
L 426.269933 291.968553 
L 426.821597 289.591272 
L 427.889405 287.213991 
L 428.019837 289.591272 
L 430.032646 287.213991 
L 431.230886 289.591272 
L 433.243695 287.213991 
L 434.441935 289.591272 
L 435.968898 284.836711 
L 436.454744 282.45943 
L 437.652984 284.836711 
L 439.665793 282.45943 
L 440.864033 284.836711 
L 442.876842 282.45943 
L 444.075082 284.836711 
L 445.769924 282.45943 
L 446.087891 280.082149 
L 447.286131 282.45943 
L 447.672869 280.082149 
L 449.29894 277.704868 
L 450.49718 280.082149 
L 452.509989 277.704868 
L 453.68864 275.327588 
L 453.708229 277.704868 
L 455.721038 275.327588 
L 456.919278 277.704868 
L 457.549087 275.327588 
L 457.945737 272.950307 
L 458.932087 270.573026 
L 459.079302 268.195746 
L 460.130327 270.573026 
L 462.143136 268.195746 
L 463.341376 270.573026 
L 463.757218 268.195746 
L 465.354185 265.818465 
L 465.461394 263.441184 
L 466.552425 265.818465 
L 467.083034 263.441184 
L 468.565235 261.063904 
L 469.763474 263.441184 
L 471.776284 261.063904 
L 472.974523 263.441184 
L 473.920961 261.063904 
L 474.987333 258.686623 
L 476.185573 261.063904 
L 478.198382 258.686623 
L 479.396622 261.063904 
L 480.776006 258.686623 
L 481.409431 256.309342 
L 482.607671 258.686623 
L 484.563063 256.309342 
L 484.62048 253.932061 
L 485.81872 256.309342 
L 487.414029 253.932061 
L 487.831529 251.554781 
L 489.029769 253.932061 
L 490.87501 251.554781 
L 491.042578 249.1775 
L 492.240818 251.554781 
L 493.321404 249.1775 
L 494.162883 246.800219 
L 494.253627 244.422939 
L 495.451867 246.800219 
L 497.464676 244.422939 
L 497.479245 242.045658 
L 498.662916 244.422939 
L 499.09219 242.045658 
L 500.675725 239.668377 
L 500.862749 237.291096 
L 501.873965 239.668377 
L 503.886774 237.291096 
L 503.959657 234.913816 
L 505.085014 237.291096 
L 506.027909 234.913816 
L 507.180441 232.536535 
L 507.897648 230.159254 
L 508.296063 232.536535 
L 510.646191 230.159254 
L 511.108697 227.781974 
L 511.507112 230.159254 
L 511.746296 227.781974 
L 514.319746 225.404693 
L 514.718161 227.781974 
L 514.836529 225.404693 
L 516.634592 223.027412 
L 517.530795 220.650132 
L 517.92921 223.027412 
L 520.741844 220.650132 
L 521.140259 223.027412 
L 523.401709 220.650132 
L 523.952893 218.272851 
L 524.351308 220.650132 
L 526.271517 218.272851 
L 527.163942 215.89557 
L 527.562357 218.272851 
L 530.374991 213.518289 
L 530.773406 215.89557 
L 533.58604 213.518289 
L 533.984455 215.89557 
L 536.797089 213.518289 
L 537.195504 215.89557 
L 540.008138 213.518289 
L 540.164491 211.141009 
L 540.406553 213.518289 
L 540.653513 211.141009 
L 542.124728 208.763728 
L 542.453285 206.386447 
L 543.219187 204.009167 
L 543.617602 206.386447 
L 544.291487 204.009167 
L 546.430236 201.631886 
L 546.828651 204.009167 
L 549.641285 201.631886 
L 550.0397 204.009167 
L 552.852334 201.631886 
L 553.250749 204.009167 
L 556.063383 201.631886 
L 556.461798 204.009167 
L 557.578197 201.631886 
L 559.274432 199.254605 
L 559.672847 201.631886 
L 560.050952 199.254605 
L 561.958551 196.877325 
L 562.297678 194.500044 
L 562.485481 192.122763 
L 562.883896 194.500044 
L 565.69653 192.122763 
L 566.094945 194.500044 
L 568.907579 192.122763 
L 569.305994 194.500044 
L 570.387217 192.122763 
L 572.118628 189.745482 
L 572.517043 192.122763 
L 575.329677 189.745482 
L 575.728092 192.122763 
L 576.814461 187.368202 
L 578.540726 184.990921 
L 578.939141 187.368202 
L 581.751775 184.990921 
L 582.15019 187.368202 
L 584.360996 184.990921 
L 584.962824 182.61364 
L 585.361239 184.990921 
L 588.173873 182.61364 
L 588.572288 184.990921 
L 590.866289 182.61364 
L 590.989217 180.23636 
L 591.384922 177.859079 
L 591.558618 175.481798 
L 591.783337 177.859079 
L 594.595971 175.481798 
L 594.628273 173.104518 
L 594.994386 175.481798 
L 597.80702 173.104518 
L 598.205435 175.481798 
L 599.47639 173.104518 
L 601.018069 170.727237 
L 601.416484 173.104518 
L 604.229118 170.727237 
L 604.627533 173.104518 
L 605.904867 170.727237 
L 607.440167 168.349956 
L 607.606732 165.972675 
L 607.838582 168.349956 
L 608.090929 165.972675 
L 609.769891 163.595395 
L 610.651216 161.218114 
L 611.049631 163.595395 
L 613.608503 161.218114 
L 613.862265 158.840833 
L 614.26068 161.218114 
L 615.108938 158.840833 
L 617.049372 156.463553 
L 617.073314 154.086272 
L 617.471729 156.463553 
L 618.798935 154.086272 
L 620.284363 151.708991 
L 620.682778 154.086272 
L 622.91015 151.708991 
L 623.495412 149.331711 
L 623.893827 151.708991 
L 624.370895 149.331711 
L 626.706461 146.95443 
L 627.104876 149.331711 
L 629.91751 146.95443 
L 630.315925 149.331711 
L 633.128559 146.95443 
L 633.526975 149.331711 
L 636.28376 146.95443 
L 636.339608 144.577149 
L 636.738024 146.95443 
L 637.7167 144.577149 
L 639.550657 142.199868 
L 639.949073 144.577149 
L 642.761706 142.199868 
L 643.160122 144.577149 
L 645.972755 142.199868 
L 646.371171 144.577149 
L 647.583954 139.822588 
L 648.915295 137.445307 
L 649.183804 135.068026 
L 649.58222 137.445307 
L 651.279048 135.068026 
L 651.45845 132.690746 
L 652.174961 130.313465 
L 652.394853 127.936184 
L 652.793269 130.313465 
L 652.810201 127.936184 
L 655.605902 125.558904 
L 656.004318 127.936184 
L 657.878561 125.558904 
L 658.816952 123.181623 
L 659.215367 125.558904 
L 659.238945 123.181623 
L 662.028001 120.804342 
L 662.426416 123.181623 
L 665.23905 120.804342 
L 665.637465 123.181623 
L 668.450099 120.804342 
L 668.501358 118.427061 
L 668.848514 120.804342 
L 671.510557 118.427061 
L 671.661148 116.049781 
L 672.059563 118.427061 
L 674.426074 116.049781 
L 674.529973 113.6725 
L 674.872197 111.295219 
L 675.270612 113.6725 
L 678.083246 111.295219 
L 678.481661 113.6725 
L 679.445547 111.295219 
L 679.611503 108.917939 
L 681.294295 106.540658 
L 681.69271 108.917939 
L 682.375971 106.540658 
L 683.248311 104.163377 
L 684.505344 101.786096 
L 684.903759 104.163377 
L 687.716393 101.786096 
L 688.114808 104.163377 
L 690.927442 101.786096 
L 691.325857 104.163377 
L 694.138491 101.786096 
L 694.536906 104.163377 
L 697.34954 101.786096 
L 697.747955 104.163377 
L 698.915446 101.786096 
L 700.560589 99.408816 
L 700.959004 101.786096 
L 701.378576 99.408816 
L 703.771638 97.031535 
L 704.170053 99.408816 
L 706.982687 97.031535 
L 707.381102 99.408816 
L 707.791593 97.031535 
L 710.193736 94.654254 
L 710.592151 97.031535 
L 711.997378 94.654254 
L 713.197946 92.276974 
L 713.404785 89.899693 
L 713.8032 92.276974 
L 715.79241 89.899693 
L 716.615834 87.522412 
L 717.014249 89.899693 
L 717.423189 87.522412 
L 719.754013 80.39057 
L 719.826883 78.013289 
L 720.225298 80.39057 
L 720.54669 78.013289 
L 723.037932 75.636009 
L 723.253536 73.258728 
L 723.436347 75.636009 
L 726.248981 73.258728 
L 726.647396 75.636009 
L 727.573513 73.258728 
L 729.46003 70.881447 
L 729.505534 68.504167 
L 729.858445 70.881447 
L 733.069494 73.258728 
L 733.069494 73.258728 
" clip-path="url(#p7685370311)" style="fill: none; stroke: #1f77b4; stroke-width: 1.5; stroke-linecap: square"/>
   </g>
   <g id="line2d_36">
    <path d="M 100.770193 517.810219 
L 100.770193 520.1875 
L 103.981242 517.810219 
L 103.981242 520.1875 
L 109.33138 517.810219 
L 109.33138 520.1875 
L 112.66496 517.810219 
L 112.66496 520.1875 
L 115.876009 517.810219 
L 115.876009 520.1875 
L 121.652826 517.810219 
L 121.652826 520.1875 
L 124.863875 517.810219 
L 124.863875 520.1875 
L 128.074924 517.810219 
L 128.074924 520.1875 
L 131.285973 517.810219 
L 131.285973 520.1875 
L 134.497022 517.810219 
L 134.497022 520.1875 
L 137.708072 517.810219 
L 137.708072 520.1875 
L 140.919121 517.810219 
L 140.919121 520.1875 
L 144.13017 517.810219 
L 144.13017 520.1875 
L 147.341219 517.810219 
L 147.341219 520.1875 
L 150.552268 517.810219 
L 150.552268 520.1875 
L 153.763317 517.810219 
L 153.763317 520.1875 
L 156.974366 517.810219 
L 156.974366 520.1875 
L 160.185415 517.810219 
L 160.185415 520.1875 
L 163.396464 517.810219 
L 163.396464 520.1875 
L 175.227051 517.810219 
L 175.227051 520.1875 
L 178.4381 517.810219 
L 178.4381 520.1875 
L 182.084135 517.810219 
L 182.084135 520.1875 
L 185.364003 517.810219 
L 185.364003 520.1875 
L 188.575052 517.810219 
L 188.575052 520.1875 
L 197.459195 517.810219 
L 197.459195 520.1875 
L 200.670244 517.810219 
L 200.670244 520.1875 
L 204.298567 517.810219 
L 204.298567 520.1875 
L 207.509616 517.810219 
L 207.509616 520.1875 
L 210.720665 517.810219 
L 210.720665 520.1875 
L 213.931714 517.810219 
L 213.931714 520.1875 
L 217.142763 517.810219 
L 217.142763 520.1875 
L 220.353812 517.810219 
L 220.353812 520.1875 
L 223.564861 517.810219 
L 223.564861 520.1875 
L 226.77591 517.810219 
L 226.77591 520.1875 
L 229.986959 517.810219 
L 229.986959 520.1875 
L 233.198008 517.810219 
L 233.198008 520.1875 
L 236.409057 517.810219 
L 236.409057 520.1875 
L 239.620106 517.810219 
L 239.620106 520.1875 
L 244.242762 517.810219 
L 244.242762 520.1875 
L 247.453811 517.810219 
L 247.453811 520.1875 
L 250.66486 517.810219 
L 250.66486 520.1875 
L 253.875909 517.810219 
L 253.875909 520.1875 
L 257.086958 517.810219 
L 257.086958 520.1875 
L 260.298007 517.810219 
L 260.298007 520.1875 
L 263.509056 517.810219 
L 263.509056 520.1875 
L 266.720105 517.810219 
L 266.720105 520.1875 
L 269.931154 517.810219 
L 269.931154 520.1875 
L 273.142203 517.810219 
L 273.142203 520.1875 
L 276.353252 517.810219 
L 276.353252 520.1875 
L 279.564302 517.810219 
L 279.564302 520.1875 
L 282.775351 517.810219 
L 282.775351 520.1875 
L 285.9864 517.810219 
L 285.9864 520.1875 
L 289.49278 517.810219 
L 289.49278 520.1875 
L 292.703829 517.810219 
L 292.703829 520.1875 
L 295.914878 517.810219 
L 295.914878 520.1875 
L 299.125927 517.810219 
L 299.125927 520.1875 
L 302.336976 517.810219 
L 302.336976 520.1875 
L 305.548025 517.810219 
L 305.548025 520.1875 
L 308.759074 517.810219 
L 308.759074 520.1875 
L 311.970123 517.810219 
L 311.970123 520.1875 
L 315.181172 517.810219 
L 315.181172 520.1875 
L 318.392221 517.810219 
L 318.392221 520.1875 
L 321.60327 517.810219 
L 321.60327 520.1875 
L 326.935664 517.810219 
L 326.935664 520.1875 
L 330.146713 517.810219 
L 330.146713 520.1875 
L 333.357762 517.810219 
L 333.357762 520.1875 
L 343.334002 517.810219 
L 343.334002 520.1875 
L 346.545051 517.810219 
L 346.545051 520.1875 
L 349.7561 517.810219 
L 349.7561 520.1875 
L 352.967149 517.810219 
L 352.967149 520.1875 
L 356.178198 517.810219 
L 356.178198 520.1875 
L 359.389247 517.810219 
L 359.389247 520.1875 
L 362.600296 517.810219 
L 362.600296 520.1875 
L 365.811345 517.810219 
L 365.811345 520.1875 
L 369.022394 517.810219 
L 369.022394 520.1875 
L 372.233443 517.810219 
L 372.233443 520.1875 
L 375.444492 517.810219 
L 375.444492 520.1875 
L 378.655541 517.810219 
L 378.655541 520.1875 
L 381.86659 517.810219 
L 381.86659 520.1875 
L 385.077639 517.810219 
L 385.077639 520.1875 
L 388.288688 517.810219 
L 388.288688 520.1875 
L 391.499737 517.810219 
L 391.499737 520.1875 
L 394.710786 517.810219 
L 394.710786 520.1875 
L 397.921835 517.810219 
L 397.921835 520.1875 
L 401.132884 517.810219 
L 401.132884 520.1875 
L 404.343933 517.810219 
L 404.343933 520.1875 
L 407.554982 517.810219 
L 407.554982 520.1875 
L 410.766031 517.810219 
L 410.766031 520.1875 
L 413.97708 517.810219 
L 413.97708 520.1875 
L 417.188129 517.810219 
L 417.188129 520.1875 
L 420.399178 517.810219 
L 420.399178 520.1875 
L 423.610227 517.810219 
L 423.610227 520.1875 
L 426.821276 517.810219 
L 426.821276 520.1875 
L 430.032325 517.810219 
L 430.032325 520.1875 
L 433.243374 517.810219 
L 433.243374 520.1875 
L 436.454423 517.810219 
L 436.454423 520.1875 
L 439.665472 517.810219 
L 439.665472 520.1875 
L 442.876521 517.810219 
L 442.876521 520.1875 
L 446.08757 517.810219 
L 446.08757 520.1875 
L 449.298619 517.810219 
L 449.298619 520.1875 
L 452.509668 517.810219 
L 452.509668 520.1875 
L 455.720717 517.810219 
L 455.720717 520.1875 
L 458.931766 517.810219 
L 458.931766 520.1875 
L 462.142815 517.810219 
L 462.142815 520.1875 
L 465.353864 517.810219 
L 465.353864 520.1875 
L 468.564913 517.810219 
L 468.564913 520.1875 
L 471.775962 517.810219 
L 471.775962 520.1875 
L 474.987011 517.810219 
L 474.987011 520.1875 
L 478.19806 517.810219 
L 478.19806 520.1875 
L 481.409109 517.810219 
L 481.409109 520.1875 
L 484.620159 517.810219 
L 484.620159 520.1875 
L 487.831208 517.810219 
L 487.831208 520.1875 
L 491.042257 517.810219 
L 491.042257 520.1875 
L 494.253306 517.810219 
L 494.253306 520.1875 
L 497.464355 517.810219 
L 497.464355 520.1875 
L 500.675404 517.810219 
L 500.675404 520.1875 
L 504.686277 517.810219 
L 504.686277 520.1875 
L 507.897326 517.810219 
L 507.897326 520.1875 
L 511.108375 517.810219 
L 511.108375 520.1875 
L 514.319424 517.810219 
L 514.319424 520.1875 
L 517.530473 517.810219 
L 517.530473 520.1875 
L 520.741523 517.810219 
L 520.741523 520.1875 
L 523.952572 517.810219 
L 523.952572 520.1875 
L 527.163621 517.810219 
L 527.163621 520.1875 
L 530.37467 517.810219 
L 530.37467 520.1875 
L 533.585719 517.810219 
L 533.585719 520.1875 
L 536.796768 517.810219 
L 536.796768 520.1875 
L 540.007817 517.810219 
L 540.007817 520.1875 
L 543.218866 517.810219 
L 543.218866 520.1875 
L 546.429915 517.810219 
L 546.429915 520.1875 
L 549.640964 517.810219 
L 549.640964 520.1875 
L 552.852013 517.810219 
L 552.852013 520.1875 
L 556.063062 517.810219 
L 556.063062 520.1875 
L 559.274111 517.810219 
L 559.274111 520.1875 
L 562.48516 517.810219 
L 562.48516 520.1875 
L 565.696209 517.810219 
L 565.696209 520.1875 
L 568.907258 517.810219 
L 568.907258 520.1875 
L 572.118307 517.810219 
L 572.118307 520.1875 
L 575.329356 517.810219 
L 575.329356 520.1875 
L 578.540405 517.810219 
L 578.540405 520.1875 
L 581.751454 517.810219 
L 581.751454 520.1875 
L 584.962503 517.810219 
L 584.962503 520.1875 
L 588.173552 517.810219 
L 588.173552 520.1875 
L 591.384601 517.810219 
L 591.384601 520.1875 
L 594.59565 517.810219 
L 594.59565 520.1875 
L 597.806699 517.810219 
L 597.806699 520.1875 
L 601.017748 517.810219 
L 601.017748 520.1875 
L 604.228797 517.810219 
L 604.228797 520.1875 
L 607.439846 517.810219 
L 607.439846 520.1875 
L 610.650895 517.810219 
L 610.650895 520.1875 
L 613.861944 517.810219 
L 613.861944 520.1875 
L 617.072993 517.810219 
L 617.072993 520.1875 
L 620.284042 517.810219 
L 620.284042 520.1875 
L 623.495091 517.810219 
L 623.495091 520.1875 
L 626.70614 517.810219 
L 626.70614 520.1875 
L 629.917189 517.810219 
L 629.917189 520.1875 
L 633.128238 517.810219 
L 633.128238 520.1875 
L 636.339287 517.810219 
L 636.339287 520.1875 
L 639.550336 517.810219 
L 639.550336 520.1875 
L 642.761385 517.810219 
L 642.761385 520.1875 
L 645.972434 517.810219 
L 645.972434 520.1875 
L 649.183483 517.810219 
L 649.183483 520.1875 
L 652.394532 517.810219 
L 652.394532 520.1875 
L 655.605581 517.810219 
L 655.605581 520.1875 
L 658.81663 517.810219 
L 658.81663 520.1875 
L 662.027679 517.810219 
L 662.027679 520.1875 
L 665.238728 517.810219 
L 665.238728 520.1875 
L 668.449777 517.810219 
L 668.449777 520.1875 
L 671.660826 517.810219 
L 671.660826 520.1875 
L 674.871876 517.810219 
L 674.871876 520.1875 
L 678.082925 517.810219 
L 678.082925 520.1875 
L 681.293974 517.810219 
L 681.293974 520.1875 
L 684.505023 517.810219 
L 684.505023 520.1875 
L 687.716072 517.810219 
L 687.716072 520.1875 
L 690.927121 517.810219 
L 690.927121 520.1875 
L 694.13817 517.810219 
L 694.13817 520.1875 
L 697.349219 517.810219 
L 697.349219 520.1875 
L 700.560268 517.810219 
L 700.560268 520.1875 
L 703.771317 517.810219 
L 703.771317 520.1875 
L 706.982366 517.810219 
L 706.982366 520.1875 
L 710.193415 517.810219 
L 710.193415 520.1875 
L 713.404464 517.810219 
L 713.404464 520.1875 
L 716.615513 517.810219 
L 716.615513 520.1875 
L 719.826562 517.810219 
L 719.826562 520.1875 
L 723.037611 517.810219 
L 723.037611 520.1875 
L 726.24866 517.810219 
L 726.24866 520.1875 
L 732.670221 517.810219 
L 732.670221 520.1875 
L 732.670221 520.1875 
" clip-path="url(#p7685370311)" style="fill: none; stroke: #ff7f0e; stroke-width: 1.5; stroke-linecap: square"/>
   </g>
   <g id="line2d_37">
    <path d="M 97.558822 517.810219 
L 97.558822 520.1875 
L 100.086564 517.810219 
L 100.769871 520.1875 
L 106.12001 517.810219 
L 106.12001 520.1875 
L 109.45359 517.810219 
L 109.45359 520.1875 
L 111.30161 517.810219 
L 112.664639 520.1875 
L 118.441456 517.810219 
L 118.441456 520.1875 
L 119.463713 517.810219 
L 121.016584 515.432939 
L 121.652505 517.810219 
L 123.101988 515.432939 
L 124.863554 517.810219 
L 128.074603 520.1875 
L 128.47154 517.810219 
L 130.571189 515.432939 
L 131.285652 517.810219 
L 132.173091 515.432939 
L 134.496701 517.810219 
L 137.70775 520.1875 
L 140.516212 517.810219 
L 140.5818 515.432939 
L 140.918799 517.810219 
L 142.056468 515.432939 
L 144.129848 517.810219 
L 147.340897 520.1875 
L 147.796179 517.810219 
L 150.551946 520.1875 
L 152.631326 517.810219 
L 153.116936 515.432939 
L 153.762996 517.810219 
L 156.974045 520.1875 
L 159.668485 517.810219 
L 160.185094 520.1875 
L 172.015681 517.810219 
L 172.015681 520.1875 
L 174.003093 517.810219 
L 175.22673 520.1875 
L 178.872765 517.810219 
L 178.872765 520.1875 
L 182.152633 517.810219 
L 182.152633 520.1875 
L 184.953699 517.810219 
L 185.363682 520.1875 
L 194.247825 517.810219 
L 194.247825 520.1875 
L 196.308338 517.810219 
L 197.458874 520.1875 
L 201.087197 517.810219 
L 201.087197 520.1875 
L 201.870849 517.810219 
L 204.298246 520.1875 
L 204.569205 517.810219 
L 205.089833 515.432939 
L 207.509295 517.810219 
L 208.130686 515.432939 
L 210.720344 517.810219 
L 211.211841 515.432939 
L 213.931393 517.810219 
L 217.142442 520.1875 
L 218.690096 517.810219 
L 220.353491 520.1875 
L 222.367194 517.810219 
L 223.56454 520.1875 
L 225.416067 517.810219 
L 226.775589 520.1875 
L 229.256828 517.810219 
L 229.592579 515.432939 
L 229.792034 513.055658 
L 229.986638 515.432939 
L 236.408736 520.1875 
L 241.031392 517.810219 
L 241.031392 520.1875 
L 241.633226 517.810219 
L 242.391698 515.432939 
L 243.81549 513.055658 
L 244.242441 515.432939 
L 245.032355 513.055658 
L 247.45349 515.432939 
L 248.038095 513.055658 
L 249.300399 510.678377 
L 249.426218 508.301096 
L 250.664539 510.678377 
L 251.280034 508.301096 
L 253.875588 510.678377 
L 254.509935 508.301096 
L 257.086637 510.678377 
L 263.508735 515.432939 
L 264.762644 513.055658 
L 265.108265 510.678377 
L 266.719784 513.055658 
L 268.504998 510.678377 
L 269.069865 508.301096 
L 269.930833 510.678377 
L 282.775029 520.1875 
L 286.28141 517.810219 
L 286.28141 520.1875 
L 286.83733 517.810219 
L 287.21288 515.432939 
L 289.492459 517.810219 
L 292.044623 513.055658 
L 292.703508 515.432939 
L 292.747459 513.055658 
L 302.336655 520.1875 
L 302.38335 515.432939 
L 302.711342 513.055658 
L 305.547704 515.432939 
L 305.842442 513.055658 
L 308.758753 515.432939 
L 311.68597 513.055658 
L 311.969802 515.432939 
L 318.3919 520.1875 
L 323.724294 517.810219 
L 323.724294 520.1875 
L 325.754758 517.810219 
L 326.935343 520.1875 
L 328.042899 517.810219 
L 330.146392 520.1875 
L 340.122631 517.810219 
L 340.122631 520.1875 
L 341.190017 517.810219 
L 341.601214 515.432939 
L 343.031477 513.055658 
L 343.333681 515.432939 
L 344.159121 513.055658 
L 346.264433 510.678377 
L 346.54473 513.055658 
L 346.670273 510.678377 
L 349.755779 513.055658 
L 350.417162 510.678377 
L 351.646033 508.301096 
L 352.966828 510.678377 
L 356.177877 513.055658 
L 358.467063 510.678377 
L 358.679947 508.301096 
L 359.388926 510.678377 
L 359.464713 508.301096 
L 362.599975 510.678377 
L 363.251148 508.301096 
L 365.811024 510.678377 
L 365.935898 508.301096 
L 366.926233 505.923816 
L 369.022073 508.301096 
L 369.210085 505.923816 
L 371.588699 503.546535 
L 372.233122 505.923816 
L 378.65522 510.678377 
L 379.570026 508.301096 
L 381.866269 510.678377 
L 382.324771 508.301096 
L 383.369455 505.923816 
L 384.601085 503.546535 
L 384.631271 501.169254 
L 385.077318 503.546535 
L 388.166142 501.169254 
L 388.288367 503.546535 
L 391.499416 505.923816 
L 394.098001 503.546535 
L 394.710465 505.923816 
L 397.921514 508.301096 
L 400.01045 505.923816 
L 401.132563 508.301096 
L 401.639094 505.923816 
L 404.223338 503.546535 
L 404.343612 505.923816 
L 405.705978 503.546535 
L 405.721091 501.169254 
L 406.229534 498.791974 
L 407.554661 501.169254 
L 409.866478 498.791974 
L 410.76571 501.169254 
L 410.877064 498.791974 
L 413.976759 501.169254 
L 414.783333 498.791974 
L 415.876203 496.414693 
L 417.187808 498.791974 
L 423.609906 503.546535 
L 426.392848 501.169254 
L 426.820955 503.546535 
L 429.271846 501.169254 
L 430.032004 503.546535 
L 431.998735 501.169254 
L 433.243053 503.546535 
L 435.269698 501.169254 
L 436.454102 503.546535 
L 439.665151 505.923816 
L 442.403066 503.546535 
L 442.8762 505.923816 
L 446.062403 503.546535 
L 446.087249 505.923816 
L 447.977407 503.546535 
L 449.298298 505.923816 
L 458.931445 513.055658 
L 460.317489 510.678377 
L 462.142494 513.055658 
L 465.353543 515.432939 
L 465.715013 513.055658 
L 468.564592 515.432939 
L 469.328348 513.055658 
L 470.251238 510.678377 
L 471.775641 513.055658 
L 474.253087 508.301096 
L 474.98669 510.678377 
L 484.619837 517.810219 
L 485.056245 515.432939 
L 487.830886 517.810219 
L 489.204629 515.432939 
L 491.041935 517.810219 
L 491.438875 515.432939 
L 494.252984 517.810219 
L 497.464033 520.1875 
L 501.474907 517.810219 
L 501.474907 520.1875 
L 504.468899 517.810219 
L 504.531128 515.432939 
L 504.685956 517.810219 
L 506.570554 515.432939 
L 507.897005 517.810219 
L 510.613405 515.432939 
L 511.108054 517.810219 
L 511.704085 515.432939 
L 513.257063 513.055658 
L 514.319103 515.432939 
L 517.530152 517.810219 
L 517.697877 515.432939 
L 518.165322 513.055658 
L 518.513872 510.678377 
L 519.651303 508.301096 
L 519.962527 505.923816 
L 520.741201 508.301096 
L 522.672294 505.923816 
L 523.95225 508.301096 
L 524.075612 505.923816 
L 526.652646 503.546535 
L 526.762475 501.169254 
L 527.163299 503.546535 
L 530.163006 501.169254 
L 530.374348 503.546535 
L 533.553391 501.169254 
L 533.585397 503.546535 
L 534.796485 501.169254 
L 536.609477 498.791974 
L 536.796447 501.169254 
L 537.412501 498.791974 
L 540.007496 501.169254 
L 543.218545 503.546535 
L 544.697196 501.169254 
L 546.429594 503.546535 
L 549.640643 505.923816 
L 551.841506 503.546535 
L 552.809848 501.169254 
L 552.851692 503.546535 
L 556.062741 505.923816 
L 558.078851 503.546535 
L 559.27379 505.923816 
L 561.98676 503.546535 
L 562.323541 501.169254 
L 562.484839 503.546535 
L 563.718246 501.169254 
L 565.695888 503.546535 
L 567.74043 501.169254 
L 568.906937 503.546535 
L 569.77451 501.169254 
L 572.117986 503.546535 
L 591.38428 517.810219 
L 591.498511 515.432939 
L 593.778092 513.055658 
L 594.364232 510.678377 
L 594.595329 513.055658 
L 594.788681 510.678377 
L 597.806378 513.055658 
L 600.838069 510.678377 
L 601.017427 513.055658 
L 604.228476 515.432939 
L 606.125764 513.055658 
L 607.439525 515.432939 
L 608.829085 513.055658 
L 608.937576 510.678377 
L 609.16773 508.301096 
L 610.650574 510.678377 
L 620.283721 517.810219 
L 622.171986 515.432939 
L 622.33868 513.055658 
L 623.49477 515.432939 
L 626.705819 517.810219 
L 628.801792 515.432939 
L 628.855634 513.055658 
L 629.916868 515.432939 
L 633.127917 517.810219 
L 635.074079 515.432939 
L 635.916431 513.055658 
L 635.954267 510.678377 
L 636.338966 513.055658 
L 639.550015 515.432939 
L 640.603205 513.055658 
L 642.761064 515.432939 
L 644.807426 513.055658 
L 645.972113 515.432939 
L 649.183162 517.810219 
L 649.258876 515.432939 
L 651.418179 513.055658 
L 652.394211 515.432939 
L 652.747486 513.055658 
L 652.807518 510.678377 
L 653.409651 508.301096 
L 655.408841 505.923816 
L 655.60526 508.301096 
L 656.222861 505.923816 
L 658.816309 508.301096 
L 662.027358 510.678377 
L 662.889098 508.301096 
L 665.238407 510.678377 
L 668.449456 513.055658 
L 671.341282 510.678377 
L 671.660505 513.055658 
L 674.871554 515.432939 
L 675.254898 513.055658 
L 675.83275 510.678377 
L 678.058648 508.301096 
L 678.082603 510.678377 
L 681.178125 508.301096 
L 681.293652 510.678377 
L 684.504701 513.055658 
L 685.034502 510.678377 
L 687.71575 513.055658 
L 690.9268 515.432939 
L 693.772884 513.055658 
L 694.137849 515.432939 
L 694.771417 513.055658 
L 697.348898 515.432939 
L 697.827789 513.055658 
L 700.559947 515.432939 
L 701.477456 513.055658 
L 703.770996 515.432939 
L 704.339716 513.055658 
L 706.982045 515.432939 
L 708.802038 513.055658 
L 710.193094 515.432939 
L 716.615192 520.1875 
L 719.520308 517.810219 
L 719.826241 520.1875 
L 720.181887 517.810219 
L 723.03729 520.1875 
L 729.458851 517.810219 
L 729.458851 520.1875 
L 731.623883 517.810219 
L 732.452375 515.432939 
L 732.6699 517.810219 
L 732.6699 517.810219 
" clip-path="url(#p7685370311)" style="fill: none; stroke: #2ca02c; stroke-width: 1.5; stroke-linecap: square"/>
   </g>
   <g id="line2d_38">
    <path d="M 100.895604 517.810219 
L 100.895604 520.1875 
L 104.106653 517.810219 
L 104.106653 520.1875 
L 110.126626 517.810219 
L 110.126626 520.1875 
L 113.337675 517.810219 
L 113.337675 520.1875 
L 116.548724 517.810219 
L 116.548724 520.1875 
L 119.759773 517.810219 
L 119.759773 520.1875 
L 122.970822 517.810219 
L 122.970822 520.1875 
L 126.181871 517.810219 
L 126.181871 520.1875 
L 129.39292 517.810219 
L 129.39292 520.1875 
L 132.60397 517.810219 
L 132.60397 520.1875 
L 135.815019 517.810219 
L 135.815019 520.1875 
L 139.026068 517.810219 
L 139.026068 520.1875 
L 142.237117 517.810219 
L 142.237117 520.1875 
L 145.448166 517.810219 
L 145.448166 520.1875 
L 148.659215 517.810219 
L 148.659215 520.1875 
L 151.870264 517.810219 
L 151.870264 520.1875 
L 155.081313 517.810219 
L 155.081313 520.1875 
L 158.292362 517.810219 
L 158.292362 520.1875 
L 161.503411 517.810219 
L 161.503411 520.1875 
L 164.71446 517.810219 
L 164.71446 520.1875 
L 167.925509 517.810219 
L 167.925509 520.1875 
L 171.136558 517.810219 
L 171.136558 520.1875 
L 174.347607 517.810219 
L 174.347607 520.1875 
L 177.558656 517.810219 
L 177.558656 520.1875 
L 180.769705 517.810219 
L 180.769705 520.1875 
L 183.980754 517.810219 
L 183.980754 520.1875 
L 187.191803 517.810219 
L 187.191803 520.1875 
L 190.402852 517.810219 
L 190.402852 520.1875 
L 193.613901 517.810219 
L 193.613901 520.1875 
L 196.82495 517.810219 
L 196.82495 520.1875 
L 200.035999 517.810219 
L 200.035999 520.1875 
L 203.247048 517.810219 
L 203.247048 520.1875 
L 206.458097 517.810219 
L 206.458097 520.1875 
L 209.669146 517.810219 
L 209.669146 520.1875 
L 212.880195 517.810219 
L 212.880195 520.1875 
L 216.091244 517.810219 
L 216.091244 520.1875 
L 219.302293 517.810219 
L 219.302293 520.1875 
L 222.513342 517.810219 
L 222.513342 520.1875 
L 225.724391 517.810219 
L 225.724391 520.1875 
L 228.93544 517.810219 
L 228.93544 520.1875 
L 232.146489 517.810219 
L 232.146489 520.1875 
L 235.357538 517.810219 
L 235.357538 520.1875 
L 238.568587 517.810219 
L 238.568587 520.1875 
L 241.779636 517.810219 
L 241.779636 520.1875 
L 244.990685 517.810219 
L 244.990685 520.1875 
L 248.201734 517.810219 
L 248.201734 520.1875 
L 251.412783 517.810219 
L 251.412783 520.1875 
L 254.623832 517.810219 
L 254.623832 520.1875 
L 257.834881 517.810219 
L 257.834881 520.1875 
L 261.04593 517.810219 
L 261.04593 520.1875 
L 264.256979 517.810219 
L 264.256979 520.1875 
L 267.468028 517.810219 
L 267.468028 520.1875 
L 270.679077 517.810219 
L 270.679077 520.1875 
L 273.890126 517.810219 
L 273.890126 520.1875 
L 277.101175 517.810219 
L 277.101175 520.1875 
L 280.312224 517.810219 
L 280.312224 520.1875 
L 283.523273 517.810219 
L 283.523273 520.1875 
L 286.734322 517.810219 
L 286.734322 520.1875 
L 289.945372 517.810219 
L 289.945372 520.1875 
L 293.156421 517.810219 
L 293.156421 520.1875 
L 296.36747 517.810219 
L 296.36747 520.1875 
L 299.578519 517.810219 
L 299.578519 520.1875 
L 302.789568 517.810219 
L 302.789568 520.1875 
L 306.000617 517.810219 
L 306.000617 520.1875 
L 309.211666 517.810219 
L 309.211666 520.1875 
L 312.422715 517.810219 
L 312.422715 520.1875 
L 315.633764 517.810219 
L 315.633764 520.1875 
L 318.844813 517.810219 
L 318.844813 520.1875 
L 322.055862 517.810219 
L 322.055862 520.1875 
L 325.266911 517.810219 
L 325.266911 520.1875 
L 328.47796 517.810219 
L 328.47796 520.1875 
L 331.689009 517.810219 
L 331.689009 520.1875 
L 334.900058 517.810219 
L 334.900058 520.1875 
L 338.111107 517.810219 
L 338.111107 520.1875 
L 341.322156 517.810219 
L 341.322156 520.1875 
L 344.533205 517.810219 
L 344.533205 520.1875 
L 347.744254 517.810219 
L 347.744254 520.1875 
L 350.955303 517.810219 
L 350.955303 520.1875 
L 354.166352 517.810219 
L 354.166352 520.1875 
L 357.377401 517.810219 
L 357.377401 520.1875 
L 360.58845 517.810219 
L 360.58845 520.1875 
L 363.799499 517.810219 
L 363.799499 520.1875 
L 367.010548 517.810219 
L 367.010548 520.1875 
L 370.221597 517.810219 
L 370.221597 520.1875 
L 373.432646 517.810219 
L 373.432646 520.1875 
L 376.643695 517.810219 
L 376.643695 520.1875 
L 379.854744 517.810219 
L 379.854744 520.1875 
L 383.065793 517.810219 
L 383.065793 520.1875 
L 386.276842 517.810219 
L 386.276842 520.1875 
L 389.487891 517.810219 
L 389.487891 520.1875 
L 392.69894 517.810219 
L 392.69894 520.1875 
L 395.909989 517.810219 
L 395.909989 520.1875 
L 399.121038 517.810219 
L 399.121038 520.1875 
L 402.332087 517.810219 
L 402.332087 520.1875 
L 405.543136 517.810219 
L 405.543136 520.1875 
L 408.754185 517.810219 
L 408.754185 520.1875 
L 411.965234 517.810219 
L 411.965234 520.1875 
L 415.176283 517.810219 
L 415.176283 520.1875 
L 418.387332 517.810219 
L 418.387332 520.1875 
L 421.598381 517.810219 
L 421.598381 520.1875 
L 424.80943 517.810219 
L 424.80943 520.1875 
L 428.020479 517.810219 
L 428.020479 520.1875 
L 431.231528 517.810219 
L 431.231528 520.1875 
L 434.442577 517.810219 
L 434.442577 520.1875 
L 437.653626 517.810219 
L 437.653626 520.1875 
L 440.864675 517.810219 
L 440.864675 520.1875 
L 444.075725 517.810219 
L 444.075725 520.1875 
L 447.286774 517.810219 
L 447.286774 520.1875 
L 450.497823 517.810219 
L 450.497823 520.1875 
L 453.708872 517.810219 
L 453.708872 520.1875 
L 456.919921 517.810219 
L 456.919921 520.1875 
L 460.13097 517.810219 
L 460.13097 520.1875 
L 463.342019 517.810219 
L 463.342019 520.1875 
L 466.553068 517.810219 
L 466.553068 520.1875 
L 469.764117 517.810219 
L 469.764117 520.1875 
L 472.975166 517.810219 
L 472.975166 520.1875 
L 476.186215 517.810219 
L 476.186215 520.1875 
L 479.397264 517.810219 
L 479.397264 520.1875 
L 482.608313 517.810219 
L 482.608313 520.1875 
L 485.819362 517.810219 
L 485.819362 520.1875 
L 489.030411 517.810219 
L 489.030411 520.1875 
L 492.24146 517.810219 
L 492.24146 520.1875 
L 495.452509 517.810219 
L 495.452509 520.1875 
L 498.663558 517.810219 
L 498.663558 520.1875 
L 501.874607 517.810219 
L 501.874607 520.1875 
L 505.085656 517.810219 
L 505.085656 520.1875 
L 508.296705 517.810219 
L 508.296705 520.1875 
L 511.507754 517.810219 
L 511.507754 520.1875 
L 514.718803 517.810219 
L 514.718803 520.1875 
L 517.929852 517.810219 
L 517.929852 520.1875 
L 521.140901 517.810219 
L 521.140901 520.1875 
L 524.35195 517.810219 
L 524.35195 520.1875 
L 527.562999 517.810219 
L 527.562999 520.1875 
L 530.774048 517.810219 
L 530.774048 520.1875 
L 533.985097 517.810219 
L 533.985097 520.1875 
L 537.196146 517.810219 
L 537.196146 520.1875 
L 540.407195 517.810219 
L 540.407195 520.1875 
L 543.618244 517.810219 
L 543.618244 520.1875 
L 546.829293 517.810219 
L 546.829293 520.1875 
L 550.040342 517.810219 
L 550.040342 520.1875 
L 553.251391 517.810219 
L 553.251391 520.1875 
L 556.46244 517.810219 
L 556.46244 520.1875 
L 559.673489 517.810219 
L 559.673489 520.1875 
L 562.884538 517.810219 
L 562.884538 520.1875 
L 566.095587 517.810219 
L 566.095587 520.1875 
L 569.306636 517.810219 
L 569.306636 520.1875 
L 572.517685 517.810219 
L 572.517685 520.1875 
L 575.728734 517.810219 
L 575.728734 520.1875 
L 578.939783 517.810219 
L 578.939783 520.1875 
L 582.150832 517.810219 
L 582.150832 520.1875 
L 585.361881 517.810219 
L 585.361881 520.1875 
L 588.57293 517.810219 
L 588.57293 520.1875 
L 591.783979 517.810219 
L 591.783979 520.1875 
L 594.995028 517.810219 
L 594.995028 520.1875 
L 598.206077 517.810219 
L 598.206077 520.1875 
L 601.417127 517.810219 
L 601.417127 520.1875 
L 604.628176 517.810219 
L 604.628176 520.1875 
L 607.839225 517.810219 
L 607.839225 520.1875 
L 611.050274 517.810219 
L 611.050274 520.1875 
L 614.261323 517.810219 
L 614.261323 520.1875 
L 617.472372 517.810219 
L 617.472372 520.1875 
L 620.683421 517.810219 
L 620.683421 520.1875 
L 623.89447 517.810219 
L 623.89447 520.1875 
L 627.105519 517.810219 
L 627.105519 520.1875 
L 630.316568 517.810219 
L 630.316568 520.1875 
L 633.527617 517.810219 
L 633.527617 520.1875 
L 636.738666 517.810219 
L 636.738666 520.1875 
L 639.949715 517.810219 
L 639.949715 520.1875 
L 643.160764 517.810219 
L 643.160764 520.1875 
L 646.371813 517.810219 
L 646.371813 520.1875 
L 649.582862 517.810219 
L 649.582862 520.1875 
L 652.793911 517.810219 
L 652.793911 520.1875 
L 656.00496 517.810219 
L 656.00496 520.1875 
L 659.216009 517.810219 
L 659.216009 520.1875 
L 662.427058 517.810219 
L 662.427058 520.1875 
L 665.638107 517.810219 
L 665.638107 520.1875 
L 668.849156 517.810219 
L 668.849156 520.1875 
L 672.060205 517.810219 
L 672.060205 520.1875 
L 675.271254 517.810219 
L 675.271254 520.1875 
L 678.482303 517.810219 
L 678.482303 520.1875 
L 681.693352 517.810219 
L 681.693352 520.1875 
L 684.904401 517.810219 
L 684.904401 520.1875 
L 688.11545 517.810219 
L 688.11545 520.1875 
L 691.326499 517.810219 
L 691.326499 520.1875 
L 694.537548 517.810219 
L 694.537548 520.1875 
L 697.748597 517.810219 
L 697.748597 520.1875 
L 700.959646 517.810219 
L 700.959646 520.1875 
L 704.170695 517.810219 
L 704.170695 520.1875 
L 707.381744 517.810219 
L 707.381744 520.1875 
L 710.592793 517.810219 
L 710.592793 520.1875 
L 713.803842 517.810219 
L 713.803842 520.1875 
L 717.014891 517.810219 
L 717.014891 520.1875 
L 720.22594 517.810219 
L 720.22594 520.1875 
L 723.436989 517.810219 
L 723.436989 520.1875 
L 726.648038 517.810219 
L 726.648038 520.1875 
L 729.859087 517.810219 
L 729.859087 520.1875 
L 733.070136 517.810219 
L 733.070136 520.1875 
L 733.070136 520.1875 
" clip-path="url(#p7685370311)" style="fill: none; stroke: #d62728; stroke-width: 1.5; stroke-linecap: square"/>
   </g>
   <g id="line2d_39">
    <path d="M 97.684234 517.810219 
L 97.684234 520.1875 
L 100.895283 517.810219 
L 100.895283 520.1875 
L 106.915256 517.810219 
L 106.915256 520.1875 
L 110.126305 517.810219 
L 110.126305 520.1875 
L 113.337354 517.810219 
L 113.337354 520.1875 
L 116.548403 517.810219 
L 116.548403 520.1875 
L 119.759452 517.810219 
L 119.759452 520.1875 
L 122.970501 517.810219 
L 122.970501 520.1875 
L 126.18155 517.810219 
L 126.18155 520.1875 
L 129.392599 517.810219 
L 129.392599 520.1875 
L 132.603648 517.810219 
L 132.603648 520.1875 
L 135.814697 517.810219 
L 135.814697 520.1875 
L 139.025746 517.810219 
L 139.025746 520.1875 
L 142.236795 517.810219 
L 142.236795 520.1875 
L 145.447844 517.810219 
L 145.447844 520.1875 
L 148.658894 517.810219 
L 148.658894 520.1875 
L 151.869943 517.810219 
L 151.869943 520.1875 
L 155.080992 517.810219 
L 155.080992 520.1875 
L 158.292041 517.810219 
L 158.292041 520.1875 
L 161.50309 517.810219 
L 161.50309 520.1875 
L 164.714139 517.810219 
L 164.714139 520.1875 
L 167.925188 517.810219 
L 167.925188 520.1875 
L 171.136237 517.810219 
L 171.136237 520.1875 
L 174.347286 517.810219 
L 174.347286 520.1875 
L 177.558335 517.810219 
L 177.558335 520.1875 
L 180.769384 517.810219 
L 180.769384 520.1875 
L 183.980433 517.810219 
L 183.980433 520.1875 
L 187.191482 517.810219 
L 187.191482 520.1875 
L 190.402531 517.810219 
L 190.402531 520.1875 
L 193.61358 517.810219 
L 193.61358 520.1875 
L 196.824629 517.810219 
L 196.824629 520.1875 
L 200.035678 517.810219 
L 200.035678 520.1875 
L 203.246727 517.810219 
L 203.246727 520.1875 
L 206.457776 517.810219 
L 206.457776 520.1875 
L 209.668825 517.810219 
L 209.668825 520.1875 
L 212.879874 517.810219 
L 212.879874 520.1875 
L 216.090923 517.810219 
L 216.090923 520.1875 
L 219.301972 517.810219 
L 219.301972 520.1875 
L 222.513021 517.810219 
L 222.513021 520.1875 
L 225.72407 517.810219 
L 225.72407 520.1875 
L 228.935119 517.810219 
L 228.935119 520.1875 
L 232.146168 517.810219 
L 232.146168 520.1875 
L 235.357217 517.810219 
L 235.357217 520.1875 
L 238.568266 517.810219 
L 238.568266 520.1875 
L 241.779315 517.810219 
L 241.779315 520.1875 
L 244.990364 517.810219 
L 244.990364 520.1875 
L 248.201413 517.810219 
L 248.201413 520.1875 
L 251.412462 517.810219 
L 251.412462 520.1875 
L 254.623511 517.810219 
L 254.623511 520.1875 
L 257.83456 517.810219 
L 257.83456 520.1875 
L 261.045609 517.810219 
L 261.045609 520.1875 
L 264.256658 517.810219 
L 264.256658 520.1875 
L 267.467707 517.810219 
L 267.467707 520.1875 
L 270.678756 517.810219 
L 270.678756 520.1875 
L 273.889805 517.810219 
L 273.889805 520.1875 
L 277.100854 517.810219 
L 277.100854 520.1875 
L 280.311903 517.810219 
L 280.311903 520.1875 
L 283.522952 517.810219 
L 283.522952 520.1875 
L 286.734001 517.810219 
L 286.734001 520.1875 
L 289.94505 517.810219 
L 289.94505 520.1875 
L 293.156099 517.810219 
L 293.156099 520.1875 
L 296.367148 517.810219 
L 296.367148 520.1875 
L 299.578197 517.810219 
L 299.578197 520.1875 
L 302.789246 517.810219 
L 302.789246 520.1875 
L 306.000296 517.810219 
L 306.000296 520.1875 
L 309.211345 517.810219 
L 309.211345 520.1875 
L 312.422394 517.810219 
L 312.422394 520.1875 
L 315.633443 517.810219 
L 315.633443 520.1875 
L 318.844492 517.810219 
L 318.844492 520.1875 
L 322.055541 517.810219 
L 322.055541 520.1875 
L 325.26659 517.810219 
L 325.26659 520.1875 
L 328.477639 517.810219 
L 328.477639 520.1875 
L 331.688688 517.810219 
L 331.688688 520.1875 
L 334.899737 517.810219 
L 334.899737 520.1875 
L 338.110786 517.810219 
L 338.110786 520.1875 
L 341.321835 517.810219 
L 341.321835 520.1875 
L 344.532884 517.810219 
L 344.532884 520.1875 
L 347.743933 517.810219 
L 347.743933 520.1875 
L 350.954982 517.810219 
L 350.954982 520.1875 
L 354.166031 517.810219 
L 354.166031 520.1875 
L 357.37708 517.810219 
L 357.37708 520.1875 
L 360.588129 517.810219 
L 360.588129 520.1875 
L 363.799178 517.810219 
L 363.799178 520.1875 
L 367.010227 517.810219 
L 367.010227 520.1875 
L 370.221276 517.810219 
L 370.221276 520.1875 
L 373.432325 517.810219 
L 373.432325 520.1875 
L 376.643374 517.810219 
L 376.643374 520.1875 
L 379.854423 517.810219 
L 379.854423 520.1875 
L 383.065472 517.810219 
L 383.065472 520.1875 
L 386.276521 517.810219 
L 386.276521 520.1875 
L 389.48757 517.810219 
L 389.48757 520.1875 
L 392.698619 517.810219 
L 392.698619 520.1875 
L 395.909668 517.810219 
L 395.909668 520.1875 
L 399.120717 517.810219 
L 399.120717 520.1875 
L 402.331766 517.810219 
L 402.331766 520.1875 
L 405.542815 517.810219 
L 405.542815 520.1875 
L 408.753864 517.810219 
L 408.753864 520.1875 
L 411.964913 517.810219 
L 411.964913 520.1875 
L 415.175962 517.810219 
L 415.175962 520.1875 
L 418.387011 517.810219 
L 418.387011 520.1875 
L 421.59806 517.810219 
L 421.59806 520.1875 
L 424.809109 517.810219 
L 424.809109 520.1875 
L 428.020158 517.810219 
L 428.020158 520.1875 
L 431.231207 517.810219 
L 431.231207 520.1875 
L 434.442256 517.810219 
L 434.442256 520.1875 
L 437.653305 517.810219 
L 437.653305 520.1875 
L 440.864354 517.810219 
L 440.864354 520.1875 
L 444.075403 517.810219 
L 444.075403 520.1875 
L 447.286452 517.810219 
L 447.286452 520.1875 
L 450.497501 517.810219 
L 450.497501 520.1875 
L 453.70855 517.810219 
L 453.70855 520.1875 
L 456.919599 517.810219 
L 456.919599 520.1875 
L 460.130649 517.810219 
L 460.130649 520.1875 
L 463.341698 517.810219 
L 463.341698 520.1875 
L 466.552747 517.810219 
L 466.552747 520.1875 
L 469.763796 517.810219 
L 469.763796 520.1875 
L 472.974845 517.810219 
L 472.974845 520.1875 
L 476.185894 517.810219 
L 476.185894 520.1875 
L 479.396943 517.810219 
L 479.396943 520.1875 
L 482.607992 517.810219 
L 482.607992 520.1875 
L 485.819041 517.810219 
L 485.819041 520.1875 
L 489.03009 517.810219 
L 489.03009 520.1875 
L 492.241139 517.810219 
L 492.241139 520.1875 
L 495.452188 517.810219 
L 495.452188 520.1875 
L 498.663237 517.810219 
L 498.663237 520.1875 
L 501.874286 517.810219 
L 501.874286 520.1875 
L 505.085335 517.810219 
L 505.085335 520.1875 
L 508.296384 517.810219 
L 508.296384 520.1875 
L 511.507433 517.810219 
L 511.507433 520.1875 
L 514.718482 517.810219 
L 514.718482 520.1875 
L 517.929531 517.810219 
L 517.929531 520.1875 
L 521.14058 517.810219 
L 521.14058 520.1875 
L 524.351629 517.810219 
L 524.351629 520.1875 
L 527.562678 517.810219 
L 527.562678 520.1875 
L 530.773727 517.810219 
L 530.773727 520.1875 
L 533.984776 517.810219 
L 533.984776 520.1875 
L 537.195825 517.810219 
L 537.195825 520.1875 
L 540.406874 517.810219 
L 540.406874 520.1875 
L 543.617923 517.810219 
L 543.617923 520.1875 
L 546.828972 517.810219 
L 546.828972 520.1875 
L 550.040021 517.810219 
L 550.040021 520.1875 
L 553.25107 517.810219 
L 553.25107 520.1875 
L 556.462119 517.810219 
L 556.462119 520.1875 
L 559.673168 517.810219 
L 559.673168 520.1875 
L 562.884217 517.810219 
L 562.884217 520.1875 
L 566.095266 517.810219 
L 566.095266 520.1875 
L 569.306315 517.810219 
L 569.306315 520.1875 
L 572.517364 517.810219 
L 572.517364 520.1875 
L 575.728413 517.810219 
L 575.728413 520.1875 
L 578.939462 517.810219 
L 578.939462 520.1875 
L 582.150511 517.810219 
L 582.150511 520.1875 
L 585.36156 517.810219 
L 585.36156 520.1875 
L 588.572609 517.810219 
L 588.572609 520.1875 
L 591.783658 517.810219 
L 591.783658 520.1875 
L 594.994707 517.810219 
L 594.994707 520.1875 
L 598.205756 517.810219 
L 598.205756 520.1875 
L 601.416805 517.810219 
L 601.416805 520.1875 
L 604.627854 517.810219 
L 604.627854 520.1875 
L 607.838903 517.810219 
L 607.838903 520.1875 
L 611.049952 517.810219 
L 611.049952 520.1875 
L 614.261001 517.810219 
L 614.261001 520.1875 
L 617.472051 517.810219 
L 617.472051 520.1875 
L 620.6831 517.810219 
L 620.6831 520.1875 
L 623.894149 517.810219 
L 623.894149 520.1875 
L 627.105198 517.810219 
L 627.105198 520.1875 
L 630.316247 517.810219 
L 630.316247 520.1875 
L 633.527296 517.810219 
L 633.527296 520.1875 
L 636.738345 517.810219 
L 636.738345 520.1875 
L 639.949394 517.810219 
L 639.949394 520.1875 
L 643.160443 517.810219 
L 643.160443 520.1875 
L 646.371492 517.810219 
L 646.371492 520.1875 
L 649.582541 517.810219 
L 649.582541 520.1875 
L 652.79359 517.810219 
L 652.79359 520.1875 
L 656.004639 517.810219 
L 656.004639 520.1875 
L 659.215688 517.810219 
L 659.215688 520.1875 
L 662.426737 517.810219 
L 662.426737 520.1875 
L 665.637786 517.810219 
L 665.637786 520.1875 
L 668.848835 517.810219 
L 668.848835 520.1875 
L 672.059884 517.810219 
L 672.059884 520.1875 
L 675.270933 517.810219 
L 675.270933 520.1875 
L 678.481982 517.810219 
L 678.481982 520.1875 
L 681.693031 517.810219 
L 681.693031 520.1875 
L 684.90408 517.810219 
L 684.90408 520.1875 
L 688.115129 517.810219 
L 688.115129 520.1875 
L 691.326178 517.810219 
L 691.326178 520.1875 
L 694.537227 517.810219 
L 694.537227 520.1875 
L 697.748276 517.810219 
L 697.748276 520.1875 
L 700.959325 517.810219 
L 700.959325 520.1875 
L 704.170374 517.810219 
L 704.170374 520.1875 
L 707.381423 517.810219 
L 707.381423 520.1875 
L 710.592472 517.810219 
L 710.592472 520.1875 
L 713.803521 517.810219 
L 713.803521 520.1875 
L 717.01457 517.810219 
L 717.01457 520.1875 
L 720.225619 517.810219 
L 720.225619 520.1875 
L 723.436668 517.810219 
L 723.436668 520.1875 
L 726.647717 517.810219 
L 726.647717 520.1875 
L 729.858766 517.810219 
L 729.858766 520.1875 
L 733.069815 517.810219 
L 733.069815 520.1875 
L 733.069815 520.1875 
" clip-path="url(#p7685370311)" style="fill: none; stroke: #9467bd; stroke-width: 1.5; stroke-linecap: square"/>
   </g>
   <g id="patch_3">
    <path d="M 62.543 542.771667 
L 62.543 45.92 
" style="fill: none; stroke: #000000; stroke-width: 0.8; stroke-linejoin: miter; stroke-linecap: square"/>
   </g>
   <g id="patch_4">
    <path d="M 765 542.771667 
L 765 45.92 
" style="fill: none; stroke: #000000; stroke-width: 0.8; stroke-linejoin: miter; stroke-linecap: square"/>
   </g>
   <g id="patch_5">
    <path d="M 62.543 542.771667 
L 765 542.771667 
" style="fill: none; stroke: #000000; stroke-width: 0.8; stroke-linejoin: miter; stroke-linecap: square"/>
   </g>
   <g id="patch_6">
    <path d="M 62.543 45.92 
L 765 45.92 
" style="fill: none; stroke: #000000; stroke-width: 0.8; stroke-linejoin: miter; stroke-linecap: square"/>
   </g>
   <g id="text_18">
    <!-- Buffer Size -->
    <g transform="translate(381.245875 39.92) scale(0.12 -0.12)">
     <defs>
      <path id="DejaVuSans-42" d="M 1259 2228 
L 1259 519 
L 2272 519 
Q 2781 519 3026 730 
Q 3272 941 3272 1375 
Q 3272 1813 3026 2020 
Q 2781 2228 2272 2228 
L 1259 2228 
z
M 1259 4147 
L 1259 2741 
L 2194 2741 
Q 2656 2741 2882 2914 
Q 3109 3088 3109 3444 
Q 3109 3797 2882 3972 
Q 2656 4147 2194 4147 
L 1259 4147 
z
M 628 4666 
L 2241 4666 
Q 2963 4666 3353 4366 
Q 3744 4066 3744 3513 
Q 3744 3084 3544 2831 
Q 3344 2578 2956 2516 
Q 3422 2416 3680 2098 
Q 3938 1781 3938 1306 
Q 3938 681 3513 340 
Q 3088 0 2303 0 
L 628 0 
L 628 4666 
z
" transform="scale(0.015625)"/>
      <path id="DejaVuSans-75" d="M 544 1381 
L 544 3500 
L 1119 3500 
L 1119 1403 
Q 1119 906 1312 657 
Q 1506 409 1894 409 
Q 2359 409 2629 706 
Q 2900 1003 2900 1516 
L 2900 3500 
L 3475 3500 
L 3475 0 
L 2900 0 
L 2900 538 
Q 2691 219 2414 64 
Q 2138 -91 1772 -91 
Q 1169 -91 856 284 
Q 544 659 544 1381 
z
M 1991 3584 
L 1991 3584 
z
" transform="scale(0.015625)"/>
      <path id="DejaVuSans-66" d="M 2375 4863 
L 2375 4384 
L 1825 4384 
Q 1516 4384 1395 4259 
Q 1275 4134 1275 3809 
L 1275 3500 
L 2222 3500 
L 2222 3053 
L 1275 3053 
L 1275 0 
L 697 0 
L 697 3053 
L 147 3053 
L 147 3500 
L 697 3500 
L 697 3744 
Q 697 4328 969 4595 
Q 1241 4863 1831 4863 
L 2375 4863 
z
" transform="scale(0.015625)"/>
      <path id="DejaVuSans-65" d="M 3597 1894 
L 3597 1613 
L 953 1613 
Q 991 1019 1311 708 
Q 1631 397 2203 397 
Q 2534 397 2845 478 
Q 3156 559 3463 722 
L 3463 178 
Q 3153 47 2828 -22 
Q 2503 -91 2169 -91 
Q 1331 -91 842 396 
Q 353 884 353 1716 
Q 353 2575 817 3079 
Q 1281 3584 2069 3584 
Q 2775 3584 3186 3129 
Q 3597 2675 3597 1894 
z
M 3022 2063 
Q 3016 2534 2758 2815 
Q 2500 3097 2075 3097 
Q 1594 3097 1305 2825 
Q 1016 2553 972 2059 
L 3022 2063 
z
" transform="scale(0.015625)"/>
      <path id="DejaVuSans-72" d="M 2631 2963 
Q 2534 3019 2420 3045 
Q 2306 3072 2169 3072 
Q 1681 3072 1420 2755 
Q 1159 2438 1159 1844 
L 1159 0 
L 581 0 
L 581 3500 
L 1159 3500 
L 1159 2956 
Q 1341 3275 1631 3429 
Q 1922 3584 2338 3584 
Q 2397 3584 2469 3576 
Q 2541 3569 2628 3553 
L 2631 2963 
z
" transform="scale(0.015625)"/>
      <path id="DejaVuSans-20" transform="scale(0.015625)"/>
      <path id="DejaVuSans-53" d="M 3425 4513 
L 3425 3897 
Q 3066 4069 2747 4153 
Q 2428 4238 2131 4238 
Q 1616 4238 1336 4038 
Q 1056 3838 1056 3469 
Q 1056 3159 1242 3001 
Q 1428 2844 1947 2747 
L 2328 2669 
Q 3034 2534 3370 2195 
Q 3706 1856 3706 1288 
Q 3706 609 3251 259 
Q 2797 -91 1919 -91 
Q 1588 -91 1214 -16 
Q 841 59 441 206 
L 441 856 
Q 825 641 1194 531 
Q 1563 422 1919 422 
Q 2459 422 2753 634 
Q 3047 847 3047 1241 
Q 3047 1584 2836 1778 
Q 2625 1972 2144 2069 
L 1759 2144 
Q 1053 2284 737 2584 
Q 422 2884 422 3419 
Q 422 4038 858 4394 
Q 1294 4750 2059 4750 
Q 2388 4750 2728 4690 
Q 3069 4631 3425 4513 
z
" transform="scale(0.015625)"/>
      <path id="DejaVuSans-69" d="M 603 3500 
L 1178 3500 
L 1178 0 
L 603 0 
L 603 3500 
z
M 603 4863 
L 1178 4863 
L 1178 4134 
L 603 4134 
L 603 4863 
z
" transform="scale(0.015625)"/>
      <path id="DejaVuSans-7a" d="M 353 3500 
L 3084 3500 
L 3084 2975 
L 922 459 
L 3084 459 
L 3084 0 
L 275 0 
L 275 525 
L 2438 3041 
L 353 3041 
L 353 3500 
z
" transform="scale(0.015625)"/>
     </defs>
     <use xlink:href="#DejaVuSans-42"/>
     <use xlink:href="#DejaVuSans-75" x="68.603516"/>
     <use xlink:href="#DejaVuSans-66" x="131.982422"/>
     <use xlink:href="#DejaVuSans-66" x="167.1875"/>
     <use xlink:href="#DejaVuSans-65" x="202.392578"/>
     <use xlink:href="#DejaVuSans-72" x="263.916016"/>
     <use xlink:href="#DejaVuSans-20" x="305.029297"/>
     <use xlink:href="#DejaVuSans-53" x="336.816406"/>
     <use xlink:href="#DejaVuSans-69" x="400.292969"/>
     <use xlink:href="#DejaVuSans-7a" x="428.076172"/>
     <use xlink:href="#DejaVuSans-65" x="480.566406"/>
    </g>
   </g>
   <g id="legend_1">
    <g id="patch_7">
     <path d="M 607.695312 127.310625 
L 760 127.310625 
L 760 50.92 
L 607.695312 50.92 
z
" style="fill: #ffffff; opacity: 0.8; stroke: #cccccc; stroke-linejoin: miter"/>
    </g>
    <g id="line2d_40">
     <path d="M 611.695312 59.018438 
L 621.695312 59.018438 
L 631.695312 59.018438 
" style="fill: none; stroke: #1f77b4; stroke-width: 1.5; stroke-linecap: square"/>
    </g>
    <g id="text_19">
     <!-- Network.node[0].lnk[0] -->
     <g transform="translate(639.695312 62.518438) scale(0.1 -0.1)">
      <defs>
       <path id="DejaVuSans-4e" d="M 628 4666 
L 1478 4666 
L 3547 763 
L 3547 4666 
L 4159 4666 
L 4159 0 
L 3309 0 
L 1241 3903 
L 1241 0 
L 628 0 
L 628 4666 
z
" transform="scale(0.015625)"/>
       <path id="DejaVuSans-74" d="M 1172 4494 
L 1172 3500 
L 2356 3500 
L 2356 3053 
L 1172 3053 
L 1172 1153 
Q 1172 725 1289 603 
Q 1406 481 1766 481 
L 2356 481 
L 2356 0 
L 1766 0 
Q 1100 0 847 248 
Q 594 497 594 1153 
L 594 3053 
L 172 3053 
L 172 3500 
L 594 3500 
L 594 4494 
L 1172 4494 
z
" transform="scale(0.015625)"/>
       <path id="DejaVuSans-77" d="M 269 3500 
L 844 3500 
L 1563 769 
L 2278 3500 
L 2956 3500 
L 3675 769 
L 4391 3500 
L 4966 3500 
L 4050 0 
L 3372 0 
L 2619 2869 
L 1863 0 
L 1184 0 
L 269 3500 
z
" transform="scale(0.015625)"/>
       <path id="DejaVuSans-6f" d="M 1959 3097 
Q 1497 3097 1228 2736 
Q 959 2375 959 1747 
Q 959 1119 1226 758 
Q 1494 397 1959 397 
Q 2419 397 2687 759 
Q 2956 1122 2956 1747 
Q 2956 2369 2687 2733 
Q 2419 3097 1959 3097 
z
M 1959 3584 
Q 2709 3584 3137 3096 
Q 3566 2609 3566 1747 
Q 3566 888 3137 398 
Q 2709 -91 1959 -91 
Q 1206 -91 779 398 
Q 353 888 353 1747 
Q 353 2609 779 3096 
Q 1206 3584 1959 3584 
z
" transform="scale(0.015625)"/>
       <path id="DejaVuSans-6b" d="M 581 4863 
L 1159 4863 
L 1159 1991 
L 2875 3500 
L 3609 3500 
L 1753 1863 
L 3688 0 
L 2938 0 
L 1159 1709 
L 1159 0 
L 581 0 
L 581 4863 
z
" transform="scale(0.015625)"/>
       <path id="DejaVuSans-2e" d="M 684 794 
L 1344 794 
L 1344 0 
L 684 0 
L 684 794 
z
" transform="scale(0.015625)"/>
       <path id="DejaVuSans-6e" d="M 3513 2113 
L 3513 0 
L 2938 0 
L 2938 2094 
Q 2938 2591 2744 2837 
Q 2550 3084 2163 3084 
Q 1697 3084 1428 2787 
Q 1159 2491 1159 1978 
L 1159 0 
L 581 0 
L 581 3500 
L 1159 3500 
L 1159 2956 
Q 1366 3272 1645 3428 
Q 1925 3584 2291 3584 
Q 2894 3584 3203 3211 
Q 3513 2838 3513 2113 
z
" transform="scale(0.015625)"/>
       <path id="DejaVuSans-64" d="M 2906 2969 
L 2906 4863 
L 3481 4863 
L 3481 0 
L 2906 0 
L 2906 525 
Q 2725 213 2448 61 
Q 2172 -91 1784 -91 
Q 1150 -91 751 415 
Q 353 922 353 1747 
Q 353 2572 751 3078 
Q 1150 3584 1784 3584 
Q 2172 3584 2448 3432 
Q 2725 3281 2906 2969 
z
M 947 1747 
Q 947 1113 1208 752 
Q 1469 391 1925 391 
Q 2381 391 2643 752 
Q 2906 1113 2906 1747 
Q 2906 2381 2643 2742 
Q 2381 3103 1925 3103 
Q 1469 3103 1208 2742 
Q 947 2381 947 1747 
z
" transform="scale(0.015625)"/>
       <path id="DejaVuSans-5b" d="M 550 4863 
L 1875 4863 
L 1875 4416 
L 1125 4416 
L 1125 -397 
L 1875 -397 
L 1875 -844 
L 550 -844 
L 550 4863 
z
" transform="scale(0.015625)"/>
       <path id="DejaVuSans-5d" d="M 1947 4863 
L 1947 -844 
L 622 -844 
L 622 -397 
L 1369 -397 
L 1369 4416 
L 622 4416 
L 622 4863 
L 1947 4863 
z
" transform="scale(0.015625)"/>
       <path id="DejaVuSans-6c" d="M 603 4863 
L 1178 4863 
L 1178 0 
L 603 0 
L 603 4863 
z
" transform="scale(0.015625)"/>
      </defs>
      <use xlink:href="#DejaVuSans-4e"/>
      <use xlink:href="#DejaVuSans-65" x="74.804688"/>
      <use xlink:href="#DejaVuSans-74" x="136.328125"/>
      <use xlink:href="#DejaVuSans-77" x="175.537109"/>
      <use xlink:href="#DejaVuSans-6f" x="257.324219"/>
      <use xlink:href="#DejaVuSans-72" x="318.505859"/>
      <use xlink:href="#DejaVuSans-6b" x="359.619141"/>
      <use xlink:href="#DejaVuSans-2e" x="417.529297"/>
      <use xlink:href="#DejaVuSans-6e" x="449.316406"/>
      <use xlink:href="#DejaVuSans-6f" x="512.695312"/>
      <use xlink:href="#DejaVuSans-64" x="573.876953"/>
      <use xlink:href="#DejaVuSans-65" x="637.353516"/>
      <use xlink:href="#DejaVuSans-5b" x="698.876953"/>
      <use xlink:href="#DejaVuSans-30" x="737.890625"/>
      <use xlink:href="#DejaVuSans-5d" x="801.513672"/>
      <use xlink:href="#DejaVuSans-2e" x="840.527344"/>
      <use xlink:href="#DejaVuSans-6c" x="872.314453"/>
      <use xlink:href="#DejaVuSans-6e" x="900.097656"/>
      <use xlink:href="#DejaVuSans-6b" x="963.476562"/>
      <use xlink:href="#DejaVuSans-5b" x="1021.386719"/>
      <use xlink:href="#DejaVuSans-30" x="1060.400391"/>
      <use xlink:href="#DejaVuSans-5d" x="1124.023438"/>
     </g>
    </g>
    <g id="line2d_41">
     <path d="M 611.695312 73.696563 
L 621.695312 73.696563 
L 631.695312 73.696563 
" style="fill: none; stroke: #ff7f0e; stroke-width: 1.5; stroke-linecap: square"/>
    </g>
    <g id="text_20">
     <!-- Network.node[1].lnk[0] -->
     <g transform="translate(639.695312 77.196563) scale(0.1 -0.1)">
      <use xlink:href="#DejaVuSans-4e"/>
      <use xlink:href="#DejaVuSans-65" x="74.804688"/>
      <use xlink:href="#DejaVuSans-74" x="136.328125"/>
      <use xlink:href="#DejaVuSans-77" x="175.537109"/>
      <use xlink:href="#DejaVuSans-6f" x="257.324219"/>
      <use xlink:href="#DejaVuSans-72" x="318.505859"/>
      <use xlink:href="#DejaVuSans-6b" x="359.619141"/>
      <use xlink:href="#DejaVuSans-2e" x="417.529297"/>
      <use xlink:href="#DejaVuSans-6e" x="449.316406"/>
      <use xlink:href="#DejaVuSans-6f" x="512.695312"/>
      <use xlink:href="#DejaVuSans-64" x="573.876953"/>
      <use xlink:href="#DejaVuSans-65" x="637.353516"/>
      <use xlink:href="#DejaVuSans-5b" x="698.876953"/>
      <use xlink:href="#DejaVuSans-31" x="737.890625"/>
      <use xlink:href="#DejaVuSans-5d" x="801.513672"/>
      <use xlink:href="#DejaVuSans-2e" x="840.527344"/>
      <use xlink:href="#DejaVuSans-6c" x="872.314453"/>
      <use xlink:href="#DejaVuSans-6e" x="900.097656"/>
      <use xlink:href="#DejaVuSans-6b" x="963.476562"/>
      <use xlink:href="#DejaVuSans-5b" x="1021.386719"/>
      <use xlink:href="#DejaVuSans-30" x="1060.400391"/>
      <use xlink:href="#DejaVuSans-5d" x="1124.023438"/>
     </g>
    </g>
    <g id="line2d_42">
     <path d="M 611.695312 88.374687 
L 621.695312 88.374687 
L 631.695312 88.374687 
" style="fill: none; stroke: #2ca02c; stroke-width: 1.5; stroke-linecap: square"/>
    </g>
    <g id="text_21">
     <!-- Network.node[2].lnk[0] -->
     <g transform="translate(639.695312 91.874687) scale(0.1 -0.1)">
      <use xlink:href="#DejaVuSans-4e"/>
      <use xlink:href="#DejaVuSans-65" x="74.804688"/>
      <use xlink:href="#DejaVuSans-74" x="136.328125"/>
      <use xlink:href="#DejaVuSans-77" x="175.537109"/>
      <use xlink:href="#DejaVuSans-6f" x="257.324219"/>
      <use xlink:href="#DejaVuSans-72" x="318.505859"/>
      <use xlink:href="#DejaVuSans-6b" x="359.619141"/>
      <use xlink:href="#DejaVuSans-2e" x="417.529297"/>
      <use xlink:href="#DejaVuSans-6e" x="449.316406"/>
      <use xlink:href="#DejaVuSans-6f" x="512.695312"/>
      <use xlink:href="#DejaVuSans-64" x="573.876953"/>
      <use xlink:href="#DejaVuSans-65" x="637.353516"/>
      <use xlink:href="#DejaVuSans-5b" x="698.876953"/>
      <use xlink:href="#DejaVuSans-32" x="737.890625"/>
      <use xlink:href="#DejaVuSans-5d" x="801.513672"/>
      <use xlink:href="#DejaVuSans-2e" x="840.527344"/>
      <use xlink:href="#DejaVuSans-6c" x="872.314453"/>
      <use xlink:href="#DejaVuSans-6e" x="900.097656"/>
      <use xlink:href="#DejaVuSans-6b" x="963.476562"/>
      <use xlink:href="#DejaVuSans-5b" x="1021.386719"/>
      <use xlink:href="#DejaVuSans-30" x="1060.400391"/>
      <use xlink:href="#DejaVuSans-5d" x="1124.023438"/>
     </g>
    </g>
    <g id="line2d_43">
     <path d="M 611.695312 103.052813 
L 621.695312 103.052813 
L 631.695312 103.052813 
" style="fill: none; stroke: #d62728; stroke-width: 1.5; stroke-linecap: square"/>
    </g>
    <g id="text_22">
     <!-- Network.node[6].lnk[0] -->
     <g transform="translate(639.695312 106.552813) scale(0.1 -0.1)">
      <defs>
       <path id="DejaVuSans-36" d="M 2113 2584 
Q 1688 2584 1439 2293 
Q 1191 2003 1191 1497 
Q 1191 994 1439 701 
Q 1688 409 2113 409 
Q 2538 409 2786 701 
Q 3034 994 3034 1497 
Q 3034 2003 2786 2293 
Q 2538 2584 2113 2584 
z
M 3366 4563 
L 3366 3988 
Q 3128 4100 2886 4159 
Q 2644 4219 2406 4219 
Q 1781 4219 1451 3797 
Q 1122 3375 1075 2522 
Q 1259 2794 1537 2939 
Q 1816 3084 2150 3084 
Q 2853 3084 3261 2657 
Q 3669 2231 3669 1497 
Q 3669 778 3244 343 
Q 2819 -91 2113 -91 
Q 1303 -91 875 529 
Q 447 1150 447 2328 
Q 447 3434 972 4092 
Q 1497 4750 2381 4750 
Q 2619 4750 2861 4703 
Q 3103 4656 3366 4563 
z
" transform="scale(0.015625)"/>
      </defs>
      <use xlink:href="#DejaVuSans-4e"/>
      <use xlink:href="#DejaVuSans-65" x="74.804688"/>
      <use xlink:href="#DejaVuSans-74" x="136.328125"/>
      <use xlink:href="#DejaVuSans-77" x="175.537109"/>
      <use xlink:href="#DejaVuSans-6f" x="257.324219"/>
      <use xlink:href="#DejaVuSans-72" x="318.505859"/>
      <use xlink:href="#DejaVuSans-6b" x="359.619141"/>
      <use xlink:href="#DejaVuSans-2e" x="417.529297"/>
      <use xlink:href="#DejaVuSans-6e" x="449.316406"/>
      <use xlink:href="#DejaVuSans-6f" x="512.695312"/>
      <use xlink:href="#DejaVuSans-64" x="573.876953"/>
      <use xlink:href="#DejaVuSans-65" x="637.353516"/>
      <use xlink:href="#DejaVuSans-5b" x="698.876953"/>
      <use xlink:href="#DejaVuSans-36" x="737.890625"/>
      <use xlink:href="#DejaVuSans-5d" x="801.513672"/>
      <use xlink:href="#DejaVuSans-2e" x="840.527344"/>
      <use xlink:href="#DejaVuSans-6c" x="872.314453"/>
      <use xlink:href="#DejaVuSans-6e" x="900.097656"/>
      <use xlink:href="#DejaVuSans-6b" x="963.476562"/>
      <use xlink:href="#DejaVuSans-5b" x="1021.386719"/>
      <use xlink:href="#DejaVuSans-30" x="1060.400391"/>
      <use xlink:href="#DejaVuSans-5d" x="1124.023438"/>
     </g>
    </g>
    <g id="line2d_44">
     <path d="M 611.695312 117.730937 
L 621.695312 117.730937 
L 631.695312 117.730937 
" style="fill: none; stroke: #9467bd; stroke-width: 1.5; stroke-linecap: square"/>
    </g>
    <g id="text_23">
     <!-- Network.node[7].lnk[0] -->
     <g transform="translate(639.695312 121.230937) scale(0.1 -0.1)">
      <use xlink:href="#DejaVuSans-4e"/>
      <use xlink:href="#DejaVuSans-65" x="74.804688"/>
      <use xlink:href="#DejaVuSans-74" x="136.328125"/>
      <use xlink:href="#DejaVuSans-77" x="175.537109"/>
      <use xlink:href="#DejaVuSans-6f" x="257.324219"/>
      <use xlink:href="#DejaVuSans-72" x="318.505859"/>
      <use xlink:href="#DejaVuSans-6b" x="359.619141"/>
      <use xlink:href="#DejaVuSans-2e" x="417.529297"/>
      <use xlink:href="#DejaVuSans-6e" x="449.316406"/>
      <use xlink:href="#DejaVuSans-6f" x="512.695312"/>
      <use xlink:href="#DejaVuSans-64" x="573.876953"/>
      <use xlink:href="#DejaVuSans-65" x="637.353516"/>
      <use xlink:href="#DejaVuSans-5b" x="698.876953"/>
      <use xlink:href="#DejaVuSans-37" x="737.890625"/>
      <use xlink:href="#DejaVuSans-5d" x="801.513672"/>
      <use xlink:href="#DejaVuSans-2e" x="840.527344"/>
      <use xlink:href="#DejaVuSans-6c" x="872.314453"/>
      <use xlink:href="#DejaVuSans-6e" x="900.097656"/>
      <use xlink:href="#DejaVuSans-6b" x="963.476562"/>
      <use xlink:href="#DejaVuSans-5b" x="1021.386719"/>
      <use xlink:href="#DejaVuSans-30" x="1060.400391"/>
      <use xlink:href="#DejaVuSans-5d" x="1124.023438"/>
     </g>
    </g>
   </g>
  </g>
 </g>
 <defs>
  <clipPath id="p7685370311">
   <rect x="62.543" y="45.92" width="702.457" height="496.851667"/>
  </clipPath>
 </defs>
</svg>
