<?xml version="1.0" encoding="utf-8" standalone="no"?>
<!DOCTYPE svg PUBLIC "-//W3C//DTD SVG 1.1//EN"
  "http://www.w3.org/Graphics/SVG/1.1/DTD/svg11.dtd">
<svg xmlns:xlink="http://www.w3.org/1999/xlink" width="783.36pt" height="590.4pt" viewBox="0 0 783.36 590.4" xmlns="http://www.w3.org/2000/svg" version="1.1">
 <metadata>
  <rdf:RDF xmlns:dc="http://purl.org/dc/elements/1.1/" xmlns:cc="http://creativecommons.org/ns#" xmlns:rdf="http://www.w3.org/1999/02/22-rdf-syntax-ns#">
   <cc:Work>
    <dc:type rdf:resource="http://purl.org/dc/dcmitype/StillImage"/>
    <dc:date>2023-06-03T19:59:16.730875</dc:date>
    <dc:format>image/svg+xml</dc:format>
    <dc:creator>
     <cc:Agent>
      <dc:title>Matplotlib v3.7.1, https://matplotlib.org/</dc:title>
     </cc:Agent>
    </dc:creator>
   </cc:Work>
  </rdf:RDF>
 </metadata>
 <defs>
  <style type="text/css">*{stroke-linejoin: round; stroke-linecap: butt}</style>
 </defs>
 <g id="figure_1">
  <g id="patch_1">
   <path d="M 0 590.4 
L 783.36 590.4 
L 783.36 0 
L 0 0 
z
" style="fill: #ffffff"/>
  </g>
  <g id="axes_1">
   <g id="patch_2">
    <path d="M 51.833 542.771667 
L 765 542.771667 
L 765 45.92 
L 51.833 45.92 
z
" style="fill: #ffffff"/>
   </g>
   <g id="matplotlib.axis_1">
    <g id="xtick_1">
     <g id="line2d_1">
      <path d="M 71.336497 542.771667 
L 71.336497 45.92 
" clip-path="url(#p0b88ae2c00)" style="fill: none; stroke: #b0b0b0; stroke-width: 0.8; stroke-linecap: square"/>
     </g>
     <g id="line2d_2">
      <defs>
       <path id="m0c23a77aa9" d="M 0 0 
L 0 3.5 
" style="stroke: #000000; stroke-width: 0.8"/>
      </defs>
      <g>
       <use xlink:href="#m0c23a77aa9" x="71.336497" y="542.771667" style="stroke: #000000; stroke-width: 0.8"/>
      </g>
     </g>
     <g id="text_1">
      <!-- 0 -->
      <g transform="translate(68.155247 557.370104) scale(0.1 -0.1)">
       <defs>
        <path id="DejaVuSans-30" d="M 2034 4250 
Q 1547 4250 1301 3770 
Q 1056 3291 1056 2328 
Q 1056 1369 1301 889 
Q 1547 409 2034 409 
Q 2525 409 2770 889 
Q 3016 1369 3016 2328 
Q 3016 3291 2770 3770 
Q 2525 4250 2034 4250 
z
M 2034 4750 
Q 2819 4750 3233 4129 
Q 3647 3509 3647 2328 
Q 3647 1150 3233 529 
Q 2819 -91 2034 -91 
Q 1250 -91 836 529 
Q 422 1150 422 2328 
Q 422 3509 836 4129 
Q 1250 4750 2034 4750 
z
" transform="scale(0.015625)"/>
       </defs>
       <use xlink:href="#DejaVuSans-30"/>
      </g>
     </g>
    </g>
    <g id="xtick_2">
     <g id="line2d_3">
      <path d="M 154.137519 542.771667 
L 154.137519 45.92 
" clip-path="url(#p0b88ae2c00)" style="fill: none; stroke: #b0b0b0; stroke-width: 0.8; stroke-linecap: square"/>
     </g>
     <g id="line2d_4">
      <g>
       <use xlink:href="#m0c23a77aa9" x="154.137519" y="542.771667" style="stroke: #000000; stroke-width: 0.8"/>
      </g>
     </g>
     <g id="text_2">
      <!-- 25 -->
      <g transform="translate(147.775019 557.370104) scale(0.1 -0.1)">
       <defs>
        <path id="DejaVuSans-32" d="M 1228 531 
L 3431 531 
L 3431 0 
L 469 0 
L 469 531 
Q 828 903 1448 1529 
Q 2069 2156 2228 2338 
Q 2531 2678 2651 2914 
Q 2772 3150 2772 3378 
Q 2772 3750 2511 3984 
Q 2250 4219 1831 4219 
Q 1534 4219 1204 4116 
Q 875 4013 500 3803 
L 500 4441 
Q 881 4594 1212 4672 
Q 1544 4750 1819 4750 
Q 2544 4750 2975 4387 
Q 3406 4025 3406 3419 
Q 3406 3131 3298 2873 
Q 3191 2616 2906 2266 
Q 2828 2175 2409 1742 
Q 1991 1309 1228 531 
z
" transform="scale(0.015625)"/>
        <path id="DejaVuSans-35" d="M 691 4666 
L 3169 4666 
L 3169 4134 
L 1269 4134 
L 1269 2991 
Q 1406 3038 1543 3061 
Q 1681 3084 1819 3084 
Q 2600 3084 3056 2656 
Q 3513 2228 3513 1497 
Q 3513 744 3044 326 
Q 2575 -91 1722 -91 
Q 1428 -91 1123 -41 
Q 819 9 494 109 
L 494 744 
Q 775 591 1075 516 
Q 1375 441 1709 441 
Q 2250 441 2565 725 
Q 2881 1009 2881 1497 
Q 2881 1984 2565 2268 
Q 2250 2553 1709 2553 
Q 1456 2553 1204 2497 
Q 953 2441 691 2322 
L 691 4666 
z
" transform="scale(0.015625)"/>
       </defs>
       <use xlink:href="#DejaVuSans-32"/>
       <use xlink:href="#DejaVuSans-35" x="63.623047"/>
      </g>
     </g>
    </g>
    <g id="xtick_3">
     <g id="line2d_5">
      <path d="M 236.938542 542.771667 
L 236.938542 45.92 
" clip-path="url(#p0b88ae2c00)" style="fill: none; stroke: #b0b0b0; stroke-width: 0.8; stroke-linecap: square"/>
     </g>
     <g id="line2d_6">
      <g>
       <use xlink:href="#m0c23a77aa9" x="236.938542" y="542.771667" style="stroke: #000000; stroke-width: 0.8"/>
      </g>
     </g>
     <g id="text_3">
      <!-- 50 -->
      <g transform="translate(230.576042 557.370104) scale(0.1 -0.1)">
       <use xlink:href="#DejaVuSans-35"/>
       <use xlink:href="#DejaVuSans-30" x="63.623047"/>
      </g>
     </g>
    </g>
    <g id="xtick_4">
     <g id="line2d_7">
      <path d="M 319.739564 542.771667 
L 319.739564 45.92 
" clip-path="url(#p0b88ae2c00)" style="fill: none; stroke: #b0b0b0; stroke-width: 0.8; stroke-linecap: square"/>
     </g>
     <g id="line2d_8">
      <g>
       <use xlink:href="#m0c23a77aa9" x="319.739564" y="542.771667" style="stroke: #000000; stroke-width: 0.8"/>
      </g>
     </g>
     <g id="text_4">
      <!-- 75 -->
      <g transform="translate(313.377064 557.370104) scale(0.1 -0.1)">
       <defs>
        <path id="DejaVuSans-37" d="M 525 4666 
L 3525 4666 
L 3525 4397 
L 1831 0 
L 1172 0 
L 2766 4134 
L 525 4134 
L 525 4666 
z
" transform="scale(0.015625)"/>
       </defs>
       <use xlink:href="#DejaVuSans-37"/>
       <use xlink:href="#DejaVuSans-35" x="63.623047"/>
      </g>
     </g>
    </g>
    <g id="xtick_5">
     <g id="line2d_9">
      <path d="M 402.540587 542.771667 
L 402.540587 45.92 
" clip-path="url(#p0b88ae2c00)" style="fill: none; stroke: #b0b0b0; stroke-width: 0.8; stroke-linecap: square"/>
     </g>
     <g id="line2d_10">
      <g>
       <use xlink:href="#m0c23a77aa9" x="402.540587" y="542.771667" style="stroke: #000000; stroke-width: 0.8"/>
      </g>
     </g>
     <g id="text_5">
      <!-- 100 -->
      <g transform="translate(392.996837 557.370104) scale(0.1 -0.1)">
       <defs>
        <path id="DejaVuSans-31" d="M 794 531 
L 1825 531 
L 1825 4091 
L 703 3866 
L 703 4441 
L 1819 4666 
L 2450 4666 
L 2450 531 
L 3481 531 
L 3481 0 
L 794 0 
L 794 531 
z
" transform="scale(0.015625)"/>
       </defs>
       <use xlink:href="#DejaVuSans-31"/>
       <use xlink:href="#DejaVuSans-30" x="63.623047"/>
       <use xlink:href="#DejaVuSans-30" x="127.246094"/>
      </g>
     </g>
    </g>
    <g id="xtick_6">
     <g id="line2d_11">
      <path d="M 485.341609 542.771667 
L 485.341609 45.92 
" clip-path="url(#p0b88ae2c00)" style="fill: none; stroke: #b0b0b0; stroke-width: 0.8; stroke-linecap: square"/>
     </g>
     <g id="line2d_12">
      <g>
       <use xlink:href="#m0c23a77aa9" x="485.341609" y="542.771667" style="stroke: #000000; stroke-width: 0.8"/>
      </g>
     </g>
     <g id="text_6">
      <!-- 125 -->
      <g transform="translate(475.797859 557.370104) scale(0.1 -0.1)">
       <use xlink:href="#DejaVuSans-31"/>
       <use xlink:href="#DejaVuSans-32" x="63.623047"/>
       <use xlink:href="#DejaVuSans-35" x="127.246094"/>
      </g>
     </g>
    </g>
    <g id="xtick_7">
     <g id="line2d_13">
      <path d="M 568.142632 542.771667 
L 568.142632 45.92 
" clip-path="url(#p0b88ae2c00)" style="fill: none; stroke: #b0b0b0; stroke-width: 0.8; stroke-linecap: square"/>
     </g>
     <g id="line2d_14">
      <g>
       <use xlink:href="#m0c23a77aa9" x="568.142632" y="542.771667" style="stroke: #000000; stroke-width: 0.8"/>
      </g>
     </g>
     <g id="text_7">
      <!-- 150 -->
      <g transform="translate(558.598882 557.370104) scale(0.1 -0.1)">
       <use xlink:href="#DejaVuSans-31"/>
       <use xlink:href="#DejaVuSans-35" x="63.623047"/>
       <use xlink:href="#DejaVuSans-30" x="127.246094"/>
      </g>
     </g>
    </g>
    <g id="xtick_8">
     <g id="line2d_15">
      <path d="M 650.943654 542.771667 
L 650.943654 45.92 
" clip-path="url(#p0b88ae2c00)" style="fill: none; stroke: #b0b0b0; stroke-width: 0.8; stroke-linecap: square"/>
     </g>
     <g id="line2d_16">
      <g>
       <use xlink:href="#m0c23a77aa9" x="650.943654" y="542.771667" style="stroke: #000000; stroke-width: 0.8"/>
      </g>
     </g>
     <g id="text_8">
      <!-- 175 -->
      <g transform="translate(641.399904 557.370104) scale(0.1 -0.1)">
       <use xlink:href="#DejaVuSans-31"/>
       <use xlink:href="#DejaVuSans-37" x="63.623047"/>
       <use xlink:href="#DejaVuSans-35" x="127.246094"/>
      </g>
     </g>
    </g>
    <g id="xtick_9">
     <g id="line2d_17">
      <path d="M 733.744677 542.771667 
L 733.744677 45.92 
" clip-path="url(#p0b88ae2c00)" style="fill: none; stroke: #b0b0b0; stroke-width: 0.8; stroke-linecap: square"/>
     </g>
     <g id="line2d_18">
      <g>
       <use xlink:href="#m0c23a77aa9" x="733.744677" y="542.771667" style="stroke: #000000; stroke-width: 0.8"/>
      </g>
     </g>
     <g id="text_9">
      <!-- 200 -->
      <g transform="translate(724.200927 557.370104) scale(0.1 -0.1)">
       <use xlink:href="#DejaVuSans-32"/>
       <use xlink:href="#DejaVuSans-30" x="63.623047"/>
       <use xlink:href="#DejaVuSans-30" x="127.246094"/>
      </g>
     </g>
    </g>
   </g>
   <g id="matplotlib.axis_2">
    <g id="ytick_1">
     <g id="line2d_19">
      <path d="M 51.833 472.193723 
L 765 472.193723 
" clip-path="url(#p0b88ae2c00)" style="fill: none; stroke: #b0b0b0; stroke-width: 0.8; stroke-linecap: square"/>
     </g>
     <g id="line2d_20">
      <defs>
       <path id="m94a7a59880" d="M 0 0 
L -3.5 0 
" style="stroke: #000000; stroke-width: 0.8"/>
      </defs>
      <g>
       <use xlink:href="#m94a7a59880" x="51.833" y="472.193723" style="stroke: #000000; stroke-width: 0.8"/>
      </g>
     </g>
     <g id="text_10">
      <!-- 4 -->
      <g transform="translate(38.4705 475.992941) scale(0.1 -0.1)">
       <defs>
        <path id="DejaVuSans-34" d="M 2419 4116 
L 825 1625 
L 2419 1625 
L 2419 4116 
z
M 2253 4666 
L 3047 4666 
L 3047 1625 
L 3713 1625 
L 3713 1100 
L 3047 1100 
L 3047 0 
L 2419 0 
L 2419 1100 
L 313 1100 
L 313 1709 
L 2253 4666 
z
" transform="scale(0.015625)"/>
       </defs>
       <use xlink:href="#DejaVuSans-34"/>
      </g>
     </g>
    </g>
    <g id="ytick_2">
     <g id="line2d_21">
      <path d="M 51.833 376.177363 
L 765 376.177363 
" clip-path="url(#p0b88ae2c00)" style="fill: none; stroke: #b0b0b0; stroke-width: 0.8; stroke-linecap: square"/>
     </g>
     <g id="line2d_22">
      <g>
       <use xlink:href="#m94a7a59880" x="51.833" y="376.177363" style="stroke: #000000; stroke-width: 0.8"/>
      </g>
     </g>
     <g id="text_11">
      <!-- 6 -->
      <g transform="translate(38.4705 379.976582) scale(0.1 -0.1)">
       <defs>
        <path id="DejaVuSans-36" d="M 2113 2584 
Q 1688 2584 1439 2293 
Q 1191 2003 1191 1497 
Q 1191 994 1439 701 
Q 1688 409 2113 409 
Q 2538 409 2786 701 
Q 3034 994 3034 1497 
Q 3034 2003 2786 2293 
Q 2538 2584 2113 2584 
z
M 3366 4563 
L 3366 3988 
Q 3128 4100 2886 4159 
Q 2644 4219 2406 4219 
Q 1781 4219 1451 3797 
Q 1122 3375 1075 2522 
Q 1259 2794 1537 2939 
Q 1816 3084 2150 3084 
Q 2853 3084 3261 2657 
Q 3669 2231 3669 1497 
Q 3669 778 3244 343 
Q 2819 -91 2113 -91 
Q 1303 -91 875 529 
Q 447 1150 447 2328 
Q 447 3434 972 4092 
Q 1497 4750 2381 4750 
Q 2619 4750 2861 4703 
Q 3103 4656 3366 4563 
z
" transform="scale(0.015625)"/>
       </defs>
       <use xlink:href="#DejaVuSans-36"/>
      </g>
     </g>
    </g>
    <g id="ytick_3">
     <g id="line2d_23">
      <path d="M 51.833 280.161004 
L 765 280.161004 
" clip-path="url(#p0b88ae2c00)" style="fill: none; stroke: #b0b0b0; stroke-width: 0.8; stroke-linecap: square"/>
     </g>
     <g id="line2d_24">
      <g>
       <use xlink:href="#m94a7a59880" x="51.833" y="280.161004" style="stroke: #000000; stroke-width: 0.8"/>
      </g>
     </g>
     <g id="text_12">
      <!-- 8 -->
      <g transform="translate(38.4705 283.960223) scale(0.1 -0.1)">
       <defs>
        <path id="DejaVuSans-38" d="M 2034 2216 
Q 1584 2216 1326 1975 
Q 1069 1734 1069 1313 
Q 1069 891 1326 650 
Q 1584 409 2034 409 
Q 2484 409 2743 651 
Q 3003 894 3003 1313 
Q 3003 1734 2745 1975 
Q 2488 2216 2034 2216 
z
M 1403 2484 
Q 997 2584 770 2862 
Q 544 3141 544 3541 
Q 544 4100 942 4425 
Q 1341 4750 2034 4750 
Q 2731 4750 3128 4425 
Q 3525 4100 3525 3541 
Q 3525 3141 3298 2862 
Q 3072 2584 2669 2484 
Q 3125 2378 3379 2068 
Q 3634 1759 3634 1313 
Q 3634 634 3220 271 
Q 2806 -91 2034 -91 
Q 1263 -91 848 271 
Q 434 634 434 1313 
Q 434 1759 690 2068 
Q 947 2378 1403 2484 
z
M 1172 3481 
Q 1172 3119 1398 2916 
Q 1625 2713 2034 2713 
Q 2441 2713 2670 2916 
Q 2900 3119 2900 3481 
Q 2900 3844 2670 4047 
Q 2441 4250 2034 4250 
Q 1625 4250 1398 4047 
Q 1172 3844 1172 3481 
z
" transform="scale(0.015625)"/>
       </defs>
       <use xlink:href="#DejaVuSans-38"/>
      </g>
     </g>
    </g>
    <g id="ytick_4">
     <g id="line2d_25">
      <path d="M 51.833 184.144644 
L 765 184.144644 
" clip-path="url(#p0b88ae2c00)" style="fill: none; stroke: #b0b0b0; stroke-width: 0.8; stroke-linecap: square"/>
     </g>
     <g id="line2d_26">
      <g>
       <use xlink:href="#m94a7a59880" x="51.833" y="184.144644" style="stroke: #000000; stroke-width: 0.8"/>
      </g>
     </g>
     <g id="text_13">
      <!-- 10 -->
      <g transform="translate(32.108 187.943863) scale(0.1 -0.1)">
       <use xlink:href="#DejaVuSans-31"/>
       <use xlink:href="#DejaVuSans-30" x="63.623047"/>
      </g>
     </g>
    </g>
    <g id="ytick_5">
     <g id="line2d_27">
      <path d="M 51.833 88.128285 
L 765 88.128285 
" clip-path="url(#p0b88ae2c00)" style="fill: none; stroke: #b0b0b0; stroke-width: 0.8; stroke-linecap: square"/>
     </g>
     <g id="line2d_28">
      <g>
       <use xlink:href="#m94a7a59880" x="51.833" y="88.128285" style="stroke: #000000; stroke-width: 0.8"/>
      </g>
     </g>
     <g id="text_14">
      <!-- 12 -->
      <g transform="translate(32.108 91.927504) scale(0.1 -0.1)">
       <use xlink:href="#DejaVuSans-31"/>
       <use xlink:href="#DejaVuSans-32" x="63.623047"/>
      </g>
     </g>
    </g>
   </g>
   <g id="line2d_29">
    <path d="M 84.249682 520.1875 
L 87.432698 520.1875 
L 87.561723 516.501582 
L 90.744739 509.971414 
L 93.771033 520.1875 
L 96.263146 520.1875 
L 97.083073 498.634155 
L 99.701573 520.1875 
L 100.395114 497.530275 
L 103.013613 499.808949 
L 103.707155 472.812216 
L 107.019196 441.758564 
L 108.972119 520.1875 
L 110.331237 396.553325 
L 112.28416 487.463019 
L 113.643278 507.68805 
L 115.596201 462.671696 
L 117.9772 520.1875 
L 118.908242 445.842253 
L 121.289241 508.313834 
L 122.220283 478.11389 
L 124.601282 500.605298 
L 125.532324 461.497422 
L 128.844365 437.439179 
L 129.239717 520.1875 
L 132.156406 514.168448 
L 132.551758 475.71682 
L 135.468447 467.140864 
L 135.863799 447.467751 
L 138.780488 441.180351 
L 139.175839 403.836046 
L 142.092528 478.986201 
L 142.48788 405.977811 
L 145.404569 503.267982 
L 145.799921 509.203556 
L 148.71661 462.520121 
L 151.801667 520.1875 
L 152.028651 512.463714 
L 155.113708 502.98661 
L 159.243653 520.1875 
L 164.589294 520.1875 
L 167.543367 501.892997 
L 167.901335 507.463624 
L 171.213376 513.989805 
L 171.304075 520.1875 
L 174.525417 472.024627 
L 174.687099 520.1875 
L 177.837458 485.237808 
L 177.99914 514.057873 
L 181.149499 444.657919 
L 184.46154 433.656108 
L 187.162702 520.1875 
L 187.773581 453.885059 
L 190.474743 502.985915 
L 191.085622 441.298624 
L 194.217182 520.1875 
L 194.397662 398.664776 
L 197.529223 483.895644 
L 197.709703 376.368132 
L 200.841264 476.230404 
L 201.021744 343.111922 
L 204.153304 436.006102 
L 204.333785 305.003187 
L 207.465345 433.461509 
L 207.645826 321.099858 
L 210.777386 431.519481 
L 210.957867 302.332617 
L 214.089427 495.318193 
L 214.269908 261.298971 
L 217.401468 502.28605 
L 217.581949 214.201438 
L 220.713509 499.861377 
L 220.89399 185.001462 
L 224.02555 509.276155 
L 224.206031 183.147431 
L 227.337591 466.28777 
L 227.518071 147.210521 
L 230.649632 421.261632 
L 230.830112 122.657075 
L 234.142153 212.812357 
L 235.417676 520.1875 
L 237.454194 193.500879 
L 238.729717 481.177305 
L 240.766235 166.881231 
L 242.041758 444.508979 
L 244.078276 146.455306 
L 245.353799 417.787819 
L 247.390317 210.131006 
L 248.66584 387.972914 
L 250.702358 214.879614 
L 251.977881 384.903346 
L 254.014399 217.704133 
L 255.289922 355.767784 
L 257.32644 223.013715 
L 258.601963 309.640717 
L 260.63848 181.632042 
L 261.914004 289.348826 
L 263.950521 200.309273 
L 265.226044 289.630682 
L 267.262562 174.00569 
L 268.538085 394.910059 
L 270.574603 166.536952 
L 271.850126 352.069245 
L 273.886644 332.381057 
L 275.162167 354.845386 
L 277.198685 295.621267 
L 278.474208 315.282495 
L 280.510726 296.006256 
L 282.090869 520.1875 
L 283.822767 298.826387 
L 285.40291 480.490854 
L 287.134808 292.677301 
L 288.71495 438.097491 
L 290.446849 258.691376 
L 292.026991 444.010577 
L 293.758889 236.370677 
L 295.339032 414.320199 
L 297.07093 218.50883 
L 298.651073 376.820078 
L 300.382971 201.407404 
L 301.963114 472.221447 
L 303.695012 166.854813 
L 305.275155 424.869279 
L 307.007053 165.7441 
L 308.587196 381.764889 
L 310.319094 137.539353 
L 311.899237 380.569579 
L 313.631135 140.807375 
L 315.211278 419.927593 
L 316.943176 99.938601 
L 320.255217 124.261241 
L 320.711383 520.1875 
L 323.567258 98.337494 
L 324.023424 502.536649 
L 326.879298 102.47913 
L 327.335465 488.738311 
L 330.191339 137.060942 
L 333.50338 142.813011 
L 336.815421 99.655327 
L 337.625471 520.1875 
L 340.127462 223.20862 
L 340.937512 488.137731 
L 343.439503 276.273084 
L 344.249552 446.277323 
L 346.751544 231.017066 
L 347.561593 419.652921 
L 350.063585 227.583448 
L 350.873634 388.504066 
L 353.375626 208.377627 
L 354.185675 371.972271 
L 356.687667 224.904216 
L 357.497716 330.03178 
L 359.999707 177.865327 
L 360.809757 338.043074 
L 363.311748 131.776337 
L 364.121798 308.40767 
L 366.623789 111.751088 
L 367.433839 362.380252 
L 369.93583 250.570106 
L 370.74588 317.55489 
L 373.247871 228.240751 
L 374.057921 281.279691 
L 376.559912 300.440818 
L 377.369961 289.882254 
L 379.871953 292.41594 
L 380.682002 282.013594 
L 383.183994 340.579691 
L 383.994043 248.81185 
L 386.496035 297.307533 
L 387.306084 234.949389 
L 389.808076 371.254749 
L 390.618125 222.503698 
L 393.120116 327.412262 
L 393.930166 293.823803 
L 396.432157 406.590037 
L 397.242207 287.001631 
L 399.744198 365.366888 
L 400.554248 254.612453 
L 403.056239 367.372701 
L 403.866289 225.018301 
L 406.36828 379.85165 
L 407.17833 177.461434 
L 409.680321 348.245665 
L 410.49037 182.302862 
L 412.992362 315.000851 
L 413.802411 222.98152 
L 416.304403 276.707148 
L 417.114452 263.369961 
L 419.616444 271.096386 
L 420.426493 239.711535 
L 422.928485 224.06337 
L 423.738534 230.340214 
L 426.240525 184.708773 
L 427.050575 204.498894 
L 429.552566 221.470608 
L 430.362616 156.716667 
L 432.864607 213.93731 
L 433.674657 116.310175 
L 436.176648 229.720377 
L 436.986698 122.677698 
L 439.488689 208.976242 
L 440.298739 89.778733 
L 442.80073 174.699409 
L 443.610779 100.172919 
L 446.112771 194.431942 
L 446.92282 68.504167 
L 449.424812 187.633646 
L 450.234861 177.729649 
L 452.736853 163.838095 
L 453.546902 172.765165 
L 456.048894 224.507643 
L 456.858943 165.526531 
L 459.360934 188.617688 
L 460.170984 166.422302 
L 462.672975 287.143995 
L 463.483025 225.064625 
L 465.985016 267.586616 
L 466.795066 231.766949 
L 469.297057 309.519835 
L 470.107107 212.389859 
L 472.609098 319.22894 
L 473.419148 348.87743 
L 475.921139 277.15105 
L 476.731188 381.567265 
L 479.23318 246.090724 
L 480.043229 387.581827 
L 482.545221 268.021752 
L 483.35527 353.371701 
L 485.857262 245.492593 
L 486.667311 347.156362 
L 489.169303 221.729444 
L 489.979352 317.18672 
L 492.481344 275.954654 
L 493.291393 430.695841 
L 495.793384 330.435798 
L 496.603434 444.709874 
L 499.105425 339.047646 
L 499.915475 430.10576 
L 502.417466 333.664077 
L 504.052496 520.1875 
L 505.729507 337.400788 
L 507.364537 516.942285 
L 509.041548 325.968493 
L 510.676578 469.864494 
L 512.353589 290.541205 
L 513.988619 452.347639 
L 515.66563 292.115729 
L 517.30066 464.783847 
L 518.977671 268.222577 
L 520.612701 433.082353 
L 522.289712 246.685915 
L 523.924741 408.292642 
L 525.601753 244.979395 
L 527.236782 426.678777 
L 528.913793 227.89351 
L 530.548823 385.659339 
L 532.225834 197.116773 
L 533.860864 342.862308 
L 535.537875 200.924791 
L 537.172905 311.859784 
L 538.849916 169.364196 
L 540.484946 268.504689 
L 542.161957 167.55789 
L 543.796987 261.010059 
L 545.473998 146.432422 
L 547.109028 233.982799 
L 548.786039 199.598966 
L 550.421069 224.503679 
L 552.09808 194.497093 
L 553.73311 178.137543 
L 555.410121 187.491726 
L 557.04515 180.970476 
L 558.722162 306.193654 
L 560.357191 183.651714 
L 562.034202 265.496814 
L 563.669232 154.228946 
L 565.346243 239.48468 
L 566.981273 133.326688 
L 568.658284 196.388727 
L 570.293314 97.324466 
L 571.970325 175.863384 
L 573.605355 158.229275 
L 575.282366 326.503919 
L 576.917396 217.035198 
L 578.594407 315.465728 
L 580.229437 183.504648 
L 581.906448 295.977935 
L 583.541478 214.272974 
L 585.218489 253.040027 
L 586.853519 224.691685 
L 588.53053 325.977996 
L 590.165559 181.718692 
L 591.842571 366.292039 
L 593.4776 154.562656 
L 595.154611 326.054947 
L 596.789641 166.689884 
L 598.466652 390.874501 
L 600.101682 149.093091 
L 601.778693 440.126516 
L 603.413723 425.878995 
L 605.090734 393.956229 
L 606.725764 411.952683 
L 608.402775 354.461127 
L 610.037805 372.707849 
L 611.714816 352.347156 
L 613.349846 331.045569 
L 615.026857 376.822852 
L 616.661887 373.481386 
L 618.338898 424.926399 
L 619.973928 404.529193 
L 621.650939 402.362693 
L 623.285968 396.938186 
L 624.96298 361.593715 
L 628.27502 338.687574 
L 629.91005 305.984873 
L 631.587061 348.070224 
L 633.222091 452.402468 
L 634.899102 322.494949 
L 636.534132 406.886515 
L 638.211143 303.498068 
L 639.846173 455.507891 
L 641.523184 281.647487 
L 643.158214 408.304701 
L 644.835225 295.105822 
L 646.470255 453.26807 
L 648.147266 268.937132 
L 649.782296 417.853842 
L 651.459307 399.037407 
L 653.094337 370.411354 
L 654.771348 372.453013 
L 656.406377 391.909133 
L 658.083389 462.929793 
L 659.718418 406.757984 
L 661.395429 423.961312 
L 663.030459 425.303129 
L 664.70747 395.857926 
L 666.3425 409.578555 
L 668.019511 383.19006 
L 669.654541 381.44475 
L 671.331552 337.8641 
L 672.966582 334.334105 
L 674.643593 300.568428 
L 676.278623 295.328369 
L 677.955634 262.057682 
L 679.590664 277.209955 
L 681.267675 289.826224 
L 682.902705 241.372122 
L 684.579716 262.157051 
L 686.214746 293.030415 
L 687.891757 352.630592 
L 689.526786 371.390271 
L 691.203798 349.612736 
L 692.838827 381.894308 
L 694.515838 345.194257 
L 696.150868 342.525552 
L 697.827879 298.739468 
L 699.462909 327.796632 
L 701.13992 324.223709 
L 702.77495 326.427542 
L 704.451961 278.696732 
L 706.086991 336.075789 
L 707.764002 272.019928 
L 709.399032 418.714586 
L 711.076043 237.054038 
L 712.711073 385.635404 
L 714.388084 423.284147 
L 716.023114 383.322836 
L 717.700125 412.102065 
L 719.335155 389.880585 
L 721.012166 459.974476 
L 722.647195 384.665869 
L 724.324207 474.846708 
L 725.959236 403.373555 
L 727.636247 444.788138 
L 729.271277 515.613527 
L 730.948288 435.56961 
L 732.583318 477.496571 
L 732.583318 477.496571 
" clip-path="url(#p0b88ae2c00)" style="fill: none; stroke: #1f77b4; stroke-width: 1.5; stroke-linecap: square"/>
   </g>
   <g id="patch_3">
    <path d="M 51.833 542.771667 
L 51.833 45.92 
" style="fill: none; stroke: #000000; stroke-width: 0.8; stroke-linejoin: miter; stroke-linecap: square"/>
   </g>
   <g id="patch_4">
    <path d="M 765 542.771667 
L 765 45.92 
" style="fill: none; stroke: #000000; stroke-width: 0.8; stroke-linejoin: miter; stroke-linecap: square"/>
   </g>
   <g id="patch_5">
    <path d="M 51.833 542.771667 
L 765 542.771667 
" style="fill: none; stroke: #000000; stroke-width: 0.8; stroke-linejoin: miter; stroke-linecap: square"/>
   </g>
   <g id="patch_6">
    <path d="M 51.833 45.92 
L 765 45.92 
" style="fill: none; stroke: #000000; stroke-width: 0.8; stroke-linejoin: miter; stroke-linecap: square"/>
   </g>
   <g id="text_15">
    <!-- Delay in Network.node[5].app -->
    <g transform="translate(318.291813 39.92) scale(0.12 -0.12)">
     <defs>
      <path id="DejaVuSans-44" d="M 1259 4147 
L 1259 519 
L 2022 519 
Q 2988 519 3436 956 
Q 3884 1394 3884 2338 
Q 3884 3275 3436 3711 
Q 2988 4147 2022 4147 
L 1259 4147 
z
M 628 4666 
L 1925 4666 
Q 3281 4666 3915 4102 
Q 4550 3538 4550 2338 
Q 4550 1131 3912 565 
Q 3275 0 1925 0 
L 628 0 
L 628 4666 
z
" transform="scale(0.015625)"/>
      <path id="DejaVuSans-65" d="M 3597 1894 
L 3597 1613 
L 953 1613 
Q 991 1019 1311 708 
Q 1631 397 2203 397 
Q 2534 397 2845 478 
Q 3156 559 3463 722 
L 3463 178 
Q 3153 47 2828 -22 
Q 2503 -91 2169 -91 
Q 1331 -91 842 396 
Q 353 884 353 1716 
Q 353 2575 817 3079 
Q 1281 3584 2069 3584 
Q 2775 3584 3186 3129 
Q 3597 2675 3597 1894 
z
M 3022 2063 
Q 3016 2534 2758 2815 
Q 2500 3097 2075 3097 
Q 1594 3097 1305 2825 
Q 1016 2553 972 2059 
L 3022 2063 
z
" transform="scale(0.015625)"/>
      <path id="DejaVuSans-6c" d="M 603 4863 
L 1178 4863 
L 1178 0 
L 603 0 
L 603 4863 
z
" transform="scale(0.015625)"/>
      <path id="DejaVuSans-61" d="M 2194 1759 
Q 1497 1759 1228 1600 
Q 959 1441 959 1056 
Q 959 750 1161 570 
Q 1363 391 1709 391 
Q 2188 391 2477 730 
Q 2766 1069 2766 1631 
L 2766 1759 
L 2194 1759 
z
M 3341 1997 
L 3341 0 
L 2766 0 
L 2766 531 
Q 2569 213 2275 61 
Q 1981 -91 1556 -91 
Q 1019 -91 701 211 
Q 384 513 384 1019 
Q 384 1609 779 1909 
Q 1175 2209 1959 2209 
L 2766 2209 
L 2766 2266 
Q 2766 2663 2505 2880 
Q 2244 3097 1772 3097 
Q 1472 3097 1187 3025 
Q 903 2953 641 2809 
L 641 3341 
Q 956 3463 1253 3523 
Q 1550 3584 1831 3584 
Q 2591 3584 2966 3190 
Q 3341 2797 3341 1997 
z
" transform="scale(0.015625)"/>
      <path id="DejaVuSans-79" d="M 2059 -325 
Q 1816 -950 1584 -1140 
Q 1353 -1331 966 -1331 
L 506 -1331 
L 506 -850 
L 844 -850 
Q 1081 -850 1212 -737 
Q 1344 -625 1503 -206 
L 1606 56 
L 191 3500 
L 800 3500 
L 1894 763 
L 2988 3500 
L 3597 3500 
L 2059 -325 
z
" transform="scale(0.015625)"/>
      <path id="DejaVuSans-20" transform="scale(0.015625)"/>
      <path id="DejaVuSans-69" d="M 603 3500 
L 1178 3500 
L 1178 0 
L 603 0 
L 603 3500 
z
M 603 4863 
L 1178 4863 
L 1178 4134 
L 603 4134 
L 603 4863 
z
" transform="scale(0.015625)"/>
      <path id="DejaVuSans-6e" d="M 3513 2113 
L 3513 0 
L 2938 0 
L 2938 2094 
Q 2938 2591 2744 2837 
Q 2550 3084 2163 3084 
Q 1697 3084 1428 2787 
Q 1159 2491 1159 1978 
L 1159 0 
L 581 0 
L 581 3500 
L 1159 3500 
L 1159 2956 
Q 1366 3272 1645 3428 
Q 1925 3584 2291 3584 
Q 2894 3584 3203 3211 
Q 3513 2838 3513 2113 
z
" transform="scale(0.015625)"/>
      <path id="DejaVuSans-4e" d="M 628 4666 
L 1478 4666 
L 3547 763 
L 3547 4666 
L 4159 4666 
L 4159 0 
L 3309 0 
L 1241 3903 
L 1241 0 
L 628 0 
L 628 4666 
z
" transform="scale(0.015625)"/>
      <path id="DejaVuSans-74" d="M 1172 4494 
L 1172 3500 
L 2356 3500 
L 2356 3053 
L 1172 3053 
L 1172 1153 
Q 1172 725 1289 603 
Q 1406 481 1766 481 
L 2356 481 
L 2356 0 
L 1766 0 
Q 1100 0 847 248 
Q 594 497 594 1153 
L 594 3053 
L 172 3053 
L 172 3500 
L 594 3500 
L 594 4494 
L 1172 4494 
z
" transform="scale(0.015625)"/>
      <path id="DejaVuSans-77" d="M 269 3500 
L 844 3500 
L 1563 769 
L 2278 3500 
L 2956 3500 
L 3675 769 
L 4391 3500 
L 4966 3500 
L 4050 0 
L 3372 0 
L 2619 2869 
L 1863 0 
L 1184 0 
L 269 3500 
z
" transform="scale(0.015625)"/>
      <path id="DejaVuSans-6f" d="M 1959 3097 
Q 1497 3097 1228 2736 
Q 959 2375 959 1747 
Q 959 1119 1226 758 
Q 1494 397 1959 397 
Q 2419 397 2687 759 
Q 2956 1122 2956 1747 
Q 2956 2369 2687 2733 
Q 2419 3097 1959 3097 
z
M 1959 3584 
Q 2709 3584 3137 3096 
Q 3566 2609 3566 1747 
Q 3566 888 3137 398 
Q 2709 -91 1959 -91 
Q 1206 -91 779 398 
Q 353 888 353 1747 
Q 353 2609 779 3096 
Q 1206 3584 1959 3584 
z
" transform="scale(0.015625)"/>
      <path id="DejaVuSans-72" d="M 2631 2963 
Q 2534 3019 2420 3045 
Q 2306 3072 2169 3072 
Q 1681 3072 1420 2755 
Q 1159 2438 1159 1844 
L 1159 0 
L 581 0 
L 581 3500 
L 1159 3500 
L 1159 2956 
Q 1341 3275 1631 3429 
Q 1922 3584 2338 3584 
Q 2397 3584 2469 3576 
Q 2541 3569 2628 3553 
L 2631 2963 
z
" transform="scale(0.015625)"/>
      <path id="DejaVuSans-6b" d="M 581 4863 
L 1159 4863 
L 1159 1991 
L 2875 3500 
L 3609 3500 
L 1753 1863 
L 3688 0 
L 2938 0 
L 1159 1709 
L 1159 0 
L 581 0 
L 581 4863 
z
" transform="scale(0.015625)"/>
      <path id="DejaVuSans-2e" d="M 684 794 
L 1344 794 
L 1344 0 
L 684 0 
L 684 794 
z
" transform="scale(0.015625)"/>
      <path id="DejaVuSans-64" d="M 2906 2969 
L 2906 4863 
L 3481 4863 
L 3481 0 
L 2906 0 
L 2906 525 
Q 2725 213 2448 61 
Q 2172 -91 1784 -91 
Q 1150 -91 751 415 
Q 353 922 353 1747 
Q 353 2572 751 3078 
Q 1150 3584 1784 3584 
Q 2172 3584 2448 3432 
Q 2725 3281 2906 2969 
z
M 947 1747 
Q 947 1113 1208 752 
Q 1469 391 1925 391 
Q 2381 391 2643 752 
Q 2906 1113 2906 1747 
Q 2906 2381 2643 2742 
Q 2381 3103 1925 3103 
Q 1469 3103 1208 2742 
Q 947 2381 947 1747 
z
" transform="scale(0.015625)"/>
      <path id="DejaVuSans-5b" d="M 550 4863 
L 1875 4863 
L 1875 4416 
L 1125 4416 
L 1125 -397 
L 1875 -397 
L 1875 -844 
L 550 -844 
L 550 4863 
z
" transform="scale(0.015625)"/>
      <path id="DejaVuSans-5d" d="M 1947 4863 
L 1947 -844 
L 622 -844 
L 622 -397 
L 1369 -397 
L 1369 4416 
L 622 4416 
L 622 4863 
L 1947 4863 
z
" transform="scale(0.015625)"/>
      <path id="DejaVuSans-70" d="M 1159 525 
L 1159 -1331 
L 581 -1331 
L 581 3500 
L 1159 3500 
L 1159 2969 
Q 1341 3281 1617 3432 
Q 1894 3584 2278 3584 
Q 2916 3584 3314 3078 
Q 3713 2572 3713 1747 
Q 3713 922 3314 415 
Q 2916 -91 2278 -91 
Q 1894 -91 1617 61 
Q 1341 213 1159 525 
z
M 3116 1747 
Q 3116 2381 2855 2742 
Q 2594 3103 2138 3103 
Q 1681 3103 1420 2742 
Q 1159 2381 1159 1747 
Q 1159 1113 1420 752 
Q 1681 391 2138 391 
Q 2594 391 2855 752 
Q 3116 1113 3116 1747 
z
" transform="scale(0.015625)"/>
     </defs>
     <use xlink:href="#DejaVuSans-44"/>
     <use xlink:href="#DejaVuSans-65" x="77.001953"/>
     <use xlink:href="#DejaVuSans-6c" x="138.525391"/>
     <use xlink:href="#DejaVuSans-61" x="166.308594"/>
     <use xlink:href="#DejaVuSans-79" x="227.587891"/>
     <use xlink:href="#DejaVuSans-20" x="286.767578"/>
     <use xlink:href="#DejaVuSans-69" x="318.554688"/>
     <use xlink:href="#DejaVuSans-6e" x="346.337891"/>
     <use xlink:href="#DejaVuSans-20" x="409.716797"/>
     <use xlink:href="#DejaVuSans-4e" x="441.503906"/>
     <use xlink:href="#DejaVuSans-65" x="516.308594"/>
     <use xlink:href="#DejaVuSans-74" x="577.832031"/>
     <use xlink:href="#DejaVuSans-77" x="617.041016"/>
     <use xlink:href="#DejaVuSans-6f" x="698.828125"/>
     <use xlink:href="#DejaVuSans-72" x="760.009766"/>
     <use xlink:href="#DejaVuSans-6b" x="801.123047"/>
     <use xlink:href="#DejaVuSans-2e" x="859.033203"/>
     <use xlink:href="#DejaVuSans-6e" x="890.820312"/>
     <use xlink:href="#DejaVuSans-6f" x="954.199219"/>
     <use xlink:href="#DejaVuSans-64" x="1015.380859"/>
     <use xlink:href="#DejaVuSans-65" x="1078.857422"/>
     <use xlink:href="#DejaVuSans-5b" x="1140.380859"/>
     <use xlink:href="#DejaVuSans-35" x="1179.394531"/>
     <use xlink:href="#DejaVuSans-5d" x="1243.017578"/>
     <use xlink:href="#DejaVuSans-2e" x="1282.03125"/>
     <use xlink:href="#DejaVuSans-61" x="1313.818359"/>
     <use xlink:href="#DejaVuSans-70" x="1375.097656"/>
     <use xlink:href="#DejaVuSans-70" x="1438.574219"/>
    </g>
   </g>
   <g id="legend_1">
    <g id="patch_7">
     <path d="M 573.792187 68.598125 
L 760 68.598125 
L 760 50.92 
L 573.792187 50.92 
z
" style="fill: #ffffff; opacity: 0.8; stroke: #cccccc; stroke-linejoin: miter"/>
    </g>
    <g id="line2d_30">
     <path d="M 577.792187 59.018438 
L 587.792187 59.018438 
L 597.792187 59.018438 
" style="fill: none; stroke: #1f77b4; stroke-width: 1.5; stroke-linecap: square"/>
    </g>
    <g id="text_16">
     <!-- Delay in Network.node[5].app -->
     <g transform="translate(605.792187 62.518438) scale(0.1 -0.1)">
      <use xlink:href="#DejaVuSans-44"/>
      <use xlink:href="#DejaVuSans-65" x="77.001953"/>
      <use xlink:href="#DejaVuSans-6c" x="138.525391"/>
      <use xlink:href="#DejaVuSans-61" x="166.308594"/>
      <use xlink:href="#DejaVuSans-79" x="227.587891"/>
      <use xlink:href="#DejaVuSans-20" x="286.767578"/>
      <use xlink:href="#DejaVuSans-69" x="318.554688"/>
      <use xlink:href="#DejaVuSans-6e" x="346.337891"/>
      <use xlink:href="#DejaVuSans-20" x="409.716797"/>
      <use xlink:href="#DejaVuSans-4e" x="441.503906"/>
      <use xlink:href="#DejaVuSans-65" x="516.308594"/>
      <use xlink:href="#DejaVuSans-74" x="577.832031"/>
      <use xlink:href="#DejaVuSans-77" x="617.041016"/>
      <use xlink:href="#DejaVuSans-6f" x="698.828125"/>
      <use xlink:href="#DejaVuSans-72" x="760.009766"/>
      <use xlink:href="#DejaVuSans-6b" x="801.123047"/>
      <use xlink:href="#DejaVuSans-2e" x="859.033203"/>
      <use xlink:href="#DejaVuSans-6e" x="890.820312"/>
      <use xlink:href="#DejaVuSans-6f" x="954.199219"/>
      <use xlink:href="#DejaVuSans-64" x="1015.380859"/>
      <use xlink:href="#DejaVuSans-65" x="1078.857422"/>
      <use xlink:href="#DejaVuSans-5b" x="1140.380859"/>
      <use xlink:href="#DejaVuSans-35" x="1179.394531"/>
      <use xlink:href="#DejaVuSans-5d" x="1243.017578"/>
      <use xlink:href="#DejaVuSans-2e" x="1282.03125"/>
      <use xlink:href="#DejaVuSans-61" x="1313.818359"/>
      <use xlink:href="#DejaVuSans-70" x="1375.097656"/>
      <use xlink:href="#DejaVuSans-70" x="1438.574219"/>
     </g>
    </g>
   </g>
  </g>
 </g>
 <defs>
  <clipPath id="p0b88ae2c00">
   <rect x="51.833" y="45.92" width="713.167" height="496.851667"/>
  </clipPath>
 </defs>
</svg>
