<?xml version="1.0" encoding="utf-8" standalone="no"?>
<!DOCTYPE svg PUBLIC "-//W3C//DTD SVG 1.1//EN"
  "http://www.w3.org/Graphics/SVG/1.1/DTD/svg11.dtd">
<svg xmlns:xlink="http://www.w3.org/1999/xlink" width="783.36pt" height="590.4pt" viewBox="0 0 783.36 590.4" xmlns="http://www.w3.org/2000/svg" version="1.1">
 <metadata>
  <rdf:RDF xmlns:dc="http://purl.org/dc/elements/1.1/" xmlns:cc="http://creativecommons.org/ns#" xmlns:rdf="http://www.w3.org/1999/02/22-rdf-syntax-ns#">
   <cc:Work>
    <dc:type rdf:resource="http://purl.org/dc/dcmitype/StillImage"/>
    <dc:date>2023-06-03T20:14:08.073566</dc:date>
    <dc:format>image/svg+xml</dc:format>
    <dc:creator>
     <cc:Agent>
      <dc:title>Matplotlib v3.7.1, https://matplotlib.org/</dc:title>
     </cc:Agent>
    </dc:creator>
   </cc:Work>
  </rdf:RDF>
 </metadata>
 <defs>
  <style type="text/css">*{stroke-linejoin: round; stroke-linecap: butt}</style>
 </defs>
 <g id="figure_1">
  <g id="patch_1">
   <path d="M 0 590.4 
L 783.36 590.4 
L 783.36 0 
L 0 0 
z
" style="fill: #ffffff"/>
  </g>
  <g id="axes_1">
   <g id="patch_2">
    <path d="M 62.543 542.771667 
L 765 542.771667 
L 765 45.92 
L 62.543 45.92 
z
" style="fill: #ffffff"/>
   </g>
   <g id="matplotlib.axis_1">
    <g id="xtick_1">
     <g id="line2d_1">
      <path d="M 89.694519 542.771667 
L 89.694519 45.92 
" clip-path="url(#p021387bbf9)" style="fill: none; stroke: #b0b0b0; stroke-width: 0.8; stroke-linecap: square"/>
     </g>
     <g id="line2d_2">
      <defs>
       <path id="m2b91db52d6" d="M 0 0 
L 0 3.5 
" style="stroke: #000000; stroke-width: 0.8"/>
      </defs>
      <g>
       <use xlink:href="#m2b91db52d6" x="89.694519" y="542.771667" style="stroke: #000000; stroke-width: 0.8"/>
      </g>
     </g>
     <g id="text_1">
      <!-- 0 -->
      <g transform="translate(86.513269 557.370104) scale(0.1 -0.1)">
       <defs>
        <path id="DejaVuSans-30" d="M 2034 4250 
Q 1547 4250 1301 3770 
Q 1056 3291 1056 2328 
Q 1056 1369 1301 889 
Q 1547 409 2034 409 
Q 2525 409 2770 889 
Q 3016 1369 3016 2328 
Q 3016 3291 2770 3770 
Q 2525 4250 2034 4250 
z
M 2034 4750 
Q 2819 4750 3233 4129 
Q 3647 3509 3647 2328 
Q 3647 1150 3233 529 
Q 2819 -91 2034 -91 
Q 1250 -91 836 529 
Q 422 1150 422 2328 
Q 422 3509 836 4129 
Q 1250 4750 2034 4750 
z
" transform="scale(0.015625)"/>
       </defs>
       <use xlink:href="#DejaVuSans-30"/>
      </g>
     </g>
    </g>
    <g id="xtick_2">
     <g id="line2d_3">
      <path d="M 170.125678 542.771667 
L 170.125678 45.92 
" clip-path="url(#p021387bbf9)" style="fill: none; stroke: #b0b0b0; stroke-width: 0.8; stroke-linecap: square"/>
     </g>
     <g id="line2d_4">
      <g>
       <use xlink:href="#m2b91db52d6" x="170.125678" y="542.771667" style="stroke: #000000; stroke-width: 0.8"/>
      </g>
     </g>
     <g id="text_2">
      <!-- 25 -->
      <g transform="translate(163.763178 557.370104) scale(0.1 -0.1)">
       <defs>
        <path id="DejaVuSans-32" d="M 1228 531 
L 3431 531 
L 3431 0 
L 469 0 
L 469 531 
Q 828 903 1448 1529 
Q 2069 2156 2228 2338 
Q 2531 2678 2651 2914 
Q 2772 3150 2772 3378 
Q 2772 3750 2511 3984 
Q 2250 4219 1831 4219 
Q 1534 4219 1204 4116 
Q 875 4013 500 3803 
L 500 4441 
Q 881 4594 1212 4672 
Q 1544 4750 1819 4750 
Q 2544 4750 2975 4387 
Q 3406 4025 3406 3419 
Q 3406 3131 3298 2873 
Q 3191 2616 2906 2266 
Q 2828 2175 2409 1742 
Q 1991 1309 1228 531 
z
" transform="scale(0.015625)"/>
        <path id="DejaVuSans-35" d="M 691 4666 
L 3169 4666 
L 3169 4134 
L 1269 4134 
L 1269 2991 
Q 1406 3038 1543 3061 
Q 1681 3084 1819 3084 
Q 2600 3084 3056 2656 
Q 3513 2228 3513 1497 
Q 3513 744 3044 326 
Q 2575 -91 1722 -91 
Q 1428 -91 1123 -41 
Q 819 9 494 109 
L 494 744 
Q 775 591 1075 516 
Q 1375 441 1709 441 
Q 2250 441 2565 725 
Q 2881 1009 2881 1497 
Q 2881 1984 2565 2268 
Q 2250 2553 1709 2553 
Q 1456 2553 1204 2497 
Q 953 2441 691 2322 
L 691 4666 
z
" transform="scale(0.015625)"/>
       </defs>
       <use xlink:href="#DejaVuSans-32"/>
       <use xlink:href="#DejaVuSans-35" x="63.623047"/>
      </g>
     </g>
    </g>
    <g id="xtick_3">
     <g id="line2d_5">
      <path d="M 250.556837 542.771667 
L 250.556837 45.92 
" clip-path="url(#p021387bbf9)" style="fill: none; stroke: #b0b0b0; stroke-width: 0.8; stroke-linecap: square"/>
     </g>
     <g id="line2d_6">
      <g>
       <use xlink:href="#m2b91db52d6" x="250.556837" y="542.771667" style="stroke: #000000; stroke-width: 0.8"/>
      </g>
     </g>
     <g id="text_3">
      <!-- 50 -->
      <g transform="translate(244.194337 557.370104) scale(0.1 -0.1)">
       <use xlink:href="#DejaVuSans-35"/>
       <use xlink:href="#DejaVuSans-30" x="63.623047"/>
      </g>
     </g>
    </g>
    <g id="xtick_4">
     <g id="line2d_7">
      <path d="M 330.987996 542.771667 
L 330.987996 45.92 
" clip-path="url(#p021387bbf9)" style="fill: none; stroke: #b0b0b0; stroke-width: 0.8; stroke-linecap: square"/>
     </g>
     <g id="line2d_8">
      <g>
       <use xlink:href="#m2b91db52d6" x="330.987996" y="542.771667" style="stroke: #000000; stroke-width: 0.8"/>
      </g>
     </g>
     <g id="text_4">
      <!-- 75 -->
      <g transform="translate(324.625496 557.370104) scale(0.1 -0.1)">
       <defs>
        <path id="DejaVuSans-37" d="M 525 4666 
L 3525 4666 
L 3525 4397 
L 1831 0 
L 1172 0 
L 2766 4134 
L 525 4134 
L 525 4666 
z
" transform="scale(0.015625)"/>
       </defs>
       <use xlink:href="#DejaVuSans-37"/>
       <use xlink:href="#DejaVuSans-35" x="63.623047"/>
      </g>
     </g>
    </g>
    <g id="xtick_5">
     <g id="line2d_9">
      <path d="M 411.419155 542.771667 
L 411.419155 45.92 
" clip-path="url(#p021387bbf9)" style="fill: none; stroke: #b0b0b0; stroke-width: 0.8; stroke-linecap: square"/>
     </g>
     <g id="line2d_10">
      <g>
       <use xlink:href="#m2b91db52d6" x="411.419155" y="542.771667" style="stroke: #000000; stroke-width: 0.8"/>
      </g>
     </g>
     <g id="text_5">
      <!-- 100 -->
      <g transform="translate(401.875405 557.370104) scale(0.1 -0.1)">
       <defs>
        <path id="DejaVuSans-31" d="M 794 531 
L 1825 531 
L 1825 4091 
L 703 3866 
L 703 4441 
L 1819 4666 
L 2450 4666 
L 2450 531 
L 3481 531 
L 3481 0 
L 794 0 
L 794 531 
z
" transform="scale(0.015625)"/>
       </defs>
       <use xlink:href="#DejaVuSans-31"/>
       <use xlink:href="#DejaVuSans-30" x="63.623047"/>
       <use xlink:href="#DejaVuSans-30" x="127.246094"/>
      </g>
     </g>
    </g>
    <g id="xtick_6">
     <g id="line2d_11">
      <path d="M 491.850314 542.771667 
L 491.850314 45.92 
" clip-path="url(#p021387bbf9)" style="fill: none; stroke: #b0b0b0; stroke-width: 0.8; stroke-linecap: square"/>
     </g>
     <g id="line2d_12">
      <g>
       <use xlink:href="#m2b91db52d6" x="491.850314" y="542.771667" style="stroke: #000000; stroke-width: 0.8"/>
      </g>
     </g>
     <g id="text_6">
      <!-- 125 -->
      <g transform="translate(482.306564 557.370104) scale(0.1 -0.1)">
       <use xlink:href="#DejaVuSans-31"/>
       <use xlink:href="#DejaVuSans-32" x="63.623047"/>
       <use xlink:href="#DejaVuSans-35" x="127.246094"/>
      </g>
     </g>
    </g>
    <g id="xtick_7">
     <g id="line2d_13">
      <path d="M 572.281473 542.771667 
L 572.281473 45.92 
" clip-path="url(#p021387bbf9)" style="fill: none; stroke: #b0b0b0; stroke-width: 0.8; stroke-linecap: square"/>
     </g>
     <g id="line2d_14">
      <g>
       <use xlink:href="#m2b91db52d6" x="572.281473" y="542.771667" style="stroke: #000000; stroke-width: 0.8"/>
      </g>
     </g>
     <g id="text_7">
      <!-- 150 -->
      <g transform="translate(562.737723 557.370104) scale(0.1 -0.1)">
       <use xlink:href="#DejaVuSans-31"/>
       <use xlink:href="#DejaVuSans-35" x="63.623047"/>
       <use xlink:href="#DejaVuSans-30" x="127.246094"/>
      </g>
     </g>
    </g>
    <g id="xtick_8">
     <g id="line2d_15">
      <path d="M 652.712632 542.771667 
L 652.712632 45.92 
" clip-path="url(#p021387bbf9)" style="fill: none; stroke: #b0b0b0; stroke-width: 0.8; stroke-linecap: square"/>
     </g>
     <g id="line2d_16">
      <g>
       <use xlink:href="#m2b91db52d6" x="652.712632" y="542.771667" style="stroke: #000000; stroke-width: 0.8"/>
      </g>
     </g>
     <g id="text_8">
      <!-- 175 -->
      <g transform="translate(643.168882 557.370104) scale(0.1 -0.1)">
       <use xlink:href="#DejaVuSans-31"/>
       <use xlink:href="#DejaVuSans-37" x="63.623047"/>
       <use xlink:href="#DejaVuSans-35" x="127.246094"/>
      </g>
     </g>
    </g>
    <g id="xtick_9">
     <g id="line2d_17">
      <path d="M 733.143791 542.771667 
L 733.143791 45.92 
" clip-path="url(#p021387bbf9)" style="fill: none; stroke: #b0b0b0; stroke-width: 0.8; stroke-linecap: square"/>
     </g>
     <g id="line2d_18">
      <g>
       <use xlink:href="#m2b91db52d6" x="733.143791" y="542.771667" style="stroke: #000000; stroke-width: 0.8"/>
      </g>
     </g>
     <g id="text_9">
      <!-- 200 -->
      <g transform="translate(723.600041 557.370104) scale(0.1 -0.1)">
       <use xlink:href="#DejaVuSans-32"/>
       <use xlink:href="#DejaVuSans-30" x="63.623047"/>
       <use xlink:href="#DejaVuSans-30" x="127.246094"/>
      </g>
     </g>
    </g>
   </g>
   <g id="matplotlib.axis_2">
    <g id="ytick_1">
     <g id="line2d_19">
      <path d="M 62.543 522.917816 
L 765 522.917816 
" clip-path="url(#p021387bbf9)" style="fill: none; stroke: #b0b0b0; stroke-width: 0.8; stroke-linecap: square"/>
     </g>
     <g id="line2d_20">
      <defs>
       <path id="m6d2144fc42" d="M 0 0 
L -3.5 0 
" style="stroke: #000000; stroke-width: 0.8"/>
      </defs>
      <g>
       <use xlink:href="#m6d2144fc42" x="62.543" y="522.917816" style="stroke: #000000; stroke-width: 0.8"/>
      </g>
     </g>
     <g id="text_10">
      <!-- 0 -->
      <g transform="translate(49.1805 526.717035) scale(0.1 -0.1)">
       <use xlink:href="#DejaVuSans-30"/>
      </g>
     </g>
    </g>
    <g id="ytick_2">
     <g id="line2d_21">
      <path d="M 62.543 454.666744 
L 765 454.666744 
" clip-path="url(#p021387bbf9)" style="fill: none; stroke: #b0b0b0; stroke-width: 0.8; stroke-linecap: square"/>
     </g>
     <g id="line2d_22">
      <g>
       <use xlink:href="#m6d2144fc42" x="62.543" y="454.666744" style="stroke: #000000; stroke-width: 0.8"/>
      </g>
     </g>
     <g id="text_11">
      <!-- 25 -->
      <g transform="translate(42.818 458.465963) scale(0.1 -0.1)">
       <use xlink:href="#DejaVuSans-32"/>
       <use xlink:href="#DejaVuSans-35" x="63.623047"/>
      </g>
     </g>
    </g>
    <g id="ytick_3">
     <g id="line2d_23">
      <path d="M 62.543 386.415672 
L 765 386.415672 
" clip-path="url(#p021387bbf9)" style="fill: none; stroke: #b0b0b0; stroke-width: 0.8; stroke-linecap: square"/>
     </g>
     <g id="line2d_24">
      <g>
       <use xlink:href="#m6d2144fc42" x="62.543" y="386.415672" style="stroke: #000000; stroke-width: 0.8"/>
      </g>
     </g>
     <g id="text_12">
      <!-- 50 -->
      <g transform="translate(42.818 390.214891) scale(0.1 -0.1)">
       <use xlink:href="#DejaVuSans-35"/>
       <use xlink:href="#DejaVuSans-30" x="63.623047"/>
      </g>
     </g>
    </g>
    <g id="ytick_4">
     <g id="line2d_25">
      <path d="M 62.543 318.1646 
L 765 318.1646 
" clip-path="url(#p021387bbf9)" style="fill: none; stroke: #b0b0b0; stroke-width: 0.8; stroke-linecap: square"/>
     </g>
     <g id="line2d_26">
      <g>
       <use xlink:href="#m6d2144fc42" x="62.543" y="318.1646" style="stroke: #000000; stroke-width: 0.8"/>
      </g>
     </g>
     <g id="text_13">
      <!-- 75 -->
      <g transform="translate(42.818 321.963819) scale(0.1 -0.1)">
       <use xlink:href="#DejaVuSans-37"/>
       <use xlink:href="#DejaVuSans-35" x="63.623047"/>
      </g>
     </g>
    </g>
    <g id="ytick_5">
     <g id="line2d_27">
      <path d="M 62.543 249.913528 
L 765 249.913528 
" clip-path="url(#p021387bbf9)" style="fill: none; stroke: #b0b0b0; stroke-width: 0.8; stroke-linecap: square"/>
     </g>
     <g id="line2d_28">
      <g>
       <use xlink:href="#m6d2144fc42" x="62.543" y="249.913528" style="stroke: #000000; stroke-width: 0.8"/>
      </g>
     </g>
     <g id="text_14">
      <!-- 100 -->
      <g transform="translate(36.4555 253.712747) scale(0.1 -0.1)">
       <use xlink:href="#DejaVuSans-31"/>
       <use xlink:href="#DejaVuSans-30" x="63.623047"/>
       <use xlink:href="#DejaVuSans-30" x="127.246094"/>
      </g>
     </g>
    </g>
    <g id="ytick_6">
     <g id="line2d_29">
      <path d="M 62.543 181.662456 
L 765 181.662456 
" clip-path="url(#p021387bbf9)" style="fill: none; stroke: #b0b0b0; stroke-width: 0.8; stroke-linecap: square"/>
     </g>
     <g id="line2d_30">
      <g>
       <use xlink:href="#m6d2144fc42" x="62.543" y="181.662456" style="stroke: #000000; stroke-width: 0.8"/>
      </g>
     </g>
     <g id="text_15">
      <!-- 125 -->
      <g transform="translate(36.4555 185.461675) scale(0.1 -0.1)">
       <use xlink:href="#DejaVuSans-31"/>
       <use xlink:href="#DejaVuSans-32" x="63.623047"/>
       <use xlink:href="#DejaVuSans-35" x="127.246094"/>
      </g>
     </g>
    </g>
    <g id="ytick_7">
     <g id="line2d_31">
      <path d="M 62.543 113.411384 
L 765 113.411384 
" clip-path="url(#p021387bbf9)" style="fill: none; stroke: #b0b0b0; stroke-width: 0.8; stroke-linecap: square"/>
     </g>
     <g id="line2d_32">
      <g>
       <use xlink:href="#m6d2144fc42" x="62.543" y="113.411384" style="stroke: #000000; stroke-width: 0.8"/>
      </g>
     </g>
     <g id="text_16">
      <!-- 150 -->
      <g transform="translate(36.4555 117.210603) scale(0.1 -0.1)">
       <use xlink:href="#DejaVuSans-31"/>
       <use xlink:href="#DejaVuSans-35" x="63.623047"/>
       <use xlink:href="#DejaVuSans-30" x="127.246094"/>
      </g>
     </g>
    </g>
   </g>
   <g id="line2d_33">
    <path d="M 94.472864 520.1875 
L 96.055357 520.1875 
L 97.69011 517.61685 
L 99.272604 518.777712 
L 100.907356 514.367133 
L 102.48985 517.189797 
L 104.124603 513.126059 
L 105.707096 517.60078 
L 107.341849 518.476574 
L 108.924343 515.11961 
L 110.559095 512.247322 
L 112.141589 512.44533 
L 113.776342 513.429355 
L 115.358835 510.969054 
L 116.993588 503.075013 
L 118.576082 505.32471 
L 120.210835 502.117987 
L 121.793328 501.00769 
L 123.428081 510.809372 
L 125.010574 506.889781 
L 126.645327 510.085813 
L 128.227821 498.496524 
L 129.862574 495.982691 
L 131.445067 505.812068 
L 133.07982 507.41428 
L 134.662314 492.379206 
L 136.297066 497.500324 
L 137.87956 493.158232 
L 139.514313 503.416312 
L 141.096806 501.103366 
L 142.731559 482.989235 
L 144.314053 499.212212 
L 145.948805 501.601625 
L 147.531299 481.660199 
L 149.166052 490.986447 
L 150.748545 497.815125 
L 152.383298 481.809316 
L 153.965792 477.323739 
L 155.600544 487.907835 
L 157.183038 482.349698 
L 158.817791 498.538285 
L 160.400284 476.743571 
L 162.035037 471.174186 
L 163.617531 493.252987 
L 165.252284 495.633688 
L 166.834777 491.034626 
L 168.46953 479.001964 
L 170.052023 488.681407 
L 171.686776 471.584157 
L 173.26927 472.839692 
L 174.904023 475.204699 
L 176.486516 487.013467 
L 178.121269 493.430398 
L 179.703763 462.115207 
L 181.338515 467.736551 
L 182.921009 484.305317 
L 184.555762 469.639182 
L 186.138255 458.344825 
L 187.773008 462.839409 
L 189.355502 480.305981 
L 190.990254 490.665382 
L 192.572748 478.341106 
L 194.207501 488.091845 
L 195.789994 457.609778 
L 197.424747 461.845289 
L 199.007241 474.007167 
L 200.641993 484.26964 
L 202.224487 472.318788 
L 203.85924 481.594717 
L 205.441733 469.994736 
L 207.076486 478.973811 
L 208.65898 467.862246 
L 210.293733 439.167285 
L 211.876226 444.402203 
L 213.510979 475.105008 
L 215.093472 463.658018 
L 216.728225 473.590979 
L 218.310719 460.96528 
L 219.945472 445.735067 
L 221.527965 458.514097 
L 223.162718 469.920836 
L 224.745212 428.685473 
L 226.379964 440.919836 
L 227.962458 455.716082 
L 229.597211 439.224375 
L 231.179704 430.607288 
L 232.814457 468.566494 
L 234.396951 429.093529 
L 236.031703 422.555029 
L 237.614197 425.667193 
L 239.24895 463.994601 
L 240.831443 424.505649 
L 242.466196 461.290223 
L 244.04869 452.300884 
L 245.683443 426.647375 
L 247.265936 449.751836 
L 248.900689 458.835494 
L 250.483182 447.689003 
L 252.117935 409.30143 
L 253.700429 419.06431 
L 255.335182 458.402188 
L 256.917675 445.448155 
L 258.552428 403.893129 
L 260.134922 413.711196 
L 261.769674 402.232637 
L 263.352168 442.010373 
L 264.986921 400.189042 
L 266.569414 439.517217 
L 269.786661 400.220719 
L 271.421413 453.693255 
L 273.003907 404.367145 
L 274.63866 384.988846 
L 276.221153 401.93095 
L 277.855906 452.210346 
L 279.4384 435.829628 
L 281.073152 387.872609 
L 282.655646 389.470125 
L 284.290399 447.776044 
L 285.872892 433.461682 
L 287.507645 408.285969 
L 289.090139 393.89869 
L 290.724892 381.314353 
L 292.307385 431.853753 
L 293.942138 404.771267 
L 295.524631 389.235997 
L 297.159384 446.040748 
L 298.741878 429.504846 
L 300.376631 365.252915 
L 301.959124 382.645601 
L 303.593877 443.207987 
L 305.176371 382.760176 
L 306.811123 397.520942 
L 308.393617 424.596881 
L 310.02837 440.051753 
L 311.610863 423.24556 
L 313.245616 354.638361 
L 314.82811 421.300161 
L 316.462862 437.474182 
L 318.045356 372.31265 
L 319.680109 435.567427 
L 321.262602 369.9019 
L 322.897355 387.056343 
L 324.479849 365.915669 
L 326.114602 432.209684 
L 327.697095 416.208168 
L 329.331848 431.101488 
L 330.914341 364.627654 
L 332.549094 349.089221 
L 334.131588 413.567662 
L 335.766341 378.418753 
L 337.348834 411.817506 
L 338.983587 334.549872 
L 340.566081 410.407809 
L 342.200833 427.059064 
L 343.783327 352.202293 
L 345.41808 372.170362 
L 347.000573 353.943002 
L 348.635326 338.470985 
L 350.21782 407.971103 
L 351.852572 424.334445 
L 353.435066 348.758745 
L 355.069819 366.322325 
L 356.652312 402.790357 
L 358.287065 422.369726 
L 359.869559 342.665257 
L 361.504311 361.248078 
L 363.086805 342.992356 
L 364.721558 418.12793 
L 366.304051 400.674341 
L 367.938804 312.273636 
L 369.521298 339.258576 
L 371.156051 355.902056 
L 372.738544 342.134538 
L 374.373297 354.011549 
L 375.95579 336.333276 
L 377.590543 415.082872 
L 379.173037 334.510728 
L 380.80779 414.83161 
L 382.390283 339.743668 
L 384.025036 310.745838 
L 385.60753 337.282944 
L 387.242282 411.263989 
L 388.824776 326.670199 
L 390.459529 409.275612 
L 392.042022 397.303804 
L 393.676775 339.828424 
L 395.259269 322.168839 
L 396.894021 337.957584 
L 398.476515 395.628353 
L 400.111268 297.735276 
L 401.693761 394.054912 
L 403.328514 333.42666 
L 404.911008 314.323757 
L 406.545761 331.477466 
L 408.128254 391.153255 
L 409.763007 406.215597 
L 411.3455 388.511548 
L 412.980253 287.295356 
L 414.562747 319.647699 
L 416.1975 325.630787 
L 417.779993 383.542753 
L 419.414746 403.836829 
L 420.997239 315.572291 
L 422.631992 320.859819 
L 424.214486 380.734855 
L 425.849239 400.027275 
L 427.431732 310.125054 
L 429.066485 263.022428 
L 430.648979 293.528204 
L 432.283731 397.991218 
L 433.866225 379.974124 
L 435.500978 395.664119 
L 437.083471 377.930956 
L 438.718224 257.424461 
L 440.300718 299.637162 
L 441.93547 310.544371 
L 443.517964 374.772239 
L 445.152717 391.351698 
L 446.73521 296.478729 
L 448.369963 389.693396 
L 449.952457 372.427508 
L 451.58721 249.394952 
L 453.169703 275.878161 
L 454.804456 301.073095 
L 456.386949 289.839003 
L 458.021702 386.357675 
L 459.604196 272.691774 
L 461.238949 242.415335 
L 462.821442 285.755798 
L 464.456195 384.072939 
L 466.038689 369.005931 
L 467.673441 238.189507 
L 469.255935 265.343631 
L 470.890688 379.412623 
L 472.473181 364.38016 
L 474.107934 377.710248 
L 475.690428 277.616608 
L 477.32518 287.776419 
L 478.907674 276.514707 
L 480.542427 374.243716 
L 482.12492 362.01475 
L 483.759673 372.148476 
L 485.342167 360.305097 
L 486.976919 239.137674 
L 488.559413 358.447507 
L 490.194166 370.267401 
L 491.776659 253.019077 
L 493.411412 367.878702 
L 494.993906 251.221765 
L 496.628659 273.476093 
L 498.211152 354.624681 
L 499.845905 365.485712 
L 501.428398 352.606197 
L 503.063151 210.905107 
L 504.645645 243.584062 
L 506.280398 362.300785 
L 507.862891 240.909473 
L 509.497644 265.188922 
L 511.080138 350.211258 
L 512.71489 205.605391 
L 514.297384 256.975808 
L 515.932137 357.606269 
L 517.51463 347.588248 
L 519.149383 355.114037 
L 520.731877 230.481398 
L 522.366629 257.705993 
L 523.949123 344.117063 
L 525.583876 353.430464 
L 527.166369 229.841861 
L 528.801122 253.439012 
L 530.383616 341.984898 
L 532.018369 351.057834 
L 533.600862 339.339285 
L 535.235615 349.23119 
L 536.818108 224.099464 
L 538.452861 245.34226 
L 540.035355 243.668127 
L 541.670108 346.181406 
L 543.252601 334.901172 
L 544.887354 180.062512 
L 546.469848 224.242195 
L 548.1046 240.043273 
L 549.687094 333.032802 
L 551.321847 177.668724 
L 552.90434 330.48052 
L 554.539093 235.834019 
L 556.121587 232.349587 
L 557.756339 342.889039 
L 559.338833 327.234884 
L 560.973586 186.616911 
L 562.556079 227.572235 
L 564.190832 340.79477 
L 565.773326 225.25796 
L 567.408078 338.101105 
L 568.990572 207.508495 
L 570.625325 165.985046 
L 572.207818 221.360719 
L 573.842571 223.933482 
L 575.425065 324.930649 
L 577.059818 222.932819 
L 578.642311 202.845334 
L 580.277064 163.542535 
L 581.859557 216.493105 
L 583.49431 334.441912 
L 585.076804 321.123492 
L 586.711557 170.2455 
L 588.29405 320.275635 
L 589.928803 330.381559 
L 591.511297 208.591304 
L 593.146049 214.813423 
L 594.728543 206.147593 
L 596.363296 160.516473 
L 597.945789 316.137552 
L 599.580542 327.602076 
L 601.163036 184.450461 
L 602.797788 160.034959 
L 604.380282 183.225753 
L 606.015035 326.202738 
L 607.597528 198.647094 
L 609.232281 324.194164 
L 610.814775 196.021565 
L 612.449528 321.614021 
L 614.032021 313.958594 
L 615.666774 200.198737 
L 617.249267 191.045585 
L 618.88402 198.956177 
L 620.466514 309.945326 
L 622.101267 316.954242 
L 623.68376 308.43056 
L 625.318513 136.993223 
L 626.901007 306.806684 
L 628.535759 314.537846 
L 630.118253 161.438318 
L 631.753006 137.875553 
L 633.335499 301.577504 
L 634.970252 312.885813 
L 636.552746 299.828348 
L 638.187498 131.116336 
L 639.769992 173.873392 
L 641.404745 309.252953 
L 642.987238 298.443212 
L 644.621991 130.582948 
L 646.204485 295.939387 
L 647.839237 307.040243 
L 649.421731 166.181601 
L 651.056484 304.941989 
L 652.638977 290.735583 
L 654.27373 179.054057 
L 655.856224 141.331901 
L 657.490977 115.996624 
L 659.07347 288.36421 
L 660.708223 300.869353 
L 662.290716 287.123836 
L 663.925469 116.5211 
L 665.507963 134.077084 
L 667.142716 111.127616 
L 668.725209 154.944551 
L 670.359962 298.756529 
L 671.942456 284.312049 
L 673.577208 296.548732 
L 675.159702 151.134227 
L 676.794455 167.818686 
L 678.376948 124.68563 
L 680.011701 293.92037 
L 681.594195 281.349522 
L 683.228947 291.665887 
L 684.811441 144.186027 
L 686.446194 99.028689 
L 688.028687 279.01176 
L 689.66344 286.629738 
L 691.245934 139.442112 
L 692.880686 95.467362 
L 694.46318 275.233161 
L 696.097933 284.292263 
L 697.680426 272.721736 
L 699.315179 154.160751 
L 700.897673 131.284152 
L 702.532426 281.193495 
L 704.114919 268.992313 
L 705.749672 87.763057 
L 707.332165 100.512667 
L 708.966918 279.249601 
L 710.549412 127.046563 
L 712.184165 277.909703 
L 713.766658 266.652938 
L 715.401411 141.897031 
L 716.983905 264.810626 
L 718.618657 140.809597 
L 720.201151 262.457201 
L 721.835904 273.003034 
L 723.418397 260.161268 
L 725.05315 68.504167 
L 726.635644 85.099457 
L 728.270396 271.51942 
L 729.85289 111.180359 
L 731.487643 68.994782 
L 733.070136 110.459986 
L 733.070136 110.459986 
" clip-path="url(#p021387bbf9)" style="fill: none; stroke: #1f77b4; stroke-width: 1.5; stroke-linecap: square"/>
   </g>
   <g id="patch_3">
    <path d="M 62.543 542.771667 
L 62.543 45.92 
" style="fill: none; stroke: #000000; stroke-width: 0.8; stroke-linejoin: miter; stroke-linecap: square"/>
   </g>
   <g id="patch_4">
    <path d="M 765 542.771667 
L 765 45.92 
" style="fill: none; stroke: #000000; stroke-width: 0.8; stroke-linejoin: miter; stroke-linecap: square"/>
   </g>
   <g id="patch_5">
    <path d="M 62.543 542.771667 
L 765 542.771667 
" style="fill: none; stroke: #000000; stroke-width: 0.8; stroke-linejoin: miter; stroke-linecap: square"/>
   </g>
   <g id="patch_6">
    <path d="M 62.543 45.92 
L 765 45.92 
" style="fill: none; stroke: #000000; stroke-width: 0.8; stroke-linejoin: miter; stroke-linecap: square"/>
   </g>
   <g id="text_17">
    <!-- Delay in Network.node[5].app -->
    <g transform="translate(323.646813 39.92) scale(0.12 -0.12)">
     <defs>
      <path id="DejaVuSans-44" d="M 1259 4147 
L 1259 519 
L 2022 519 
Q 2988 519 3436 956 
Q 3884 1394 3884 2338 
Q 3884 3275 3436 3711 
Q 2988 4147 2022 4147 
L 1259 4147 
z
M 628 4666 
L 1925 4666 
Q 3281 4666 3915 4102 
Q 4550 3538 4550 2338 
Q 4550 1131 3912 565 
Q 3275 0 1925 0 
L 628 0 
L 628 4666 
z
" transform="scale(0.015625)"/>
      <path id="DejaVuSans-65" d="M 3597 1894 
L 3597 1613 
L 953 1613 
Q 991 1019 1311 708 
Q 1631 397 2203 397 
Q 2534 397 2845 478 
Q 3156 559 3463 722 
L 3463 178 
Q 3153 47 2828 -22 
Q 2503 -91 2169 -91 
Q 1331 -91 842 396 
Q 353 884 353 1716 
Q 353 2575 817 3079 
Q 1281 3584 2069 3584 
Q 2775 3584 3186 3129 
Q 3597 2675 3597 1894 
z
M 3022 2063 
Q 3016 2534 2758 2815 
Q 2500 3097 2075 3097 
Q 1594 3097 1305 2825 
Q 1016 2553 972 2059 
L 3022 2063 
z
" transform="scale(0.015625)"/>
      <path id="DejaVuSans-6c" d="M 603 4863 
L 1178 4863 
L 1178 0 
L 603 0 
L 603 4863 
z
" transform="scale(0.015625)"/>
      <path id="DejaVuSans-61" d="M 2194 1759 
Q 1497 1759 1228 1600 
Q 959 1441 959 1056 
Q 959 750 1161 570 
Q 1363 391 1709 391 
Q 2188 391 2477 730 
Q 2766 1069 2766 1631 
L 2766 1759 
L 2194 1759 
z
M 3341 1997 
L 3341 0 
L 2766 0 
L 2766 531 
Q 2569 213 2275 61 
Q 1981 -91 1556 -91 
Q 1019 -91 701 211 
Q 384 513 384 1019 
Q 384 1609 779 1909 
Q 1175 2209 1959 2209 
L 2766 2209 
L 2766 2266 
Q 2766 2663 2505 2880 
Q 2244 3097 1772 3097 
Q 1472 3097 1187 3025 
Q 903 2953 641 2809 
L 641 3341 
Q 956 3463 1253 3523 
Q 1550 3584 1831 3584 
Q 2591 3584 2966 3190 
Q 3341 2797 3341 1997 
z
" transform="scale(0.015625)"/>
      <path id="DejaVuSans-79" d="M 2059 -325 
Q 1816 -950 1584 -1140 
Q 1353 -1331 966 -1331 
L 506 -1331 
L 506 -850 
L 844 -850 
Q 1081 -850 1212 -737 
Q 1344 -625 1503 -206 
L 1606 56 
L 191 3500 
L 800 3500 
L 1894 763 
L 2988 3500 
L 3597 3500 
L 2059 -325 
z
" transform="scale(0.015625)"/>
      <path id="DejaVuSans-20" transform="scale(0.015625)"/>
      <path id="DejaVuSans-69" d="M 603 3500 
L 1178 3500 
L 1178 0 
L 603 0 
L 603 3500 
z
M 603 4863 
L 1178 4863 
L 1178 4134 
L 603 4134 
L 603 4863 
z
" transform="scale(0.015625)"/>
      <path id="DejaVuSans-6e" d="M 3513 2113 
L 3513 0 
L 2938 0 
L 2938 2094 
Q 2938 2591 2744 2837 
Q 2550 3084 2163 3084 
Q 1697 3084 1428 2787 
Q 1159 2491 1159 1978 
L 1159 0 
L 581 0 
L 581 3500 
L 1159 3500 
L 1159 2956 
Q 1366 3272 1645 3428 
Q 1925 3584 2291 3584 
Q 2894 3584 3203 3211 
Q 3513 2838 3513 2113 
z
" transform="scale(0.015625)"/>
      <path id="DejaVuSans-4e" d="M 628 4666 
L 1478 4666 
L 3547 763 
L 3547 4666 
L 4159 4666 
L 4159 0 
L 3309 0 
L 1241 3903 
L 1241 0 
L 628 0 
L 628 4666 
z
" transform="scale(0.015625)"/>
      <path id="DejaVuSans-74" d="M 1172 4494 
L 1172 3500 
L 2356 3500 
L 2356 3053 
L 1172 3053 
L 1172 1153 
Q 1172 725 1289 603 
Q 1406 481 1766 481 
L 2356 481 
L 2356 0 
L 1766 0 
Q 1100 0 847 248 
Q 594 497 594 1153 
L 594 3053 
L 172 3053 
L 172 3500 
L 594 3500 
L 594 4494 
L 1172 4494 
z
" transform="scale(0.015625)"/>
      <path id="DejaVuSans-77" d="M 269 3500 
L 844 3500 
L 1563 769 
L 2278 3500 
L 2956 3500 
L 3675 769 
L 4391 3500 
L 4966 3500 
L 4050 0 
L 3372 0 
L 2619 2869 
L 1863 0 
L 1184 0 
L 269 3500 
z
" transform="scale(0.015625)"/>
      <path id="DejaVuSans-6f" d="M 1959 3097 
Q 1497 3097 1228 2736 
Q 959 2375 959 1747 
Q 959 1119 1226 758 
Q 1494 397 1959 397 
Q 2419 397 2687 759 
Q 2956 1122 2956 1747 
Q 2956 2369 2687 2733 
Q 2419 3097 1959 3097 
z
M 1959 3584 
Q 2709 3584 3137 3096 
Q 3566 2609 3566 1747 
Q 3566 888 3137 398 
Q 2709 -91 1959 -91 
Q 1206 -91 779 398 
Q 353 888 353 1747 
Q 353 2609 779 3096 
Q 1206 3584 1959 3584 
z
" transform="scale(0.015625)"/>
      <path id="DejaVuSans-72" d="M 2631 2963 
Q 2534 3019 2420 3045 
Q 2306 3072 2169 3072 
Q 1681 3072 1420 2755 
Q 1159 2438 1159 1844 
L 1159 0 
L 581 0 
L 581 3500 
L 1159 3500 
L 1159 2956 
Q 1341 3275 1631 3429 
Q 1922 3584 2338 3584 
Q 2397 3584 2469 3576 
Q 2541 3569 2628 3553 
L 2631 2963 
z
" transform="scale(0.015625)"/>
      <path id="DejaVuSans-6b" d="M 581 4863 
L 1159 4863 
L 1159 1991 
L 2875 3500 
L 3609 3500 
L 1753 1863 
L 3688 0 
L 2938 0 
L 1159 1709 
L 1159 0 
L 581 0 
L 581 4863 
z
" transform="scale(0.015625)"/>
      <path id="DejaVuSans-2e" d="M 684 794 
L 1344 794 
L 1344 0 
L 684 0 
L 684 794 
z
" transform="scale(0.015625)"/>
      <path id="DejaVuSans-64" d="M 2906 2969 
L 2906 4863 
L 3481 4863 
L 3481 0 
L 2906 0 
L 2906 525 
Q 2725 213 2448 61 
Q 2172 -91 1784 -91 
Q 1150 -91 751 415 
Q 353 922 353 1747 
Q 353 2572 751 3078 
Q 1150 3584 1784 3584 
Q 2172 3584 2448 3432 
Q 2725 3281 2906 2969 
z
M 947 1747 
Q 947 1113 1208 752 
Q 1469 391 1925 391 
Q 2381 391 2643 752 
Q 2906 1113 2906 1747 
Q 2906 2381 2643 2742 
Q 2381 3103 1925 3103 
Q 1469 3103 1208 2742 
Q 947 2381 947 1747 
z
" transform="scale(0.015625)"/>
      <path id="DejaVuSans-5b" d="M 550 4863 
L 1875 4863 
L 1875 4416 
L 1125 4416 
L 1125 -397 
L 1875 -397 
L 1875 -844 
L 550 -844 
L 550 4863 
z
" transform="scale(0.015625)"/>
      <path id="DejaVuSans-5d" d="M 1947 4863 
L 1947 -844 
L 622 -844 
L 622 -397 
L 1369 -397 
L 1369 4416 
L 622 4416 
L 622 4863 
L 1947 4863 
z
" transform="scale(0.015625)"/>
      <path id="DejaVuSans-70" d="M 1159 525 
L 1159 -1331 
L 581 -1331 
L 581 3500 
L 1159 3500 
L 1159 2969 
Q 1341 3281 1617 3432 
Q 1894 3584 2278 3584 
Q 2916 3584 3314 3078 
Q 3713 2572 3713 1747 
Q 3713 922 3314 415 
Q 2916 -91 2278 -91 
Q 1894 -91 1617 61 
Q 1341 213 1159 525 
z
M 3116 1747 
Q 3116 2381 2855 2742 
Q 2594 3103 2138 3103 
Q 1681 3103 1420 2742 
Q 1159 2381 1159 1747 
Q 1159 1113 1420 752 
Q 1681 391 2138 391 
Q 2594 391 2855 752 
Q 3116 1113 3116 1747 
z
" transform="scale(0.015625)"/>
     </defs>
     <use xlink:href="#DejaVuSans-44"/>
     <use xlink:href="#DejaVuSans-65" x="77.001953"/>
     <use xlink:href="#DejaVuSans-6c" x="138.525391"/>
     <use xlink:href="#DejaVuSans-61" x="166.308594"/>
     <use xlink:href="#DejaVuSans-79" x="227.587891"/>
     <use xlink:href="#DejaVuSans-20" x="286.767578"/>
     <use xlink:href="#DejaVuSans-69" x="318.554688"/>
     <use xlink:href="#DejaVuSans-6e" x="346.337891"/>
     <use xlink:href="#DejaVuSans-20" x="409.716797"/>
     <use xlink:href="#DejaVuSans-4e" x="441.503906"/>
     <use xlink:href="#DejaVuSans-65" x="516.308594"/>
     <use xlink:href="#DejaVuSans-74" x="577.832031"/>
     <use xlink:href="#DejaVuSans-77" x="617.041016"/>
     <use xlink:href="#DejaVuSans-6f" x="698.828125"/>
     <use xlink:href="#DejaVuSans-72" x="760.009766"/>
     <use xlink:href="#DejaVuSans-6b" x="801.123047"/>
     <use xlink:href="#DejaVuSans-2e" x="859.033203"/>
     <use xlink:href="#DejaVuSans-6e" x="890.820312"/>
     <use xlink:href="#DejaVuSans-6f" x="954.199219"/>
     <use xlink:href="#DejaVuSans-64" x="1015.380859"/>
     <use xlink:href="#DejaVuSans-65" x="1078.857422"/>
     <use xlink:href="#DejaVuSans-5b" x="1140.380859"/>
     <use xlink:href="#DejaVuSans-35" x="1179.394531"/>
     <use xlink:href="#DejaVuSans-5d" x="1243.017578"/>
     <use xlink:href="#DejaVuSans-2e" x="1282.03125"/>
     <use xlink:href="#DejaVuSans-61" x="1313.818359"/>
     <use xlink:href="#DejaVuSans-70" x="1375.097656"/>
     <use xlink:href="#DejaVuSans-70" x="1438.574219"/>
    </g>
   </g>
   <g id="legend_1">
    <g id="patch_7">
     <path d="M 573.792187 68.598125 
L 760 68.598125 
L 760 50.92 
L 573.792187 50.92 
z
" style="fill: #ffffff; opacity: 0.8; stroke: #cccccc; stroke-linejoin: miter"/>
    </g>
    <g id="line2d_34">
     <path d="M 577.792187 59.018438 
L 587.792187 59.018438 
L 597.792187 59.018438 
" style="fill: none; stroke: #1f77b4; stroke-width: 1.5; stroke-linecap: square"/>
    </g>
    <g id="text_18">
     <!-- Delay in Network.node[5].app -->
     <g transform="translate(605.792187 62.518438) scale(0.1 -0.1)">
      <use xlink:href="#DejaVuSans-44"/>
      <use xlink:href="#DejaVuSans-65" x="77.001953"/>
      <use xlink:href="#DejaVuSans-6c" x="138.525391"/>
      <use xlink:href="#DejaVuSans-61" x="166.308594"/>
      <use xlink:href="#DejaVuSans-79" x="227.587891"/>
      <use xlink:href="#DejaVuSans-20" x="286.767578"/>
      <use xlink:href="#DejaVuSans-69" x="318.554688"/>
      <use xlink:href="#DejaVuSans-6e" x="346.337891"/>
      <use xlink:href="#DejaVuSans-20" x="409.716797"/>
      <use xlink:href="#DejaVuSans-4e" x="441.503906"/>
      <use xlink:href="#DejaVuSans-65" x="516.308594"/>
      <use xlink:href="#DejaVuSans-74" x="577.832031"/>
      <use xlink:href="#DejaVuSans-77" x="617.041016"/>
      <use xlink:href="#DejaVuSans-6f" x="698.828125"/>
      <use xlink:href="#DejaVuSans-72" x="760.009766"/>
      <use xlink:href="#DejaVuSans-6b" x="801.123047"/>
      <use xlink:href="#DejaVuSans-2e" x="859.033203"/>
      <use xlink:href="#DejaVuSans-6e" x="890.820312"/>
      <use xlink:href="#DejaVuSans-6f" x="954.199219"/>
      <use xlink:href="#DejaVuSans-64" x="1015.380859"/>
      <use xlink:href="#DejaVuSans-65" x="1078.857422"/>
      <use xlink:href="#DejaVuSans-5b" x="1140.380859"/>
      <use xlink:href="#DejaVuSans-35" x="1179.394531"/>
      <use xlink:href="#DejaVuSans-5d" x="1243.017578"/>
      <use xlink:href="#DejaVuSans-2e" x="1282.03125"/>
      <use xlink:href="#DejaVuSans-61" x="1313.818359"/>
      <use xlink:href="#DejaVuSans-70" x="1375.097656"/>
      <use xlink:href="#DejaVuSans-70" x="1438.574219"/>
     </g>
    </g>
   </g>
  </g>
 </g>
 <defs>
  <clipPath id="p021387bbf9">
   <rect x="62.543" y="45.92" width="702.457" height="496.851667"/>
  </clipPath>
 </defs>
</svg>
