<?xml version="1.0" encoding="utf-8" standalone="no"?>
<!DOCTYPE svg PUBLIC "-//W3C//DTD SVG 1.1//EN"
  "http://www.w3.org/Graphics/SVG/1.1/DTD/svg11.dtd">
<svg xmlns:xlink="http://www.w3.org/1999/xlink" width="783.36pt" height="590.4pt" viewBox="0 0 783.36 590.4" xmlns="http://www.w3.org/2000/svg" version="1.1">
 <metadata>
  <rdf:RDF xmlns:dc="http://purl.org/dc/elements/1.1/" xmlns:cc="http://creativecommons.org/ns#" xmlns:rdf="http://www.w3.org/1999/02/22-rdf-syntax-ns#">
   <cc:Work>
    <dc:type rdf:resource="http://purl.org/dc/dcmitype/StillImage"/>
    <dc:date>2023-06-03T19:51:30.440537</dc:date>
    <dc:format>image/svg+xml</dc:format>
    <dc:creator>
     <cc:Agent>
      <dc:title>Matplotlib v3.7.1, https://matplotlib.org/</dc:title>
     </cc:Agent>
    </dc:creator>
   </cc:Work>
  </rdf:RDF>
 </metadata>
 <defs>
  <style type="text/css">*{stroke-linejoin: round; stroke-linecap: butt}</style>
 </defs>
 <g id="figure_1">
  <g id="patch_1">
   <path d="M 0 590.4 
L 783.36 590.4 
L 783.36 0 
L 0 0 
z
" style="fill: #ffffff"/>
  </g>
  <g id="axes_1">
   <g id="patch_2">
    <path d="M 51.833 542.771667 
L 765 542.771667 
L 765 45.92 
L 51.833 45.92 
z
" style="fill: #ffffff"/>
   </g>
   <g id="matplotlib.axis_1">
    <g id="xtick_1">
     <g id="line2d_1">
      <path d="M 84.249682 542.771667 
L 84.249682 45.92 
" clip-path="url(#p9c497087c9)" style="fill: none; stroke: #b0b0b0; stroke-width: 0.8; stroke-linecap: square"/>
     </g>
     <g id="line2d_2">
      <defs>
       <path id="m1136d86762" d="M 0 0 
L 0 3.5 
" style="stroke: #000000; stroke-width: 0.8"/>
      </defs>
      <g>
       <use xlink:href="#m1136d86762" x="84.249682" y="542.771667" style="stroke: #000000; stroke-width: 0.8"/>
      </g>
     </g>
     <g id="text_1">
      <!-- 0 -->
      <g transform="translate(81.068432 557.370104) scale(0.1 -0.1)">
       <defs>
        <path id="DejaVuSans-30" d="M 2034 4250 
Q 1547 4250 1301 3770 
Q 1056 3291 1056 2328 
Q 1056 1369 1301 889 
Q 1547 409 2034 409 
Q 2525 409 2770 889 
Q 3016 1369 3016 2328 
Q 3016 3291 2770 3770 
Q 2525 4250 2034 4250 
z
M 2034 4750 
Q 2819 4750 3233 4129 
Q 3647 3509 3647 2328 
Q 3647 1150 3233 529 
Q 2819 -91 2034 -91 
Q 1250 -91 836 529 
Q 422 1150 422 2328 
Q 422 3509 836 4129 
Q 1250 4750 2034 4750 
z
" transform="scale(0.015625)"/>
       </defs>
       <use xlink:href="#DejaVuSans-30"/>
      </g>
     </g>
    </g>
    <g id="xtick_2">
     <g id="line2d_3">
      <path d="M 165.433871 542.771667 
L 165.433871 45.92 
" clip-path="url(#p9c497087c9)" style="fill: none; stroke: #b0b0b0; stroke-width: 0.8; stroke-linecap: square"/>
     </g>
     <g id="line2d_4">
      <g>
       <use xlink:href="#m1136d86762" x="165.433871" y="542.771667" style="stroke: #000000; stroke-width: 0.8"/>
      </g>
     </g>
     <g id="text_2">
      <!-- 25 -->
      <g transform="translate(159.071371 557.370104) scale(0.1 -0.1)">
       <defs>
        <path id="DejaVuSans-32" d="M 1228 531 
L 3431 531 
L 3431 0 
L 469 0 
L 469 531 
Q 828 903 1448 1529 
Q 2069 2156 2228 2338 
Q 2531 2678 2651 2914 
Q 2772 3150 2772 3378 
Q 2772 3750 2511 3984 
Q 2250 4219 1831 4219 
Q 1534 4219 1204 4116 
Q 875 4013 500 3803 
L 500 4441 
Q 881 4594 1212 4672 
Q 1544 4750 1819 4750 
Q 2544 4750 2975 4387 
Q 3406 4025 3406 3419 
Q 3406 3131 3298 2873 
Q 3191 2616 2906 2266 
Q 2828 2175 2409 1742 
Q 1991 1309 1228 531 
z
" transform="scale(0.015625)"/>
        <path id="DejaVuSans-35" d="M 691 4666 
L 3169 4666 
L 3169 4134 
L 1269 4134 
L 1269 2991 
Q 1406 3038 1543 3061 
Q 1681 3084 1819 3084 
Q 2600 3084 3056 2656 
Q 3513 2228 3513 1497 
Q 3513 744 3044 326 
Q 2575 -91 1722 -91 
Q 1428 -91 1123 -41 
Q 819 9 494 109 
L 494 744 
Q 775 591 1075 516 
Q 1375 441 1709 441 
Q 2250 441 2565 725 
Q 2881 1009 2881 1497 
Q 2881 1984 2565 2268 
Q 2250 2553 1709 2553 
Q 1456 2553 1204 2497 
Q 953 2441 691 2322 
L 691 4666 
z
" transform="scale(0.015625)"/>
       </defs>
       <use xlink:href="#DejaVuSans-32"/>
       <use xlink:href="#DejaVuSans-35" x="63.623047"/>
      </g>
     </g>
    </g>
    <g id="xtick_3">
     <g id="line2d_5">
      <path d="M 246.618059 542.771667 
L 246.618059 45.92 
" clip-path="url(#p9c497087c9)" style="fill: none; stroke: #b0b0b0; stroke-width: 0.8; stroke-linecap: square"/>
     </g>
     <g id="line2d_6">
      <g>
       <use xlink:href="#m1136d86762" x="246.618059" y="542.771667" style="stroke: #000000; stroke-width: 0.8"/>
      </g>
     </g>
     <g id="text_3">
      <!-- 50 -->
      <g transform="translate(240.255559 557.370104) scale(0.1 -0.1)">
       <use xlink:href="#DejaVuSans-35"/>
       <use xlink:href="#DejaVuSans-30" x="63.623047"/>
      </g>
     </g>
    </g>
    <g id="xtick_4">
     <g id="line2d_7">
      <path d="M 327.802248 542.771667 
L 327.802248 45.92 
" clip-path="url(#p9c497087c9)" style="fill: none; stroke: #b0b0b0; stroke-width: 0.8; stroke-linecap: square"/>
     </g>
     <g id="line2d_8">
      <g>
       <use xlink:href="#m1136d86762" x="327.802248" y="542.771667" style="stroke: #000000; stroke-width: 0.8"/>
      </g>
     </g>
     <g id="text_4">
      <!-- 75 -->
      <g transform="translate(321.439748 557.370104) scale(0.1 -0.1)">
       <defs>
        <path id="DejaVuSans-37" d="M 525 4666 
L 3525 4666 
L 3525 4397 
L 1831 0 
L 1172 0 
L 2766 4134 
L 525 4134 
L 525 4666 
z
" transform="scale(0.015625)"/>
       </defs>
       <use xlink:href="#DejaVuSans-37"/>
       <use xlink:href="#DejaVuSans-35" x="63.623047"/>
      </g>
     </g>
    </g>
    <g id="xtick_5">
     <g id="line2d_9">
      <path d="M 408.986437 542.771667 
L 408.986437 45.92 
" clip-path="url(#p9c497087c9)" style="fill: none; stroke: #b0b0b0; stroke-width: 0.8; stroke-linecap: square"/>
     </g>
     <g id="line2d_10">
      <g>
       <use xlink:href="#m1136d86762" x="408.986437" y="542.771667" style="stroke: #000000; stroke-width: 0.8"/>
      </g>
     </g>
     <g id="text_5">
      <!-- 100 -->
      <g transform="translate(399.442687 557.370104) scale(0.1 -0.1)">
       <defs>
        <path id="DejaVuSans-31" d="M 794 531 
L 1825 531 
L 1825 4091 
L 703 3866 
L 703 4441 
L 1819 4666 
L 2450 4666 
L 2450 531 
L 3481 531 
L 3481 0 
L 794 0 
L 794 531 
z
" transform="scale(0.015625)"/>
       </defs>
       <use xlink:href="#DejaVuSans-31"/>
       <use xlink:href="#DejaVuSans-30" x="63.623047"/>
       <use xlink:href="#DejaVuSans-30" x="127.246094"/>
      </g>
     </g>
    </g>
    <g id="xtick_6">
     <g id="line2d_11">
      <path d="M 490.170626 542.771667 
L 490.170626 45.92 
" clip-path="url(#p9c497087c9)" style="fill: none; stroke: #b0b0b0; stroke-width: 0.8; stroke-linecap: square"/>
     </g>
     <g id="line2d_12">
      <g>
       <use xlink:href="#m1136d86762" x="490.170626" y="542.771667" style="stroke: #000000; stroke-width: 0.8"/>
      </g>
     </g>
     <g id="text_6">
      <!-- 125 -->
      <g transform="translate(480.626876 557.370104) scale(0.1 -0.1)">
       <use xlink:href="#DejaVuSans-31"/>
       <use xlink:href="#DejaVuSans-32" x="63.623047"/>
       <use xlink:href="#DejaVuSans-35" x="127.246094"/>
      </g>
     </g>
    </g>
    <g id="xtick_7">
     <g id="line2d_13">
      <path d="M 571.354814 542.771667 
L 571.354814 45.92 
" clip-path="url(#p9c497087c9)" style="fill: none; stroke: #b0b0b0; stroke-width: 0.8; stroke-linecap: square"/>
     </g>
     <g id="line2d_14">
      <g>
       <use xlink:href="#m1136d86762" x="571.354814" y="542.771667" style="stroke: #000000; stroke-width: 0.8"/>
      </g>
     </g>
     <g id="text_7">
      <!-- 150 -->
      <g transform="translate(561.811064 557.370104) scale(0.1 -0.1)">
       <use xlink:href="#DejaVuSans-31"/>
       <use xlink:href="#DejaVuSans-35" x="63.623047"/>
       <use xlink:href="#DejaVuSans-30" x="127.246094"/>
      </g>
     </g>
    </g>
    <g id="xtick_8">
     <g id="line2d_15">
      <path d="M 652.539003 542.771667 
L 652.539003 45.92 
" clip-path="url(#p9c497087c9)" style="fill: none; stroke: #b0b0b0; stroke-width: 0.8; stroke-linecap: square"/>
     </g>
     <g id="line2d_16">
      <g>
       <use xlink:href="#m1136d86762" x="652.539003" y="542.771667" style="stroke: #000000; stroke-width: 0.8"/>
      </g>
     </g>
     <g id="text_8">
      <!-- 175 -->
      <g transform="translate(642.995253 557.370104) scale(0.1 -0.1)">
       <use xlink:href="#DejaVuSans-31"/>
       <use xlink:href="#DejaVuSans-37" x="63.623047"/>
       <use xlink:href="#DejaVuSans-35" x="127.246094"/>
      </g>
     </g>
    </g>
    <g id="xtick_9">
     <g id="line2d_17">
      <path d="M 733.723192 542.771667 
L 733.723192 45.92 
" clip-path="url(#p9c497087c9)" style="fill: none; stroke: #b0b0b0; stroke-width: 0.8; stroke-linecap: square"/>
     </g>
     <g id="line2d_18">
      <g>
       <use xlink:href="#m1136d86762" x="733.723192" y="542.771667" style="stroke: #000000; stroke-width: 0.8"/>
      </g>
     </g>
     <g id="text_9">
      <!-- 200 -->
      <g transform="translate(724.179442 557.370104) scale(0.1 -0.1)">
       <use xlink:href="#DejaVuSans-32"/>
       <use xlink:href="#DejaVuSans-30" x="63.623047"/>
       <use xlink:href="#DejaVuSans-30" x="127.246094"/>
      </g>
     </g>
    </g>
   </g>
   <g id="matplotlib.axis_2">
    <g id="ytick_1">
     <g id="line2d_19">
      <path d="M 51.833 520.1875 
L 765 520.1875 
" clip-path="url(#p9c497087c9)" style="fill: none; stroke: #b0b0b0; stroke-width: 0.8; stroke-linecap: square"/>
     </g>
     <g id="line2d_20">
      <defs>
       <path id="m73e8e3caa4" d="M 0 0 
L -3.5 0 
" style="stroke: #000000; stroke-width: 0.8"/>
      </defs>
      <g>
       <use xlink:href="#m73e8e3caa4" x="51.833" y="520.1875" style="stroke: #000000; stroke-width: 0.8"/>
      </g>
     </g>
     <g id="text_10">
      <!-- 0 -->
      <g transform="translate(38.4705 523.986719) scale(0.1 -0.1)">
       <use xlink:href="#DejaVuSans-30"/>
      </g>
     </g>
    </g>
    <g id="ytick_2">
     <g id="line2d_21">
      <path d="M 51.833 429.850833 
L 765 429.850833 
" clip-path="url(#p9c497087c9)" style="fill: none; stroke: #b0b0b0; stroke-width: 0.8; stroke-linecap: square"/>
     </g>
     <g id="line2d_22">
      <g>
       <use xlink:href="#m73e8e3caa4" x="51.833" y="429.850833" style="stroke: #000000; stroke-width: 0.8"/>
      </g>
     </g>
     <g id="text_11">
      <!-- 2 -->
      <g transform="translate(38.4705 433.650052) scale(0.1 -0.1)">
       <use xlink:href="#DejaVuSans-32"/>
      </g>
     </g>
    </g>
    <g id="ytick_3">
     <g id="line2d_23">
      <path d="M 51.833 339.514167 
L 765 339.514167 
" clip-path="url(#p9c497087c9)" style="fill: none; stroke: #b0b0b0; stroke-width: 0.8; stroke-linecap: square"/>
     </g>
     <g id="line2d_24">
      <g>
       <use xlink:href="#m73e8e3caa4" x="51.833" y="339.514167" style="stroke: #000000; stroke-width: 0.8"/>
      </g>
     </g>
     <g id="text_12">
      <!-- 4 -->
      <g transform="translate(38.4705 343.313385) scale(0.1 -0.1)">
       <defs>
        <path id="DejaVuSans-34" d="M 2419 4116 
L 825 1625 
L 2419 1625 
L 2419 4116 
z
M 2253 4666 
L 3047 4666 
L 3047 1625 
L 3713 1625 
L 3713 1100 
L 3047 1100 
L 3047 0 
L 2419 0 
L 2419 1100 
L 313 1100 
L 313 1709 
L 2253 4666 
z
" transform="scale(0.015625)"/>
       </defs>
       <use xlink:href="#DejaVuSans-34"/>
      </g>
     </g>
    </g>
    <g id="ytick_4">
     <g id="line2d_25">
      <path d="M 51.833 249.1775 
L 765 249.1775 
" clip-path="url(#p9c497087c9)" style="fill: none; stroke: #b0b0b0; stroke-width: 0.8; stroke-linecap: square"/>
     </g>
     <g id="line2d_26">
      <g>
       <use xlink:href="#m73e8e3caa4" x="51.833" y="249.1775" style="stroke: #000000; stroke-width: 0.8"/>
      </g>
     </g>
     <g id="text_13">
      <!-- 6 -->
      <g transform="translate(38.4705 252.976719) scale(0.1 -0.1)">
       <defs>
        <path id="DejaVuSans-36" d="M 2113 2584 
Q 1688 2584 1439 2293 
Q 1191 2003 1191 1497 
Q 1191 994 1439 701 
Q 1688 409 2113 409 
Q 2538 409 2786 701 
Q 3034 994 3034 1497 
Q 3034 2003 2786 2293 
Q 2538 2584 2113 2584 
z
M 3366 4563 
L 3366 3988 
Q 3128 4100 2886 4159 
Q 2644 4219 2406 4219 
Q 1781 4219 1451 3797 
Q 1122 3375 1075 2522 
Q 1259 2794 1537 2939 
Q 1816 3084 2150 3084 
Q 2853 3084 3261 2657 
Q 3669 2231 3669 1497 
Q 3669 778 3244 343 
Q 2819 -91 2113 -91 
Q 1303 -91 875 529 
Q 447 1150 447 2328 
Q 447 3434 972 4092 
Q 1497 4750 2381 4750 
Q 2619 4750 2861 4703 
Q 3103 4656 3366 4563 
z
" transform="scale(0.015625)"/>
       </defs>
       <use xlink:href="#DejaVuSans-36"/>
      </g>
     </g>
    </g>
    <g id="ytick_5">
     <g id="line2d_27">
      <path d="M 51.833 158.840833 
L 765 158.840833 
" clip-path="url(#p9c497087c9)" style="fill: none; stroke: #b0b0b0; stroke-width: 0.8; stroke-linecap: square"/>
     </g>
     <g id="line2d_28">
      <g>
       <use xlink:href="#m73e8e3caa4" x="51.833" y="158.840833" style="stroke: #000000; stroke-width: 0.8"/>
      </g>
     </g>
     <g id="text_14">
      <!-- 8 -->
      <g transform="translate(38.4705 162.640052) scale(0.1 -0.1)">
       <defs>
        <path id="DejaVuSans-38" d="M 2034 2216 
Q 1584 2216 1326 1975 
Q 1069 1734 1069 1313 
Q 1069 891 1326 650 
Q 1584 409 2034 409 
Q 2484 409 2743 651 
Q 3003 894 3003 1313 
Q 3003 1734 2745 1975 
Q 2488 2216 2034 2216 
z
M 1403 2484 
Q 997 2584 770 2862 
Q 544 3141 544 3541 
Q 544 4100 942 4425 
Q 1341 4750 2034 4750 
Q 2731 4750 3128 4425 
Q 3525 4100 3525 3541 
Q 3525 3141 3298 2862 
Q 3072 2584 2669 2484 
Q 3125 2378 3379 2068 
Q 3634 1759 3634 1313 
Q 3634 634 3220 271 
Q 2806 -91 2034 -91 
Q 1263 -91 848 271 
Q 434 634 434 1313 
Q 434 1759 690 2068 
Q 947 2378 1403 2484 
z
M 1172 3481 
Q 1172 3119 1398 2916 
Q 1625 2713 2034 2713 
Q 2441 2713 2670 2916 
Q 2900 3119 2900 3481 
Q 2900 3844 2670 4047 
Q 2441 4250 2034 4250 
Q 1625 4250 1398 4047 
Q 1172 3844 1172 3481 
z
" transform="scale(0.015625)"/>
       </defs>
       <use xlink:href="#DejaVuSans-38"/>
      </g>
     </g>
    </g>
    <g id="ytick_6">
     <g id="line2d_29">
      <path d="M 51.833 68.504167 
L 765 68.504167 
" clip-path="url(#p9c497087c9)" style="fill: none; stroke: #b0b0b0; stroke-width: 0.8; stroke-linecap: square"/>
     </g>
     <g id="line2d_30">
      <g>
       <use xlink:href="#m73e8e3caa4" x="51.833" y="68.504167" style="stroke: #000000; stroke-width: 0.8"/>
      </g>
     </g>
     <g id="text_15">
      <!-- 10 -->
      <g transform="translate(32.108 72.303385) scale(0.1 -0.1)">
       <use xlink:href="#DejaVuSans-31"/>
       <use xlink:href="#DejaVuSans-30" x="63.623047"/>
      </g>
     </g>
    </g>
   </g>
   <g id="line2d_31">
    <path d="M 84.249682 475.019167 
L 84.249682 520.1875 
L 84.252682 520.1875 
L 87.167638 475.019167 
L 87.167638 520.1875 
L 90.165683 475.019167 
L 90.415005 520.1875 
L 96.503068 475.019167 
L 96.503068 520.1875 
L 98.292524 475.019167 
L 99.750435 520.1875 
L 101.465223 475.019167 
L 102.997803 520.1875 
L 103.040613 475.019167 
L 104.18745 429.850833 
L 104.377047 384.6825 
L 106.24517 429.850833 
L 112.739905 520.1875 
L 115.141785 475.019167 
L 115.987273 520.1875 
L 120.236568 475.019167 
L 120.236568 520.1875 
L 122.680777 475.019167 
L 123.483935 520.1875 
L 125.406724 475.019167 
L 126.731303 520.1875 
L 131.279164 475.019167 
L 131.279164 520.1875 
L 131.518447 475.019167 
L 132.854992 429.850833 
L 133.151026 384.6825 
L 134.526532 429.850833 
L 136.543267 384.6825 
L 137.773899 429.850833 
L 144.268634 520.1875 
L 146.773026 475.019167 
L 147.516002 520.1875 
L 153.400553 475.019167 
L 153.400553 520.1875 
L 155.484419 475.019167 
L 156.647921 520.1875 
L 160.697222 475.019167 
L 160.697222 520.1875 
L 165.93848 475.019167 
L 165.93848 520.1875 
L 168.325179 475.019167 
L 169.185847 520.1875 
L 172.013991 475.019167 
L 172.422751 429.850833 
L 172.433215 475.019167 
L 175.680582 520.1875 
L 176.563884 475.019167 
L 177.066348 429.850833 
L 178.92795 475.019167 
L 179.569532 429.850833 
L 182.175317 475.019167 
L 184.185225 429.850833 
L 185.422685 475.019167 
L 186.581222 429.850833 
L 186.944752 384.6825 
L 188.670053 429.850833 
L 188.683931 384.6825 
L 189.681783 339.514167 
L 190.351401 294.345833 
L 191.91742 339.514167 
L 194.687579 294.345833 
L 195.164788 339.514167 
L 196.665493 294.345833 
L 197.137264 249.1775 
L 197.198862 204.009167 
L 198.412155 249.1775 
L 198.471086 204.009167 
L 201.593043 158.840833 
L 201.659523 204.009167 
L 202.409568 158.840833 
L 203.996092 113.6725 
L 204.90689 158.840833 
L 211.401625 249.1775 
L 213.34174 204.009167 
L 214.648993 249.1775 
L 215.282841 204.009167 
L 216.729604 158.840833 
L 217.896361 204.009167 
L 218.595321 158.840833 
L 221.143728 204.009167 
L 224.391096 249.1775 
L 226.149838 204.009167 
L 227.638463 249.1775 
L 229.718411 204.009167 
L 230.885831 249.1775 
L 233.156835 204.009167 
L 234.133198 249.1775 
L 236.763353 204.009167 
L 237.211583 158.840833 
L 237.380566 204.009167 
L 240.627933 249.1775 
L 241.722315 204.009167 
L 243.190456 158.840833 
L 243.875301 204.009167 
L 245.932624 158.840833 
L 247.122668 204.009167 
L 260.112139 384.6825 
L 260.398012 339.514167 
L 261.158875 294.345833 
L 263.359506 339.514167 
L 264.432284 294.345833 
L 266.606874 339.514167 
L 267.870411 294.345833 
L 269.854241 339.514167 
L 271.650335 249.1775 
L 273.101609 294.345833 
L 273.387887 249.1775 
L 275.427044 204.009167 
L 276.348976 249.1775 
L 277.517638 204.009167 
L 278.4278 158.840833 
L 279.596344 204.009167 
L 281.600037 158.840833 
L 282.843712 204.009167 
L 282.93958 158.840833 
L 286.091079 204.009167 
L 286.408003 158.840833 
L 286.890926 113.6725 
L 289.338447 158.840833 
L 291.783525 113.6725 
L 292.585814 158.840833 
L 293.277359 113.6725 
L 295.833182 158.840833 
L 296.804875 113.6725 
L 299.080549 158.840833 
L 302.327917 204.009167 
L 302.391424 158.840833 
L 305.575284 204.009167 
L 306.027873 158.840833 
L 306.35597 113.6725 
L 308.822652 158.840833 
L 315.317387 249.1775 
L 317.960725 204.009167 
L 318.564755 249.1775 
L 321.812122 294.345833 
L 324.797477 249.1775 
L 324.983639 204.009167 
L 325.05949 249.1775 
L 327.99875 204.009167 
L 328.306857 249.1775 
L 329.946998 204.009167 
L 331.554225 249.1775 
L 334.312256 204.009167 
L 334.507639 113.6725 
L 334.801592 158.840833 
L 336.400459 113.6725 
L 338.04896 158.840833 
L 347.791063 294.345833 
L 349.037818 249.1775 
L 350.774784 204.009167 
L 351.03843 249.1775 
L 357.533165 339.514167 
L 358.905906 294.345833 
L 360.780533 339.514167 
L 361.610455 294.345833 
L 364.0279 339.514167 
L 367.275268 384.6825 
L 368.115713 339.514167 
L 368.436067 294.345833 
L 370.522635 339.514167 
L 373.770003 384.6825 
L 376.685369 339.514167 
L 376.967145 294.345833 
L 377.01737 339.514167 
L 383.512106 429.850833 
L 385.570253 384.6825 
L 386.029206 339.514167 
L 386.759473 384.6825 
L 389.41225 339.514167 
L 390.006841 384.6825 
L 393.254208 429.850833 
L 393.503718 384.6825 
L 395.611818 294.345833 
L 396.268924 249.1775 
L 396.501576 294.345833 
L 399.136769 249.1775 
L 399.202731 204.009167 
L 399.748943 249.1775 
L 399.788076 204.009167 
L 402.996311 249.1775 
L 405.522087 204.009167 
L 406.243678 249.1775 
L 408.259887 204.009167 
L 409.491046 249.1775 
L 412.574852 204.009167 
L 412.738414 249.1775 
L 414.419046 204.009167 
L 415.347861 158.840833 
L 415.985781 204.009167 
L 419.233149 249.1775 
L 419.929976 204.009167 
L 422.480516 249.1775 
L 422.717493 204.009167 
L 424.355283 158.840833 
L 425.727884 204.009167 
L 428.975251 249.1775 
L 431.706458 204.009167 
L 432.222619 249.1775 
L 432.526159 204.009167 
L 435.469986 249.1775 
L 441.964721 339.514167 
L 442.438039 294.345833 
L 444.362507 249.1775 
L 445.212089 294.345833 
L 448.459457 339.514167 
L 450.44632 294.345833 
L 451.706824 339.514167 
L 454.35043 294.345833 
L 454.751567 249.1775 
L 454.954192 294.345833 
L 455.897953 249.1775 
L 458.201559 294.345833 
L 460.628778 249.1775 
L 461.448927 294.345833 
L 462.352229 249.1775 
L 463.992211 204.009167 
L 464.696294 249.1775 
L 467.943662 294.345833 
L 470.907478 249.1775 
L 471.191029 294.345833 
L 477.685765 384.6825 
L 477.840057 339.514167 
L 480.933132 384.6825 
L 481.669947 339.514167 
L 484.1805 384.6825 
L 484.553159 339.514167 
L 487.427867 384.6825 
L 488.053285 339.514167 
L 490.52735 294.345833 
L 490.675235 339.514167 
L 491.378346 294.345833 
L 493.922602 339.514167 
L 494.732218 294.345833 
L 496.363405 249.1775 
L 497.16997 294.345833 
L 498.153991 249.1775 
L 500.417337 294.345833 
L 501.285926 249.1775 
L 503.377571 204.009167 
L 503.664705 249.1775 
L 504.543139 204.009167 
L 506.912073 249.1775 
L 509.160636 158.840833 
L 510.15944 204.009167 
L 512.285821 158.840833 
L 513.406808 204.009167 
L 514.104221 158.840833 
L 516.654175 204.009167 
L 519.901543 249.1775 
L 520.947878 204.009167 
L 523.14891 249.1775 
L 523.850144 204.009167 
L 526.396278 249.1775 
L 526.623655 204.009167 
L 529.643645 249.1775 
L 536.13838 339.514167 
L 537.900254 294.345833 
L 538.394808 249.1775 
L 539.385748 294.345833 
L 539.882663 249.1775 
L 540.214936 204.009167 
L 542.073929 158.840833 
L 542.633116 204.009167 
L 552.375218 339.514167 
L 555.510918 294.345833 
L 555.622586 339.514167 
L 558.011641 294.345833 
L 558.869953 339.514167 
L 559.940816 294.345833 
L 560.283779 249.1775 
L 562.117321 294.345833 
L 565.364688 339.514167 
L 568.464814 294.345833 
L 568.612056 339.514167 
L 571.859424 384.6825 
L 574.439103 339.514167 
L 574.964754 294.345833 
L 575.106791 339.514167 
L 581.601526 429.850833 
L 582.596644 384.6825 
L 584.848894 429.850833 
L 588.096261 475.019167 
L 589.175514 429.850833 
L 589.299833 384.6825 
L 589.875674 339.514167 
L 591.343629 384.6825 
L 592.980049 339.514167 
L 594.590996 384.6825 
L 597.838364 429.850833 
L 597.883 384.6825 
L 604.333099 475.019167 
L 604.384186 429.850833 
L 606.1053 384.6825 
L 606.594974 339.514167 
L 607.580467 384.6825 
L 608.292925 339.514167 
L 610.827834 384.6825 
L 612.174954 339.514167 
L 613.69236 294.345833 
L 614.075202 339.514167 
L 615.654741 294.345833 
L 617.322569 339.514167 
L 617.424092 294.345833 
L 620.569937 339.514167 
L 621.581808 294.345833 
L 623.059074 249.1775 
L 623.817304 294.345833 
L 633.559407 429.850833 
L 636.555826 339.514167 
L 636.806775 384.6825 
L 643.30151 475.019167 
L 645.923221 429.850833 
L 646.534684 384.6825 
L 646.548877 429.850833 
L 647.881083 384.6825 
L 649.796245 429.850833 
L 650.271572 384.6825 
L 650.453002 339.514167 
L 651.820042 249.1775 
L 653.043612 294.345833 
L 656.29098 339.514167 
L 656.945729 294.345833 
L 658.321499 249.1775 
L 659.538347 294.345833 
L 666.033082 384.6825 
L 667.688674 339.514167 
L 669.28045 384.6825 
L 670.731908 339.514167 
L 672.527818 384.6825 
L 673.680401 339.514167 
L 673.785476 294.345833 
L 675.775185 339.514167 
L 678.756647 294.345833 
L 678.924481 249.1775 
L 679.022553 294.345833 
L 681.720216 249.1775 
L 682.26992 294.345833 
L 682.602422 249.1775 
L 685.517288 294.345833 
L 695.25939 429.850833 
L 698.44676 384.6825 
L 698.506758 429.850833 
L 700.93775 384.6825 
L 701.754126 429.850833 
L 705.001493 475.019167 
L 707.423301 429.850833 
L 708.248861 475.019167 
L 711.496228 520.1875 
L 711.676656 475.019167 
L 712.890802 429.850833 
L 714.743596 475.019167 
L 715.514611 429.850833 
L 717.163835 384.6825 
L 717.939154 339.514167 
L 717.990963 384.6825 
L 719.521022 294.345833 
L 720.322664 249.1775 
L 721.238331 294.345833 
L 723.060126 249.1775 
L 724.485698 294.345833 
L 727.428964 249.1775 
L 727.733066 294.345833 
L 729.382837 249.1775 
L 730.980434 294.345833 
L 730.980434 294.345833 
" clip-path="url(#p9c497087c9)" style="fill: none; stroke: #1f77b4; stroke-width: 1.5; stroke-linecap: square"/>
   </g>
   <g id="line2d_32">
    <path d="M 84.249682 475.019167 
L 84.249682 520.1875 
L 84.25011 475.019167 
L 84.25011 520.1875 
L 84.250539 475.019167 
L 84.250539 520.1875 
L 84.250968 475.019167 
L 84.250968 520.1875 
L 84.251396 475.019167 
L 84.251396 520.1875 
L 84.251825 475.019167 
L 84.251825 520.1875 
L 84.252254 475.019167 
L 84.252254 520.1875 
L 84.252682 475.019167 
L 84.252682 520.1875 
" clip-path="url(#p9c497087c9)" style="fill: none; stroke: #ff7f0e; stroke-width: 1.5; stroke-linecap: square"/>
   </g>
   <g id="line2d_33">
    <path d="M 84.249682 475.019167 
L 84.249682 520.1875 
L 84.25011 475.019167 
L 84.25011 520.1875 
L 84.250539 475.019167 
L 84.250539 520.1875 
L 84.250968 475.019167 
L 84.250968 520.1875 
L 84.251396 475.019167 
L 84.251396 520.1875 
L 84.251825 475.019167 
L 84.251825 520.1875 
L 84.252254 475.019167 
L 84.252254 520.1875 
L 84.252682 475.019167 
L 84.252682 520.1875 
" clip-path="url(#p9c497087c9)" style="fill: none; stroke: #2ca02c; stroke-width: 1.5; stroke-linecap: square"/>
   </g>
   <g id="line2d_34">
    <path d="M 90.2885 475.019167 
L 90.2885 520.1875 
L 92.844832 475.019167 
L 93.535868 520.1875 
L 98.946519 475.019167 
L 98.946519 520.1875 
L 102.317803 475.019167 
L 102.317803 520.1875 
L 104.186726 475.019167 
L 105.565171 520.1875 
L 111.407327 475.019167 
L 111.407327 520.1875 
L 112.441146 475.019167 
L 114.01158 429.850833 
L 114.654694 475.019167 
L 116.120571 429.850833 
L 117.902062 475.019167 
L 121.149429 520.1875 
L 121.550855 475.019167 
L 123.674252 429.850833 
L 124.396797 475.019167 
L 125.294273 429.850833 
L 127.644165 475.019167 
L 130.891532 520.1875 
L 133.731759 475.019167 
L 133.798089 429.850833 
L 134.1389 475.019167 
L 135.289436 429.850833 
L 137.386267 475.019167 
L 140.633635 520.1875 
L 141.094065 475.019167 
L 143.881002 520.1875 
L 145.9839 475.019167 
L 146.475003 429.850833 
L 147.12837 475.019167 
L 150.375737 520.1875 
L 153.100653 475.019167 
L 153.623105 520.1875 
L 165.587502 475.019167 
L 165.587502 520.1875 
L 167.597393 475.019167 
L 168.834869 520.1875 
L 172.522143 475.019167 
L 172.522143 520.1875 
L 175.839108 475.019167 
L 175.839108 520.1875 
L 178.671855 475.019167 
L 179.086475 520.1875 
L 188.071102 475.019167 
L 188.071102 520.1875 
L 190.154921 475.019167 
L 191.31847 520.1875 
L 194.987831 475.019167 
L 194.987831 520.1875 
L 195.780346 475.019167 
L 198.235199 520.1875 
L 198.509222 475.019167 
L 199.035739 429.850833 
L 201.482566 475.019167 
L 202.110985 429.850833 
L 204.729934 475.019167 
L 205.22699 429.850833 
L 207.977301 475.019167 
L 211.224669 520.1875 
L 212.789828 475.019167 
L 214.472036 520.1875 
L 216.508515 475.019167 
L 217.719404 520.1875 
L 219.591873 475.019167 
L 220.966772 520.1875 
L 223.476074 475.019167 
L 223.815623 429.850833 
L 224.017334 384.6825 
L 224.214139 429.850833 
L 230.708874 520.1875 
L 235.383815 475.019167 
L 235.383815 520.1875 
L 235.992456 475.019167 
L 236.759506 429.850833 
L 238.199402 384.6825 
L 238.631182 429.850833 
L 239.430031 384.6825 
L 241.87855 429.850833 
L 242.469766 384.6825 
L 243.746347 339.514167 
L 243.87359 294.345833 
L 245.125917 339.514167 
L 245.748374 294.345833 
L 248.373285 339.514167 
L 249.014807 294.345833 
L 251.620652 339.514167 
L 258.115387 429.850833 
L 259.383478 384.6825 
L 259.733009 339.514167 
L 261.362755 384.6825 
L 263.16816 339.514167 
L 263.739416 294.345833 
L 264.610123 339.514167 
L 277.599593 520.1875 
L 281.145632 475.019167 
L 281.145632 520.1875 
L 281.70784 475.019167 
L 282.087637 429.850833 
L 284.392999 475.019167 
L 286.97403 384.6825 
L 287.640367 429.850833 
L 287.684816 384.6825 
L 297.38247 520.1875 
L 297.429693 429.850833 
L 297.761395 384.6825 
L 300.629837 429.850833 
L 300.927909 384.6825 
L 303.877205 429.850833 
L 306.83753 384.6825 
L 307.124572 429.850833 
L 313.619307 520.1875 
L 319.012013 475.019167 
L 319.012013 520.1875 
L 321.065443 475.019167 
L 322.259381 520.1875 
L 323.379464 475.019167 
L 325.506748 520.1875 
L 335.595824 475.019167 
L 335.595824 520.1875 
L 336.675282 475.019167 
L 337.09113 429.850833 
L 338.53757 384.6825 
L 338.843192 429.850833 
L 339.677968 384.6825 
L 341.807093 339.514167 
L 342.090559 384.6825 
L 342.217523 339.514167 
L 345.337927 384.6825 
L 346.00679 339.514167 
L 347.249561 294.345833 
L 348.585294 339.514167 
L 351.832662 384.6825 
L 354.14774 339.514167 
L 354.363032 294.345833 
L 355.080029 339.514167 
L 355.156674 294.345833 
L 358.327397 339.514167 
L 358.985936 294.345833 
L 361.574765 339.514167 
L 361.701052 294.345833 
L 362.702588 249.1775 
L 364.822132 294.345833 
L 365.012271 249.1775 
L 367.417788 204.009167 
L 368.0695 249.1775 
L 374.564235 339.514167 
L 375.489388 294.345833 
L 377.811602 339.514167 
L 378.27529 294.345833 
L 379.33179 249.1775 
L 380.577351 204.009167 
L 380.607879 158.840833 
L 381.05897 204.009167 
L 384.18273 158.840833 
L 384.306337 204.009167 
L 387.553705 249.1775 
L 390.181682 204.009167 
L 390.801073 249.1775 
L 394.04844 294.345833 
L 396.161003 249.1775 
L 397.295808 294.345833 
L 397.808068 249.1775 
L 400.421541 204.009167 
L 400.543175 249.1775 
L 401.920951 204.009167 
L 401.936235 158.840833 
L 402.450428 113.6725 
L 403.790543 158.840833 
L 406.128507 113.6725 
L 407.03791 158.840833 
L 407.150524 113.6725 
L 410.285278 158.840833 
L 411.100975 113.6725 
L 412.206206 68.504167 
L 413.532645 113.6725 
L 420.02738 204.009167 
L 422.841799 158.840833 
L 423.274748 204.009167 
L 425.753359 158.840833 
L 426.522116 204.009167 
L 428.511092 158.840833 
L 429.769483 204.009167 
L 431.819051 158.840833 
L 433.016851 204.009167 
L 436.264218 249.1775 
L 439.0331 204.009167 
L 439.511586 249.1775 
L 442.733826 204.009167 
L 442.758953 249.1775 
L 444.670489 204.009167 
L 446.006321 249.1775 
L 455.748424 384.6825 
L 457.150144 339.514167 
L 458.995791 384.6825 
L 462.243159 429.850833 
L 462.608716 384.6825 
L 465.490526 429.850833 
L 466.262921 384.6825 
L 467.196248 339.514167 
L 468.737894 384.6825 
L 471.24336 294.345833 
L 471.985261 339.514167 
L 481.727364 475.019167 
L 482.168708 429.850833 
L 484.974731 475.019167 
L 486.364012 429.850833 
L 488.222099 475.019167 
L 488.623528 429.850833 
L 491.469467 475.019167 
L 494.716834 520.1875 
L 498.773073 475.019167 
L 498.773073 520.1875 
L 501.800928 475.019167 
L 501.863861 429.850833 
L 502.02044 475.019167 
L 503.926354 429.850833 
L 505.267808 475.019167 
L 508.014931 429.850833 
L 508.515176 475.019167 
L 509.117947 429.850833 
L 510.68849 384.6825 
L 511.762543 429.850833 
L 515.009911 475.019167 
L 515.179532 429.850833 
L 515.652264 384.6825 
L 516.004757 339.514167 
L 517.155053 294.345833 
L 517.469796 249.1775 
L 518.257278 294.345833 
L 520.210212 249.1775 
L 521.504646 294.345833 
L 521.629403 249.1775 
L 524.235584 204.009167 
L 524.346655 158.840833 
L 524.752013 204.009167 
L 527.785648 158.840833 
L 527.999381 204.009167 
L 531.21438 158.840833 
L 531.246748 204.009167 
L 532.471534 158.840833 
L 534.305031 113.6725 
L 534.494116 158.840833 
L 535.117138 113.6725 
L 537.741483 158.840833 
L 540.988851 204.009167 
L 542.484226 158.840833 
L 544.236219 204.009167 
L 547.483586 249.1775 
L 549.709342 204.009167 
L 550.688637 158.840833 
L 550.730954 204.009167 
L 553.978321 249.1775 
L 556.017235 204.009167 
L 557.225689 249.1775 
L 559.969344 204.009167 
L 560.309934 158.840833 
L 560.473056 204.009167 
L 561.720414 158.840833 
L 563.720424 204.009167 
L 565.788091 158.840833 
L 566.967791 204.009167 
L 567.845177 158.840833 
L 570.215159 204.009167 
L 589.699364 475.019167 
L 589.814887 429.850833 
L 592.120251 384.6825 
L 592.713021 339.514167 
L 592.946732 384.6825 
L 593.14227 339.514167 
L 596.194099 384.6825 
L 599.26008 339.514167 
L 599.441467 384.6825 
L 602.688834 429.850833 
L 604.607582 384.6825 
L 605.936202 429.850833 
L 607.341479 384.6825 
L 607.451197 339.514167 
L 607.683953 294.345833 
L 609.18357 339.514167 
L 618.925672 475.019167 
L 620.835295 429.850833 
L 621.003874 384.6825 
L 622.17304 429.850833 
L 625.420407 475.019167 
L 627.540087 429.850833 
L 627.594538 384.6825 
L 628.667775 429.850833 
L 631.915142 475.019167 
L 633.883316 429.850833 
L 634.735196 384.6825 
L 634.77346 339.514167 
L 635.16251 384.6825 
L 638.409878 429.850833 
L 639.47498 384.6825 
L 641.657245 429.850833 
L 643.726753 384.6825 
L 644.904613 429.850833 
L 648.15198 475.019167 
L 648.22855 429.850833 
L 650.412277 384.6825 
L 651.399348 429.850833 
L 651.756618 384.6825 
L 651.817329 339.514167 
L 652.426272 294.345833 
L 654.448075 249.1775 
L 654.646715 294.345833 
L 655.271301 249.1775 
L 657.894083 294.345833 
L 661.14145 339.514167 
L 662.012937 294.345833 
L 664.388818 339.514167 
L 667.636186 384.6825 
L 670.560719 339.514167 
L 670.883553 384.6825 
L 674.130921 429.850833 
L 674.5186 384.6825 
L 675.102988 339.514167 
L 677.354062 294.345833 
L 677.378288 339.514167 
L 680.508822 294.345833 
L 680.625656 339.514167 
L 683.873023 384.6825 
L 684.408816 339.514167 
L 687.120391 384.6825 
L 690.367758 429.850833 
L 693.246034 384.6825 
L 693.615126 429.850833 
L 694.255861 384.6825 
L 696.862493 429.850833 
L 697.346801 384.6825 
L 700.109861 429.850833 
L 701.037748 384.6825 
L 703.357229 429.850833 
L 703.932382 384.6825 
L 706.604596 429.850833 
L 708.445174 384.6825 
L 709.851964 429.850833 
L 716.346699 520.1875 
L 719.284674 475.019167 
L 719.594066 520.1875 
L 719.953736 475.019167 
L 722.841434 520.1875 
L 729.335626 475.019167 
L 729.335626 520.1875 
L 731.525146 475.019167 
L 732.363008 429.850833 
L 732.582993 475.019167 
L 732.582993 475.019167 
" clip-path="url(#p9c497087c9)" style="fill: none; stroke: #d62728; stroke-width: 1.5; stroke-linecap: square"/>
   </g>
   <g id="line2d_35">
    <path d="M 84.249682 475.019167 
L 84.249682 520.1875 
L 84.25011 475.019167 
L 84.25011 520.1875 
L 84.250539 475.019167 
L 84.250539 520.1875 
L 84.250968 475.019167 
L 84.250968 520.1875 
L 84.251396 475.019167 
L 84.251396 520.1875 
L 84.251825 475.019167 
L 84.251825 520.1875 
L 84.252254 475.019167 
L 84.252254 520.1875 
L 84.252682 475.019167 
L 84.252682 520.1875 
" clip-path="url(#p9c497087c9)" style="fill: none; stroke: #9467bd; stroke-width: 1.5; stroke-linecap: square"/>
   </g>
   <g id="line2d_36">
    <path d="M 93.536192 475.019167 
L 93.536192 520.1875 
L 96.78356 475.019167 
L 96.78356 520.1875 
L 102.194211 475.019167 
L 102.194211 520.1875 
L 105.565496 475.019167 
L 105.565496 520.1875 
L 108.812863 475.019167 
L 108.812863 520.1875 
L 114.655019 475.019167 
L 114.655019 520.1875 
L 117.902387 475.019167 
L 117.902387 520.1875 
L 121.149754 475.019167 
L 121.149754 520.1875 
L 124.397122 475.019167 
L 124.397122 520.1875 
L 127.644489 475.019167 
L 127.644489 520.1875 
L 130.891857 475.019167 
L 130.891857 520.1875 
L 134.139224 475.019167 
L 134.139224 520.1875 
L 137.386592 475.019167 
L 137.386592 520.1875 
L 140.633959 475.019167 
L 140.633959 520.1875 
L 143.881327 475.019167 
L 143.881327 520.1875 
L 147.128695 475.019167 
L 147.128695 520.1875 
L 150.376062 475.019167 
L 150.376062 520.1875 
L 153.62343 475.019167 
L 153.62343 520.1875 
L 156.870797 475.019167 
L 156.870797 520.1875 
L 168.835194 475.019167 
L 168.835194 520.1875 
L 172.082561 475.019167 
L 172.082561 520.1875 
L 175.769835 475.019167 
L 175.769835 520.1875 
L 179.0868 475.019167 
L 179.0868 520.1875 
L 182.334167 475.019167 
L 182.334167 520.1875 
L 191.318794 475.019167 
L 191.318794 520.1875 
L 194.566162 475.019167 
L 194.566162 520.1875 
L 198.235523 475.019167 
L 198.235523 520.1875 
L 201.482891 475.019167 
L 201.482891 520.1875 
L 204.730259 475.019167 
L 204.730259 520.1875 
L 207.977626 475.019167 
L 207.977626 520.1875 
L 211.224994 475.019167 
L 211.224994 520.1875 
L 214.472361 475.019167 
L 214.472361 520.1875 
L 217.719729 475.019167 
L 217.719729 520.1875 
L 220.967096 475.019167 
L 220.967096 520.1875 
L 224.214464 475.019167 
L 224.214464 520.1875 
L 227.461831 475.019167 
L 227.461831 520.1875 
L 230.709199 475.019167 
L 230.709199 520.1875 
L 233.956567 475.019167 
L 233.956567 520.1875 
L 238.631507 475.019167 
L 238.631507 520.1875 
L 241.878874 475.019167 
L 241.878874 520.1875 
L 245.126242 475.019167 
L 245.126242 520.1875 
L 248.37361 475.019167 
L 248.37361 520.1875 
L 251.620977 475.019167 
L 251.620977 520.1875 
L 254.868345 475.019167 
L 254.868345 520.1875 
L 258.115712 475.019167 
L 258.115712 520.1875 
L 261.36308 475.019167 
L 261.36308 520.1875 
L 264.610447 475.019167 
L 264.610447 520.1875 
L 267.857815 475.019167 
L 267.857815 520.1875 
L 271.105182 475.019167 
L 271.105182 520.1875 
L 274.35255 475.019167 
L 274.35255 520.1875 
L 277.599917 475.019167 
L 277.599917 520.1875 
L 280.847285 475.019167 
L 280.847285 520.1875 
L 284.393324 475.019167 
L 284.393324 520.1875 
L 287.640692 475.019167 
L 287.640692 520.1875 
L 290.888059 475.019167 
L 290.888059 520.1875 
L 294.135427 475.019167 
L 294.135427 520.1875 
L 297.382794 475.019167 
L 297.382794 520.1875 
L 300.630162 475.019167 
L 300.630162 520.1875 
L 303.877529 475.019167 
L 303.877529 520.1875 
L 307.124897 475.019167 
L 307.124897 520.1875 
L 310.372264 475.019167 
L 310.372264 520.1875 
L 313.619632 475.019167 
L 313.619632 520.1875 
L 316.867 475.019167 
L 316.867 520.1875 
L 322.259706 475.019167 
L 322.259706 520.1875 
L 325.507073 475.019167 
L 325.507073 520.1875 
L 328.754441 475.019167 
L 328.754441 520.1875 
L 338.843516 475.019167 
L 338.843516 520.1875 
L 342.090884 475.019167 
L 342.090884 520.1875 
L 345.338252 475.019167 
L 345.338252 520.1875 
L 348.585619 475.019167 
L 348.585619 520.1875 
L 351.832987 475.019167 
L 351.832987 520.1875 
L 355.080354 475.019167 
L 355.080354 520.1875 
L 358.327722 475.019167 
L 358.327722 520.1875 
L 361.575089 475.019167 
L 361.575089 520.1875 
L 364.822457 475.019167 
L 364.822457 520.1875 
L 368.069824 475.019167 
L 368.069824 520.1875 
L 371.317192 475.019167 
L 371.317192 520.1875 
L 374.56456 475.019167 
L 374.56456 520.1875 
L 377.811927 475.019167 
L 377.811927 520.1875 
L 381.059295 475.019167 
L 381.059295 520.1875 
L 384.306662 475.019167 
L 384.306662 520.1875 
L 387.55403 475.019167 
L 387.55403 520.1875 
L 390.801397 475.019167 
L 390.801397 520.1875 
L 394.048765 475.019167 
L 394.048765 520.1875 
L 397.296132 475.019167 
L 397.296132 520.1875 
L 400.5435 475.019167 
L 400.5435 520.1875 
L 403.790867 475.019167 
L 403.790867 520.1875 
L 407.038235 475.019167 
L 407.038235 520.1875 
L 410.285603 475.019167 
L 410.285603 520.1875 
L 413.53297 475.019167 
L 413.53297 520.1875 
L 416.780338 475.019167 
L 416.780338 520.1875 
L 420.027705 475.019167 
L 420.027705 520.1875 
L 423.275073 475.019167 
L 423.275073 520.1875 
L 426.52244 475.019167 
L 426.52244 520.1875 
L 429.769808 475.019167 
L 429.769808 520.1875 
L 433.017175 475.019167 
L 433.017175 520.1875 
L 436.264543 475.019167 
L 436.264543 520.1875 
L 439.511911 475.019167 
L 439.511911 520.1875 
L 442.759278 475.019167 
L 442.759278 520.1875 
L 446.006646 475.019167 
L 446.006646 520.1875 
L 449.254013 475.019167 
L 449.254013 520.1875 
L 452.501381 475.019167 
L 452.501381 520.1875 
L 455.748748 475.019167 
L 455.748748 520.1875 
L 458.996116 475.019167 
L 458.996116 520.1875 
L 462.243483 475.019167 
L 462.243483 520.1875 
L 465.490851 475.019167 
L 465.490851 520.1875 
L 468.738218 475.019167 
L 468.738218 520.1875 
L 471.985586 475.019167 
L 471.985586 520.1875 
L 475.232954 475.019167 
L 475.232954 520.1875 
L 478.480321 475.019167 
L 478.480321 520.1875 
L 481.727689 475.019167 
L 481.727689 520.1875 
L 484.975056 475.019167 
L 484.975056 520.1875 
L 488.222424 475.019167 
L 488.222424 520.1875 
L 491.469791 475.019167 
L 491.469791 520.1875 
L 494.717159 475.019167 
L 494.717159 520.1875 
L 497.964526 475.019167 
L 497.964526 520.1875 
L 502.020765 475.019167 
L 502.020765 520.1875 
L 505.268133 475.019167 
L 505.268133 520.1875 
L 508.5155 475.019167 
L 508.5155 520.1875 
L 511.762868 475.019167 
L 511.762868 520.1875 
L 515.010235 475.019167 
L 515.010235 520.1875 
L 518.257603 475.019167 
L 518.257603 520.1875 
L 521.50497 475.019167 
L 521.50497 520.1875 
L 524.752338 475.019167 
L 524.752338 520.1875 
L 527.999706 475.019167 
L 527.999706 520.1875 
L 531.247073 475.019167 
L 531.247073 520.1875 
L 534.494441 475.019167 
L 534.494441 520.1875 
L 537.741808 475.019167 
L 537.741808 520.1875 
L 540.989176 475.019167 
L 540.989176 520.1875 
L 544.236543 475.019167 
L 544.236543 520.1875 
L 547.483911 475.019167 
L 547.483911 520.1875 
L 550.731278 475.019167 
L 550.731278 520.1875 
L 553.978646 475.019167 
L 553.978646 520.1875 
L 557.226014 475.019167 
L 557.226014 520.1875 
L 560.473381 475.019167 
L 560.473381 520.1875 
L 563.720749 475.019167 
L 563.720749 520.1875 
L 566.968116 475.019167 
L 566.968116 520.1875 
L 570.215484 475.019167 
L 570.215484 520.1875 
L 573.462851 475.019167 
L 573.462851 520.1875 
L 576.710219 475.019167 
L 576.710219 520.1875 
L 579.957586 475.019167 
L 579.957586 520.1875 
L 583.204954 475.019167 
L 583.204954 520.1875 
L 586.452321 475.019167 
L 586.452321 520.1875 
L 589.699689 475.019167 
L 589.699689 520.1875 
L 592.947057 475.019167 
L 592.947057 520.1875 
L 596.194424 475.019167 
L 596.194424 520.1875 
L 599.441792 475.019167 
L 599.441792 520.1875 
L 602.689159 475.019167 
L 602.689159 520.1875 
L 605.936527 475.019167 
L 605.936527 520.1875 
L 609.183894 475.019167 
L 609.183894 520.1875 
L 612.431262 475.019167 
L 612.431262 520.1875 
L 615.678629 475.019167 
L 615.678629 520.1875 
L 618.925997 475.019167 
L 618.925997 520.1875 
L 622.173365 475.019167 
L 622.173365 520.1875 
L 625.420732 475.019167 
L 625.420732 520.1875 
L 628.6681 475.019167 
L 628.6681 520.1875 
L 631.915467 475.019167 
L 631.915467 520.1875 
L 635.162835 475.019167 
L 635.162835 520.1875 
L 638.410202 475.019167 
L 638.410202 520.1875 
L 641.65757 475.019167 
L 641.65757 520.1875 
L 644.904937 475.019167 
L 644.904937 520.1875 
L 648.152305 475.019167 
L 648.152305 520.1875 
L 651.399672 475.019167 
L 651.399672 520.1875 
L 654.64704 475.019167 
L 654.64704 520.1875 
L 657.894408 475.019167 
L 657.894408 520.1875 
L 661.141775 475.019167 
L 661.141775 520.1875 
L 664.389143 475.019167 
L 664.389143 520.1875 
L 667.63651 475.019167 
L 667.63651 520.1875 
L 670.883878 475.019167 
L 670.883878 520.1875 
L 674.131245 475.019167 
L 674.131245 520.1875 
L 677.378613 475.019167 
L 677.378613 520.1875 
L 680.62598 475.019167 
L 680.62598 520.1875 
L 683.873348 475.019167 
L 683.873348 520.1875 
L 687.120716 475.019167 
L 687.120716 520.1875 
L 690.368083 475.019167 
L 690.368083 520.1875 
L 693.615451 475.019167 
L 693.615451 520.1875 
L 696.862818 475.019167 
L 696.862818 520.1875 
L 700.110186 475.019167 
L 700.110186 520.1875 
L 703.357553 475.019167 
L 703.357553 520.1875 
L 706.604921 475.019167 
L 706.604921 520.1875 
L 709.852288 475.019167 
L 709.852288 520.1875 
L 713.099656 475.019167 
L 713.099656 520.1875 
L 716.347023 475.019167 
L 716.347023 520.1875 
L 719.594391 475.019167 
L 719.594391 520.1875 
L 722.841759 475.019167 
L 722.841759 520.1875 
L 726.089126 475.019167 
L 726.089126 520.1875 
L 732.583318 475.019167 
L 732.583318 520.1875 
L 732.583318 520.1875 
" clip-path="url(#p9c497087c9)" style="fill: none; stroke: #8c564b; stroke-width: 1.5; stroke-linecap: square"/>
   </g>
   <g id="line2d_37">
    <path d="M 84.249682 475.019167 
L 84.249682 520.1875 
L 84.25011 475.019167 
L 84.25011 520.1875 
L 84.250539 475.019167 
L 84.250539 520.1875 
L 84.250968 475.019167 
L 84.250968 520.1875 
L 84.251396 475.019167 
L 84.251396 520.1875 
L 84.251825 475.019167 
L 84.251825 520.1875 
L 84.252254 475.019167 
L 84.252254 520.1875 
L 84.252682 475.019167 
L 84.252682 520.1875 
" clip-path="url(#p9c497087c9)" style="fill: none; stroke: #e377c2; stroke-width: 1.5; stroke-linecap: square"/>
   </g>
   <g id="line2d_38">
    <path d="M 96.783885 475.019167 
L 96.783885 520.1875 
L 100.031252 475.019167 
L 100.031252 520.1875 
L 105.441903 475.019167 
L 105.441903 520.1875 
L 108.813188 475.019167 
L 108.813188 520.1875 
L 112.060555 475.019167 
L 112.060555 520.1875 
L 117.902711 475.019167 
L 117.902711 520.1875 
L 121.150079 475.019167 
L 121.150079 520.1875 
L 124.397446 475.019167 
L 124.397446 520.1875 
L 127.644814 475.019167 
L 127.644814 520.1875 
L 130.892182 475.019167 
L 130.892182 520.1875 
L 134.139549 475.019167 
L 134.139549 520.1875 
L 137.386917 475.019167 
L 137.386917 520.1875 
L 140.634284 475.019167 
L 140.634284 520.1875 
L 143.881652 475.019167 
L 143.881652 520.1875 
L 147.129019 475.019167 
L 147.129019 520.1875 
L 150.376387 475.019167 
L 150.376387 520.1875 
L 153.623754 475.019167 
L 153.623754 520.1875 
L 156.871122 475.019167 
L 156.871122 520.1875 
L 160.11849 475.019167 
L 160.11849 520.1875 
L 172.082886 475.019167 
L 172.082886 520.1875 
L 175.330254 475.019167 
L 175.330254 520.1875 
L 179.017527 475.019167 
L 179.017527 520.1875 
L 182.334492 475.019167 
L 182.334492 520.1875 
L 185.58186 475.019167 
L 185.58186 520.1875 
L 194.566487 475.019167 
L 194.566487 520.1875 
L 197.813854 475.019167 
L 197.813854 520.1875 
L 201.483216 475.019167 
L 201.483216 520.1875 
L 204.730583 475.019167 
L 204.730583 520.1875 
L 207.977951 475.019167 
L 207.977951 520.1875 
L 211.225318 475.019167 
L 211.225318 520.1875 
L 214.472686 475.019167 
L 214.472686 520.1875 
L 217.720053 475.019167 
L 217.720053 520.1875 
L 220.967421 475.019167 
L 220.967421 520.1875 
L 224.214789 475.019167 
L 224.214789 520.1875 
L 227.462156 475.019167 
L 227.462156 520.1875 
L 230.709524 475.019167 
L 230.709524 520.1875 
L 233.956891 475.019167 
L 233.956891 520.1875 
L 237.204259 475.019167 
L 237.204259 520.1875 
L 241.879199 475.019167 
L 241.879199 520.1875 
L 245.126567 475.019167 
L 245.126567 520.1875 
L 248.373934 475.019167 
L 248.373934 520.1875 
L 251.621302 475.019167 
L 251.621302 520.1875 
L 254.868669 475.019167 
L 254.868669 520.1875 
L 258.116037 475.019167 
L 258.116037 520.1875 
L 261.363404 475.019167 
L 261.363404 520.1875 
L 264.610772 475.019167 
L 264.610772 520.1875 
L 267.85814 475.019167 
L 267.85814 520.1875 
L 271.105507 475.019167 
L 271.105507 520.1875 
L 274.352875 475.019167 
L 274.352875 520.1875 
L 277.600242 475.019167 
L 277.600242 520.1875 
L 280.84761 475.019167 
L 280.84761 520.1875 
L 284.094977 475.019167 
L 284.094977 520.1875 
L 287.641016 475.019167 
L 287.641016 520.1875 
L 290.888384 475.019167 
L 290.888384 520.1875 
L 294.135751 475.019167 
L 294.135751 520.1875 
L 297.383119 475.019167 
L 297.383119 520.1875 
L 300.630487 475.019167 
L 300.630487 520.1875 
L 303.877854 475.019167 
L 303.877854 520.1875 
L 307.125222 475.019167 
L 307.125222 520.1875 
L 310.372589 475.019167 
L 310.372589 520.1875 
L 313.619957 475.019167 
L 313.619957 520.1875 
L 316.867324 475.019167 
L 316.867324 520.1875 
L 320.114692 475.019167 
L 320.114692 520.1875 
L 325.507398 475.019167 
L 325.507398 520.1875 
L 328.754766 475.019167 
L 328.754766 520.1875 
L 332.002133 475.019167 
L 332.002133 520.1875 
L 342.091209 475.019167 
L 342.091209 520.1875 
L 345.338576 475.019167 
L 345.338576 520.1875 
L 348.585944 475.019167 
L 348.585944 520.1875 
L 351.833311 475.019167 
L 351.833311 520.1875 
L 355.080679 475.019167 
L 355.080679 520.1875 
L 358.328046 475.019167 
L 358.328046 520.1875 
L 361.575414 475.019167 
L 361.575414 520.1875 
L 364.822782 475.019167 
L 364.822782 520.1875 
L 368.070149 475.019167 
L 368.070149 520.1875 
L 371.317517 475.019167 
L 371.317517 520.1875 
L 374.564884 475.019167 
L 374.564884 520.1875 
L 377.812252 475.019167 
L 377.812252 520.1875 
L 381.059619 475.019167 
L 381.059619 520.1875 
L 384.306987 475.019167 
L 384.306987 520.1875 
L 387.554354 475.019167 
L 387.554354 520.1875 
L 390.801722 475.019167 
L 390.801722 520.1875 
L 394.04909 475.019167 
L 394.04909 520.1875 
L 397.296457 475.019167 
L 397.296457 520.1875 
L 400.543825 475.019167 
L 400.543825 520.1875 
L 403.791192 475.019167 
L 403.791192 520.1875 
L 407.03856 475.019167 
L 407.03856 520.1875 
L 410.285927 475.019167 
L 410.285927 520.1875 
L 413.533295 475.019167 
L 413.533295 520.1875 
L 416.780662 475.019167 
L 416.780662 520.1875 
L 420.02803 475.019167 
L 420.02803 520.1875 
L 423.275397 475.019167 
L 423.275397 520.1875 
L 426.522765 475.019167 
L 426.522765 520.1875 
L 429.770133 475.019167 
L 429.770133 520.1875 
L 433.0175 475.019167 
L 433.0175 520.1875 
L 436.264868 475.019167 
L 436.264868 520.1875 
L 439.512235 475.019167 
L 439.512235 520.1875 
L 442.759603 475.019167 
L 442.759603 520.1875 
L 446.00697 475.019167 
L 446.00697 520.1875 
L 449.254338 475.019167 
L 449.254338 520.1875 
L 452.501705 475.019167 
L 452.501705 520.1875 
L 455.749073 475.019167 
L 455.749073 520.1875 
L 458.996441 475.019167 
L 458.996441 520.1875 
L 462.243808 475.019167 
L 462.243808 520.1875 
L 465.491176 475.019167 
L 465.491176 520.1875 
L 468.738543 475.019167 
L 468.738543 520.1875 
L 471.985911 475.019167 
L 471.985911 520.1875 
L 475.233278 475.019167 
L 475.233278 520.1875 
L 478.480646 475.019167 
L 478.480646 520.1875 
L 481.728013 475.019167 
L 481.728013 520.1875 
L 484.975381 475.019167 
L 484.975381 520.1875 
L 488.222749 475.019167 
L 488.222749 520.1875 
L 491.470116 475.019167 
L 491.470116 520.1875 
L 494.717484 475.019167 
L 494.717484 520.1875 
L 497.964851 475.019167 
L 497.964851 520.1875 
L 501.212219 475.019167 
L 501.212219 520.1875 
L 505.268457 475.019167 
L 505.268457 520.1875 
L 508.515825 475.019167 
L 508.515825 520.1875 
L 511.763193 475.019167 
L 511.763193 520.1875 
L 515.01056 475.019167 
L 515.01056 520.1875 
L 518.257928 475.019167 
L 518.257928 520.1875 
L 521.505295 475.019167 
L 521.505295 520.1875 
L 524.752663 475.019167 
L 524.752663 520.1875 
L 528.00003 475.019167 
L 528.00003 520.1875 
L 531.247398 475.019167 
L 531.247398 520.1875 
L 534.494765 475.019167 
L 534.494765 520.1875 
L 537.742133 475.019167 
L 537.742133 520.1875 
L 540.9895 475.019167 
L 540.9895 520.1875 
L 544.236868 475.019167 
L 544.236868 520.1875 
L 547.484236 475.019167 
L 547.484236 520.1875 
L 550.731603 475.019167 
L 550.731603 520.1875 
L 553.978971 475.019167 
L 553.978971 520.1875 
L 557.226338 475.019167 
L 557.226338 520.1875 
L 560.473706 475.019167 
L 560.473706 520.1875 
L 563.721073 475.019167 
L 563.721073 520.1875 
L 566.968441 475.019167 
L 566.968441 520.1875 
L 570.215808 475.019167 
L 570.215808 520.1875 
L 573.463176 475.019167 
L 573.463176 520.1875 
L 576.710544 475.019167 
L 576.710544 520.1875 
L 579.957911 475.019167 
L 579.957911 520.1875 
L 583.205279 475.019167 
L 583.205279 520.1875 
L 586.452646 475.019167 
L 586.452646 520.1875 
L 589.700014 475.019167 
L 589.700014 520.1875 
L 592.947381 475.019167 
L 592.947381 520.1875 
L 596.194749 475.019167 
L 596.194749 520.1875 
L 599.442116 475.019167 
L 599.442116 520.1875 
L 602.689484 475.019167 
L 602.689484 520.1875 
L 605.936852 475.019167 
L 605.936852 520.1875 
L 609.184219 475.019167 
L 609.184219 520.1875 
L 612.431587 475.019167 
L 612.431587 520.1875 
L 615.678954 475.019167 
L 615.678954 520.1875 
L 618.926322 475.019167 
L 618.926322 520.1875 
L 622.173689 475.019167 
L 622.173689 520.1875 
L 625.421057 475.019167 
L 625.421057 520.1875 
L 628.668424 475.019167 
L 628.668424 520.1875 
L 631.915792 475.019167 
L 631.915792 520.1875 
L 635.163159 475.019167 
L 635.163159 520.1875 
L 638.410527 475.019167 
L 638.410527 520.1875 
L 641.657895 475.019167 
L 641.657895 520.1875 
L 644.905262 475.019167 
L 644.905262 520.1875 
L 648.15263 475.019167 
L 648.15263 520.1875 
L 651.399997 475.019167 
L 651.399997 520.1875 
L 654.647365 475.019167 
L 654.647365 520.1875 
L 657.894732 475.019167 
L 657.894732 520.1875 
L 661.1421 475.019167 
L 661.1421 520.1875 
L 664.389467 475.019167 
L 664.389467 520.1875 
L 667.636835 475.019167 
L 667.636835 520.1875 
L 670.884203 475.019167 
L 670.884203 520.1875 
L 674.13157 475.019167 
L 674.13157 520.1875 
L 677.378938 475.019167 
L 677.378938 520.1875 
L 680.626305 475.019167 
L 680.626305 520.1875 
L 683.873673 475.019167 
L 683.873673 520.1875 
L 687.12104 475.019167 
L 687.12104 520.1875 
L 690.368408 475.019167 
L 690.368408 520.1875 
L 693.615775 475.019167 
L 693.615775 520.1875 
L 696.863143 475.019167 
L 696.863143 520.1875 
L 700.11051 475.019167 
L 700.11051 520.1875 
L 703.357878 475.019167 
L 703.357878 520.1875 
L 706.605246 475.019167 
L 706.605246 520.1875 
L 709.852613 475.019167 
L 709.852613 520.1875 
L 713.099981 475.019167 
L 713.099981 520.1875 
L 716.347348 475.019167 
L 716.347348 520.1875 
L 719.594716 475.019167 
L 719.594716 520.1875 
L 722.842083 475.019167 
L 722.842083 520.1875 
L 726.089451 475.019167 
L 726.089451 520.1875 
L 729.336818 475.019167 
L 729.336818 520.1875 
L 729.336818 520.1875 
" clip-path="url(#p9c497087c9)" style="fill: none; stroke: #7f7f7f; stroke-width: 1.5; stroke-linecap: square"/>
   </g>
   <g id="line2d_39">
    <path d="M 84.249682 475.019167 
L 84.249682 520.1875 
L 84.25011 475.019167 
L 84.25011 520.1875 
L 84.250539 475.019167 
L 84.250539 520.1875 
L 84.250968 475.019167 
L 84.250968 520.1875 
L 84.251396 475.019167 
L 84.251396 520.1875 
L 84.251825 475.019167 
L 84.251825 520.1875 
L 84.252254 475.019167 
L 84.252254 520.1875 
L 84.252682 475.019167 
L 84.252682 520.1875 
" clip-path="url(#p9c497087c9)" style="fill: none; stroke: #bcbd22; stroke-width: 1.5; stroke-linecap: square"/>
   </g>
   <g id="line2d_40">
    <path d="M 84.249682 475.019167 
L 84.249682 520.1875 
L 84.252682 520.1875 
L 93.663022 475.019167 
L 93.663022 520.1875 
L 96.91039 475.019167 
L 96.91039 520.1875 
L 102.998452 475.019167 
L 102.998452 520.1875 
L 106.24582 475.019167 
L 106.24582 520.1875 
L 109.493187 475.019167 
L 109.493187 520.1875 
L 112.740555 475.019167 
L 112.740555 520.1875 
L 115.987922 475.019167 
L 115.987922 520.1875 
L 119.23529 475.019167 
L 119.23529 520.1875 
L 122.482657 475.019167 
L 122.482657 520.1875 
L 126.731952 475.019167 
L 126.731952 520.1875 
L 129.97932 475.019167 
L 129.97932 520.1875 
L 133.226687 475.019167 
L 133.226687 520.1875 
L 137.774549 475.019167 
L 137.774549 520.1875 
L 141.021916 475.019167 
L 141.021916 520.1875 
L 144.269284 475.019167 
L 144.269284 520.1875 
L 147.516651 475.019167 
L 147.516651 520.1875 
L 150.764019 475.019167 
L 150.764019 520.1875 
L 154.011386 475.019167 
L 154.011386 520.1875 
L 159.895938 475.019167 
L 159.895938 520.1875 
L 163.143305 475.019167 
L 163.143305 520.1875 
L 167.192606 475.019167 
L 167.192606 520.1875 
L 172.433864 475.019167 
L 172.433864 520.1875 
L 175.681232 475.019167 
L 175.681232 520.1875 
L 178.928599 475.019167 
L 178.928599 520.1875 
L 182.175967 475.019167 
L 182.175967 520.1875 
L 185.423334 475.019167 
L 185.423334 520.1875 
L 188.670702 475.019167 
L 188.670702 520.1875 
L 191.91807 475.019167 
L 191.91807 520.1875 
L 195.165437 475.019167 
L 195.165437 520.1875 
L 198.412805 475.019167 
L 198.412805 520.1875 
L 201.660172 475.019167 
L 201.660172 520.1875 
L 204.90754 475.019167 
L 204.90754 520.1875 
L 208.154907 475.019167 
L 208.154907 520.1875 
L 211.402275 475.019167 
L 211.402275 520.1875 
L 214.649642 475.019167 
L 214.649642 520.1875 
L 217.89701 475.019167 
L 217.89701 520.1875 
L 221.144378 475.019167 
L 221.144378 520.1875 
L 224.391745 475.019167 
L 224.391745 520.1875 
L 227.639113 475.019167 
L 227.639113 520.1875 
L 230.88648 475.019167 
L 230.88648 520.1875 
L 234.133848 475.019167 
L 234.133848 520.1875 
L 237.381215 475.019167 
L 237.381215 520.1875 
L 240.628583 475.019167 
L 240.628583 520.1875 
L 243.87595 475.019167 
L 243.87595 520.1875 
L 247.123318 475.019167 
L 247.123318 520.1875 
L 250.370685 475.019167 
L 250.370685 520.1875 
L 253.618053 475.019167 
L 253.618053 520.1875 
L 256.865421 475.019167 
L 256.865421 520.1875 
L 260.112788 475.019167 
L 260.112788 520.1875 
L 263.360156 475.019167 
L 263.360156 520.1875 
L 266.607523 475.019167 
L 266.607523 520.1875 
L 269.854891 475.019167 
L 269.854891 520.1875 
L 273.102258 475.019167 
L 273.102258 520.1875 
L 276.349626 475.019167 
L 276.349626 520.1875 
L 279.596993 475.019167 
L 279.596993 520.1875 
L 282.844361 475.019167 
L 282.844361 520.1875 
L 286.091729 475.019167 
L 286.091729 520.1875 
L 289.339096 475.019167 
L 289.339096 520.1875 
L 292.586464 475.019167 
L 292.586464 520.1875 
L 295.833831 475.019167 
L 295.833831 520.1875 
L 299.081199 475.019167 
L 299.081199 520.1875 
L 302.328566 475.019167 
L 302.328566 520.1875 
L 305.575934 475.019167 
L 305.575934 520.1875 
L 308.823301 475.019167 
L 308.823301 520.1875 
L 312.070669 475.019167 
L 312.070669 520.1875 
L 315.318036 475.019167 
L 315.318036 520.1875 
L 318.565404 475.019167 
L 318.565404 520.1875 
L 321.812772 475.019167 
L 321.812772 520.1875 
L 325.060139 475.019167 
L 325.060139 520.1875 
L 328.307507 475.019167 
L 328.307507 520.1875 
L 331.554874 475.019167 
L 331.554874 520.1875 
L 334.802242 475.019167 
L 334.802242 520.1875 
L 338.049609 475.019167 
L 338.049609 520.1875 
L 341.296977 475.019167 
L 341.296977 520.1875 
L 344.544344 475.019167 
L 344.544344 520.1875 
L 347.791712 475.019167 
L 347.791712 520.1875 
L 351.03908 475.019167 
L 351.03908 520.1875 
L 354.286447 475.019167 
L 354.286447 520.1875 
L 357.533815 475.019167 
L 357.533815 520.1875 
L 360.781182 475.019167 
L 360.781182 520.1875 
L 364.02855 475.019167 
L 364.02855 520.1875 
L 367.275917 475.019167 
L 367.275917 520.1875 
L 370.523285 475.019167 
L 370.523285 520.1875 
L 373.770652 475.019167 
L 373.770652 520.1875 
L 377.01802 475.019167 
L 377.01802 520.1875 
L 380.265388 475.019167 
L 380.265388 520.1875 
L 383.512755 475.019167 
L 383.512755 520.1875 
L 386.760123 475.019167 
L 386.760123 520.1875 
L 390.00749 475.019167 
L 390.00749 520.1875 
L 393.254858 475.019167 
L 393.254858 520.1875 
L 396.502225 475.019167 
L 396.502225 520.1875 
L 399.749593 475.019167 
L 399.749593 520.1875 
L 402.99696 475.019167 
L 402.99696 520.1875 
L 406.244328 475.019167 
L 406.244328 520.1875 
L 409.491695 475.019167 
L 409.491695 520.1875 
L 412.739063 475.019167 
L 412.739063 520.1875 
L 415.986431 475.019167 
L 415.986431 520.1875 
L 419.233798 475.019167 
L 419.233798 520.1875 
L 422.481166 475.019167 
L 422.481166 520.1875 
L 425.728533 475.019167 
L 425.728533 520.1875 
L 428.975901 475.019167 
L 428.975901 520.1875 
L 432.223268 475.019167 
L 432.223268 520.1875 
L 435.470636 475.019167 
L 435.470636 520.1875 
L 438.718003 475.019167 
L 438.718003 520.1875 
L 441.965371 475.019167 
L 441.965371 520.1875 
L 445.212739 475.019167 
L 445.212739 520.1875 
L 448.460106 475.019167 
L 448.460106 520.1875 
L 451.707474 475.019167 
L 451.707474 520.1875 
L 454.954841 475.019167 
L 454.954841 520.1875 
L 458.202209 475.019167 
L 458.202209 520.1875 
L 461.449576 475.019167 
L 461.449576 520.1875 
L 464.696944 475.019167 
L 464.696944 520.1875 
L 467.944311 475.019167 
L 467.944311 520.1875 
L 471.191679 475.019167 
L 471.191679 520.1875 
L 474.439046 475.019167 
L 474.439046 520.1875 
L 477.686414 475.019167 
L 477.686414 520.1875 
L 480.933782 475.019167 
L 480.933782 520.1875 
L 484.181149 475.019167 
L 484.181149 520.1875 
L 487.428517 475.019167 
L 487.428517 520.1875 
L 490.675884 475.019167 
L 490.675884 520.1875 
L 493.923252 475.019167 
L 493.923252 520.1875 
L 497.170619 475.019167 
L 497.170619 520.1875 
L 500.417987 475.019167 
L 500.417987 520.1875 
L 503.665354 475.019167 
L 503.665354 520.1875 
L 506.912722 475.019167 
L 506.912722 520.1875 
L 510.16009 475.019167 
L 510.16009 520.1875 
L 513.407457 475.019167 
L 513.407457 520.1875 
L 516.654825 475.019167 
L 516.654825 520.1875 
L 519.902192 475.019167 
L 519.902192 520.1875 
L 523.14956 475.019167 
L 523.14956 520.1875 
L 526.396927 475.019167 
L 526.396927 520.1875 
L 529.644295 475.019167 
L 529.644295 520.1875 
L 532.891662 475.019167 
L 532.891662 520.1875 
L 536.13903 475.019167 
L 536.13903 520.1875 
L 539.386397 475.019167 
L 539.386397 520.1875 
L 542.633765 475.019167 
L 542.633765 520.1875 
L 545.881133 475.019167 
L 545.881133 520.1875 
L 549.1285 475.019167 
L 549.1285 520.1875 
L 552.375868 475.019167 
L 552.375868 520.1875 
L 555.623235 475.019167 
L 555.623235 520.1875 
L 558.870603 475.019167 
L 558.870603 520.1875 
L 562.11797 475.019167 
L 562.11797 520.1875 
L 565.365338 475.019167 
L 565.365338 520.1875 
L 568.612705 475.019167 
L 568.612705 520.1875 
L 571.860073 475.019167 
L 571.860073 520.1875 
L 575.107441 475.019167 
L 575.107441 520.1875 
L 578.354808 475.019167 
L 578.354808 520.1875 
L 581.602176 475.019167 
L 581.602176 520.1875 
L 584.849543 475.019167 
L 584.849543 520.1875 
L 588.096911 475.019167 
L 588.096911 520.1875 
L 591.344278 475.019167 
L 591.344278 520.1875 
L 594.591646 475.019167 
L 594.591646 520.1875 
L 597.839013 475.019167 
L 597.839013 520.1875 
L 601.086381 475.019167 
L 601.086381 520.1875 
L 604.333749 475.019167 
L 604.333749 520.1875 
L 607.581116 475.019167 
L 607.581116 520.1875 
L 610.828484 475.019167 
L 610.828484 520.1875 
L 614.075851 475.019167 
L 614.075851 520.1875 
L 617.323219 475.019167 
L 617.323219 520.1875 
L 620.570586 475.019167 
L 620.570586 520.1875 
L 623.817954 475.019167 
L 623.817954 520.1875 
L 627.065321 475.019167 
L 627.065321 520.1875 
L 630.312689 475.019167 
L 630.312689 520.1875 
L 633.560056 475.019167 
L 633.560056 520.1875 
L 636.807424 475.019167 
L 636.807424 520.1875 
L 640.054792 475.019167 
L 640.054792 520.1875 
L 643.302159 475.019167 
L 643.302159 520.1875 
L 646.549527 475.019167 
L 646.549527 520.1875 
L 649.796894 475.019167 
L 649.796894 520.1875 
L 653.044262 475.019167 
L 653.044262 520.1875 
L 656.291629 475.019167 
L 656.291629 520.1875 
L 659.538997 475.019167 
L 659.538997 520.1875 
L 662.786364 475.019167 
L 662.786364 520.1875 
L 666.033732 475.019167 
L 666.033732 520.1875 
L 669.2811 475.019167 
L 669.2811 520.1875 
L 672.528467 475.019167 
L 672.528467 520.1875 
L 675.775835 475.019167 
L 675.775835 520.1875 
L 679.023202 475.019167 
L 679.023202 520.1875 
L 682.27057 475.019167 
L 682.27057 520.1875 
L 685.517937 475.019167 
L 685.517937 520.1875 
L 688.765305 475.019167 
L 688.765305 520.1875 
L 692.012672 475.019167 
L 692.012672 520.1875 
L 695.26004 475.019167 
L 695.26004 520.1875 
L 698.507407 475.019167 
L 698.507407 520.1875 
L 701.754775 475.019167 
L 701.754775 520.1875 
L 705.002143 475.019167 
L 705.002143 520.1875 
L 708.24951 475.019167 
L 708.24951 520.1875 
L 711.496878 475.019167 
L 711.496878 520.1875 
L 714.744245 475.019167 
L 714.744245 520.1875 
L 717.991613 475.019167 
L 717.991613 520.1875 
L 721.23898 475.019167 
L 721.23898 520.1875 
L 724.486348 475.019167 
L 724.486348 520.1875 
L 727.733715 475.019167 
L 727.733715 520.1875 
L 730.981083 475.019167 
L 730.981083 520.1875 
L 730.981083 520.1875 
" clip-path="url(#p9c497087c9)" style="fill: none; stroke: #17becf; stroke-width: 1.5; stroke-linecap: square"/>
   </g>
   <g id="line2d_41">
    <path d="M 84.249682 475.019167 
L 84.249682 520.1875 
L 84.252682 520.1875 
L 90.41533 475.019167 
L 90.41533 520.1875 
L 93.662698 475.019167 
L 93.662698 520.1875 
L 99.75076 475.019167 
L 99.75076 520.1875 
L 102.998127 475.019167 
L 102.998127 520.1875 
L 106.245495 475.019167 
L 106.245495 520.1875 
L 109.492862 475.019167 
L 109.492862 520.1875 
L 112.74023 475.019167 
L 112.74023 520.1875 
L 115.987598 475.019167 
L 115.987598 520.1875 
L 119.234965 475.019167 
L 119.234965 520.1875 
L 123.48426 475.019167 
L 123.48426 520.1875 
L 126.731628 475.019167 
L 126.731628 520.1875 
L 129.978995 475.019167 
L 129.978995 520.1875 
L 134.526856 475.019167 
L 134.526856 520.1875 
L 137.774224 475.019167 
L 137.774224 520.1875 
L 141.021591 475.019167 
L 141.021591 520.1875 
L 144.268959 475.019167 
L 144.268959 520.1875 
L 147.516326 475.019167 
L 147.516326 520.1875 
L 150.763694 475.019167 
L 150.763694 520.1875 
L 156.648246 475.019167 
L 156.648246 520.1875 
L 159.895613 475.019167 
L 159.895613 520.1875 
L 163.944914 475.019167 
L 163.944914 520.1875 
L 169.186172 475.019167 
L 169.186172 520.1875 
L 172.43354 475.019167 
L 172.43354 520.1875 
L 175.680907 475.019167 
L 175.680907 520.1875 
L 178.928275 475.019167 
L 178.928275 520.1875 
L 182.175642 475.019167 
L 182.175642 520.1875 
L 185.42301 475.019167 
L 185.42301 520.1875 
L 188.670377 475.019167 
L 188.670377 520.1875 
L 191.917745 475.019167 
L 191.917745 520.1875 
L 195.165112 475.019167 
L 195.165112 520.1875 
L 198.41248 475.019167 
L 198.41248 520.1875 
L 201.659847 475.019167 
L 201.659847 520.1875 
L 204.907215 475.019167 
L 204.907215 520.1875 
L 208.154583 475.019167 
L 208.154583 520.1875 
L 211.40195 475.019167 
L 211.40195 520.1875 
L 214.649318 475.019167 
L 214.649318 520.1875 
L 217.896685 475.019167 
L 217.896685 520.1875 
L 221.144053 475.019167 
L 221.144053 520.1875 
L 224.39142 475.019167 
L 224.39142 520.1875 
L 227.638788 475.019167 
L 227.638788 520.1875 
L 230.886155 475.019167 
L 230.886155 520.1875 
L 234.133523 475.019167 
L 234.133523 520.1875 
L 237.380891 475.019167 
L 237.380891 520.1875 
L 240.628258 475.019167 
L 240.628258 520.1875 
L 243.875626 475.019167 
L 243.875626 520.1875 
L 247.122993 475.019167 
L 247.122993 520.1875 
L 250.370361 475.019167 
L 250.370361 520.1875 
L 253.617728 475.019167 
L 253.617728 520.1875 
L 256.865096 475.019167 
L 256.865096 520.1875 
L 260.112463 475.019167 
L 260.112463 520.1875 
L 263.359831 475.019167 
L 263.359831 520.1875 
L 266.607198 475.019167 
L 266.607198 520.1875 
L 269.854566 475.019167 
L 269.854566 520.1875 
L 273.101934 475.019167 
L 273.101934 520.1875 
L 276.349301 475.019167 
L 276.349301 520.1875 
L 279.596669 475.019167 
L 279.596669 520.1875 
L 282.844036 475.019167 
L 282.844036 520.1875 
L 286.091404 475.019167 
L 286.091404 520.1875 
L 289.338771 475.019167 
L 289.338771 520.1875 
L 292.586139 475.019167 
L 292.586139 520.1875 
L 295.833506 475.019167 
L 295.833506 520.1875 
L 299.080874 475.019167 
L 299.080874 520.1875 
L 302.328242 475.019167 
L 302.328242 520.1875 
L 305.575609 475.019167 
L 305.575609 520.1875 
L 308.822977 475.019167 
L 308.822977 520.1875 
L 312.070344 475.019167 
L 312.070344 520.1875 
L 315.317712 475.019167 
L 315.317712 520.1875 
L 318.565079 475.019167 
L 318.565079 520.1875 
L 321.812447 475.019167 
L 321.812447 520.1875 
L 325.059814 475.019167 
L 325.059814 520.1875 
L 328.307182 475.019167 
L 328.307182 520.1875 
L 331.55455 475.019167 
L 331.55455 520.1875 
L 334.801917 475.019167 
L 334.801917 520.1875 
L 338.049285 475.019167 
L 338.049285 520.1875 
L 341.296652 475.019167 
L 341.296652 520.1875 
L 344.54402 475.019167 
L 344.54402 520.1875 
L 347.791387 475.019167 
L 347.791387 520.1875 
L 351.038755 475.019167 
L 351.038755 520.1875 
L 354.286122 475.019167 
L 354.286122 520.1875 
L 357.53349 475.019167 
L 357.53349 520.1875 
L 360.780857 475.019167 
L 360.780857 520.1875 
L 364.028225 475.019167 
L 364.028225 520.1875 
L 367.275593 475.019167 
L 367.275593 520.1875 
L 370.52296 475.019167 
L 370.52296 520.1875 
L 373.770328 475.019167 
L 373.770328 520.1875 
L 377.017695 475.019167 
L 377.017695 520.1875 
L 380.265063 475.019167 
L 380.265063 520.1875 
L 383.51243 475.019167 
L 383.51243 520.1875 
L 386.759798 475.019167 
L 386.759798 520.1875 
L 390.007165 475.019167 
L 390.007165 520.1875 
L 393.254533 475.019167 
L 393.254533 520.1875 
L 396.501901 475.019167 
L 396.501901 520.1875 
L 399.749268 475.019167 
L 399.749268 520.1875 
L 402.996636 475.019167 
L 402.996636 520.1875 
L 406.244003 475.019167 
L 406.244003 520.1875 
L 409.491371 475.019167 
L 409.491371 520.1875 
L 412.738738 475.019167 
L 412.738738 520.1875 
L 415.986106 475.019167 
L 415.986106 520.1875 
L 419.233473 475.019167 
L 419.233473 520.1875 
L 422.480841 475.019167 
L 422.480841 520.1875 
L 425.728208 475.019167 
L 425.728208 520.1875 
L 428.975576 475.019167 
L 428.975576 520.1875 
L 432.222944 475.019167 
L 432.222944 520.1875 
L 435.470311 475.019167 
L 435.470311 520.1875 
L 438.717679 475.019167 
L 438.717679 520.1875 
L 441.965046 475.019167 
L 441.965046 520.1875 
L 445.212414 475.019167 
L 445.212414 520.1875 
L 448.459781 475.019167 
L 448.459781 520.1875 
L 451.707149 475.019167 
L 451.707149 520.1875 
L 454.954516 475.019167 
L 454.954516 520.1875 
L 458.201884 475.019167 
L 458.201884 520.1875 
L 461.449252 475.019167 
L 461.449252 520.1875 
L 464.696619 475.019167 
L 464.696619 520.1875 
L 467.943987 475.019167 
L 467.943987 520.1875 
L 471.191354 475.019167 
L 471.191354 520.1875 
L 474.438722 475.019167 
L 474.438722 520.1875 
L 477.686089 475.019167 
L 477.686089 520.1875 
L 480.933457 475.019167 
L 480.933457 520.1875 
L 484.180824 475.019167 
L 484.180824 520.1875 
L 487.428192 475.019167 
L 487.428192 520.1875 
L 490.675559 475.019167 
L 490.675559 520.1875 
L 493.922927 475.019167 
L 493.922927 520.1875 
L 497.170295 475.019167 
L 497.170295 520.1875 
L 500.417662 475.019167 
L 500.417662 520.1875 
L 503.66503 475.019167 
L 503.66503 520.1875 
L 506.912397 475.019167 
L 506.912397 520.1875 
L 510.159765 475.019167 
L 510.159765 520.1875 
L 513.407132 475.019167 
L 513.407132 520.1875 
L 516.6545 475.019167 
L 516.6545 520.1875 
L 519.901867 475.019167 
L 519.901867 520.1875 
L 523.149235 475.019167 
L 523.149235 520.1875 
L 526.396603 475.019167 
L 526.396603 520.1875 
L 529.64397 475.019167 
L 529.64397 520.1875 
L 532.891338 475.019167 
L 532.891338 520.1875 
L 536.138705 475.019167 
L 536.138705 520.1875 
L 539.386073 475.019167 
L 539.386073 520.1875 
L 542.63344 475.019167 
L 542.63344 520.1875 
L 545.880808 475.019167 
L 545.880808 520.1875 
L 549.128175 475.019167 
L 549.128175 520.1875 
L 552.375543 475.019167 
L 552.375543 520.1875 
L 555.622911 475.019167 
L 555.622911 520.1875 
L 558.870278 475.019167 
L 558.870278 520.1875 
L 562.117646 475.019167 
L 562.117646 520.1875 
L 565.365013 475.019167 
L 565.365013 520.1875 
L 568.612381 475.019167 
L 568.612381 520.1875 
L 571.859748 475.019167 
L 571.859748 520.1875 
L 575.107116 475.019167 
L 575.107116 520.1875 
L 578.354483 475.019167 
L 578.354483 520.1875 
L 581.601851 475.019167 
L 581.601851 520.1875 
L 584.849218 475.019167 
L 584.849218 520.1875 
L 588.096586 475.019167 
L 588.096586 520.1875 
L 591.343954 475.019167 
L 591.343954 520.1875 
L 594.591321 475.019167 
L 594.591321 520.1875 
L 597.838689 475.019167 
L 597.838689 520.1875 
L 601.086056 475.019167 
L 601.086056 520.1875 
L 604.333424 475.019167 
L 604.333424 520.1875 
L 607.580791 475.019167 
L 607.580791 520.1875 
L 610.828159 475.019167 
L 610.828159 520.1875 
L 614.075526 475.019167 
L 614.075526 520.1875 
L 617.322894 475.019167 
L 617.322894 520.1875 
L 620.570262 475.019167 
L 620.570262 520.1875 
L 623.817629 475.019167 
L 623.817629 520.1875 
L 627.064997 475.019167 
L 627.064997 520.1875 
L 630.312364 475.019167 
L 630.312364 520.1875 
L 633.559732 475.019167 
L 633.559732 520.1875 
L 636.807099 475.019167 
L 636.807099 520.1875 
L 640.054467 475.019167 
L 640.054467 520.1875 
L 643.301834 475.019167 
L 643.301834 520.1875 
L 646.549202 475.019167 
L 646.549202 520.1875 
L 649.796569 475.019167 
L 649.796569 520.1875 
L 653.043937 475.019167 
L 653.043937 520.1875 
L 656.291305 475.019167 
L 656.291305 520.1875 
L 659.538672 475.019167 
L 659.538672 520.1875 
L 662.78604 475.019167 
L 662.78604 520.1875 
L 666.033407 475.019167 
L 666.033407 520.1875 
L 669.280775 475.019167 
L 669.280775 520.1875 
L 672.528142 475.019167 
L 672.528142 520.1875 
L 675.77551 475.019167 
L 675.77551 520.1875 
L 679.022877 475.019167 
L 679.022877 520.1875 
L 682.270245 475.019167 
L 682.270245 520.1875 
L 685.517613 475.019167 
L 685.517613 520.1875 
L 688.76498 475.019167 
L 688.76498 520.1875 
L 692.012348 475.019167 
L 692.012348 520.1875 
L 695.259715 475.019167 
L 695.259715 520.1875 
L 698.507083 475.019167 
L 698.507083 520.1875 
L 701.75445 475.019167 
L 701.75445 520.1875 
L 705.001818 475.019167 
L 705.001818 520.1875 
L 708.249185 475.019167 
L 708.249185 520.1875 
L 711.496553 475.019167 
L 711.496553 520.1875 
L 714.74392 475.019167 
L 714.74392 520.1875 
L 717.991288 475.019167 
L 717.991288 520.1875 
L 721.238656 475.019167 
L 721.238656 520.1875 
L 724.486023 475.019167 
L 724.486023 520.1875 
L 727.733391 475.019167 
L 727.733391 520.1875 
L 730.980758 475.019167 
L 730.980758 520.1875 
L 730.980758 520.1875 
" clip-path="url(#p9c497087c9)" style="fill: none; stroke: #1f77b4; stroke-width: 1.5; stroke-linecap: square"/>
   </g>
   <g id="patch_3">
    <path d="M 51.833 542.771667 
L 51.833 45.92 
" style="fill: none; stroke: #000000; stroke-width: 0.8; stroke-linejoin: miter; stroke-linecap: square"/>
   </g>
   <g id="patch_4">
    <path d="M 765 542.771667 
L 765 45.92 
" style="fill: none; stroke: #000000; stroke-width: 0.8; stroke-linejoin: miter; stroke-linecap: square"/>
   </g>
   <g id="patch_5">
    <path d="M 51.833 542.771667 
L 765 542.771667 
" style="fill: none; stroke: #000000; stroke-width: 0.8; stroke-linejoin: miter; stroke-linecap: square"/>
   </g>
   <g id="patch_6">
    <path d="M 51.833 45.92 
L 765 45.92 
" style="fill: none; stroke: #000000; stroke-width: 0.8; stroke-linejoin: miter; stroke-linecap: square"/>
   </g>
   <g id="text_16">
    <!-- Buffer Size -->
    <g transform="translate(375.890875 39.92) scale(0.12 -0.12)">
     <defs>
      <path id="DejaVuSans-42" d="M 1259 2228 
L 1259 519 
L 2272 519 
Q 2781 519 3026 730 
Q 3272 941 3272 1375 
Q 3272 1813 3026 2020 
Q 2781 2228 2272 2228 
L 1259 2228 
z
M 1259 4147 
L 1259 2741 
L 2194 2741 
Q 2656 2741 2882 2914 
Q 3109 3088 3109 3444 
Q 3109 3797 2882 3972 
Q 2656 4147 2194 4147 
L 1259 4147 
z
M 628 4666 
L 2241 4666 
Q 2963 4666 3353 4366 
Q 3744 4066 3744 3513 
Q 3744 3084 3544 2831 
Q 3344 2578 2956 2516 
Q 3422 2416 3680 2098 
Q 3938 1781 3938 1306 
Q 3938 681 3513 340 
Q 3088 0 2303 0 
L 628 0 
L 628 4666 
z
" transform="scale(0.015625)"/>
      <path id="DejaVuSans-75" d="M 544 1381 
L 544 3500 
L 1119 3500 
L 1119 1403 
Q 1119 906 1312 657 
Q 1506 409 1894 409 
Q 2359 409 2629 706 
Q 2900 1003 2900 1516 
L 2900 3500 
L 3475 3500 
L 3475 0 
L 2900 0 
L 2900 538 
Q 2691 219 2414 64 
Q 2138 -91 1772 -91 
Q 1169 -91 856 284 
Q 544 659 544 1381 
z
M 1991 3584 
L 1991 3584 
z
" transform="scale(0.015625)"/>
      <path id="DejaVuSans-66" d="M 2375 4863 
L 2375 4384 
L 1825 4384 
Q 1516 4384 1395 4259 
Q 1275 4134 1275 3809 
L 1275 3500 
L 2222 3500 
L 2222 3053 
L 1275 3053 
L 1275 0 
L 697 0 
L 697 3053 
L 147 3053 
L 147 3500 
L 697 3500 
L 697 3744 
Q 697 4328 969 4595 
Q 1241 4863 1831 4863 
L 2375 4863 
z
" transform="scale(0.015625)"/>
      <path id="DejaVuSans-65" d="M 3597 1894 
L 3597 1613 
L 953 1613 
Q 991 1019 1311 708 
Q 1631 397 2203 397 
Q 2534 397 2845 478 
Q 3156 559 3463 722 
L 3463 178 
Q 3153 47 2828 -22 
Q 2503 -91 2169 -91 
Q 1331 -91 842 396 
Q 353 884 353 1716 
Q 353 2575 817 3079 
Q 1281 3584 2069 3584 
Q 2775 3584 3186 3129 
Q 3597 2675 3597 1894 
z
M 3022 2063 
Q 3016 2534 2758 2815 
Q 2500 3097 2075 3097 
Q 1594 3097 1305 2825 
Q 1016 2553 972 2059 
L 3022 2063 
z
" transform="scale(0.015625)"/>
      <path id="DejaVuSans-72" d="M 2631 2963 
Q 2534 3019 2420 3045 
Q 2306 3072 2169 3072 
Q 1681 3072 1420 2755 
Q 1159 2438 1159 1844 
L 1159 0 
L 581 0 
L 581 3500 
L 1159 3500 
L 1159 2956 
Q 1341 3275 1631 3429 
Q 1922 3584 2338 3584 
Q 2397 3584 2469 3576 
Q 2541 3569 2628 3553 
L 2631 2963 
z
" transform="scale(0.015625)"/>
      <path id="DejaVuSans-20" transform="scale(0.015625)"/>
      <path id="DejaVuSans-53" d="M 3425 4513 
L 3425 3897 
Q 3066 4069 2747 4153 
Q 2428 4238 2131 4238 
Q 1616 4238 1336 4038 
Q 1056 3838 1056 3469 
Q 1056 3159 1242 3001 
Q 1428 2844 1947 2747 
L 2328 2669 
Q 3034 2534 3370 2195 
Q 3706 1856 3706 1288 
Q 3706 609 3251 259 
Q 2797 -91 1919 -91 
Q 1588 -91 1214 -16 
Q 841 59 441 206 
L 441 856 
Q 825 641 1194 531 
Q 1563 422 1919 422 
Q 2459 422 2753 634 
Q 3047 847 3047 1241 
Q 3047 1584 2836 1778 
Q 2625 1972 2144 2069 
L 1759 2144 
Q 1053 2284 737 2584 
Q 422 2884 422 3419 
Q 422 4038 858 4394 
Q 1294 4750 2059 4750 
Q 2388 4750 2728 4690 
Q 3069 4631 3425 4513 
z
" transform="scale(0.015625)"/>
      <path id="DejaVuSans-69" d="M 603 3500 
L 1178 3500 
L 1178 0 
L 603 0 
L 603 3500 
z
M 603 4863 
L 1178 4863 
L 1178 4134 
L 603 4134 
L 603 4863 
z
" transform="scale(0.015625)"/>
      <path id="DejaVuSans-7a" d="M 353 3500 
L 3084 3500 
L 3084 2975 
L 922 459 
L 3084 459 
L 3084 0 
L 275 0 
L 275 525 
L 2438 3041 
L 353 3041 
L 353 3500 
z
" transform="scale(0.015625)"/>
     </defs>
     <use xlink:href="#DejaVuSans-42"/>
     <use xlink:href="#DejaVuSans-75" x="68.603516"/>
     <use xlink:href="#DejaVuSans-66" x="131.982422"/>
     <use xlink:href="#DejaVuSans-66" x="167.1875"/>
     <use xlink:href="#DejaVuSans-65" x="202.392578"/>
     <use xlink:href="#DejaVuSans-72" x="263.916016"/>
     <use xlink:href="#DejaVuSans-20" x="305.029297"/>
     <use xlink:href="#DejaVuSans-53" x="336.816406"/>
     <use xlink:href="#DejaVuSans-69" x="400.292969"/>
     <use xlink:href="#DejaVuSans-7a" x="428.076172"/>
     <use xlink:href="#DejaVuSans-65" x="480.566406"/>
    </g>
   </g>
   <g id="legend_1">
    <g id="patch_7">
     <path d="M 607.695312 215.379375 
L 760 215.379375 
L 760 50.92 
L 607.695312 50.92 
z
" style="fill: #ffffff; opacity: 0.8; stroke: #cccccc; stroke-linejoin: miter"/>
    </g>
    <g id="line2d_42">
     <path d="M 611.695312 59.018438 
L 621.695312 59.018438 
L 631.695312 59.018438 
" style="fill: none; stroke: #1f77b4; stroke-width: 1.5; stroke-linecap: square"/>
    </g>
    <g id="text_17">
     <!-- Network.node[0].lnk[0] -->
     <g transform="translate(639.695312 62.518438) scale(0.1 -0.1)">
      <defs>
       <path id="DejaVuSans-4e" d="M 628 4666 
L 1478 4666 
L 3547 763 
L 3547 4666 
L 4159 4666 
L 4159 0 
L 3309 0 
L 1241 3903 
L 1241 0 
L 628 0 
L 628 4666 
z
" transform="scale(0.015625)"/>
       <path id="DejaVuSans-74" d="M 1172 4494 
L 1172 3500 
L 2356 3500 
L 2356 3053 
L 1172 3053 
L 1172 1153 
Q 1172 725 1289 603 
Q 1406 481 1766 481 
L 2356 481 
L 2356 0 
L 1766 0 
Q 1100 0 847 248 
Q 594 497 594 1153 
L 594 3053 
L 172 3053 
L 172 3500 
L 594 3500 
L 594 4494 
L 1172 4494 
z
" transform="scale(0.015625)"/>
       <path id="DejaVuSans-77" d="M 269 3500 
L 844 3500 
L 1563 769 
L 2278 3500 
L 2956 3500 
L 3675 769 
L 4391 3500 
L 4966 3500 
L 4050 0 
L 3372 0 
L 2619 2869 
L 1863 0 
L 1184 0 
L 269 3500 
z
" transform="scale(0.015625)"/>
       <path id="DejaVuSans-6f" d="M 1959 3097 
Q 1497 3097 1228 2736 
Q 959 2375 959 1747 
Q 959 1119 1226 758 
Q 1494 397 1959 397 
Q 2419 397 2687 759 
Q 2956 1122 2956 1747 
Q 2956 2369 2687 2733 
Q 2419 3097 1959 3097 
z
M 1959 3584 
Q 2709 3584 3137 3096 
Q 3566 2609 3566 1747 
Q 3566 888 3137 398 
Q 2709 -91 1959 -91 
Q 1206 -91 779 398 
Q 353 888 353 1747 
Q 353 2609 779 3096 
Q 1206 3584 1959 3584 
z
" transform="scale(0.015625)"/>
       <path id="DejaVuSans-6b" d="M 581 4863 
L 1159 4863 
L 1159 1991 
L 2875 3500 
L 3609 3500 
L 1753 1863 
L 3688 0 
L 2938 0 
L 1159 1709 
L 1159 0 
L 581 0 
L 581 4863 
z
" transform="scale(0.015625)"/>
       <path id="DejaVuSans-2e" d="M 684 794 
L 1344 794 
L 1344 0 
L 684 0 
L 684 794 
z
" transform="scale(0.015625)"/>
       <path id="DejaVuSans-6e" d="M 3513 2113 
L 3513 0 
L 2938 0 
L 2938 2094 
Q 2938 2591 2744 2837 
Q 2550 3084 2163 3084 
Q 1697 3084 1428 2787 
Q 1159 2491 1159 1978 
L 1159 0 
L 581 0 
L 581 3500 
L 1159 3500 
L 1159 2956 
Q 1366 3272 1645 3428 
Q 1925 3584 2291 3584 
Q 2894 3584 3203 3211 
Q 3513 2838 3513 2113 
z
" transform="scale(0.015625)"/>
       <path id="DejaVuSans-64" d="M 2906 2969 
L 2906 4863 
L 3481 4863 
L 3481 0 
L 2906 0 
L 2906 525 
Q 2725 213 2448 61 
Q 2172 -91 1784 -91 
Q 1150 -91 751 415 
Q 353 922 353 1747 
Q 353 2572 751 3078 
Q 1150 3584 1784 3584 
Q 2172 3584 2448 3432 
Q 2725 3281 2906 2969 
z
M 947 1747 
Q 947 1113 1208 752 
Q 1469 391 1925 391 
Q 2381 391 2643 752 
Q 2906 1113 2906 1747 
Q 2906 2381 2643 2742 
Q 2381 3103 1925 3103 
Q 1469 3103 1208 2742 
Q 947 2381 947 1747 
z
" transform="scale(0.015625)"/>
       <path id="DejaVuSans-5b" d="M 550 4863 
L 1875 4863 
L 1875 4416 
L 1125 4416 
L 1125 -397 
L 1875 -397 
L 1875 -844 
L 550 -844 
L 550 4863 
z
" transform="scale(0.015625)"/>
       <path id="DejaVuSans-5d" d="M 1947 4863 
L 1947 -844 
L 622 -844 
L 622 -397 
L 1369 -397 
L 1369 4416 
L 622 4416 
L 622 4863 
L 1947 4863 
z
" transform="scale(0.015625)"/>
       <path id="DejaVuSans-6c" d="M 603 4863 
L 1178 4863 
L 1178 0 
L 603 0 
L 603 4863 
z
" transform="scale(0.015625)"/>
      </defs>
      <use xlink:href="#DejaVuSans-4e"/>
      <use xlink:href="#DejaVuSans-65" x="74.804688"/>
      <use xlink:href="#DejaVuSans-74" x="136.328125"/>
      <use xlink:href="#DejaVuSans-77" x="175.537109"/>
      <use xlink:href="#DejaVuSans-6f" x="257.324219"/>
      <use xlink:href="#DejaVuSans-72" x="318.505859"/>
      <use xlink:href="#DejaVuSans-6b" x="359.619141"/>
      <use xlink:href="#DejaVuSans-2e" x="417.529297"/>
      <use xlink:href="#DejaVuSans-6e" x="449.316406"/>
      <use xlink:href="#DejaVuSans-6f" x="512.695312"/>
      <use xlink:href="#DejaVuSans-64" x="573.876953"/>
      <use xlink:href="#DejaVuSans-65" x="637.353516"/>
      <use xlink:href="#DejaVuSans-5b" x="698.876953"/>
      <use xlink:href="#DejaVuSans-30" x="737.890625"/>
      <use xlink:href="#DejaVuSans-5d" x="801.513672"/>
      <use xlink:href="#DejaVuSans-2e" x="840.527344"/>
      <use xlink:href="#DejaVuSans-6c" x="872.314453"/>
      <use xlink:href="#DejaVuSans-6e" x="900.097656"/>
      <use xlink:href="#DejaVuSans-6b" x="963.476562"/>
      <use xlink:href="#DejaVuSans-5b" x="1021.386719"/>
      <use xlink:href="#DejaVuSans-30" x="1060.400391"/>
      <use xlink:href="#DejaVuSans-5d" x="1124.023438"/>
     </g>
    </g>
    <g id="line2d_43">
     <path d="M 611.695312 73.696563 
L 621.695312 73.696563 
L 631.695312 73.696563 
" style="fill: none; stroke: #ff7f0e; stroke-width: 1.5; stroke-linecap: square"/>
    </g>
    <g id="text_18">
     <!-- Network.node[1].lnk[0] -->
     <g transform="translate(639.695312 77.196563) scale(0.1 -0.1)">
      <use xlink:href="#DejaVuSans-4e"/>
      <use xlink:href="#DejaVuSans-65" x="74.804688"/>
      <use xlink:href="#DejaVuSans-74" x="136.328125"/>
      <use xlink:href="#DejaVuSans-77" x="175.537109"/>
      <use xlink:href="#DejaVuSans-6f" x="257.324219"/>
      <use xlink:href="#DejaVuSans-72" x="318.505859"/>
      <use xlink:href="#DejaVuSans-6b" x="359.619141"/>
      <use xlink:href="#DejaVuSans-2e" x="417.529297"/>
      <use xlink:href="#DejaVuSans-6e" x="449.316406"/>
      <use xlink:href="#DejaVuSans-6f" x="512.695312"/>
      <use xlink:href="#DejaVuSans-64" x="573.876953"/>
      <use xlink:href="#DejaVuSans-65" x="637.353516"/>
      <use xlink:href="#DejaVuSans-5b" x="698.876953"/>
      <use xlink:href="#DejaVuSans-31" x="737.890625"/>
      <use xlink:href="#DejaVuSans-5d" x="801.513672"/>
      <use xlink:href="#DejaVuSans-2e" x="840.527344"/>
      <use xlink:href="#DejaVuSans-6c" x="872.314453"/>
      <use xlink:href="#DejaVuSans-6e" x="900.097656"/>
      <use xlink:href="#DejaVuSans-6b" x="963.476562"/>
      <use xlink:href="#DejaVuSans-5b" x="1021.386719"/>
      <use xlink:href="#DejaVuSans-30" x="1060.400391"/>
      <use xlink:href="#DejaVuSans-5d" x="1124.023438"/>
     </g>
    </g>
    <g id="line2d_44">
     <path d="M 611.695312 88.374688 
L 621.695312 88.374688 
L 631.695312 88.374688 
" style="fill: none; stroke: #2ca02c; stroke-width: 1.5; stroke-linecap: square"/>
    </g>
    <g id="text_19">
     <!-- Network.node[2].lnk[0] -->
     <g transform="translate(639.695312 91.874688) scale(0.1 -0.1)">
      <use xlink:href="#DejaVuSans-4e"/>
      <use xlink:href="#DejaVuSans-65" x="74.804688"/>
      <use xlink:href="#DejaVuSans-74" x="136.328125"/>
      <use xlink:href="#DejaVuSans-77" x="175.537109"/>
      <use xlink:href="#DejaVuSans-6f" x="257.324219"/>
      <use xlink:href="#DejaVuSans-72" x="318.505859"/>
      <use xlink:href="#DejaVuSans-6b" x="359.619141"/>
      <use xlink:href="#DejaVuSans-2e" x="417.529297"/>
      <use xlink:href="#DejaVuSans-6e" x="449.316406"/>
      <use xlink:href="#DejaVuSans-6f" x="512.695312"/>
      <use xlink:href="#DejaVuSans-64" x="573.876953"/>
      <use xlink:href="#DejaVuSans-65" x="637.353516"/>
      <use xlink:href="#DejaVuSans-5b" x="698.876953"/>
      <use xlink:href="#DejaVuSans-32" x="737.890625"/>
      <use xlink:href="#DejaVuSans-5d" x="801.513672"/>
      <use xlink:href="#DejaVuSans-2e" x="840.527344"/>
      <use xlink:href="#DejaVuSans-6c" x="872.314453"/>
      <use xlink:href="#DejaVuSans-6e" x="900.097656"/>
      <use xlink:href="#DejaVuSans-6b" x="963.476562"/>
      <use xlink:href="#DejaVuSans-5b" x="1021.386719"/>
      <use xlink:href="#DejaVuSans-30" x="1060.400391"/>
      <use xlink:href="#DejaVuSans-5d" x="1124.023438"/>
     </g>
    </g>
    <g id="line2d_45">
     <path d="M 611.695312 103.052813 
L 621.695312 103.052813 
L 631.695312 103.052813 
" style="fill: none; stroke: #d62728; stroke-width: 1.5; stroke-linecap: square"/>
    </g>
    <g id="text_20">
     <!-- Network.node[2].lnk[1] -->
     <g transform="translate(639.695312 106.552813) scale(0.1 -0.1)">
      <use xlink:href="#DejaVuSans-4e"/>
      <use xlink:href="#DejaVuSans-65" x="74.804688"/>
      <use xlink:href="#DejaVuSans-74" x="136.328125"/>
      <use xlink:href="#DejaVuSans-77" x="175.537109"/>
      <use xlink:href="#DejaVuSans-6f" x="257.324219"/>
      <use xlink:href="#DejaVuSans-72" x="318.505859"/>
      <use xlink:href="#DejaVuSans-6b" x="359.619141"/>
      <use xlink:href="#DejaVuSans-2e" x="417.529297"/>
      <use xlink:href="#DejaVuSans-6e" x="449.316406"/>
      <use xlink:href="#DejaVuSans-6f" x="512.695312"/>
      <use xlink:href="#DejaVuSans-64" x="573.876953"/>
      <use xlink:href="#DejaVuSans-65" x="637.353516"/>
      <use xlink:href="#DejaVuSans-5b" x="698.876953"/>
      <use xlink:href="#DejaVuSans-32" x="737.890625"/>
      <use xlink:href="#DejaVuSans-5d" x="801.513672"/>
      <use xlink:href="#DejaVuSans-2e" x="840.527344"/>
      <use xlink:href="#DejaVuSans-6c" x="872.314453"/>
      <use xlink:href="#DejaVuSans-6e" x="900.097656"/>
      <use xlink:href="#DejaVuSans-6b" x="963.476562"/>
      <use xlink:href="#DejaVuSans-5b" x="1021.386719"/>
      <use xlink:href="#DejaVuSans-31" x="1060.400391"/>
      <use xlink:href="#DejaVuSans-5d" x="1124.023438"/>
     </g>
    </g>
    <g id="line2d_46">
     <path d="M 611.695312 117.730938 
L 621.695312 117.730938 
L 631.695312 117.730938 
" style="fill: none; stroke: #9467bd; stroke-width: 1.5; stroke-linecap: square"/>
    </g>
    <g id="text_21">
     <!-- Network.node[3].lnk[0] -->
     <g transform="translate(639.695312 121.230938) scale(0.1 -0.1)">
      <defs>
       <path id="DejaVuSans-33" d="M 2597 2516 
Q 3050 2419 3304 2112 
Q 3559 1806 3559 1356 
Q 3559 666 3084 287 
Q 2609 -91 1734 -91 
Q 1441 -91 1130 -33 
Q 819 25 488 141 
L 488 750 
Q 750 597 1062 519 
Q 1375 441 1716 441 
Q 2309 441 2620 675 
Q 2931 909 2931 1356 
Q 2931 1769 2642 2001 
Q 2353 2234 1838 2234 
L 1294 2234 
L 1294 2753 
L 1863 2753 
Q 2328 2753 2575 2939 
Q 2822 3125 2822 3475 
Q 2822 3834 2567 4026 
Q 2313 4219 1838 4219 
Q 1578 4219 1281 4162 
Q 984 4106 628 3988 
L 628 4550 
Q 988 4650 1302 4700 
Q 1616 4750 1894 4750 
Q 2613 4750 3031 4423 
Q 3450 4097 3450 3541 
Q 3450 3153 3228 2886 
Q 3006 2619 2597 2516 
z
" transform="scale(0.015625)"/>
      </defs>
      <use xlink:href="#DejaVuSans-4e"/>
      <use xlink:href="#DejaVuSans-65" x="74.804688"/>
      <use xlink:href="#DejaVuSans-74" x="136.328125"/>
      <use xlink:href="#DejaVuSans-77" x="175.537109"/>
      <use xlink:href="#DejaVuSans-6f" x="257.324219"/>
      <use xlink:href="#DejaVuSans-72" x="318.505859"/>
      <use xlink:href="#DejaVuSans-6b" x="359.619141"/>
      <use xlink:href="#DejaVuSans-2e" x="417.529297"/>
      <use xlink:href="#DejaVuSans-6e" x="449.316406"/>
      <use xlink:href="#DejaVuSans-6f" x="512.695312"/>
      <use xlink:href="#DejaVuSans-64" x="573.876953"/>
      <use xlink:href="#DejaVuSans-65" x="637.353516"/>
      <use xlink:href="#DejaVuSans-5b" x="698.876953"/>
      <use xlink:href="#DejaVuSans-33" x="737.890625"/>
      <use xlink:href="#DejaVuSans-5d" x="801.513672"/>
      <use xlink:href="#DejaVuSans-2e" x="840.527344"/>
      <use xlink:href="#DejaVuSans-6c" x="872.314453"/>
      <use xlink:href="#DejaVuSans-6e" x="900.097656"/>
      <use xlink:href="#DejaVuSans-6b" x="963.476562"/>
      <use xlink:href="#DejaVuSans-5b" x="1021.386719"/>
      <use xlink:href="#DejaVuSans-30" x="1060.400391"/>
      <use xlink:href="#DejaVuSans-5d" x="1124.023438"/>
     </g>
    </g>
    <g id="line2d_47">
     <path d="M 611.695312 132.409063 
L 621.695312 132.409063 
L 631.695312 132.409063 
" style="fill: none; stroke: #8c564b; stroke-width: 1.5; stroke-linecap: square"/>
    </g>
    <g id="text_22">
     <!-- Network.node[3].lnk[1] -->
     <g transform="translate(639.695312 135.909063) scale(0.1 -0.1)">
      <use xlink:href="#DejaVuSans-4e"/>
      <use xlink:href="#DejaVuSans-65" x="74.804688"/>
      <use xlink:href="#DejaVuSans-74" x="136.328125"/>
      <use xlink:href="#DejaVuSans-77" x="175.537109"/>
      <use xlink:href="#DejaVuSans-6f" x="257.324219"/>
      <use xlink:href="#DejaVuSans-72" x="318.505859"/>
      <use xlink:href="#DejaVuSans-6b" x="359.619141"/>
      <use xlink:href="#DejaVuSans-2e" x="417.529297"/>
      <use xlink:href="#DejaVuSans-6e" x="449.316406"/>
      <use xlink:href="#DejaVuSans-6f" x="512.695312"/>
      <use xlink:href="#DejaVuSans-64" x="573.876953"/>
      <use xlink:href="#DejaVuSans-65" x="637.353516"/>
      <use xlink:href="#DejaVuSans-5b" x="698.876953"/>
      <use xlink:href="#DejaVuSans-33" x="737.890625"/>
      <use xlink:href="#DejaVuSans-5d" x="801.513672"/>
      <use xlink:href="#DejaVuSans-2e" x="840.527344"/>
      <use xlink:href="#DejaVuSans-6c" x="872.314453"/>
      <use xlink:href="#DejaVuSans-6e" x="900.097656"/>
      <use xlink:href="#DejaVuSans-6b" x="963.476562"/>
      <use xlink:href="#DejaVuSans-5b" x="1021.386719"/>
      <use xlink:href="#DejaVuSans-31" x="1060.400391"/>
      <use xlink:href="#DejaVuSans-5d" x="1124.023438"/>
     </g>
    </g>
    <g id="line2d_48">
     <path d="M 611.695312 147.087188 
L 621.695312 147.087188 
L 631.695312 147.087188 
" style="fill: none; stroke: #e377c2; stroke-width: 1.5; stroke-linecap: square"/>
    </g>
    <g id="text_23">
     <!-- Network.node[4].lnk[0] -->
     <g transform="translate(639.695312 150.587188) scale(0.1 -0.1)">
      <use xlink:href="#DejaVuSans-4e"/>
      <use xlink:href="#DejaVuSans-65" x="74.804688"/>
      <use xlink:href="#DejaVuSans-74" x="136.328125"/>
      <use xlink:href="#DejaVuSans-77" x="175.537109"/>
      <use xlink:href="#DejaVuSans-6f" x="257.324219"/>
      <use xlink:href="#DejaVuSans-72" x="318.505859"/>
      <use xlink:href="#DejaVuSans-6b" x="359.619141"/>
      <use xlink:href="#DejaVuSans-2e" x="417.529297"/>
      <use xlink:href="#DejaVuSans-6e" x="449.316406"/>
      <use xlink:href="#DejaVuSans-6f" x="512.695312"/>
      <use xlink:href="#DejaVuSans-64" x="573.876953"/>
      <use xlink:href="#DejaVuSans-65" x="637.353516"/>
      <use xlink:href="#DejaVuSans-5b" x="698.876953"/>
      <use xlink:href="#DejaVuSans-34" x="737.890625"/>
      <use xlink:href="#DejaVuSans-5d" x="801.513672"/>
      <use xlink:href="#DejaVuSans-2e" x="840.527344"/>
      <use xlink:href="#DejaVuSans-6c" x="872.314453"/>
      <use xlink:href="#DejaVuSans-6e" x="900.097656"/>
      <use xlink:href="#DejaVuSans-6b" x="963.476562"/>
      <use xlink:href="#DejaVuSans-5b" x="1021.386719"/>
      <use xlink:href="#DejaVuSans-30" x="1060.400391"/>
      <use xlink:href="#DejaVuSans-5d" x="1124.023438"/>
     </g>
    </g>
    <g id="line2d_49">
     <path d="M 611.695312 161.765312 
L 621.695312 161.765312 
L 631.695312 161.765312 
" style="fill: none; stroke: #7f7f7f; stroke-width: 1.5; stroke-linecap: square"/>
    </g>
    <g id="text_24">
     <!-- Network.node[4].lnk[1] -->
     <g transform="translate(639.695312 165.265312) scale(0.1 -0.1)">
      <use xlink:href="#DejaVuSans-4e"/>
      <use xlink:href="#DejaVuSans-65" x="74.804688"/>
      <use xlink:href="#DejaVuSans-74" x="136.328125"/>
      <use xlink:href="#DejaVuSans-77" x="175.537109"/>
      <use xlink:href="#DejaVuSans-6f" x="257.324219"/>
      <use xlink:href="#DejaVuSans-72" x="318.505859"/>
      <use xlink:href="#DejaVuSans-6b" x="359.619141"/>
      <use xlink:href="#DejaVuSans-2e" x="417.529297"/>
      <use xlink:href="#DejaVuSans-6e" x="449.316406"/>
      <use xlink:href="#DejaVuSans-6f" x="512.695312"/>
      <use xlink:href="#DejaVuSans-64" x="573.876953"/>
      <use xlink:href="#DejaVuSans-65" x="637.353516"/>
      <use xlink:href="#DejaVuSans-5b" x="698.876953"/>
      <use xlink:href="#DejaVuSans-34" x="737.890625"/>
      <use xlink:href="#DejaVuSans-5d" x="801.513672"/>
      <use xlink:href="#DejaVuSans-2e" x="840.527344"/>
      <use xlink:href="#DejaVuSans-6c" x="872.314453"/>
      <use xlink:href="#DejaVuSans-6e" x="900.097656"/>
      <use xlink:href="#DejaVuSans-6b" x="963.476562"/>
      <use xlink:href="#DejaVuSans-5b" x="1021.386719"/>
      <use xlink:href="#DejaVuSans-31" x="1060.400391"/>
      <use xlink:href="#DejaVuSans-5d" x="1124.023438"/>
     </g>
    </g>
    <g id="line2d_50">
     <path d="M 611.695312 176.443438 
L 621.695312 176.443438 
L 631.695312 176.443438 
" style="fill: none; stroke: #bcbd22; stroke-width: 1.5; stroke-linecap: square"/>
    </g>
    <g id="text_25">
     <!-- Network.node[5].lnk[0] -->
     <g transform="translate(639.695312 179.943438) scale(0.1 -0.1)">
      <use xlink:href="#DejaVuSans-4e"/>
      <use xlink:href="#DejaVuSans-65" x="74.804688"/>
      <use xlink:href="#DejaVuSans-74" x="136.328125"/>
      <use xlink:href="#DejaVuSans-77" x="175.537109"/>
      <use xlink:href="#DejaVuSans-6f" x="257.324219"/>
      <use xlink:href="#DejaVuSans-72" x="318.505859"/>
      <use xlink:href="#DejaVuSans-6b" x="359.619141"/>
      <use xlink:href="#DejaVuSans-2e" x="417.529297"/>
      <use xlink:href="#DejaVuSans-6e" x="449.316406"/>
      <use xlink:href="#DejaVuSans-6f" x="512.695312"/>
      <use xlink:href="#DejaVuSans-64" x="573.876953"/>
      <use xlink:href="#DejaVuSans-65" x="637.353516"/>
      <use xlink:href="#DejaVuSans-5b" x="698.876953"/>
      <use xlink:href="#DejaVuSans-35" x="737.890625"/>
      <use xlink:href="#DejaVuSans-5d" x="801.513672"/>
      <use xlink:href="#DejaVuSans-2e" x="840.527344"/>
      <use xlink:href="#DejaVuSans-6c" x="872.314453"/>
      <use xlink:href="#DejaVuSans-6e" x="900.097656"/>
      <use xlink:href="#DejaVuSans-6b" x="963.476562"/>
      <use xlink:href="#DejaVuSans-5b" x="1021.386719"/>
      <use xlink:href="#DejaVuSans-30" x="1060.400391"/>
      <use xlink:href="#DejaVuSans-5d" x="1124.023438"/>
     </g>
    </g>
    <g id="line2d_51">
     <path d="M 611.695312 191.121562 
L 621.695312 191.121562 
L 631.695312 191.121562 
" style="fill: none; stroke: #17becf; stroke-width: 1.5; stroke-linecap: square"/>
    </g>
    <g id="text_26">
     <!-- Network.node[6].lnk[0] -->
     <g transform="translate(639.695312 194.621562) scale(0.1 -0.1)">
      <use xlink:href="#DejaVuSans-4e"/>
      <use xlink:href="#DejaVuSans-65" x="74.804688"/>
      <use xlink:href="#DejaVuSans-74" x="136.328125"/>
      <use xlink:href="#DejaVuSans-77" x="175.537109"/>
      <use xlink:href="#DejaVuSans-6f" x="257.324219"/>
      <use xlink:href="#DejaVuSans-72" x="318.505859"/>
      <use xlink:href="#DejaVuSans-6b" x="359.619141"/>
      <use xlink:href="#DejaVuSans-2e" x="417.529297"/>
      <use xlink:href="#DejaVuSans-6e" x="449.316406"/>
      <use xlink:href="#DejaVuSans-6f" x="512.695312"/>
      <use xlink:href="#DejaVuSans-64" x="573.876953"/>
      <use xlink:href="#DejaVuSans-65" x="637.353516"/>
      <use xlink:href="#DejaVuSans-5b" x="698.876953"/>
      <use xlink:href="#DejaVuSans-36" x="737.890625"/>
      <use xlink:href="#DejaVuSans-5d" x="801.513672"/>
      <use xlink:href="#DejaVuSans-2e" x="840.527344"/>
      <use xlink:href="#DejaVuSans-6c" x="872.314453"/>
      <use xlink:href="#DejaVuSans-6e" x="900.097656"/>
      <use xlink:href="#DejaVuSans-6b" x="963.476562"/>
      <use xlink:href="#DejaVuSans-5b" x="1021.386719"/>
      <use xlink:href="#DejaVuSans-30" x="1060.400391"/>
      <use xlink:href="#DejaVuSans-5d" x="1124.023438"/>
     </g>
    </g>
    <g id="line2d_52">
     <path d="M 611.695312 205.799688 
L 621.695312 205.799688 
L 631.695312 205.799688 
" style="fill: none; stroke: #1f77b4; stroke-width: 1.5; stroke-linecap: square"/>
    </g>
    <g id="text_27">
     <!-- Network.node[7].lnk[0] -->
     <g transform="translate(639.695312 209.299688) scale(0.1 -0.1)">
      <use xlink:href="#DejaVuSans-4e"/>
      <use xlink:href="#DejaVuSans-65" x="74.804688"/>
      <use xlink:href="#DejaVuSans-74" x="136.328125"/>
      <use xlink:href="#DejaVuSans-77" x="175.537109"/>
      <use xlink:href="#DejaVuSans-6f" x="257.324219"/>
      <use xlink:href="#DejaVuSans-72" x="318.505859"/>
      <use xlink:href="#DejaVuSans-6b" x="359.619141"/>
      <use xlink:href="#DejaVuSans-2e" x="417.529297"/>
      <use xlink:href="#DejaVuSans-6e" x="449.316406"/>
      <use xlink:href="#DejaVuSans-6f" x="512.695312"/>
      <use xlink:href="#DejaVuSans-64" x="573.876953"/>
      <use xlink:href="#DejaVuSans-65" x="637.353516"/>
      <use xlink:href="#DejaVuSans-5b" x="698.876953"/>
      <use xlink:href="#DejaVuSans-37" x="737.890625"/>
      <use xlink:href="#DejaVuSans-5d" x="801.513672"/>
      <use xlink:href="#DejaVuSans-2e" x="840.527344"/>
      <use xlink:href="#DejaVuSans-6c" x="872.314453"/>
      <use xlink:href="#DejaVuSans-6e" x="900.097656"/>
      <use xlink:href="#DejaVuSans-6b" x="963.476562"/>
      <use xlink:href="#DejaVuSans-5b" x="1021.386719"/>
      <use xlink:href="#DejaVuSans-30" x="1060.400391"/>
      <use xlink:href="#DejaVuSans-5d" x="1124.023438"/>
     </g>
    </g>
   </g>
  </g>
 </g>
 <defs>
  <clipPath id="p9c497087c9">
   <rect x="51.833" y="45.92" width="713.167" height="496.851667"/>
  </clipPath>
 </defs>
</svg>
