<svg version="1.1" viewBox="0.0 0.0 600.0 371.0" fill="none" stroke="none" stroke-linecap="square" stroke-miterlimit="10" width="600" height="371" xmlns:xlink="http://www.w3.org/1999/xlink" xmlns="http://www.w3.org/2000/svg"><path fill="#ffffff" d="M0 0L600.0 0L600.0 371.0L0 371.0L0 0Z" fill-rule="nonzero"/><path stroke="#333333" stroke-width="1.0" stroke-linecap="butt" d="M80.5 289.5L581.5 289.5" fill-rule="nonzero"/><path stroke="#cccccc" stroke-width="1.0" stroke-linecap="butt" d="M80.5 232.5L581.5 232.5" fill-rule="nonzero"/><path stroke="#cccccc" stroke-width="1.0" stroke-linecap="butt" d="M80.5 175.5L581.5 175.5" fill-rule="nonzero"/><path stroke="#cccccc" stroke-width="1.0" stroke-linecap="butt" d="M80.5 118.5L581.5 118.5" fill-rule="nonzero"/><path stroke="#cccccc" stroke-width="1.0" stroke-linecap="butt" d="M80.5 61.5L581.5 61.5" fill-rule="nonzero"/><clipPath id="id_0"><path d="M80.55 61.916668L581.45 61.916668L581.45 289.45L80.55 289.45L80.55 61.916668Z" clip-rule="nonzero"/></clipPath><path stroke="#000000" stroke-width="2.0" stroke-linecap="butt" stroke-opacity="0.0" clip-path="url(#id_0)" d="M230.0 289.0L133.0 289.0L133.0 226.0C133.0 224.89543 133.89543 224.0 135.0 224.0L228.0 224.0C229.10457 224.0 230.0 224.89543 230.0 226.0Z" fill-rule="nonzero"/><path fill="#4285f4" clip-path="url(#id_0)" d="M230.0 289.0L133.0 289.0L133.0 226.0C133.0 224.89543 133.89543 224.0 135.0 224.0L228.0 224.0C229.10457 224.0 230.0 224.89543 230.0 226.0Z" fill-rule="nonzero"/><path stroke="#000000" stroke-width="2.0" stroke-linecap="butt" stroke-opacity="0.0" clip-path="url(#id_0)" d="M380.0 289.0L283.0 289.0L283.0 96.0C283.0 94.89543 283.89542 94.0 285.0 94.0L378.0 94.0C379.10458 94.0 380.0 94.89543 380.0 96.0Z" fill-rule="nonzero"/><path fill="#4285f4" clip-path="url(#id_0)" d="M380.0 289.0L283.0 289.0L283.0 96.0C283.0 94.89543 283.89542 94.0 285.0 94.0L378.0 94.0C379.10458 94.0 380.0 94.89543 380.0 96.0Z" fill-rule="nonzero"/><path stroke="#000000" stroke-width="2.0" stroke-linecap="butt" stroke-opacity="0.0" clip-path="url(#id_0)" d="M530.0 289.0L433.0 289.0L433.0 67.0C433.0 65.89543 433.89542 65.0 435.0 65.0L528.0 65.0C529.10455 65.0 530.0 65.89543 530.0 67.0Z" fill-rule="nonzero"/><path fill="#4285f4" clip-path="url(#id_0)" d="M530.0 289.0L433.0 289.0L433.0 67.0C433.0 65.89543 433.89542 65.0 435.0 65.0L528.0 65.0C529.10455 65.0 530.0 65.89543 530.0 67.0Z" fill-rule="nonzero"/><path fill="#000000" d="M275.09375 343.95L275.09375 342.60626L279.95312 342.60626L279.95312 346.85626Q278.82812 347.7469 277.64062 348.2Q276.45312 348.65314 275.20312 348.65314Q273.51562 348.65314 272.14062 347.9344Q270.76562 347.2 270.0625 345.84064Q269.35938 344.46564 269.35938 342.77814Q269.35938 341.10626 270.04688 339.65314Q270.75 338.2 272.0625 337.4969Q273.375 336.79376 275.09375 336.79376Q276.32812 336.79376 277.32812 337.2Q278.34375 337.60626 278.90625 338.325Q279.48438 339.04376 279.78125 340.2L278.40625 340.575Q278.15625 339.7 277.76562 339.2Q277.39062 338.7 276.67188 338.40314Q275.96875 338.09064 275.09375 338.09064Q274.0625 338.09064 273.29688 338.41876Q272.54688 338.73126 272.07812 339.2469Q271.60938 339.7625 271.35938 340.3719Q270.92188 341.4344 270.92188 342.6844Q270.92188 344.21564 271.4375 345.2469Q271.96875 346.27814 272.96875 346.77814Q273.98438 347.27814 275.125 347.27814Q276.10938 347.27814 277.04688 346.90314Q277.98438 346.5125 278.46875 346.09064L278.46875 343.95L275.09375 343.95ZM287.23438 345.77814L288.6875 345.95Q288.34375 347.23126 287.40625 347.9344Q286.48438 348.6375 285.04688 348.6375Q283.21875 348.6375 282.15625 347.5125Q281.09375 346.3875 281.09375 344.3719Q281.09375 342.27814 282.17188 341.1219Q283.25 339.96564 284.96875 339.96564Q286.625 339.96564 287.67188 341.10626Q288.73438 342.23126 288.73438 344.27814Q288.73438 344.40314 288.73438 344.65314L282.54688 344.65314Q282.625 346.02814 283.3125 346.7625Q284.01562 347.48126 285.04688 347.48126Q285.82812 347.48126 286.375 347.075Q286.92188 346.66876 287.23438 345.77814ZM282.625 343.4969L287.25 343.4969Q287.15625 342.45 286.71875 341.9344Q286.04688 341.1219 284.98438 341.1219Q284.01562 341.1219 283.34375 341.77814Q282.6875 342.41876 282.625 343.4969ZM290.5625 348.45L290.5625 340.15314L291.82812 340.15314L291.82812 341.325Q292.73438 339.96564 294.46875 339.96564Q295.21875 339.96564 295.84375 340.23126Q296.46875 340.4969 296.78125 340.9344Q297.09375 341.3719 297.21875 341.98126Q297.29688 342.3719 297.29688 343.34064L297.29688 348.45L295.89062 348.45L295.89062 343.40314Q295.89062 342.54376 295.71875 342.1219Q295.5625 341.6844 295.14062 341.4344Q294.73438 341.1844 294.17188 341.1844Q293.26562 341.1844 292.60938 341.7625Q291.96875 342.325 291.96875 343.91876L291.96875 348.45L290.5625 348.45ZM304.23438 345.77814L305.6875 345.95Q305.34375 347.23126 304.40625 347.9344Q303.48438 348.6375 302.04688 348.6375Q300.21875 348.6375 299.15625 347.5125Q298.09375 346.3875 298.09375 344.3719Q298.09375 342.27814 299.17188 341.1219Q300.25 339.96564 301.96875 339.96564Q303.625 339.96564 304.67188 341.10626Q305.73438 342.23126 305.73438 344.27814Q305.73438 344.40314 305.73438 344.65314L299.54688 344.65314Q299.625 346.02814 300.3125 346.7625Q301.01562 347.48126 302.04688 347.48126Q302.82812 347.48126 303.375 347.075Q303.92188 346.66876 304.23438 345.77814ZM299.625 343.4969L304.25 343.4969Q304.15625 342.45 303.71875 341.9344Q303.04688 341.1219 301.98438 341.1219Q301.01562 341.1219 300.34375 341.77814Q299.6875 342.41876 299.625 343.4969ZM307.54688 348.45L307.54688 340.15314L308.8125 340.15314L308.8125 341.40314Q309.29688 340.52814 309.70312 340.2469Q310.10938 339.96564 310.60938 339.96564Q311.3125 339.96564 312.04688 340.41876L311.5625 341.71564Q311.04688 341.41876 310.53125 341.41876Q310.07812 341.41876 309.70312 341.7Q309.34375 341.96564 309.1875 342.46564Q308.95312 343.21564 308.95312 344.10626L308.95312 348.45L307.54688 348.45ZM317.96875 347.41876Q317.1875 348.09064 316.46875 348.3719Q315.75 348.6375 314.92188 348.6375Q313.54688 348.6375 312.8125 347.96564Q312.07812 347.29376 312.07812 346.2625Q312.07812 345.65314 312.35938 345.15314Q312.64062 344.6375 313.07812 344.34064Q313.53125 344.02814 314.09375 343.8719Q314.51562 343.7625 315.34375 343.66876Q317.04688 343.46564 317.85938 343.1844Q317.85938 342.8875 317.85938 342.8094Q317.85938 341.95 317.46875 341.60626Q316.92188 341.1219 315.85938 341.1219Q314.875 341.1219 314.39062 341.48126Q313.92188 341.825 313.70312 342.7L312.32812 342.5125Q312.51562 341.6375 312.9375 341.09064Q313.375 340.54376 314.1875 340.2625Q315.0 339.96564 316.0625 339.96564Q317.125 339.96564 317.78125 340.21564Q318.45312 340.46564 318.76562 340.84064Q319.07812 341.21564 319.20312 341.79376Q319.28125 342.15314 319.28125 343.09064L319.28125 344.96564Q319.28125 346.9344 319.35938 347.45Q319.45312 347.96564 319.71875 348.45L318.25 348.45Q318.03125 348.0125 317.96875 347.41876ZM317.85938 344.27814Q317.09375 344.59064 315.5625 344.8094Q314.6875 344.9344 314.32812 345.09064Q313.96875 345.2469 313.76562 345.5594Q313.57812 345.85626 313.57812 346.21564Q313.57812 346.77814 314.0 347.15314Q314.4375 347.52814 315.25 347.52814Q316.0625 347.52814 316.6875 347.1844Q317.32812 346.825 317.625 346.2Q317.85938 345.73126 317.85938 344.79376L317.85938 344.27814ZM324.625 347.1844L324.82812 348.4344Q324.23438 348.5594 323.76562 348.5594Q323.0 348.5594 322.57812 348.325Q322.15625 348.075 321.98438 347.6844Q321.8125 347.27814 321.8125 346.0125L321.8125 341.2469L320.78125 341.2469L320.78125 340.15314L321.8125 340.15314L321.8125 338.09064L323.21875 337.2469L323.21875 340.15314L324.625 340.15314L324.625 341.2469L323.21875 341.2469L323.21875 346.09064Q323.21875 346.7 323.28125 346.8719Q323.35938 347.04376 323.53125 347.15314Q323.70312 347.2469 324.01562 347.2469Q324.25 347.2469 324.625 347.1844ZM325.5625 338.60626L325.5625 336.9969L326.96875 336.9969L326.96875 338.60626L325.5625 338.60626ZM325.5625 348.45L325.5625 340.15314L326.96875 340.15314L326.96875 348.45L325.5625 348.45ZM329.03125 344.29376Q329.03125 341.9969 330.3125 340.8875Q331.39062 339.96564 332.92188 339.96564Q334.64062 339.96564 335.71875 341.09064Q336.8125 342.2 336.8125 344.1844Q336.8125 345.77814 336.32812 346.7Q335.84375 347.6219 334.92188 348.1375Q334.01562 348.6375 332.92188 348.6375Q331.1875 348.6375 330.10938 347.52814Q329.03125 346.40314 329.03125 344.29376ZM330.48438 344.29376Q330.48438 345.8875 331.17188 346.6844Q331.875 347.48126 332.92188 347.48126Q333.96875 347.48126 334.65625 346.6844Q335.35938 345.8875 335.35938 344.2469Q335.35938 342.71564 334.65625 341.91876Q333.96875 341.1219 332.92188 341.1219Q331.875 341.1219 331.17188 341.91876Q330.48438 342.7 330.48438 344.29376ZM338.5625 348.45L338.5625 340.15314L339.82812 340.15314L339.82812 341.325Q340.73438 339.96564 342.46875 339.96564Q343.21875 339.96564 343.84375 340.23126Q344.46875 340.4969 344.78125 340.9344Q345.09375 341.3719 345.21875 341.98126Q345.29688 342.3719 345.29688 343.34064L345.29688 348.45L343.89062 348.45L343.89062 343.40314Q343.89062 342.54376 343.71875 342.1219Q343.5625 341.6844 343.14062 341.4344Q342.73438 341.1844 342.17188 341.1844Q341.26562 341.1844 340.60938 341.7625Q339.96875 342.325 339.96875 343.91876L339.96875 348.45L338.5625 348.45ZM347.0 348.45L347.0 336.9969L348.51562 336.9969L348.51562 348.45L347.0 348.45ZM349.5625 348.45L349.5625 340.15314L350.82812 340.15314L350.82812 341.325Q351.73438 339.96564 353.46875 339.96564Q354.21875 339.96564 354.84375 340.23126Q355.46875 340.4969 355.78125 340.9344Q356.09375 341.3719 356.21875 341.98126Q356.29688 342.3719 356.29688 343.34064L356.29688 348.45L354.89062 348.45L354.89062 343.40314Q354.89062 342.54376 354.71875 342.1219Q354.5625 341.6844 354.14062 341.4344Q353.73438 341.1844 353.17188 341.1844Q352.26562 341.1844 351.60938 341.7625Q350.96875 342.325 350.96875 343.91876L350.96875 348.45L349.5625 348.45ZM360.625 347.1844L360.82812 348.4344Q360.23438 348.5594 359.76562 348.5594Q359.0 348.5594 358.57812 348.325Q358.15625 348.075 357.98438 347.6844Q357.8125 347.27814 357.8125 346.0125L357.8125 341.2469L356.78125 341.2469L356.78125 340.15314L357.8125 340.15314L357.8125 338.09064L359.21875 337.2469L359.21875 340.15314L360.625 340.15314L360.625 341.2469L359.21875 341.2469L359.21875 346.09064Q359.21875 346.7 359.28125 346.8719Q359.35938 347.04376 359.53125 347.15314Q359.70312 347.2469 360.01562 347.2469Q360.25 347.2469 360.625 347.1844ZM367.23438 345.77814L368.6875 345.95Q368.34375 347.23126 367.40625 347.9344Q366.48438 348.6375 365.04688 348.6375Q363.21875 348.6375 362.15625 347.5125Q361.09375 346.3875 361.09375 344.3719Q361.09375 342.27814 362.17188 341.1219Q363.25 339.96564 364.96875 339.96564Q366.625 339.96564 367.67188 341.10626Q368.73438 342.23126 368.73438 344.27814Q368.73438 344.40314 368.73438 344.65314L362.54688 344.65314Q362.625 346.02814 363.3125 346.7625Q364.01562 347.48126 365.04688 347.48126Q365.82812 347.48126 366.375 347.075Q366.92188 346.66876 367.23438 345.77814ZM362.625 343.4969L367.25 343.4969Q367.15625 342.45 366.71875 341.9344Q366.04688 341.1219 364.98438 341.1219Q364.01562 341.1219 363.34375 341.77814Q362.6875 342.41876 362.625 343.4969ZM370.54688 348.45L370.54688 340.15314L371.8125 340.15314L371.8125 341.40314Q372.29688 340.52814 372.70312 340.2469Q373.10938 339.96564 373.60938 339.96564Q374.3125 339.96564 375.04688 340.41876L374.5625 341.71564Q374.04688 341.41876 373.53125 341.41876Q373.07812 341.41876 372.70312 341.7Q372.34375 341.96564 372.1875 342.46564Q371.95312 343.21564 371.95312 344.10626L371.95312 348.45L370.54688 348.45ZM377.85938 348.45L374.70312 340.15314L376.1875 340.15314L377.96875 345.1219Q378.26562 345.91876 378.5 346.79376Q378.6875 346.1375 379.03125 345.21564L380.875 340.15314L382.3125 340.15314L379.17188 348.45L377.85938 348.45ZM387.96875 347.41876Q387.1875 348.09064 386.46875 348.3719Q385.75 348.6375 384.92188 348.6375Q383.54688 348.6375 382.8125 347.96564Q382.07812 347.29376 382.07812 346.2625Q382.07812 345.65314 382.35938 345.15314Q382.64062 344.6375 383.07812 344.34064Q383.53125 344.02814 384.09375 343.8719Q384.51562 343.7625 385.34375 343.66876Q387.04688 343.46564 387.85938 343.1844Q387.85938 342.8875 387.85938 342.8094Q387.85938 341.95 387.46875 341.60626Q386.92188 341.1219 385.85938 341.1219Q384.875 341.1219 384.39062 341.48126Q383.92188 341.825 383.70312 342.7L382.32812 342.5125Q382.51562 341.6375 382.9375 341.09064Q383.375 340.54376 384.1875 340.2625Q385.0 339.96564 386.0625 339.96564Q387.125 339.96564 387.78125 340.21564Q388.45312 340.46564 388.76562 340.84064Q389.07812 341.21564 389.20312 341.79376Q389.28125 342.15314 389.28125 343.09064L389.28125 344.96564Q389.28125 346.9344 389.35938 347.45Q389.45312 347.96564 389.71875 348.45L388.25 348.45Q388.03125 348.0125 387.96875 347.41876ZM387.85938 344.27814Q387.09375 344.59064 385.5625 344.8094Q384.6875 344.9344 384.32812 345.09064Q383.96875 345.2469 383.76562 345.5594Q383.57812 345.85626 383.57812 346.21564Q383.57812 346.77814 384.0 347.15314Q384.4375 347.52814 385.25 347.52814Q386.0625 347.52814 386.6875 347.1844Q387.32812 346.825 387.625 346.2Q387.85938 345.73126 387.85938 344.79376L387.85938 344.27814ZM391.53125 348.45L391.53125 336.9969L392.9375 336.9969L392.9375 348.45L391.53125 348.45Z" fill-rule="nonzero"/><path fill="#000000" d="M31.940638 291.38647L23.331263 291.38647L23.331263 290.43335L24.128138 290.43335Q23.659388 290.0896 23.425013 289.66772Q23.190638 289.23022 23.190638 288.62085Q23.190638 287.82397 23.596888 287.2146Q24.003138 286.60522 24.753138 286.30835Q25.503138 285.99585 26.393763 285.99585Q27.346888 285.99585 28.112513 286.3396Q28.878138 286.66772 29.284388 287.32397Q29.690638 287.98022 29.690638 288.69897Q29.690638 289.23022 29.471888 289.6521Q29.237513 290.07397 28.909388 290.3396L31.940638 290.3396L31.940638 291.38647ZM26.471888 290.43335Q27.675013 290.43335 28.253138 289.94897Q28.815638 289.4646 28.815638 288.7771Q28.815638 288.07397 28.221888 287.57397Q27.628138 287.07397 26.378138 287.07397Q25.190638 287.07397 24.612513 287.55835Q24.018763 288.04272 24.018763 288.73022Q24.018763 289.4021 24.643763 289.91772Q25.268763 290.43335 26.471888 290.43335ZM28.784388 280.32397Q29.284388 280.91772 29.487513 281.4646Q29.690638 281.99585 29.690638 282.62085Q29.690638 283.6521 29.190638 284.19897Q28.690638 284.74585 27.909388 284.74585Q27.456263 284.74585 27.081263 284.54272Q26.690638 284.3396 26.471888 283.99585Q26.237513 283.6521 26.128138 283.23022Q26.034388 282.93335 25.956263 282.29272Q25.815638 281.0271 25.596888 280.41772Q25.378138 280.41772 25.331263 280.41772Q24.675013 280.41772 24.409388 280.7146Q24.065638 281.12085 24.065638 281.91772Q24.065638 282.6521 24.331263 283.01147Q24.581263 283.37085 25.237513 283.54272L25.096888 284.57397Q24.440638 284.43335 24.034388 284.10522Q23.628138 283.7771 23.409388 283.16772Q23.190638 282.55835 23.190638 281.76147Q23.190638 280.9646 23.378138 280.4646Q23.565638 279.9646 23.846888 279.73022Q24.128138 279.49585 24.565638 279.4021Q24.831263 279.35522 25.534388 279.35522L26.940638 279.35522Q28.409388 279.35522 28.800013 279.29272Q29.190638 279.2146 29.550013 279.01147L29.550013 280.12085Q29.221888 280.2771 28.784388 280.32397ZM26.425013 280.41772Q26.659388 280.99585 26.831263 282.13647Q26.925013 282.79272 27.050013 283.05835Q27.159388 283.32397 27.378138 283.48022Q27.596888 283.62085 27.878138 283.62085Q28.300013 283.62085 28.581263 283.30835Q28.862513 282.98022 28.862513 282.37085Q28.862513 281.76147 28.596888 281.29272Q28.331263 280.80835 27.862513 280.5896Q27.503138 280.41772 26.815638 280.41772L26.425013 280.41772ZM31.940638 273.41772L28.893763 273.41772Q29.237513 273.66772 29.471888 274.12085Q29.690638 274.55835 29.690638 275.05835Q29.690638 276.16772 28.815638 276.9646Q27.925013 277.76147 26.378138 277.76147Q25.440638 277.76147 24.706263 277.43335Q23.956263 277.10522 23.581263 276.49585Q23.190638 275.87085 23.190638 275.13647Q23.190638 273.98022 24.159388 273.32397L23.331263 273.32397L23.331263 272.37085L31.940638 272.37085L31.940638 273.41772ZM26.425013 276.68335Q27.628138 276.68335 28.221888 276.18335Q28.815638 275.66772 28.815638 274.9646Q28.815638 274.29272 28.253138 273.80835Q27.675013 273.32397 26.518763 273.32397Q25.268763 273.32397 24.643763 273.8396Q24.018763 274.3396 24.018763 275.04272Q24.018763 275.7146 24.612513 276.19897Q25.190638 276.68335 26.425013 276.68335ZM29.550013 266.30835L28.628138 266.30835Q29.690638 267.04272 29.690638 268.29272Q29.690638 268.8396 29.487513 269.32397Q29.268763 269.79272 28.956263 270.0271Q28.628138 270.26147 28.159388 270.35522Q27.862513 270.41772 27.175013 270.41772L23.331263 270.41772L23.331263 269.35522L26.784388 269.35522Q27.596888 269.35522 27.893763 269.29272Q28.300013 269.19897 28.550013 268.88647Q28.784388 268.55835 28.784388 268.07397Q28.784388 267.60522 28.550013 267.19897Q28.300013 266.7771 27.878138 266.60522Q27.456263 266.41772 26.659388 266.41772L23.331263 266.41772L23.331263 265.37085L29.550013 265.37085L29.550013 266.30835ZM27.550013 259.13647L27.675013 258.04272Q28.628138 258.29272 29.159388 258.99585Q29.690638 259.69897 29.690638 260.7771Q29.690638 262.13647 28.846888 262.94897Q28.003138 263.74585 26.487513 263.74585Q24.925013 263.74585 24.065638 262.93335Q23.190638 262.12085 23.190638 260.8396Q23.190638 259.5896 24.034388 258.80835Q24.878138 258.01147 26.425013 258.01147Q26.518763 258.01147 26.706263 258.01147L26.706263 262.6521Q27.737513 262.5896 28.284388 262.07397Q28.815638 261.55835 28.815638 260.7771Q28.815638 260.19897 28.518763 259.79272Q28.206263 259.37085 27.550013 259.13647ZM25.846888 262.5896L25.846888 259.12085Q25.050013 259.18335 24.659388 259.51147Q24.050013 260.0271 24.050013 260.82397Q24.050013 261.55835 24.534388 262.05835Q25.018763 262.54272 25.846888 262.5896ZM28.612513 254.08958L29.534388 253.93333Q29.628138 254.38646 29.628138 254.73021Q29.628138 255.30833 29.456263 255.62083Q29.268763 255.93333 28.971888 256.07397Q28.675013 256.19897 27.721888 256.19897L24.143763 256.19897L24.143763 256.9646L23.331263 256.9646L23.331263 256.19897L21.784388 256.19897L21.159388 255.15208L23.331263 255.15208L23.331263 254.08958L24.143763 254.08958L24.143763 255.15208L27.784388 255.15208Q28.237513 255.15208 28.362513 255.10521Q28.487513 255.04271 28.565638 254.91771Q28.643763 254.79271 28.643763 254.55833Q28.643763 254.37083 28.612513 254.08958ZM27.550013 249.13646L27.675013 248.04271Q28.628138 248.29271 29.159388 248.99583Q29.690638 249.69896 29.690638 250.77708Q29.690638 252.13646 28.846888 252.94896Q28.003138 253.74583 26.487513 253.74583Q24.925013 253.74583 24.065638 252.93333Q23.190638 252.12083 23.190638 250.83958Q23.190638 249.58958 24.034388 248.80833Q24.878138 248.01146 26.425013 248.01146Q26.518763 248.01146 26.706263 248.01146L26.706263 252.65208Q27.737513 252.58958 28.284388 252.07396Q28.815638 251.55833 28.815638 250.77708Q28.815638 250.19896 28.518763 249.79271Q28.206263 249.37083 27.550013 249.13646ZM25.846888 252.58958L25.846888 249.12083Q25.050013 249.18333 24.659388 249.51146Q24.050013 250.02708 24.050013 250.82396Q24.050013 251.55833 24.534388 252.05833Q25.018763 252.54271 25.846888 252.58958ZM27.690638 246.80833L27.534388 245.77708Q28.159388 245.68333 28.487513 245.29271Q28.815638 244.88646 28.815638 244.15208Q28.815638 243.43333 28.534388 243.08958Q28.237513 242.73021 27.831263 242.73021Q27.471888 242.73021 27.268763 243.04271Q27.128138 243.26146 26.909388 244.12083Q26.612513 245.27708 26.409388 245.73021Q26.190638 246.16771 25.815638 246.40208Q25.440638 246.63646 24.971888 246.63646Q24.565638 246.63646 24.206263 246.44896Q23.846888 246.26146 23.612513 245.93333Q23.440638 245.68333 23.315638 245.26146Q23.190638 244.83958 23.190638 244.33958Q23.190638 243.62083 23.409388 243.07396Q23.612513 242.51146 23.971888 242.24583Q24.331263 241.98021 24.925013 241.88646L25.065638 242.91771Q24.596888 242.98021 24.331263 243.32396Q24.050013 243.65208 24.050013 244.27708Q24.050013 244.99583 24.300013 245.30833Q24.534388 245.62083 24.862513 245.62083Q25.065638 245.62083 25.221888 245.49583Q25.393763 245.35521 25.503138 245.08958Q25.565638 244.93333 25.768763 244.15208Q26.081263 243.02708 26.268763 242.58958Q26.456263 242.15208 26.815638 241.90208Q27.175013 241.65208 27.721888 241.65208Q28.253138 241.65208 28.721888 241.96458Q29.175013 242.26146 29.440638 242.83958Q29.690638 243.41771 29.690638 244.15208Q29.690638 245.37083 29.190638 246.01146Q28.675013 246.63646 27.690638 246.80833ZM29.550013 236.40208L23.331263 236.40208L23.331263 235.44896L24.268763 235.44896Q23.612513 235.08958 23.409388 234.79271Q23.190638 234.48021 23.190638 234.10521Q23.190638 233.57396 23.518763 233.02708L24.503138 233.38646Q24.268763 233.77708 24.268763 234.15208Q24.268763 234.51146 24.487513 234.79271Q24.690638 235.05833 25.065638 235.16771Q25.628138 235.35521 26.284388 235.35521L29.550013 235.35521L29.550013 236.40208ZM27.550013 228.13646L27.675013 227.04271Q28.628138 227.29271 29.159388 227.99583Q29.690638 228.69896 29.690638 229.77708Q29.690638 231.13646 28.846888 231.94896Q28.003138 232.74583 26.487513 232.74583Q24.925013 232.74583 24.065638 231.93333Q23.190638 231.12083 23.190638 229.83958Q23.190638 228.58958 24.034388 227.80833Q24.878138 227.01146 26.425013 227.01146Q26.518763 227.01146 26.706263 227.01146L26.706263 231.65208Q27.737513 231.58958 28.284388 231.07396Q28.815638 230.55833 28.815638 229.77708Q28.815638 229.19896 28.518763 228.79271Q28.206263 228.37083 27.550013 228.13646ZM25.846888 231.58958L25.846888 228.12083Q25.050013 228.18333 24.659388 228.51146Q24.050013 229.02708 24.050013 229.82396Q24.050013 230.55833 24.534388 231.05833Q25.018763 231.54271 25.846888 231.58958ZM27.268763 221.32396L27.409388 220.29271Q28.471888 220.46458 29.081263 221.16771Q29.690638 221.87083 29.690638 222.88646Q29.690638 224.16771 28.862513 224.94896Q28.018763 225.71458 26.456263 225.71458Q25.456263 225.71458 24.706263 225.38646Q23.940638 225.04271 23.565638 224.37083Q23.190638 223.68333 23.190638 222.87083Q23.190638 221.87083 23.706263 221.23021Q24.206263 220.57396 25.159388 220.38646L25.315638 221.41771Q24.690638 221.55833 24.378138 221.93333Q24.050013 222.30833 24.050013 222.83958Q24.050013 223.63646 24.628138 224.13646Q25.190638 224.63646 26.425013 224.63646Q27.690638 224.63646 28.253138 224.15208Q28.815638 223.66771 28.815638 222.90208Q28.815638 222.27708 28.440638 221.87083Q28.065638 221.44896 27.268763 221.32396ZM22.175013 219.38646L20.956263 219.38646L20.956263 218.32396L22.175013 218.32396L22.175013 219.38646ZM29.550013 219.38646L23.331263 219.38646L23.331263 218.32396L29.550013 218.32396L29.550013 219.38646ZM29.550013 215.41771L29.550013 216.40208L20.956263 216.40208L20.956263 215.33958L24.018763 215.33958Q23.190638 214.66771 23.190638 213.63646Q23.190638 213.05833 23.425013 212.55833Q23.643763 212.04271 24.065638 211.71458Q24.487513 211.37083 25.081263 211.18333Q25.675013 210.99583 26.346888 210.99583Q27.940638 210.99583 28.815638 211.79271Q29.690638 212.58958 29.690638 213.68333Q29.690638 214.79271 28.768763 215.41771L29.550013 215.41771ZM26.393763 215.43333Q27.503138 215.43333 28.003138 215.12083Q28.815638 214.62083 28.815638 213.77708Q28.815638 213.08958 28.221888 212.58958Q27.628138 212.07396 26.425013 212.07396Q25.206263 212.07396 24.628138 212.55833Q24.050013 213.04271 24.050013 213.73021Q24.050013 214.41771 24.659388 214.93333Q25.253138 215.43333 26.393763 215.43333ZM22.175013 209.38646L20.956263 209.38646L20.956263 208.32396L22.175013 208.32396L22.175013 209.38646ZM29.550013 209.38646L23.331263 209.38646L23.331263 208.32396L29.550013 208.32396L29.550013 209.38646ZM29.550013 202.35521L28.768763 202.35521Q29.690638 202.94896 29.690638 204.08958Q29.690638 204.83958 29.284388 205.46458Q28.862513 206.08958 28.128138 206.43333Q27.393763 206.77708 26.440638 206.77708Q25.518763 206.77708 24.753138 206.46458Q23.987513 206.15208 23.596888 205.52708Q23.190638 204.90208 23.190638 204.13646Q23.190638 203.57396 23.425013 203.13646Q23.659388 202.69896 24.034388 202.41771L20.956263 202.41771L20.956263 201.37083L29.550013 201.37083L29.550013 202.35521ZM26.440638 205.68333Q27.643763 205.68333 28.237513 205.18333Q28.815638 204.68333 28.815638 203.99583Q28.815638 203.30833 28.253138 202.82396Q27.690638 202.33958 26.534388 202.33958Q25.253138 202.33958 24.659388 202.83958Q24.065638 203.32396 24.065638 204.04271Q24.065638 204.74583 24.643763 205.21458Q25.206263 205.68333 26.440638 205.68333ZM26.440638 199.77708Q24.706263 199.77708 23.878138 198.82396Q23.190638 198.02708 23.190638 196.87083Q23.190638 195.58958 24.034388 194.77708Q24.862513 193.94896 26.346888 193.94896Q27.550013 193.94896 28.237513 194.30833Q28.925013 194.66771 29.315638 195.37083Q29.690638 196.05833 29.690638 196.87083Q29.690638 198.16771 28.862513 198.98021Q28.018763 199.77708 26.440638 199.77708ZM26.440638 198.69896Q27.628138 198.69896 28.221888 198.18333Q28.815638 197.65208 28.815638 196.87083Q28.815638 196.07396 28.221888 195.55833Q27.628138 195.04271 26.409388 195.04271Q25.253138 195.04271 24.659388 195.57396Q24.065638 196.08958 24.065638 196.87083Q24.065638 197.65208 24.659388 198.18333Q25.237513 198.69896 26.440638 198.69896ZM27.690638 192.80833L27.534388 191.77708Q28.159388 191.68333 28.487513 191.29271Q28.815638 190.88646 28.815638 190.15208Q28.815638 189.43333 28.534388 189.08958Q28.237513 188.73021 27.831263 188.73021Q27.471888 188.73021 27.268763 189.04271Q27.128138 189.26146 26.909388 190.12083Q26.612513 191.27708 26.409388 191.73021Q26.190638 192.16771 25.815638 192.40208Q25.440638 192.63646 24.971888 192.63646Q24.565638 192.63646 24.206263 192.44896Q23.846888 192.26146 23.612513 191.93333Q23.440638 191.68333 23.315638 191.26146Q23.190638 190.83958 23.190638 190.33958Q23.190638 189.62083 23.409388 189.07396Q23.612513 188.51146 23.971888 188.24583Q24.331263 187.98021 24.925013 187.88646L25.065638 188.91771Q24.596888 188.98021 24.331263 189.32396Q24.050013 189.65208 24.050013 190.27708Q24.050013 190.99583 24.300013 191.30833Q24.534388 191.62083 24.862513 191.62083Q25.065638 191.62083 25.221888 191.49583Q25.393763 191.35521 25.503138 191.08958Q25.565638 190.93333 25.768763 190.15208Q26.081263 189.02708 26.268763 188.58958Q26.456263 188.15208 26.815638 187.90208Q27.175013 187.65208 27.721888 187.65208Q28.253138 187.65208 28.721888 187.96458Q29.175013 188.26146 29.440638 188.83958Q29.690638 189.41771 29.690638 190.15208Q29.690638 191.37083 29.190638 192.01146Q28.675013 192.63646 27.690638 192.80833ZM29.690638 183.18333L20.815638 180.69896L20.815638 179.85521L29.690638 182.33958L29.690638 183.18333ZM31.940638 176.38646L23.331263 176.38646L23.331263 175.43333L24.128138 175.43333Q23.659388 175.08958 23.425013 174.66771Q23.190638 174.23021 23.190638 173.62083Q23.190638 172.82396 23.596888 172.21458Q24.003138 171.60521 24.753138 171.30833Q25.503138 170.99583 26.393763 170.99583Q27.346888 170.99583 28.112513 171.33958Q28.878138 171.66771 29.284388 172.32396Q29.690638 172.98021 29.690638 173.69896Q29.690638 174.23021 29.471888 174.65208Q29.237513 175.07396 28.909388 175.33958L31.940638 175.33958L31.940638 176.38646ZM26.471888 175.43333Q27.675013 175.43333 28.253138 174.94896Q28.815638 174.46458 28.815638 173.77708Q28.815638 173.07396 28.221888 172.57396Q27.628138 172.07396 26.378138 172.07396Q25.190638 172.07396 24.612513 172.55833Q24.018763 173.04271 24.018763 173.73021Q24.018763 174.40208 24.643763 174.91771Q25.268763 175.43333 26.471888 175.43333ZM28.784388 165.32396Q29.284388 165.91771 29.487513 166.46458Q29.690638 166.99583 29.690638 167.62083Q29.690638 168.65208 29.190638 169.19896Q28.690638 169.74583 27.909388 169.74583Q27.456263 169.74583 27.081263 169.54271Q26.690638 169.33958 26.471888 168.99583Q26.237513 168.65208 26.128138 168.23021Q26.034388 167.93333 25.956263 167.29271Q25.815638 166.02708 25.596888 165.41771Q25.378138 165.41771 25.331263 165.41771Q24.675013 165.41771 24.409388 165.71458Q24.065638 166.12083 24.065638 166.91771Q24.065638 167.65208 24.331263 168.01146Q24.581263 168.37083 25.237513 168.54271L25.096888 169.57396Q24.440638 169.43333 24.034388 169.10521Q23.628138 168.77708 23.409388 168.16771Q23.190638 167.55833 23.190638 166.76146Q23.190638 165.96458 23.378138 165.46458Q23.565638 164.96458 23.846888 164.73021Q24.128138 164.49583 24.565638 164.40208Q24.831263 164.35521 25.534388 164.35521L26.940638 164.35521Q28.409388 164.35521 28.800013 164.29271Q29.190638 164.21458 29.550013 164.01146L29.550013 165.12083Q29.221888 165.27708 28.784388 165.32396ZM26.425013 165.41771Q26.659388 165.99583 26.831263 167.13646Q26.925013 167.79271 27.050013 168.05833Q27.159388 168.32396 27.378138 168.48021Q27.596888 168.62083 27.878138 168.62083Q28.300013 168.62083 28.581263 168.30833Q28.862513 167.98021 28.862513 167.37083Q28.862513 166.76146 28.596888 166.29271Q28.331263 165.80833 27.862513 165.58958Q27.503138 165.41771 26.815638 165.41771L26.425013 165.41771ZM31.940638 158.41771L28.893763 158.41771Q29.237513 158.66771 29.471888 159.12083Q29.690638 159.55833 29.690638 160.05833Q29.690638 161.16771 28.815638 161.96458Q27.925013 162.76146 26.378138 162.76146Q25.440638 162.76146 24.706263 162.43333Q23.956263 162.10521 23.581263 161.49583Q23.190638 160.87083 23.190638 160.13646Q23.190638 158.98021 24.159388 158.32396L23.331263 158.32396L23.331263 157.37083L31.940638 157.37083L31.940638 158.41771ZM26.425013 161.68333Q27.628138 161.68333 28.221888 161.18333Q28.815638 160.66771 28.815638 159.96458Q28.815638 159.29271 28.253138 158.80833Q27.675013 158.32396 26.518763 158.32396Q25.268763 158.32396 24.643763 158.83958Q24.018763 159.33958 24.018763 160.04271Q24.018763 160.71458 24.612513 161.19896Q25.190638 161.68333 26.425013 161.68333ZM29.550013 151.30833L28.628138 151.30833Q29.690638 152.04271 29.690638 153.29271Q29.690638 153.83958 29.487513 154.32396Q29.268763 154.79271 28.956263 155.02708Q28.628138 155.26146 28.159388 155.35521Q27.862513 155.41771 27.175013 155.41771L23.331263 155.41771L23.331263 154.35521L26.784388 154.35521Q27.596888 154.35521 27.893763 154.29271Q28.300013 154.19896 28.550013 153.88646Q28.784388 153.55833 28.784388 153.07396Q28.784388 152.60521 28.550013 152.19896Q28.300013 151.77708 27.878138 151.60521Q27.456263 151.41771 26.659388 151.41771L23.331263 151.41771L23.331263 150.37083L29.550013 150.37083L29.550013 151.30833ZM27.550013 144.13646L27.675013 143.04271Q28.628138 143.29271 29.159388 143.99583Q29.690638 144.69896 29.690638 145.77708Q29.690638 147.13646 28.846888 147.94896Q28.003138 148.74583 26.487513 148.74583Q24.925013 148.74583 24.065638 147.93333Q23.190638 147.12083 23.190638 145.83958Q23.190638 144.58958 24.034388 143.80833Q24.878138 143.01146 26.425013 143.01146Q26.518763 143.01146 26.706263 143.01146L26.706263 147.65208Q27.737513 147.58958 28.284388 147.07396Q28.815638 146.55833 28.815638 145.77708Q28.815638 145.19896 28.518763 144.79271Q28.206263 144.37083 27.550013 144.13646ZM25.846888 147.58958L25.846888 144.12083Q25.050013 144.18333 24.659388 144.51146Q24.050013 145.02708 24.050013 145.82396Q24.050013 146.55833 24.534388 147.05833Q25.018763 147.54271 25.846888 147.58958ZM28.612513 139.08958L29.534388 138.93333Q29.628138 139.38646 29.628138 139.73021Q29.628138 140.30833 29.456263 140.62083Q29.268763 140.93333 28.971888 141.07396Q28.675013 141.19896 27.721888 141.19896L24.143763 141.19896L24.143763 141.96458L23.331263 141.96458L23.331263 141.19896L21.784388 141.19896L21.159388 140.15208L23.331263 140.15208L23.331263 139.08958L24.143763 139.08958L24.143763 140.15208L27.784388 140.15208Q28.237513 140.15208 28.362513 140.10521Q28.487513 140.04271 28.565638 139.91771Q28.643763 139.79271 28.643763 139.55833Q28.643763 139.37083 28.612513 139.08958ZM27.550013 134.13646L27.675013 133.04271Q28.628138 133.29271 29.159388 133.99583Q29.690638 134.69896 29.690638 135.77708Q29.690638 137.13646 28.846888 137.94896Q28.003138 138.74583 26.487513 138.74583Q24.925013 138.74583 24.065638 137.93333Q23.190638 137.12083 23.190638 135.83958Q23.190638 134.58958 24.034388 133.80833Q24.878138 133.01146 26.425013 133.01146Q26.518763 133.01146 26.706263 133.01146L26.706263 137.65208Q27.737513 137.58958 28.284388 137.07396Q28.815638 136.55833 28.815638 135.77708Q28.815638 135.19896 28.518763 134.79271Q28.206263 134.37083 27.550013 134.13646ZM25.846888 137.58958L25.846888 134.12083Q25.050013 134.18333 24.659388 134.51146Q24.050013 135.02708 24.050013 135.82396Q24.050013 136.55833 24.534388 137.05833Q25.018763 137.54271 25.846888 137.58958ZM27.690638 131.80833L27.534388 130.77708Q28.159388 130.68333 28.487513 130.29271Q28.815638 129.88646 28.815638 129.15208Q28.815638 128.43333 28.534388 128.08958Q28.237513 127.73021 27.831263 127.73021Q27.471888 127.73021 27.268763 128.04271Q27.128138 128.26146 26.909388 129.12083Q26.612513 130.27708 26.409388 130.73021Q26.190638 131.16771 25.815638 131.40208Q25.440638 131.63646 24.971888 131.63646Q24.565638 131.63646 24.206263 131.44896Q23.846888 131.26146 23.612513 130.93333Q23.440638 130.68333 23.315638 130.26146Q23.190638 129.83958 23.190638 129.33958Q23.190638 128.62083 23.409388 128.07396Q23.612513 127.51146 23.971888 127.245834Q24.331263 126.98021 24.925013 126.88646L25.065638 127.91771Q24.596888 127.98021 24.331263 128.32396Q24.050013 128.65208 24.050013 129.27708Q24.050013 129.99583 24.300013 130.30833Q24.534388 130.62083 24.862513 130.62083Q25.065638 130.62083 25.221888 130.49583Q25.393763 130.35521 25.503138 130.08958Q25.565638 129.93333 25.768763 129.15208Q26.081263 128.02708 26.268763 127.589584Q26.456263 127.152084 26.815638 126.902084Q27.175013 126.652084 27.721888 126.652084Q28.253138 126.652084 28.721888 126.964584Q29.175013 127.26146 29.440638 127.839584Q29.690638 128.41771 29.690638 129.15208Q29.690638 130.37083 29.190638 131.01146Q28.675013 131.63646 27.690638 131.80833ZM27.550013 117.13646L27.675013 116.04271Q28.628138 116.29271 29.159388 116.995834Q29.690638 117.69896 29.690638 118.777084Q29.690638 120.13646 28.846888 120.94896Q28.003138 121.745834 26.487513 121.745834Q24.925013 121.745834 24.065638 120.933334Q23.190638 120.120834 23.190638 118.839584Q23.190638 117.589584 24.034388 116.808334Q24.878138 116.01146 26.425013 116.01146Q26.518763 116.01146 26.706263 116.01146L26.706263 120.652084Q27.737513 120.589584 28.284388 120.07396Q28.815638 119.558334 28.815638 118.777084Q28.815638 118.19896 28.518763 117.79271Q28.206263 117.370834 27.550013 117.13646ZM25.846888 120.589584L25.846888 117.120834Q25.050013 117.183334 24.659388 117.51146Q24.050013 118.027084 24.050013 118.82396Q24.050013 119.558334 24.534388 120.058334Q25.018763 120.54271 25.846888 120.589584ZM29.550013 114.38646L23.331263 114.38646L23.331263 113.44896L24.206263 113.44896Q23.190638 112.76146 23.190638 111.464584Q23.190638 110.902084 23.393763 110.433334Q23.596888 109.94896 23.925013 109.714584Q24.253138 109.48021 24.690638 109.38646Q24.987513 109.339584 25.721888 109.339584L29.550013 109.339584L29.550013 110.38646L25.768763 110.38646Q25.112513 110.38646 24.800013 110.51146Q24.487513 110.63646 24.300013 110.94896Q24.096888 111.26146 24.096888 111.683334Q24.096888 112.35521 24.534388 112.85521Q24.956263 113.339584 26.143763 113.339584L29.550013 113.339584L29.550013 114.38646ZM29.550013 105.66771L23.331263 108.027084L23.331263 106.91771L27.050013 105.57396Q27.659388 105.370834 28.300013 105.183334Q27.815638 105.04271 27.128138 104.79271L23.331263 103.402084L23.331263 102.32396L29.550013 104.683334L29.550013 105.66771ZM22.175013 102.38646L20.956263 102.38646L20.956263 101.32396L22.175013 101.32396L22.175013 102.38646ZM29.550013 102.38646L23.331263 102.38646L23.331263 101.32396L29.550013 101.32396L29.550013 102.38646ZM28.784388 95.32396Q29.284388 95.91771 29.487513 96.464584Q29.690638 96.995834 29.690638 97.620834Q29.690638 98.652084 29.190638 99.19896Q28.690638 99.745834 27.909388 99.745834Q27.456263 99.745834 27.081263 99.54271Q26.690638 99.339584 26.471888 98.995834Q26.237513 98.652084 26.128138 98.23021Q26.034388 97.933334 25.956263 97.29271Q25.815638 96.027084 25.596888 95.41771Q25.378138 95.41771 25.331263 95.41771Q24.675013 95.41771 24.409388 95.714584Q24.065638 96.120834 24.065638 96.91771Q24.065638 97.652084 24.331263 98.01146Q24.581263 98.370834 25.237513 98.54271L25.096888 99.57396Q24.440638 99.433334 24.034388 99.10521Q23.628138 98.777084 23.409388 98.16771Q23.190638 97.558334 23.190638 96.76146Q23.190638 95.964584 23.378138 95.464584Q23.565638 94.964584 23.846888 94.73021Q24.128138 94.495834 24.565638 94.402084Q24.831263 94.35521 25.534388 94.35521L26.940638 94.35521Q28.409388 94.35521 28.800013 94.29271Q29.190638 94.214584 29.550013 94.01146L29.550013 95.120834Q29.221888 95.277084 28.784388 95.32396ZM26.425013 95.41771Q26.659388 95.995834 26.831263 97.13646Q26.925013 97.79271 27.050013 98.058334Q27.159388 98.32396 27.378138 98.48021Q27.596888 98.620834 27.878138 98.620834Q28.300013 98.620834 28.581263 98.308334Q28.862513 97.98021 28.862513 97.370834Q28.862513 96.76146 28.596888 96.29271Q28.331263 95.808334 27.862513 95.589584Q27.503138 95.41771 26.815638 95.41771L26.425013 95.41771ZM29.550013 88.35521L28.768763 88.35521Q29.690638 88.94896 29.690638 90.089584Q29.690638 90.839584 29.284388 91.464584Q28.862513 92.089584 28.128138 92.433334Q27.393763 92.777084 26.440638 92.777084Q25.518763 92.777084 24.753138 92.464584Q23.987513 92.152084 23.596888 91.527084Q23.190638 90.902084 23.190638 90.13646Q23.190638 89.57396 23.425013 89.13646Q23.659388 88.69896 24.034388 88.41771L20.956263 88.41771L20.956263 87.370834L29.550013 87.370834L29.550013 88.35521ZM26.440638 91.683334Q27.643763 91.683334 28.237513 91.183334Q28.815638 90.683334 28.815638 89.995834Q28.815638 89.308334 28.253138 88.82396Q27.690638 88.339584 26.534388 88.339584Q25.253138 88.339584 24.659388 88.839584Q24.065638 89.32396 24.065638 90.04271Q24.065638 90.745834 24.643763 91.214584Q25.206263 91.683334 26.440638 91.683334ZM26.440638 85.777084Q24.706263 85.777084 23.878138 84.82396Q23.190638 84.027084 23.190638 82.870834Q23.190638 81.589584 24.034388 80.777084Q24.862513 79.94896 26.346888 79.94896Q27.550013 79.94896 28.237513 80.308334Q28.925013 80.66771 29.315638 81.370834Q29.690638 82.058334 29.690638 82.870834Q29.690638 84.16771 28.862513 84.98021Q28.018763 85.777084 26.440638 85.777084ZM26.440638 84.69896Q27.628138 84.69896 28.221888 84.183334Q28.815638 83.652084 28.815638 82.870834Q28.815638 82.07396 28.221888 81.558334Q27.628138 81.04271 26.409388 81.04271Q25.253138 81.04271 24.659388 81.57396Q24.065638 82.089584 24.065638 82.870834Q24.065638 83.652084 24.659388 84.183334Q25.237513 84.69896 26.440638 84.69896ZM27.690638 78.808334L27.534388 77.777084Q28.159388 77.683334 28.487513 77.29271Q28.815638 76.88646 28.815638 76.152084Q28.815638 75.433334 28.534388 75.089584Q28.237513 74.73021 27.831263 74.73021Q27.471888 74.73021 27.268763 75.04271Q27.128138 75.26146 26.909388 76.120834Q26.612513 77.277084 26.409388 77.73021Q26.190638 78.16771 25.815638 78.402084Q25.440638 78.63646 24.971888 78.63646Q24.565638 78.63646 24.206263 78.44896Q23.846888 78.26146 23.612513 77.933334Q23.440638 77.683334 23.315638 77.26146Q23.190638 76.839584 23.190638 76.339584Q23.190638 75.620834 23.409388 75.07396Q23.612513 74.51146 23.971888 74.245834Q24.331263 73.98021 24.925013 73.88646L25.065638 74.91771Q24.596888 74.98021 24.331263 75.32396Q24.050013 75.652084 24.050013 76.277084Q24.050013 76.995834 24.300013 77.308334Q24.534388 77.620834 24.862513 77.620834Q25.065638 77.620834 25.221888 77.495834Q25.393763 77.35521 25.503138 77.089584Q25.565638 76.933334 25.768763 76.152084Q26.081263 75.027084 26.268763 74.589584Q26.456263 74.152084 26.815638 73.902084Q27.175013 73.652084 27.721888 73.652084Q28.253138 73.652084 28.721888 73.964584Q29.175013 74.26146 29.440638 74.839584Q29.690638 75.41771 29.690638 76.152084Q29.690638 77.370834 29.190638 78.01146Q28.675013 78.63646 27.690638 78.808334Z" fill-rule="nonzero"/><path fill="#000000" d="M51.05 289.21564Q51.05 287.6844 51.3625 286.7625Q51.675 285.825 52.284374 285.325Q52.909374 284.825 53.846874 284.825Q54.534374 284.825 55.05 285.10626Q55.58125 285.3875 55.925 285.91876Q56.26875 286.4344 56.45625 287.1844Q56.64375 287.9344 56.64375 289.21564Q56.64375 290.73126 56.33125 291.65314Q56.034374 292.575 55.409374 293.09064Q54.8 293.59064 53.846874 293.59064Q52.6125 293.59064 51.89375 292.7Q51.05 291.6375 51.05 289.21564ZM52.128124 289.21564Q52.128124 291.325 52.628124 292.02814Q53.128124 292.73126 53.846874 292.73126Q54.58125 292.73126 55.065624 292.02814Q55.565624 291.325 55.565624 289.21564Q55.565624 287.09064 55.065624 286.40314Q54.58125 285.7 53.83125 285.7Q53.1125 285.7 52.675 286.3094Q52.128124 287.09064 52.128124 289.21564ZM58.6125 293.45L58.6125 292.2469L59.815624 292.2469L59.815624 293.45Q59.815624 294.10626 59.58125 294.5125Q59.346874 294.9344 58.846874 295.15314L58.55 294.7Q58.878124 294.5594 59.034374 294.2625Q59.190624 293.98126 59.221874 293.45L58.6125 293.45ZM61.05 289.21564Q61.05 287.6844 61.3625 286.7625Q61.675 285.825 62.284374 285.325Q62.909374 284.825 63.846874 284.825Q64.53438 284.825 65.05 285.10626Q65.58125 285.3875 65.925 285.91876Q66.26875 286.4344 66.45625 287.1844Q66.64375 287.9344 66.64375 289.21564Q66.64375 290.73126 66.33125 291.65314Q66.03438 292.575 65.40938 293.09064Q64.8 293.59064 63.846874 293.59064Q62.6125 293.59064 61.89375 292.7Q61.05 291.6375 61.05 289.21564ZM62.128124 289.21564Q62.128124 291.325 62.628124 292.02814Q63.128124 292.73126 63.846874 292.73126Q64.58125 292.73126 65.06563 292.02814Q65.56563 291.325 65.56563 289.21564Q65.56563 287.09064 65.06563 286.40314Q64.58125 285.7 63.83125 285.7Q63.1125 285.7 62.675 286.3094Q62.128124 287.09064 62.128124 289.21564ZM68.05 289.21564Q68.05 287.6844 68.3625 286.7625Q68.675 285.825 69.28438 285.325Q69.90938 284.825 70.84688 284.825Q71.53438 284.825 72.05 285.10626Q72.58125 285.3875 72.925 285.91876Q73.26875 286.4344 73.45625 287.1844Q73.64375 287.9344 73.64375 289.21564Q73.64375 290.73126 73.33125 291.65314Q73.03438 292.575 72.40938 293.09064Q71.8 293.59064 70.84688 293.59064Q69.6125 293.59064 68.89375 292.7Q68.05 291.6375 68.05 289.21564ZM69.12813 289.21564Q69.12813 291.325 69.62813 292.02814Q70.12813 292.73126 70.84688 292.73126Q71.58125 292.73126 72.06563 292.02814Q72.56563 291.325 72.56563 289.21564Q72.56563 287.09064 72.06563 286.40314Q71.58125 285.7 70.83125 285.7Q70.1125 285.7 69.675 286.3094Q69.12813 287.09064 69.12813 289.21564Z" fill-rule="nonzero"/><path fill="#000000" d="M51.05 232.33229Q51.05 230.80104 51.3625 229.87917Q51.675 228.94167 52.284374 228.44167Q52.909374 227.94167 53.846874 227.94167Q54.534374 227.94167 55.05 228.22292Q55.58125 228.50417 55.925 229.03542Q56.26875 229.55104 56.45625 230.30104Q56.64375 231.05104 56.64375 232.33229Q56.64375 233.84792 56.33125 234.76979Q56.034374 235.69167 55.409374 236.20729Q54.8 236.70729 53.846874 236.70729Q52.6125 236.70729 51.89375 235.81667Q51.05 234.75417 51.05 232.33229ZM52.128124 232.33229Q52.128124 234.44167 52.628124 235.14479Q53.128124 235.84792 53.846874 235.84792Q54.58125 235.84792 55.065624 235.14479Q55.565624 234.44167 55.565624 232.33229Q55.565624 230.20729 55.065624 229.51979Q54.58125 228.81667 53.83125 228.81667Q53.1125 228.81667 52.675 229.42604Q52.128124 230.20729 52.128124 232.33229ZM58.6125 236.56667L58.6125 235.36354L59.815624 235.36354L59.815624 236.56667Q59.815624 237.22292 59.58125 237.62917Q59.346874 238.05104 58.846874 238.26979L58.55 237.81667Q58.878124 237.67604 59.034374 237.37917Q59.190624 237.09792 59.221874 236.56667L58.6125 236.56667ZM66.59688 235.55104L66.59688 236.56667L60.909374 236.56667Q60.909374 236.19167 61.034374 235.83229Q61.253124 235.25417 61.721874 234.69167Q62.20625 234.12917 63.1125 233.39479Q64.51875 232.23854 65.00313 231.56667Q65.50313 230.89479 65.50313 230.30104Q65.50313 229.67604 65.05 229.25417Q64.59688 228.81667 63.878124 228.81667Q63.1125 228.81667 62.659374 229.26979Q62.20625 229.72292 62.190624 230.53542L61.1125 230.42604Q61.221874 229.20729 61.940624 228.58229Q62.675 227.94167 63.909374 227.94167Q65.14375 227.94167 65.8625 228.62917Q66.58125 229.31667 66.58125 230.33229Q66.58125 230.84792 66.3625 231.34792Q66.15938 231.83229 65.65938 232.39479Q65.175 232.94167 64.05 233.89479Q63.096874 234.69167 62.815624 234.98854Q62.55 235.26979 62.378124 235.55104L66.59688 235.55104ZM68.05 234.31667L69.15938 234.22292Q69.28438 235.03542 69.72188 235.44167Q70.175 235.84792 70.81563 235.84792Q71.56563 235.84792 72.09688 235.26979Q72.62813 234.69167 72.62813 233.75417Q72.62813 232.84792 72.1125 232.33229Q71.6125 231.80104 70.78438 231.80104Q70.28438 231.80104 69.8625 232.03542Q69.45625 232.26979 69.22188 232.62917L68.2375 232.50417L69.06563 228.09792L73.34688 228.09792L73.34688 229.09792L69.90938 229.09792L69.45625 231.41042Q70.22188 230.86354 71.06563 230.86354Q72.19063 230.86354 72.95625 231.64479Q73.7375 232.42604 73.7375 233.66042Q73.7375 234.81667 73.06563 235.67604Q72.2375 236.70729 70.81563 236.70729Q69.64375 236.70729 68.89375 236.05104Q68.15938 235.39479 68.05 234.31667Z" fill-rule="nonzero"/><path fill="#000000" d="M51.05 175.44896Q51.05 173.91771 51.3625 172.99583Q51.675 172.05833 52.284374 171.55833Q52.909374 171.05833 53.846874 171.05833Q54.534374 171.05833 55.05 171.33958Q55.58125 171.62083 55.925 172.15208Q56.26875 172.66771 56.45625 173.41771Q56.64375 174.16771 56.64375 175.44896Q56.64375 176.96458 56.33125 177.88646Q56.034374 178.80833 55.409374 179.32396Q54.8 179.82396 53.846874 179.82396Q52.6125 179.82396 51.89375 178.93333Q51.05 177.87083 51.05 175.44896ZM52.128124 175.44896Q52.128124 177.55833 52.628124 178.26146Q53.128124 178.96458 53.846874 178.96458Q54.58125 178.96458 55.065624 178.26146Q55.565624 177.55833 55.565624 175.44896Q55.565624 173.32396 55.065624 172.63646Q54.58125 171.93333 53.83125 171.93333Q53.1125 171.93333 52.675 172.54271Q52.128124 173.32396 52.128124 175.44896ZM58.6125 179.68333L58.6125 178.48021L59.815624 178.48021L59.815624 179.68333Q59.815624 180.33958 59.58125 180.74583Q59.346874 181.16771 58.846874 181.38646L58.55 180.93333Q58.878124 180.79271 59.034374 180.49583Q59.190624 180.21458 59.221874 179.68333L58.6125 179.68333ZM61.05 177.43333L62.159374 177.33958Q62.284374 178.15208 62.721874 178.55833Q63.175 178.96458 63.815624 178.96458Q64.56563 178.96458 65.09688 178.38646Q65.62813 177.80833 65.62813 176.87083Q65.62813 175.96458 65.1125 175.44896Q64.6125 174.91771 63.784374 174.91771Q63.284374 174.91771 62.8625 175.15208Q62.45625 175.38646 62.221874 175.74583L61.2375 175.62083L62.065624 171.21458L66.34688 171.21458L66.34688 172.21458L62.909374 172.21458L62.45625 174.52708Q63.221874 173.98021 64.06563 173.98021Q65.19063 173.98021 65.95625 174.76146Q66.7375 175.54271 66.7375 176.77708Q66.7375 177.93333 66.06563 178.79271Q65.2375 179.82396 63.815624 179.82396Q62.64375 179.82396 61.89375 179.16771Q61.159374 178.51146 61.05 177.43333ZM68.05 175.44896Q68.05 173.91771 68.3625 172.99583Q68.675 172.05833 69.28438 171.55833Q69.90938 171.05833 70.84688 171.05833Q71.53438 171.05833 72.05 171.33958Q72.58125 171.62083 72.925 172.15208Q73.26875 172.66771 73.45625 173.41771Q73.64375 174.16771 73.64375 175.44896Q73.64375 176.96458 73.33125 177.88646Q73.03438 178.80833 72.40938 179.32396Q71.8 179.82396 70.84688 179.82396Q69.6125 179.82396 68.89375 178.93333Q68.05 177.87083 68.05 175.44896ZM69.12813 175.44896Q69.12813 177.55833 69.62813 178.26146Q70.12813 178.96458 70.84688 178.96458Q71.58125 178.96458 72.06563 178.26146Q72.56563 177.55833 72.56563 175.44896Q72.56563 173.32396 72.06563 172.63646Q71.58125 171.93333 70.83125 171.93333Q70.1125 171.93333 69.675 172.54271Q69.12813 173.32396 69.12813 175.44896Z" fill-rule="nonzero"/><path fill="#000000" d="M51.05 118.56563Q51.05 117.03438 51.3625 116.1125Q51.675 115.175 52.284374 114.675Q52.909374 114.175 53.846874 114.175Q54.534374 114.175 55.05 114.45625Q55.58125 114.7375 55.925 115.26875Q56.26875 115.78438 56.45625 116.53438Q56.64375 117.28438 56.64375 118.56563Q56.64375 120.08125 56.33125 121.00313Q56.034374 121.925 55.409374 122.44063Q54.8 122.94063 53.846874 122.94063Q52.6125 122.94063 51.89375 122.05Q51.05 120.9875 51.05 118.56563ZM52.128124 118.56563Q52.128124 120.675 52.628124 121.37813Q53.128124 122.08125 53.846874 122.08125Q54.58125 122.08125 55.065624 121.37813Q55.565624 120.675 55.565624 118.56563Q55.565624 116.44063 55.065624 115.75313Q54.58125 115.05 53.83125 115.05Q53.1125 115.05 52.675 115.65938Q52.128124 116.44063 52.128124 118.56563ZM58.6125 122.8L58.6125 121.59688L59.815624 121.59688L59.815624 122.8Q59.815624 123.45625 59.58125 123.8625Q59.346874 124.28438 58.846874 124.50313L58.55 124.05Q58.878124 123.90938 59.034374 123.6125Q59.190624 123.33125 59.221874 122.8L58.6125 122.8ZM61.1125 115.33125L61.1125 114.31563L66.675 114.31563L66.675 115.14375Q65.8625 116.01875 65.05 117.47188Q64.25313 118.90938 63.815624 120.44063Q63.4875 121.51875 63.409374 122.8L62.315624 122.8Q62.33125 121.78438 62.70625 120.34688Q63.096874 118.90938 63.8 117.58125Q64.51875 116.25313 65.33125 115.33125L61.1125 115.33125ZM68.05 120.55L69.15938 120.45625Q69.28438 121.26875 69.72188 121.675Q70.175 122.08125 70.81563 122.08125Q71.56563 122.08125 72.09688 121.50313Q72.62813 120.925 72.62813 119.9875Q72.62813 119.08125 72.1125 118.56563Q71.6125 118.03438 70.78438 118.03438Q70.28438 118.03438 69.8625 118.26875Q69.45625 118.50313 69.22188 118.8625L68.2375 118.7375L69.06563 114.33125L73.34688 114.33125L73.34688 115.33125L69.90938 115.33125L69.45625 117.64375Q70.22188 117.09688 71.06563 117.09688Q72.19063 117.09688 72.95625 117.87813Q73.7375 118.65938 73.7375 119.89375Q73.7375 121.05 73.06563 121.90938Q72.2375 122.94063 70.81563 122.94063Q69.64375 122.94063 68.89375 122.28438Q68.15938 121.62813 68.05 120.55Z" fill-rule="nonzero"/><path fill="#000000" d="M55.01875 65.916664L53.971874 65.916664L53.971874 59.197914Q53.58125 59.55729 52.95625 59.93229Q52.346874 60.291664 51.8625 60.46354L51.8625 59.447914Q52.7375 59.02604 53.39375 58.447914Q54.065624 57.854164 54.346874 57.291664L55.01875 57.291664L55.01875 65.916664ZM58.6125 65.916664L58.6125 64.71354L59.815624 64.71354L59.815624 65.916664Q59.815624 66.572914 59.58125 66.979164Q59.346874 67.40104 58.846874 67.61979L58.55 67.166664Q58.878124 67.02604 59.034374 66.729164Q59.190624 66.447914 59.221874 65.916664L58.6125 65.916664ZM61.05 61.68229Q61.05 60.15104 61.3625 59.229164Q61.675 58.291664 62.284374 57.791664Q62.909374 57.291664 63.846874 57.291664Q64.53438 57.291664 65.05 57.572914Q65.58125 57.854164 65.925 58.385414Q66.26875 58.90104 66.45625 59.65104Q66.64375 60.40104 66.64375 61.68229Q66.64375 63.197914 66.33125 64.11979Q66.03438 65.041664 65.40938 65.55729Q64.8 66.05729 63.846874 66.05729Q62.6125 66.05729 61.89375 65.166664Q61.05 64.104164 61.05 61.68229ZM62.128124 61.68229Q62.128124 63.791664 62.628124 64.49479Q63.128124 65.197914 63.846874 65.197914Q64.58125 65.197914 65.06563 64.49479Q65.56563 63.791664 65.56563 61.68229Q65.56563 59.55729 65.06563 58.86979Q64.58125 58.166664 63.83125 58.166664Q63.1125 58.166664 62.675 58.77604Q62.128124 59.55729 62.128124 61.68229ZM68.05 61.68229Q68.05 60.15104 68.3625 59.229164Q68.675 58.291664 69.28438 57.791664Q69.90938 57.291664 70.84688 57.291664Q71.53438 57.291664 72.05 57.572914Q72.58125 57.854164 72.925 58.385414Q73.26875 58.90104 73.45625 59.65104Q73.64375 60.40104 73.64375 61.68229Q73.64375 63.197914 73.33125 64.11979Q73.03438 65.041664 72.40938 65.55729Q71.8 66.05729 70.84688 66.05729Q69.6125 66.05729 68.89375 65.166664Q68.05 64.104164 68.05 61.68229ZM69.12813 61.68229Q69.12813 63.791664 69.62813 64.49479Q70.12813 65.197914 70.84688 65.197914Q71.58125 65.197914 72.06563 64.49479Q72.56563 63.791664 72.56563 61.68229Q72.56563 59.55729 72.06563 58.86979Q71.58125 58.166664 70.83125 58.166664Q70.1125 58.166664 69.675 58.77604Q69.12813 59.55729 69.12813 61.68229Z" fill-rule="nonzero"/><path fill="#000000" d="M182.44637 306.45L181.39949 306.45L181.39949 299.73126Q181.00887 300.09064 180.38387 300.46564Q179.77449 300.825 179.29012 300.9969L179.29012 299.98126Q180.16512 299.5594 180.82137 298.98126Q181.49324 298.3875 181.77449 297.825L182.44637 297.825L182.44637 306.45Z" fill-rule="nonzero"/><path fill="#000000" d="M328.0 304.1844L329.0625 304.04376Q329.23438 304.9344 329.67188 305.34064Q330.10938 305.73126 330.73438 305.73126Q331.48438 305.73126 332.0 305.21564Q332.51562 304.7 332.51562 303.9344Q332.51562 303.21564 332.03125 302.7469Q331.5625 302.2625 330.82812 302.2625Q330.53125 302.2625 330.07812 302.3875L330.20312 301.45Q330.3125 301.46564 330.375 301.46564Q331.04688 301.46564 331.57812 301.1219Q332.125 300.7625 332.125 300.02814Q332.125 299.45 331.73438 299.075Q331.34375 298.6844 330.71875 298.6844Q330.10938 298.6844 329.6875 299.075Q329.28125 299.46564 329.17188 300.23126L328.10938 300.04376Q328.29688 298.9969 328.98438 298.41876Q329.67188 297.825 330.6875 297.825Q331.39062 297.825 331.98438 298.1375Q332.57812 298.4344 332.89062 298.95Q333.20312 299.46564 333.20312 300.0594Q333.20312 300.60626 332.90625 301.075Q332.60938 301.52814 332.03125 301.79376Q332.78125 301.96564 333.20312 302.52814Q333.625 303.075 333.625 303.91876Q333.625 305.04376 332.79688 305.825Q331.98438 306.60626 330.73438 306.60626Q329.60938 306.60626 328.85938 305.9344Q328.10938 305.2469 328.0 304.1844Z" fill-rule="nonzero"/><path fill="#000000" d="M477.5224 304.2L478.63177 304.10626Q478.75677 304.91876 479.19427 305.325Q479.6474 305.73126 480.28802 305.73126Q481.03802 305.73126 481.56927 305.15314Q482.10052 304.575 482.10052 303.6375Q482.10052 302.73126 481.5849 302.21564Q481.0849 301.6844 480.25677 301.6844Q479.75677 301.6844 479.3349 301.91876Q478.92865 302.15314 478.69427 302.5125L477.7099 302.3875L478.53802 297.98126L482.81927 297.98126L482.81927 298.98126L479.38177 298.98126L478.92865 301.29376Q479.69427 300.7469 480.53802 300.7469Q481.66302 300.7469 482.42865 301.52814Q483.2099 302.3094 483.2099 303.54376Q483.2099 304.7 482.53802 305.5594Q481.7099 306.59064 480.28802 306.59064Q479.11615 306.59064 478.36615 305.9344Q477.63177 305.27814 477.5224 304.2Z" fill-rule="nonzero"/><path fill="#000000" d="M194.96875 37.55L200.46875 23.2375L202.51562 23.2375L208.375 37.55L206.21875 37.55L204.54688 33.20625L198.5625 33.20625L196.98438 37.55L194.96875 37.55ZM199.10938 31.675L203.95312 31.675L202.46875 27.70625Q201.78125 25.89375 201.45312 24.7375Q201.17188 26.1125 200.67188 27.471874L199.10938 31.675ZM209.28125 37.55L209.28125 23.2375L211.03125 23.2375L211.03125 37.55L209.28125 37.55ZM213.0 38.409374L214.70312 38.659374Q214.8125 39.45625 215.29688 39.815624Q215.95312 40.3 217.09375 40.3Q218.3125 40.3 218.96875 39.815624Q219.64062 39.33125 219.875 38.45625Q220.01562 37.909374 220.0 36.190624Q218.84375 37.55 217.125 37.55Q214.98438 37.55 213.8125 36.003124Q212.64062 34.45625 212.64062 32.3Q212.64062 30.815624 213.17188 29.565624Q213.71875 28.315624 214.73438 27.628124Q215.76562 26.940624 217.14062 26.940624Q218.96875 26.940624 220.17188 28.425L220.17188 27.175L221.78125 27.175L221.78125 36.14375Q221.78125 38.565624 221.28125 39.565624Q220.79688 40.58125 219.71875 41.159374Q218.65625 41.753124 217.09375 41.753124Q215.25 41.753124 214.09375 40.925Q212.95312 40.096874 213.0 38.409374ZM214.45312 32.175Q214.45312 34.221874 215.26562 35.159374Q216.07812 36.096874 217.29688 36.096874Q218.5 36.096874 219.3125 35.159374Q220.14062 34.221874 220.14062 32.2375Q220.14062 30.33125 219.29688 29.3625Q218.45312 28.39375 217.26562 28.39375Q216.09375 28.39375 215.26562 29.346874Q214.45312 30.3 214.45312 32.175ZM223.67188 32.3625Q223.67188 29.4875 225.26562 28.096874Q226.60938 26.940624 228.53125 26.940624Q230.67188 26.940624 232.01562 28.346874Q233.375 29.753124 233.375 32.221874Q233.375 34.221874 232.78125 35.378124Q232.1875 36.51875 231.03125 37.159374Q229.89062 37.784374 228.53125 37.784374Q226.34375 37.784374 225.0 36.39375Q223.67188 34.9875 223.67188 32.3625ZM225.46875 32.3625Q225.46875 34.3625 226.32812 35.346874Q227.20312 36.33125 228.53125 36.33125Q229.84375 36.33125 230.70312 35.346874Q231.57812 34.346874 231.57812 32.3Q231.57812 30.378124 230.70312 29.39375Q229.82812 28.39375 228.53125 28.39375Q227.20312 28.39375 226.32812 29.39375Q225.46875 30.378124 225.46875 32.3625ZM235.29688 37.55L235.29688 27.175L236.875 27.175L236.875 28.753124Q237.48438 27.64375 238.0 27.3Q238.51562 26.940624 239.125 26.940624Q240.01562 26.940624 240.9375 27.503124L240.32812 29.14375Q239.6875 28.753124 239.04688 28.753124Q238.46875 28.753124 238.0 29.1125Q237.54688 29.45625 237.34375 30.065624Q237.0625 31.003124 237.0625 32.1125L237.0625 37.55L235.29688 37.55ZM242.32812 25.253124L242.32812 23.2375L244.09375 23.2375L244.09375 25.253124L242.32812 25.253124ZM242.32812 37.55L242.32812 27.175L244.09375 27.175L244.09375 37.55L242.32812 37.55ZM250.15625 35.971874L250.40625 37.534374Q249.67188 37.690624 249.07812 37.690624Q248.125 37.690624 247.59375 37.39375Q247.07812 37.08125 246.85938 36.596874Q246.64062 36.096874 246.64062 34.51875L246.64062 28.55L245.35938 28.55L245.35938 27.175L246.64062 27.175L246.64062 24.6125L248.39062 23.55L248.39062 27.175L250.15625 27.175L250.15625 28.55L248.39062 28.55L248.39062 34.6125Q248.39062 35.3625 248.48438 35.58125Q248.57812 35.784374 248.78125 35.925Q249.0 36.05 249.39062 36.05Q249.67188 36.05 250.15625 35.971874ZM252.3125 37.55L252.3125 27.175L253.89062 27.175L253.89062 28.628124Q254.375 27.878124 255.1875 27.409374Q256.0 26.940624 257.03125 26.940624Q258.1875 26.940624 258.92188 27.425Q259.65625 27.89375 259.96875 28.753124Q261.20312 26.940624 263.17188 26.940624Q264.71875 26.940624 265.54688 27.8Q266.375 28.659374 266.375 30.425L266.375 37.55L264.625 37.55L264.625 31.01875Q264.625 29.95625 264.45312 29.503124Q264.28125 29.034374 263.82812 28.753124Q263.39062 28.471874 262.78125 28.471874Q261.6875 28.471874 260.95312 29.20625Q260.23438 29.925 260.23438 31.51875L260.23438 37.55L258.48438 37.55L258.48438 30.815624Q258.48438 29.64375 258.04688 29.065624Q257.625 28.471874 256.64062 28.471874Q255.90625 28.471874 255.26562 28.8625Q254.64062 29.253124 254.35938 30.003124Q254.07812 30.753124 254.07812 32.175L254.07812 37.55L252.3125 37.55ZM267.67188 32.3625Q267.67188 29.4875 269.26562 28.096874Q270.60938 26.940624 272.53125 26.940624Q274.67188 26.940624 276.01562 28.346874Q277.375 29.753124 277.375 32.221874Q277.375 34.221874 276.78125 35.378124Q276.1875 36.51875 275.03125 37.159374Q273.89062 37.784374 272.53125 37.784374Q270.34375 37.784374 269.0 36.39375Q267.67188 34.9875 267.67188 32.3625ZM269.46875 32.3625Q269.46875 34.3625 270.32812 35.346874Q271.20312 36.33125 272.53125 36.33125Q273.84375 36.33125 274.70312 35.346874Q275.57812 34.346874 275.57812 32.3Q275.57812 30.378124 274.70312 29.39375Q273.82812 28.39375 272.53125 28.39375Q271.20312 28.39375 270.32812 29.39375Q269.46875 30.378124 269.46875 32.3625ZM284.90625 32.95625L286.6875 32.8Q286.8125 33.8625 287.26562 34.55Q287.73438 35.2375 288.70312 35.675Q289.6875 36.096874 290.92188 36.096874Q292.0 36.096874 292.82812 35.784374Q293.65625 35.45625 294.0625 34.89375Q294.46875 34.33125 294.46875 33.659374Q294.46875 32.9875 294.07812 32.4875Q293.6875 31.9875 292.79688 31.64375Q292.21875 31.409374 290.23438 30.940624Q288.26562 30.471874 287.48438 30.05Q286.45312 29.51875 285.95312 28.721874Q285.45312 27.925 285.45312 26.940624Q285.45312 25.846874 286.0625 24.909374Q286.67188 23.971874 287.85938 23.4875Q289.04688 22.9875 290.48438 22.9875Q292.07812 22.9875 293.29688 23.503124Q294.51562 24.01875 295.15625 25.01875Q295.8125 26.003124 295.85938 27.26875L294.04688 27.409374Q293.90625 26.05 293.0625 25.3625Q292.21875 24.659374 290.5625 24.659374Q288.84375 24.659374 288.04688 25.3Q287.26562 25.925 287.26562 26.8Q287.26562 27.58125 287.82812 28.08125Q288.375 28.58125 290.6875 29.096874Q293.0 29.6125 293.85938 30.003124Q295.10938 30.58125 295.70312 31.471874Q296.29688 32.346874 296.29688 33.503124Q296.29688 34.64375 295.64062 35.659374Q294.98438 36.675 293.75 37.2375Q292.53125 37.8 291.0 37.8Q289.0625 37.8 287.75 37.2375Q286.4375 36.659374 285.6875 35.51875Q284.9375 34.378124 284.90625 32.95625ZM298.3125 37.55L298.3125 23.2375L300.07812 23.2375L300.07812 28.3625Q301.3125 26.940624 303.1875 26.940624Q304.32812 26.940624 305.17188 27.39375Q306.03125 27.846874 306.39062 28.659374Q306.76562 29.45625 306.76562 30.971874L306.76562 37.55L305.01562 37.55L305.01562 30.971874Q305.01562 29.659374 304.4375 29.065624Q303.85938 28.45625 302.82812 28.45625Q302.04688 28.45625 301.34375 28.8625Q300.65625 29.26875 300.35938 29.971874Q300.07812 30.659374 300.07812 31.878124L300.07812 37.55L298.3125 37.55ZM307.67188 32.3625Q307.67188 29.4875 309.26562 28.096874Q310.60938 26.940624 312.53125 26.940624Q314.67188 26.940624 316.01562 28.346874Q317.375 29.753124 317.375 32.221874Q317.375 34.221874 316.78125 35.378124Q316.1875 36.51875 315.03125 37.159374Q313.89062 37.784374 312.53125 37.784374Q310.34375 37.784374 309.0 36.39375Q307.67188 34.9875 307.67188 32.3625ZM309.46875 32.3625Q309.46875 34.3625 310.32812 35.346874Q311.20312 36.33125 312.53125 36.33125Q313.84375 36.33125 314.70312 35.346874Q315.57812 34.346874 315.57812 32.3Q315.57812 30.378124 314.70312 29.39375Q313.82812 28.39375 312.53125 28.39375Q311.20312 28.39375 310.32812 29.39375Q309.46875 30.378124 309.46875 32.3625ZM319.29688 37.55L319.29688 27.175L320.875 27.175L320.875 28.753124Q321.48438 27.64375 322.0 27.3Q322.51562 26.940624 323.125 26.940624Q324.01562 26.940624 324.9375 27.503124L324.32812 29.14375Q323.6875 28.753124 323.04688 28.753124Q322.46875 28.753124 322.0 29.1125Q321.54688 29.45625 321.34375 30.065624Q321.0625 31.003124 321.0625 32.1125L321.0625 37.55L319.29688 37.55ZM330.15625 35.971874L330.40625 37.534374Q329.67188 37.690624 329.07812 37.690624Q328.125 37.690624 327.59375 37.39375Q327.07812 37.08125 326.85938 36.596874Q326.64062 36.096874 326.64062 34.51875L326.64062 28.55L325.35938 28.55L325.35938 27.175L326.64062 27.175L326.64062 24.6125L328.39062 23.55L328.39062 27.175L330.15625 27.175L330.15625 28.55L328.39062 28.55L328.39062 34.6125Q328.39062 35.3625 328.48438 35.58125Q328.57812 35.784374 328.78125 35.925Q329.0 36.05 329.39062 36.05Q329.67188 36.05 330.15625 35.971874ZM339.42188 34.20625L341.23438 34.440624Q340.8125 36.01875 339.64062 36.909374Q338.48438 37.784374 336.67188 37.784374Q334.40625 37.784374 333.0625 36.39375Q331.73438 34.9875 331.73438 32.45625Q331.73438 29.83125 333.07812 28.39375Q334.42188 26.940624 336.57812 26.940624Q338.65625 26.940624 339.96875 28.3625Q341.29688 29.76875 341.29688 32.346874Q341.29688 32.503124 341.28125 32.815624L333.54688 32.815624Q333.64062 34.51875 334.51562 35.425Q335.39062 36.33125 336.6875 36.33125Q337.65625 36.33125 338.32812 35.83125Q339.01562 35.315624 339.42188 34.20625ZM333.64062 31.3625L339.4375 31.3625Q339.32812 30.065624 338.78125 29.409374Q337.9375 28.39375 336.59375 28.39375Q335.39062 28.39375 334.5625 29.20625Q333.73438 30.003124 333.64062 31.3625ZM342.60938 34.45625L344.35938 34.175Q344.5 35.221874 345.17188 35.784374Q345.84375 36.33125 347.04688 36.33125Q348.25 36.33125 348.82812 35.846874Q349.42188 35.346874 349.42188 34.690624Q349.42188 34.096874 348.90625 33.753124Q348.54688 33.51875 347.10938 33.159374Q345.17188 32.659374 344.42188 32.315624Q343.6875 31.95625 343.29688 31.33125Q342.90625 30.690624 342.90625 29.925Q342.90625 29.2375 343.21875 28.64375Q343.54688 28.05 344.09375 27.659374Q344.5 27.3625 345.20312 27.159374Q345.92188 26.940624 346.73438 26.940624Q347.95312 26.940624 348.875 27.3Q349.79688 27.64375 350.23438 28.253124Q350.67188 28.846874 350.84375 29.846874L349.125 30.08125Q349.0 29.284374 348.4375 28.846874Q347.875 28.39375 346.85938 28.39375Q345.64062 28.39375 345.125 28.8Q344.60938 29.190624 344.60938 29.721874Q344.60938 30.065624 344.82812 30.346874Q345.03125 30.628124 345.5 30.815624Q345.76562 30.909374 347.04688 31.253124Q348.92188 31.753124 349.65625 32.08125Q350.39062 32.39375 350.8125 33.003124Q351.23438 33.596874 351.23438 34.503124Q351.23438 35.378124 350.71875 36.159374Q350.20312 36.940624 349.23438 37.3625Q348.26562 37.784374 347.04688 37.784374Q345.03125 37.784374 343.96875 36.940624Q342.90625 36.096874 342.60938 34.45625ZM357.15625 35.971874L357.40625 37.534374Q356.67188 37.690624 356.07812 37.690624Q355.125 37.690624 354.59375 37.39375Q354.07812 37.08125 353.85938 36.596874Q353.64062 36.096874 353.64062 34.51875L353.64062 28.55L352.35938 28.55L352.35938 27.175L353.64062 27.175L353.64062 24.6125L355.39062 23.55L355.39062 27.175L357.15625 27.175L357.15625 28.55L355.39062 28.55L355.39062 34.6125Q355.39062 35.3625 355.48438 35.58125Q355.57812 35.784374 355.78125 35.925Q356.0 36.05 356.39062 36.05Q356.67188 36.05 357.15625 35.971874ZM358.64062 33.253124L358.64062 31.4875L364.03125 31.4875L364.03125 33.253124L358.64062 33.253124ZM366.54688 37.55L366.54688 23.2375L371.9375 23.2375Q373.375 23.2375 374.125 23.3625Q375.17188 23.55 375.89062 24.05Q376.60938 24.534374 377.03125 25.425Q377.46875 26.315624 377.46875 27.378124Q377.46875 29.20625 376.29688 30.471874Q375.14062 31.721874 372.10938 31.721874L368.4375 31.721874L368.4375 37.55L366.54688 37.55ZM368.4375 30.034374L372.14062 30.034374Q373.96875 30.034374 374.73438 29.3625Q375.51562 28.675 375.51562 27.425Q375.51562 26.534374 375.0625 25.89375Q374.60938 25.253124 373.875 25.05Q373.39062 24.925 372.09375 24.925L368.4375 24.925L368.4375 30.034374ZM386.09375 36.26875Q385.10938 37.096874 384.20312 37.440624Q383.29688 37.784374 382.26562 37.784374Q380.5625 37.784374 379.64062 36.95625Q378.71875 36.1125 378.71875 34.815624Q378.71875 34.05 379.0625 33.425Q379.42188 32.8 379.98438 32.425Q380.54688 32.034374 381.25 31.83125Q381.76562 31.70625 382.8125 31.565624Q384.9375 31.315624 385.9375 30.971874Q385.95312 30.6125 385.95312 30.503124Q385.95312 29.440624 385.45312 28.9875Q384.78125 28.39375 383.45312 28.39375Q382.20312 28.39375 381.60938 28.83125Q381.03125 29.26875 380.75 30.378124L379.03125 30.14375Q379.26562 29.034374 379.79688 28.3625Q380.32812 27.675 381.34375 27.315624Q382.35938 26.940624 383.70312 26.940624Q385.03125 26.940624 385.85938 27.253124Q386.6875 27.565624 387.07812 28.05Q387.46875 28.51875 387.625 29.2375Q387.71875 29.690624 387.71875 30.8625L387.71875 33.20625Q387.71875 35.659374 387.82812 36.315624Q387.9375 36.95625 388.28125 37.55L386.4375 37.55Q386.17188 37.003124 386.09375 36.26875ZM385.9375 32.346874Q384.98438 32.7375 383.0625 33.003124Q381.98438 33.159374 381.53125 33.3625Q381.09375 33.55 380.84375 33.925Q380.59375 34.3 380.59375 34.76875Q380.59375 35.471874 381.125 35.940624Q381.65625 36.409374 382.6875 36.409374Q383.70312 36.409374 384.48438 35.971874Q385.28125 35.51875 385.65625 34.753124Q385.9375 34.14375 385.9375 32.9875L385.9375 32.346874ZM394.15625 35.971874L394.40625 37.534374Q393.67188 37.690624 393.07812 37.690624Q392.125 37.690624 391.59375 37.39375Q391.07812 37.08125 390.85938 36.596874Q390.64062 36.096874 390.64062 34.51875L390.64062 28.55L389.35938 28.55L389.35938 27.175L390.64062 27.175L390.64062 24.6125L392.39062 23.55L392.39062 27.175L394.15625 27.175L394.15625 28.55L392.39062 28.55L392.39062 34.6125Q392.39062 35.3625 392.48438 35.58125Q392.57812 35.784374 392.78125 35.925Q393.0 36.05 393.39062 36.05Q393.67188 36.05 394.15625 35.971874ZM396.3125 37.55L396.3125 23.2375L398.07812 23.2375L398.07812 28.3625Q399.3125 26.940624 401.1875 26.940624Q402.32812 26.940624 403.17188 27.39375Q404.03125 27.846874 404.39062 28.659374Q404.76562 29.45625 404.76562 30.971874L404.76562 37.55L403.01562 37.55L403.01562 30.971874Q403.01562 29.659374 402.4375 29.065624Q401.85938 28.45625 400.82812 28.45625Q400.04688 28.45625 399.34375 28.8625Q398.65625 29.26875 398.35938 29.971874Q398.07812 30.659374 398.07812 31.878124L398.07812 37.55L396.3125 37.55Z" fill-rule="nonzero"/></svg>